<svg xmlns="http://www.w3.org/2000/svg" viewBox="0 0 1826 1230" preserveAspectRatio="xMidYMid meet" version="1.1">
        <rect id="Rectangle" stroke="#979797" fill-opacity="0" fill="#D8D8D8" x="0.5" y="0.5" width="1825" height="1229" />
        <line x1="163.420599" y1="627.0" x2="184.186652" y2="643.764839" stroke="#1F00FF" stroke-width="1" /><line x1="184.186652" y1="643.764839" x2="244.472321" y2="627.0" stroke="#1F00FF" stroke-width="1" /><line x1="244.472321" y1="627.0" x2="308.911201" y2="566.050645" stroke="#1F00FF" stroke-width="1" /><line x1="308.911201" y1="569.50001" x2="313.246496" y2="595.660094" stroke="#1F00FF" stroke-width="1" /><line x1="313.246496" y1="595.660094" x2="386.447766" y2="620.505129" stroke="#1F00FF" stroke-width="1" /><line x1="386.447766" y1="620.505129" x2="492.184761" y2="620.505129" stroke="#1F00FF" stroke-width="1" /><line x1="492.184761" y1="620.505129" x2="549.795654" y2="601.81969" stroke="#1F00FF" stroke-width="1" /><line x1="549.795654" y1="601.81969" x2="574.410555" y2="632.711603" stroke="#1F00FF" stroke-width="1" /><line x1="574.410555" y1="632.711603" x2="588.563771" y2="637.473959" stroke="#1F00FF" stroke-width="1" /><line x1="588.563771" y1="637.473959" x2="569.298302" y2="655.109707" stroke="#1F00FF" stroke-width="1" /><line x1="569.298302" y1="655.109707" x2="500.629255" y2="770.815244" stroke="#1F00FF" stroke-width="1" /><line x1="500.629255" y1="770.815244" x2="456.986062" y2="879.68957" stroke="#1F00FF" stroke-width="1" /><line x1="456.986062" y1="879.68957" x2="436.499475" y2="904.863367" stroke="#1F00FF" stroke-width="1" /><line x1="436.499475" y1="904.863367" x2="412.781625" y2="910.475809" stroke="#1F00FF" stroke-width="1" /><line x1="569.298302" y1="655.109707" x2="619.493257" y2="671.794393" stroke="#1F00FF" stroke-width="1" /><line x1="619.493257" y1="671.794393" x2="657.033213" y2="643.764839" stroke="#1F00FF" stroke-width="1" /><line x1="657.033213" y1="643.764839" x2="693.673769" y2="627.0" stroke="#1F00FF" stroke-width="1" /><line x1="693.673769" y1="627.0" x2="705.260474" y2="610.071785" stroke="#1F00FF" stroke-width="1" /><line x1="705.260474" y1="610.071785" x2="711.252354" y2="627.600524" stroke="#1F00FF" stroke-width="1" /><line x1="711.252354" y1="627.600524" x2="734.87238" y2="620.995924" stroke="#1F00FF" stroke-width="1" /><line x1="734.87238" y1="620.995924" x2="729.776564" y2="658.655643" stroke="#1F00FF" stroke-width="1" /><line x1="729.776564" y1="658.655643" x2="777.627914" y2="671.794393" stroke="#1F00FF" stroke-width="1" /><line x1="777.627914" y1="671.794393" x2="877.414311" y2="636.515852" stroke="#1F00FF" stroke-width="1" /><line x1="877.414311" y1="636.515852" x2="952.306359" y2="743.906051" stroke="#1F00FF" stroke-width="1" /><line x1="952.306359" y1="743.906051" x2="976.240253" y2="756.067907" stroke="#1F00FF" stroke-width="1" /><line x1="976.240253" y1="756.067907" x2="1016.206" y2="821.721735" stroke="#1F00FF" stroke-width="1" /><line x1="1016.206" y1="821.721735" x2="1070.73358" y2="848.250502" stroke="#1F00FF" stroke-width="1" /><line x1="877.414311" y1="636.515852" x2="781.502612" y2="630.217706" stroke="#1F00FF" stroke-width="1" /><line x1="781.502612" y1="630.217706" x2="804.189558" y2="596.733268" stroke="#1F00FF" stroke-width="1" /><line x1="804.189558" y1="596.733268" x2="804.189558" y2="569.50001" stroke="#1F00FF" stroke-width="1" /><line x1="804.189558" y1="569.50001" x2="844.051985" y2="546.827154" stroke="#1F00FF" stroke-width="1" /><line x1="844.051985" y1="546.827154" x2="863.723711" y2="551.634128" stroke="#1F00FF" stroke-width="1" /><line x1="863.723711" y1="551.634128" x2="877.414311" y2="591.671503" stroke="#1F00FF" stroke-width="1" /><line x1="877.414311" y1="591.671503" x2="938.827105" y2="643.764839" stroke="#1F00FF" stroke-width="1" /><line x1="938.827105" y1="643.764839" x2="972.126028" y2="665.334214" stroke="#1F00FF" stroke-width="1" /><line x1="972.126028" y1="665.334214" x2="1021.76209" y2="700.704339" stroke="#1F00FF" stroke-width="1" /><line x1="1021.76209" y1="700.704339" x2="1040.11407" y2="643.764839" stroke="#1F00FF" stroke-width="1" /><line x1="1040.11407" y1="643.764839" x2="1034.55798" y2="575.739448" stroke="#1F00FF" stroke-width="1" /><line x1="1034.55798" y1="575.739448" x2="1028.30211" y2="540.651119" stroke="#1F00FF" stroke-width="1" /><line x1="1028.30211" y1="540.651119" x2="1013.55242" y2="518.877663" stroke="#1F00FF" stroke-width="1" /><line x1="1013.55242" y1="518.877663" x2="994.967961" y2="512.603" stroke="#1F00FF" stroke-width="1" /><line x1="994.967961" y1="512.603" x2="964.207553" y2="489.664786" stroke="#1F00FF" stroke-width="1" /><line x1="964.207553" y1="489.664786" x2="927.071506" y2="477.303325" stroke="#1F00FF" stroke-width="1" /><line x1="927.071506" y1="477.303325" x2="887.089316" y2="489.664786" stroke="#1F00FF" stroke-width="1" /><line x1="887.089316" y1="489.664786" x2="872.109497" y2="502.188281" stroke="#1F00FF" stroke-width="1" /><line x1="872.109497" y1="502.188281" x2="872.109497" y2="518.877663" stroke="#1F00FF" stroke-width="1" /><line x1="872.109497" y1="518.877663" x2="829.80014" y2="486.428826" stroke="#1F00FF" stroke-width="1" /><line x1="829.80014" y1="486.428826" x2="784.893561" y2="477.303325" stroke="#1F00FF" stroke-width="1" /><line x1="784.893561" y1="477.303325" x2="753.980513" y2="477.303325" stroke="#1F00FF" stroke-width="1" /><line x1="753.980513" y1="477.303325" x2="731.439162" y2="486.428826" stroke="#1F00FF" stroke-width="1" /><line x1="731.439162" y1="486.428826" x2="670.754342" y2="512.603" stroke="#1F00FF" stroke-width="1" /><line x1="670.754342" y1="512.603" x2="637.875765" y2="546.827154" stroke="#1F00FF" stroke-width="1" /><line x1="637.875765" y1="546.827154" x2="630.011302" y2="569.50001" stroke="#1F00FF" stroke-width="1" /><line x1="630.011302" y1="569.50001" x2="623.320989" y2="546.827154" stroke="#1F00FF" stroke-width="1" /><line x1="623.320989" y1="546.827154" x2="618.462353" y2="531.513876" stroke="#1F00FF" stroke-width="1" /><line x1="618.462353" y1="531.513876" x2="602.721926" y2="535.956482" stroke="#1F00FF" stroke-width="1" /><line x1="602.721926" y1="535.956482" x2="606.788943" y2="518.877663" stroke="#1F00FF" stroke-width="1" /><line x1="606.788943" y1="518.877663" x2="553.505971" y2="466.484697" stroke="#1F00FF" stroke-width="1" /><line x1="553.505971" y1="466.484697" x2="522.959258" y2="450.617221" stroke="#1F00FF" stroke-width="1" /><line x1="522.959258" y1="450.617221" x2="499.868405" y2="445.105756" stroke="#1F00FF" stroke-width="1" /><line x1="499.868405" y1="445.105756" x2="465.691217" y2="445.105756" stroke="#1F00FF" stroke-width="1" /><line x1="465.691217" y1="445.105756" x2="448.737486" y2="450.617221" stroke="#1F00FF" stroke-width="1" /><line x1="448.737486" y1="450.617221" x2="425.530556" y2="450.617221" stroke="#1F00FF" stroke-width="1" /><line x1="425.530556" y1="450.617221" x2="375.692543" y2="473.508468" stroke="#1F00FF" stroke-width="1" /><line x1="375.692543" y1="473.508468" x2="356.9437" y2="489.664786" stroke="#1F00FF" stroke-width="1" /><line x1="356.9437" y1="489.664786" x2="333.019199" y2="507.953362" stroke="#1F00FF" stroke-width="1" /><line x1="333.019199" y1="507.953362" x2="311.95493" y2="540.651119" stroke="#1F00FF" stroke-width="1" /><line x1="311.95493" y1="540.651119" x2="308.911201" y2="569.50001" stroke="#1F00FF" stroke-width="1" /><line x1="386.447766" y1="620.505129" x2="352.972721" y2="748.419488" stroke="#1F00FF" stroke-width="1" /><line x1="352.972721" y1="748.419488" x2="329.433342" y2="782.563799" stroke="#1F00FF" stroke-width="1" /><line x1="329.433342" y1="782.563799" x2="295.143436" y2="809.186499" stroke="#1F00FF" stroke-width="1" /><line x1="295.143436" y1="809.186499" x2="272.703062" y2="809.186499" stroke="#1F00FF" stroke-width="1" /><line x1="386.447766" y1="620.505129" x2="508.970423" y2="434.275387" stroke="#1F00FF" stroke-width="1" /><line x1="508.970423" y1="434.275387" x2="599.668892" y2="608.052084" stroke="#1F00FF" stroke-width="1" /><line x1="973.645379" y1="546.352797" x2="986.997824" y2="566.050645" stroke="#1F00FF" stroke-width="1" /><line x1="986.997824" y1="566.050645" x2="980.321602" y2="579.186755" stroke="#1F00FF" stroke-width="1" /><line x1="980.321602" y1="579.186755" x2="966.086195" y2="572.905047" stroke="#1F00FF" stroke-width="1" /><line x1="966.086195" y1="572.905047" x2="950.143573" y2="550.631403" stroke="#1F00FF" stroke-width="1" /><line x1="950.143573" y1="550.631403" x2="973.645379" y2="546.352797" stroke="#1F00FF" stroke-width="1" /><line x1="1028.30211" y1="540.651119" x2="1076.03604" y2="530.807037" stroke="#1F00FF" stroke-width="1" /><line x1="1076.03604" y1="530.807037" x2="1147.20603" y2="566.050645" stroke="#1F00FF" stroke-width="1" /><line x1="1147.20603" y1="566.050645" x2="1288.40943" y2="643.764839" stroke="#1F00FF" stroke-width="1" /><line x1="1288.40943" y1="643.764839" x2="1299.94194" y2="671.284812" stroke="#1F00FF" stroke-width="1" /><line x1="1033.24528" y1="569.50001" x2="1075.40435" y2="583.406654" stroke="#1F00FF" stroke-width="1" /><line x1="1075.40435" y1="583.406654" x2="1114.6844" y2="647.933297" stroke="#1F00FF" stroke-width="1" /><line x1="1114.6844" y1="647.933297" x2="1231.14609" y2="736.412619" stroke="#1F00FF" stroke-width="1" /><line x1="1231.14609" y1="736.412619" x2="1281.32695" y2="796.653611" stroke="#1F00FF" stroke-width="1" /><line x1="1281.32695" y1="796.653611" x2="1281.32695" y2="829.494614" stroke="#1F00FF" stroke-width="1" /><line x1="731.681271" y1="486.118738" x2="744.287174" y2="462.053563" stroke="#1F00FF" stroke-width="1" /><line x1="744.287174" y1="462.053563" x2="760.203113" y2="477.60846" stroke="#1F00FF" stroke-width="1" /><line x1="812.5" y1="564.5" x2="823.5" y2="632.5" id="Path-8" stroke="#1F00FF" />
        <line x1="829.899282" y1="653.775513" x2="829.899282" y2="679.643749" stroke="#1F00FF" stroke-width="1" /><line x1="829.899282" y1="679.643749" x2="840.178236" y2="699.497312" stroke="#1F00FF" stroke-width="1" /><line x1="840.178236" y1="699.497312" x2="856.281144" y2="695.654247" stroke="#1F00FF" stroke-width="1" /><line x1="666.465331" y1="639.479167" x2="683.47153" y2="685.447101" stroke="#1F00F7" stroke-width="1" /><line x1="683.47153" y1="685.447101" x2="701.07723" y2="699.497312" stroke="#1F00F7" stroke-width="1" /><line x1="701.07723" y1="699.497312" x2="719.993344" y2="692.240562" stroke="#1F00F7" stroke-width="1" />
<line x1="966.086195" y1="572.905047" x2="950.143573" y2="550.631403" stroke="#1F00FF" stroke-width="1" /><line x1="1021.76209" y1="700.704339" x2="1040.11407" y2="643.764839" stroke="#1F00FF" stroke-width="1" /><line x1="952.306359" y1="743.906051" x2="976.240253" y2="756.067907" stroke="#1F00FF" stroke-width="1" /><line x1="701.07723" y1="699.497312" x2="719.993344" y2="692.240562" stroke="#1F00F7" stroke-width="1" /><line x1="623.320989" y1="546.827154" x2="618.462353" y2="531.513876" stroke="#1F00FF" stroke-width="1" /><line x1="244.472321" y1="627.0" x2="308.911201" y2="566.050645" stroke="#1F00FF" stroke-width="1" /><line x1="448.737486" y1="450.617221" x2="425.530556" y2="450.617221" stroke="#1F00FF" stroke-width="1" /><line x1="872.109497" y1="502.188281" x2="872.109497" y2="518.877663" stroke="#1F00FF" stroke-width="1" /><line x1="1076.03604" y1="530.807037" x2="1147.20603" y2="566.050645" stroke="#1F00FF" stroke-width="1" /><line x1="508.970423" y1="434.275387" x2="599.668892" y2="608.052084" stroke="#1F00FF" stroke-width="1" /><line x1="465.691217" y1="445.105756" x2="448.737486" y2="450.617221" stroke="#1F00FF" stroke-width="1" /><line x1="705.260474" y1="610.071785" x2="711.252354" y2="627.600524" stroke="#1F00FF" stroke-width="1" /><line x1="744.287174" y1="462.053563" x2="760.203113" y2="477.60846" stroke="#1F00FF" stroke-width="1" /><line x1="657.033213" y1="643.764839" x2="693.673769" y2="627.0" stroke="#1F00FF" stroke-width="1" /><line x1="623.320989" y1="546.827154" x2="618.462353" y2="531.513876" stroke="#1F00FF" stroke-width="1" /><line x1="1147.20603" y1="566.050645" x2="1288.40943" y2="643.764839" stroke="#1F00FF" stroke-width="1" /><line x1="329.433342" y1="782.563799" x2="295.143436" y2="809.186499" stroke="#1F00FF" stroke-width="1" /><line x1="693.673769" y1="627.0" x2="705.260474" y2="610.071785" stroke="#1F00FF" stroke-width="1" /><line x1="938.827105" y1="643.764839" x2="972.126028" y2="665.334214" stroke="#1F00FF" stroke-width="1" /><line x1="1281.32695" y1="796.653611" x2="1281.32695" y2="829.494614" stroke="#1F00FF" stroke-width="1" /><line x1="492.184761" y1="620.505129" x2="549.795654" y2="601.81969" stroke="#1F00FF" stroke-width="1" /><line x1="606.788943" y1="518.877663" x2="553.505971" y2="466.484697" stroke="#1F00FF" stroke-width="1" /><line x1="829.899282" y1="679.643749" x2="840.178236" y2="699.497312" stroke="#1F00FF" stroke-width="1" /><line x1="705.260474" y1="610.071785" x2="711.252354" y2="627.600524" stroke="#1F00FF" stroke-width="1" /><line x1="456.986062" y1="879.68957" x2="436.499475" y2="904.863367" stroke="#1F00FF" stroke-width="1" /><line x1="683.47153" y1="685.447101" x2="701.07723" y2="699.497312" stroke="#1F00F7" stroke-width="1" /><line x1="731.681271" y1="486.118738" x2="744.287174" y2="462.053563" stroke="#1F00FF" stroke-width="1" /><line x1="872.109497" y1="518.877663" x2="829.80014" y2="486.428826" stroke="#1F00FF" stroke-width="1" /><line x1="448.737486" y1="450.617221" x2="425.530556" y2="450.617221" stroke="#1F00FF" stroke-width="1" /><line x1="693.673769" y1="627.0" x2="705.260474" y2="610.071785" stroke="#1F00FF" stroke-width="1" /><line x1="569.298302" y1="655.109707" x2="619.493257" y2="671.794393" stroke="#1F00FF" stroke-width="1" /><line x1="1034.55798" y1="575.739448" x2="1028.30211" y2="540.651119" stroke="#1F00FF" stroke-width="1" /><line x1="744.287174" y1="462.053563" x2="760.203113" y2="477.60846" stroke="#1F00FF" stroke-width="1" /><line x1="1028.30211" y1="540.651119" x2="1013.55242" y2="518.877663" stroke="#1F00FF" stroke-width="1" /><line x1="574.410555" y1="632.711603" x2="588.563771" y2="637.473959" stroke="#1F00FF" stroke-width="1" /><line x1="781.502612" y1="630.217706" x2="804.189558" y2="596.733268" stroke="#1F00FF" stroke-width="1" /><line x1="872.109497" y1="518.877663" x2="829.80014" y2="486.428826" stroke="#1F00FF" stroke-width="1" /><line x1="877.414311" y1="636.515852" x2="952.306359" y2="743.906051" stroke="#1F00FF" stroke-width="1" /><line x1="1028.30211" y1="540.651119" x2="1076.03604" y2="530.807037" stroke="#1F00FF" stroke-width="1" /><line x1="829.899282" y1="679.643749" x2="840.178236" y2="699.497312" stroke="#1F00FF" stroke-width="1" /><line x1="844.051985" y1="546.827154" x2="863.723711" y2="551.634128" stroke="#1F00FF" stroke-width="1" /><line x1="781.502612" y1="630.217706" x2="804.189558" y2="596.733268" stroke="#1F00FF" stroke-width="1" /><line x1="666.465331" y1="639.479167" x2="683.47153" y2="685.447101" stroke="#1F00F7" stroke-width="1" /><line x1="352.972721" y1="748.419488" x2="329.433342" y2="782.563799" stroke="#1F00FF" stroke-width="1" /><line x1="966.086195" y1="572.905047" x2="950.143573" y2="550.631403" stroke="#1F00FF" stroke-width="1" /><line x1="693.673769" y1="627.0" x2="705.260474" y2="610.071785" stroke="#1F00FF" stroke-width="1" /><line x1="829.899282" y1="679.643749" x2="840.178236" y2="699.497312" stroke="#1F00FF" stroke-width="1" /><line x1="522.959258" y1="450.617221" x2="499.868405" y2="445.105756" stroke="#1F00FF" stroke-width="1" /><line x1="938.827105" y1="643.764839" x2="972.126028" y2="665.334214" stroke="#1F00FF" stroke-width="1" /><line x1="619.493257" y1="671.794393" x2="657.033213" y2="643.764839" stroke="#1F00FF" stroke-width="1" /><line x1="448.737486" y1="450.617221" x2="425.530556" y2="450.617221" stroke="#1F00FF" stroke-width="1" /><line x1="356.9437" y1="489.664786" x2="333.019199" y2="507.953362" stroke="#1F00FF" stroke-width="1" /><line x1="1040.11407" y1="643.764839" x2="1034.55798" y2="575.739448" stroke="#1F00FF" stroke-width="1" /><line x1="1076.03604" y1="530.807037" x2="1147.20603" y2="566.050645" stroke="#1F00FF" stroke-width="1" /><line x1="966.086195" y1="572.905047" x2="950.143573" y2="550.631403" stroke="#1F00FF" stroke-width="1" /><line x1="308.911201" y1="569.50001" x2="313.246496" y2="595.660094" stroke="#1F00FF" stroke-width="1" /><line x1="693.673769" y1="627.0" x2="705.260474" y2="610.071785" stroke="#1F00FF" stroke-width="1" /><line x1="927.071506" y1="477.303325" x2="887.089316" y2="489.664786" stroke="#1F00FF" stroke-width="1" /><line x1="1076.03604" y1="530.807037" x2="1147.20603" y2="566.050645" stroke="#1F00FF" stroke-width="1" /><line x1="1028.30211" y1="540.651119" x2="1013.55242" y2="518.877663" stroke="#1F00FF" stroke-width="1" /><line x1="701.07723" y1="699.497312" x2="719.993344" y2="692.240562" stroke="#1F00F7" stroke-width="1" /><line x1="553.505971" y1="466.484697" x2="522.959258" y2="450.617221" stroke="#1F00FF" stroke-width="1" /><line x1="973.645379" y1="546.352797" x2="986.997824" y2="566.050645" stroke="#1F00FF" stroke-width="1" /><line x1="499.868405" y1="445.105756" x2="465.691217" y2="445.105756" stroke="#1F00FF" stroke-width="1" /><line x1="1028.30211" y1="540.651119" x2="1076.03604" y2="530.807037" stroke="#1F00FF" stroke-width="1" /><line x1="352.972721" y1="748.419488" x2="329.433342" y2="782.563799" stroke="#1F00FF" stroke-width="1" /><line x1="863.723711" y1="551.634128" x2="877.414311" y2="591.671503" stroke="#1F00FF" stroke-width="1" /><line x1="812.5" y1="564.5" x2="823.5" y2="632.5" id="Path-8" stroke="#1F00FF" /><line x1="777.627914" y1="671.794393" x2="877.414311" y2="636.515852" stroke="#1F00FF" stroke-width="1" /><line x1="244.472321" y1="627.0" x2="308.911201" y2="566.050645" stroke="#1F00FF" stroke-width="1" /><line x1="683.47153" y1="685.447101" x2="701.07723" y2="699.497312" stroke="#1F00F7" stroke-width="1" /><line x1="844.051985" y1="546.827154" x2="863.723711" y2="551.634128" stroke="#1F00FF" stroke-width="1" /><line x1="872.109497" y1="518.877663" x2="829.80014" y2="486.428826" stroke="#1F00FF" stroke-width="1" /><line x1="295.143436" y1="809.186499" x2="272.703062" y2="809.186499" stroke="#1F00FF" stroke-width="1" /><line x1="352.972721" y1="748.419488" x2="329.433342" y2="782.563799" stroke="#1F00FF" stroke-width="1" /><line x1="927.071506" y1="477.303325" x2="887.089316" y2="489.664786" stroke="#1F00FF" stroke-width="1" /><line x1="313.246496" y1="595.660094" x2="386.447766" y2="620.505129" stroke="#1F00FF" stroke-width="1" /><line x1="308.911201" y1="569.50001" x2="313.246496" y2="595.660094" stroke="#1F00FF" stroke-width="1" /><line x1="784.893561" y1="477.303325" x2="753.980513" y2="477.303325" stroke="#1F00FF" stroke-width="1" /><line x1="657.033213" y1="643.764839" x2="693.673769" y2="627.0" stroke="#1F00FF" stroke-width="1" /><line x1="1075.40435" y1="583.406654" x2="1114.6844" y2="647.933297" stroke="#1F00FF" stroke-width="1" /><line x1="308.911201" y1="569.50001" x2="313.246496" y2="595.660094" stroke="#1F00FF" stroke-width="1" /><line x1="972.126028" y1="665.334214" x2="1021.76209" y2="700.704339" stroke="#1F00FF" stroke-width="1" /><line x1="683.47153" y1="685.447101" x2="701.07723" y2="699.497312" stroke="#1F00F7" stroke-width="1" /><line x1="973.645379" y1="546.352797" x2="986.997824" y2="566.050645" stroke="#1F00FF" stroke-width="1" /><line x1="184.186652" y1="643.764839" x2="244.472321" y2="627.0" stroke="#1F00FF" stroke-width="1" /><line x1="244.472321" y1="627.0" x2="308.911201" y2="566.050645" stroke="#1F00FF" stroke-width="1" /><line x1="964.207553" y1="489.664786" x2="927.071506" y2="477.303325" stroke="#1F00FF" stroke-width="1" /><line x1="976.240253" y1="756.067907" x2="1016.206" y2="821.721735" stroke="#1F00FF" stroke-width="1" /><line x1="436.499475" y1="904.863367" x2="412.781625" y2="910.475809" stroke="#1F00FF" stroke-width="1" /><line x1="448.737486" y1="450.617221" x2="425.530556" y2="450.617221" stroke="#1F00FF" stroke-width="1" /><line x1="606.788943" y1="518.877663" x2="553.505971" y2="466.484697" stroke="#1F00FF" stroke-width="1" /><line x1="844.051985" y1="546.827154" x2="863.723711" y2="551.634128" stroke="#1F00FF" stroke-width="1" /><line x1="606.788943" y1="518.877663" x2="553.505971" y2="466.484697" stroke="#1F00FF" stroke-width="1" /><line x1="863.723711" y1="551.634128" x2="877.414311" y2="591.671503" stroke="#1F00FF" stroke-width="1" /><line x1="1016.206" y1="821.721735" x2="1070.73358" y2="848.250502" stroke="#1F00FF" stroke-width="1" /><line x1="386.447766" y1="620.505129" x2="352.972721" y2="748.419488" stroke="#1F00FF" stroke-width="1" /><line x1="308.911201" y1="569.50001" x2="313.246496" y2="595.660094" stroke="#1F00FF" stroke-width="1" /><line x1="804.189558" y1="569.50001" x2="844.051985" y2="546.827154" stroke="#1F00FF" stroke-width="1" /><line x1="1075.40435" y1="583.406654" x2="1114.6844" y2="647.933297" stroke="#1F00FF" stroke-width="1" /><line x1="333.019199" y1="507.953362" x2="311.95493" y2="540.651119" stroke="#1F00FF" stroke-width="1" /><line x1="574.410555" y1="632.711603" x2="588.563771" y2="637.473959" stroke="#1F00FF" stroke-width="1" /><line x1="1114.6844" y1="647.933297" x2="1231.14609" y2="736.412619" stroke="#1F00FF" stroke-width="1" /><line x1="872.109497" y1="502.188281" x2="872.109497" y2="518.877663" stroke="#1F00FF" stroke-width="1" /><line x1="887.089316" y1="489.664786" x2="872.109497" y2="502.188281" stroke="#1F00FF" stroke-width="1" /><line x1="386.447766" y1="620.505129" x2="508.970423" y2="434.275387" stroke="#1F00FF" stroke-width="1" /><line x1="1034.55798" y1="575.739448" x2="1028.30211" y2="540.651119" stroke="#1F00FF" stroke-width="1" /><line x1="569.298302" y1="655.109707" x2="500.629255" y2="770.815244" stroke="#1F00FF" stroke-width="1" /><line x1="549.795654" y1="601.81969" x2="574.410555" y2="632.711603" stroke="#1F00FF" stroke-width="1" /><line x1="952.306359" y1="743.906051" x2="976.240253" y2="756.067907" stroke="#1F00FF" stroke-width="1" /><line x1="1013.55242" y1="518.877663" x2="994.967961" y2="512.603" stroke="#1F00FF" stroke-width="1" /><line x1="163.420599" y1="627.0" x2="184.186652" y2="643.764839" stroke="#1F00FF" stroke-width="1" /><line x1="630.011302" y1="569.50001" x2="623.320989" y2="546.827154" stroke="#1F00FF" stroke-width="1" /><line x1="872.109497" y1="502.188281" x2="872.109497" y2="518.877663" stroke="#1F00FF" stroke-width="1" /><line x1="829.899282" y1="653.775513" x2="829.899282" y2="679.643749" stroke="#1F00FF" stroke-width="1" /><line x1="872.109497" y1="502.188281" x2="872.109497" y2="518.877663" stroke="#1F00FF" stroke-width="1" /><line x1="1040.11407" y1="643.764839" x2="1034.55798" y2="575.739448" stroke="#1F00FF" stroke-width="1" /><line x1="574.410555" y1="632.711603" x2="588.563771" y2="637.473959" stroke="#1F00FF" stroke-width="1" /><line x1="1033.24528" y1="569.50001" x2="1075.40435" y2="583.406654" stroke="#1F00FF" stroke-width="1" /><line x1="448.737486" y1="450.617221" x2="425.530556" y2="450.617221" stroke="#1F00FF" stroke-width="1" /><line x1="618.462353" y1="531.513876" x2="602.721926" y2="535.956482" stroke="#1F00FF" stroke-width="1" /><line x1="1147.20603" y1="566.050645" x2="1288.40943" y2="643.764839" stroke="#1F00FF" stroke-width="1" /><line x1="877.414311" y1="591.671503" x2="938.827105" y2="643.764839" stroke="#1F00FF" stroke-width="1" /><line x1="844.051985" y1="546.827154" x2="863.723711" y2="551.634128" stroke="#1F00FF" stroke-width="1" /><line x1="1288.40943" y1="643.764839" x2="1299.94194" y2="671.284812" stroke="#1F00FF" stroke-width="1" /><line x1="693.673769" y1="627.0" x2="705.260474" y2="610.071785" stroke="#1F00FF" stroke-width="1" /><line x1="311.95493" y1="540.651119" x2="308.911201" y2="569.50001" stroke="#1F00FF" stroke-width="1" /><line x1="311.95493" y1="540.651119" x2="308.911201" y2="569.50001" stroke="#1F00FF" stroke-width="1" /><line x1="329.433342" y1="782.563799" x2="295.143436" y2="809.186499" stroke="#1F00FF" stroke-width="1" /><line x1="701.07723" y1="699.497312" x2="719.993344" y2="692.240562" stroke="#1F00F7" stroke-width="1" /><line x1="1288.40943" y1="643.764839" x2="1299.94194" y2="671.284812" stroke="#1F00FF" stroke-width="1" /><line x1="1231.14609" y1="736.412619" x2="1281.32695" y2="796.653611" stroke="#1F00FF" stroke-width="1" /><line x1="927.071506" y1="477.303325" x2="887.089316" y2="489.664786" stroke="#1F00FF" stroke-width="1" /><line x1="844.051985" y1="546.827154" x2="863.723711" y2="551.634128" stroke="#1F00FF" stroke-width="1" /><line x1="425.530556" y1="450.617221" x2="375.692543" y2="473.508468" stroke="#1F00FF" stroke-width="1" /><line x1="313.246496" y1="595.660094" x2="386.447766" y2="620.505129" stroke="#1F00FF" stroke-width="1" /><line x1="1034.55798" y1="575.739448" x2="1028.30211" y2="540.651119" stroke="#1F00FF" stroke-width="1" /><line x1="163.420599" y1="627.0" x2="184.186652" y2="643.764839" stroke="#1F00FF" stroke-width="1" /><line x1="701.07723" y1="699.497312" x2="719.993344" y2="692.240562" stroke="#1F00F7" stroke-width="1" /><line x1="701.07723" y1="699.497312" x2="719.993344" y2="692.240562" stroke="#1F00F7" stroke-width="1" /><line x1="637.875765" y1="546.827154" x2="630.011302" y2="569.50001" stroke="#1F00FF" stroke-width="1" /><line x1="549.795654" y1="601.81969" x2="574.410555" y2="632.711603" stroke="#1F00FF" stroke-width="1" /><line x1="670.754342" y1="512.603" x2="637.875765" y2="546.827154" stroke="#1F00FF" stroke-width="1" /><line x1="777.627914" y1="671.794393" x2="877.414311" y2="636.515852" stroke="#1F00FF" stroke-width="1" /><line x1="701.07723" y1="699.497312" x2="719.993344" y2="692.240562" stroke="#1F00F7" stroke-width="1" /><line x1="972.126028" y1="665.334214" x2="1021.76209" y2="700.704339" stroke="#1F00FF" stroke-width="1" /><line x1="994.967961" y1="512.603" x2="964.207553" y2="489.664786" stroke="#1F00FF" stroke-width="1" /><line x1="1034.55798" y1="575.739448" x2="1028.30211" y2="540.651119" stroke="#1F00FF" stroke-width="1" /><line x1="804.189558" y1="596.733268" x2="804.189558" y2="569.50001" stroke="#1F00FF" stroke-width="1" /><line x1="569.298302" y1="655.109707" x2="619.493257" y2="671.794393" stroke="#1F00FF" stroke-width="1" /><line x1="184.186652" y1="643.764839" x2="244.472321" y2="627.0" stroke="#1F00FF" stroke-width="1" /><line x1="877.414311" y1="636.515852" x2="781.502612" y2="630.217706" stroke="#1F00FF" stroke-width="1" /><line x1="994.967961" y1="512.603" x2="964.207553" y2="489.664786" stroke="#1F00FF" stroke-width="1" /><line x1="927.071506" y1="477.303325" x2="887.089316" y2="489.664786" stroke="#1F00FF" stroke-width="1" /><line x1="623.320989" y1="546.827154" x2="618.462353" y2="531.513876" stroke="#1F00FF" stroke-width="1" /><line x1="952.306359" y1="743.906051" x2="976.240253" y2="756.067907" stroke="#1F00FF" stroke-width="1" /><line x1="500.629255" y1="770.815244" x2="456.986062" y2="879.68957" stroke="#1F00FF" stroke-width="1" /><line x1="1033.24528" y1="569.50001" x2="1075.40435" y2="583.406654" stroke="#1F00FF" stroke-width="1" /><line x1="781.502612" y1="630.217706" x2="804.189558" y2="596.733268" stroke="#1F00FF" stroke-width="1" /><line x1="753.980513" y1="477.303325" x2="731.439162" y2="486.428826" stroke="#1F00FF" stroke-width="1" /><line x1="829.899282" y1="653.775513" x2="829.899282" y2="679.643749" stroke="#1F00FF" stroke-width="1" /><line x1="356.9437" y1="489.664786" x2="333.019199" y2="507.953362" stroke="#1F00FF" stroke-width="1" /><line x1="492.184761" y1="620.505129" x2="549.795654" y2="601.81969" stroke="#1F00FF" stroke-width="1" /><line x1="863.723711" y1="551.634128" x2="877.414311" y2="591.671503" stroke="#1F00FF" stroke-width="1" /><line x1="329.433342" y1="782.563799" x2="295.143436" y2="809.186499" stroke="#1F00FF" stroke-width="1" /><line x1="637.875765" y1="546.827154" x2="630.011302" y2="569.50001" stroke="#1F00FF" stroke-width="1" /><line x1="938.827105" y1="643.764839" x2="972.126028" y2="665.334214" stroke="#1F00FF" stroke-width="1" /><line x1="386.447766" y1="620.505129" x2="352.972721" y2="748.419488" stroke="#1F00FF" stroke-width="1" /><line x1="872.109497" y1="518.877663" x2="829.80014" y2="486.428826" stroke="#1F00FF" stroke-width="1" /><line x1="976.240253" y1="756.067907" x2="1016.206" y2="821.721735" stroke="#1F00FF" stroke-width="1" /><line x1="952.306359" y1="743.906051" x2="976.240253" y2="756.067907" stroke="#1F00FF" stroke-width="1" /><line x1="553.505971" y1="466.484697" x2="522.959258" y2="450.617221" stroke="#1F00FF" stroke-width="1" /><line x1="448.737486" y1="450.617221" x2="425.530556" y2="450.617221" stroke="#1F00FF" stroke-width="1" /><line x1="549.795654" y1="601.81969" x2="574.410555" y2="632.711603" stroke="#1F00FF" stroke-width="1" /><line x1="729.776564" y1="658.655643" x2="777.627914" y2="671.794393" stroke="#1F00FF" stroke-width="1" /><line x1="872.109497" y1="502.188281" x2="872.109497" y2="518.877663" stroke="#1F00FF" stroke-width="1" /><line x1="619.493257" y1="671.794393" x2="657.033213" y2="643.764839" stroke="#1F00FF" stroke-width="1" /><line x1="872.109497" y1="502.188281" x2="872.109497" y2="518.877663" stroke="#1F00FF" stroke-width="1" /><line x1="701.07723" y1="699.497312" x2="719.993344" y2="692.240562" stroke="#1F00F7" stroke-width="1" /><line x1="670.754342" y1="512.603" x2="637.875765" y2="546.827154" stroke="#1F00FF" stroke-width="1" /><line x1="872.109497" y1="518.877663" x2="829.80014" y2="486.428826" stroke="#1F00FF" stroke-width="1" /><line x1="1076.03604" y1="530.807037" x2="1147.20603" y2="566.050645" stroke="#1F00FF" stroke-width="1" /><line x1="1288.40943" y1="643.764839" x2="1299.94194" y2="671.284812" stroke="#1F00FF" stroke-width="1" /><line x1="630.011302" y1="569.50001" x2="623.320989" y2="546.827154" stroke="#1F00FF" stroke-width="1" /><line x1="964.207553" y1="489.664786" x2="927.071506" y2="477.303325" stroke="#1F00FF" stroke-width="1" /><line x1="670.754342" y1="512.603" x2="637.875765" y2="546.827154" stroke="#1F00FF" stroke-width="1" /><line x1="986.997824" y1="566.050645" x2="980.321602" y2="579.186755" stroke="#1F00FF" stroke-width="1" /><line x1="976.240253" y1="756.067907" x2="1016.206" y2="821.721735" stroke="#1F00FF" stroke-width="1" /><line x1="456.986062" y1="879.68957" x2="436.499475" y2="904.863367" stroke="#1F00FF" stroke-width="1" /><line x1="994.967961" y1="512.603" x2="964.207553" y2="489.664786" stroke="#1F00FF" stroke-width="1" /><line x1="386.447766" y1="620.505129" x2="352.972721" y2="748.419488" stroke="#1F00FF" stroke-width="1" /><line x1="753.980513" y1="477.303325" x2="731.439162" y2="486.428826" stroke="#1F00FF" stroke-width="1" /><line x1="386.447766" y1="620.505129" x2="352.972721" y2="748.419488" stroke="#1F00FF" stroke-width="1" /><line x1="877.414311" y1="636.515852" x2="781.502612" y2="630.217706" stroke="#1F00FF" stroke-width="1" /><line x1="386.447766" y1="620.505129" x2="508.970423" y2="434.275387" stroke="#1F00FF" stroke-width="1" /><line x1="952.306359" y1="743.906051" x2="976.240253" y2="756.067907" stroke="#1F00FF" stroke-width="1" /><line x1="295.143436" y1="809.186499" x2="272.703062" y2="809.186499" stroke="#1F00FF" stroke-width="1" /><line x1="994.967961" y1="512.603" x2="964.207553" y2="489.664786" stroke="#1F00FF" stroke-width="1" /><line x1="966.086195" y1="572.905047" x2="950.143573" y2="550.631403" stroke="#1F00FF" stroke-width="1" /><line x1="508.970423" y1="434.275387" x2="599.668892" y2="608.052084" stroke="#1F00FF" stroke-width="1" /><line x1="777.627914" y1="671.794393" x2="877.414311" y2="636.515852" stroke="#1F00FF" stroke-width="1" /><line x1="1076.03604" y1="530.807037" x2="1147.20603" y2="566.050645" stroke="#1F00FF" stroke-width="1" /><line x1="731.439162" y1="486.428826" x2="670.754342" y2="512.603" stroke="#1F00FF" stroke-width="1" /><line x1="966.086195" y1="572.905047" x2="950.143573" y2="550.631403" stroke="#1F00FF" stroke-width="1" /><line x1="994.967961" y1="512.603" x2="964.207553" y2="489.664786" stroke="#1F00FF" stroke-width="1" /><line x1="1034.55798" y1="575.739448" x2="1028.30211" y2="540.651119" stroke="#1F00FF" stroke-width="1" /><line x1="553.505971" y1="466.484697" x2="522.959258" y2="450.617221" stroke="#1F00FF" stroke-width="1" /><line x1="777.627914" y1="671.794393" x2="877.414311" y2="636.515852" stroke="#1F00FF" stroke-width="1" /><line x1="508.970423" y1="434.275387" x2="599.668892" y2="608.052084" stroke="#1F00FF" stroke-width="1" /><line x1="1076.03604" y1="530.807037" x2="1147.20603" y2="566.050645" stroke="#1F00FF" stroke-width="1" /><line x1="986.997824" y1="566.050645" x2="980.321602" y2="579.186755" stroke="#1F00FF" stroke-width="1" /><line x1="744.287174" y1="462.053563" x2="760.203113" y2="477.60846" stroke="#1F00FF" stroke-width="1" /><line x1="753.980513" y1="477.303325" x2="731.439162" y2="486.428826" stroke="#1F00FF" stroke-width="1" /><line x1="184.186652" y1="643.764839" x2="244.472321" y2="627.0" stroke="#1F00FF" stroke-width="1" /><line x1="976.240253" y1="756.067907" x2="1016.206" y2="821.721735" stroke="#1F00FF" stroke-width="1" /><line x1="784.893561" y1="477.303325" x2="753.980513" y2="477.303325" stroke="#1F00FF" stroke-width="1" /><line x1="964.207553" y1="489.664786" x2="927.071506" y2="477.303325" stroke="#1F00FF" stroke-width="1" /><line x1="666.465331" y1="639.479167" x2="683.47153" y2="685.447101" stroke="#1F00F7" stroke-width="1" /><line x1="386.447766" y1="620.505129" x2="508.970423" y2="434.275387" stroke="#1F00FF" stroke-width="1" /><line x1="602.721926" y1="535.956482" x2="606.788943" y2="518.877663" stroke="#1F00FF" stroke-width="1" /><line x1="1040.11407" y1="643.764839" x2="1034.55798" y2="575.739448" stroke="#1F00FF" stroke-width="1" /><line x1="872.109497" y1="502.188281" x2="872.109497" y2="518.877663" stroke="#1F00FF" stroke-width="1" /><line x1="1013.55242" y1="518.877663" x2="994.967961" y2="512.603" stroke="#1F00FF" stroke-width="1" /><line x1="508.970423" y1="434.275387" x2="599.668892" y2="608.052084" stroke="#1F00FF" stroke-width="1" /><line x1="966.086195" y1="572.905047" x2="950.143573" y2="550.631403" stroke="#1F00FF" stroke-width="1" /><line x1="295.143436" y1="809.186499" x2="272.703062" y2="809.186499" stroke="#1F00FF" stroke-width="1" /><line x1="386.447766" y1="620.505129" x2="492.184761" y2="620.505129" stroke="#1F00FF" stroke-width="1" /><line x1="872.109497" y1="518.877663" x2="829.80014" y2="486.428826" stroke="#1F00FF" stroke-width="1" /><line x1="499.868405" y1="445.105756" x2="465.691217" y2="445.105756" stroke="#1F00FF" stroke-width="1" /><line x1="877.414311" y1="636.515852" x2="781.502612" y2="630.217706" stroke="#1F00FF" stroke-width="1" /><line x1="872.109497" y1="502.188281" x2="872.109497" y2="518.877663" stroke="#1F00FF" stroke-width="1" /><line x1="693.673769" y1="627.0" x2="705.260474" y2="610.071785" stroke="#1F00FF" stroke-width="1" /><line x1="1033.24528" y1="569.50001" x2="1075.40435" y2="583.406654" stroke="#1F00FF" stroke-width="1" /><line x1="606.788943" y1="518.877663" x2="553.505971" y2="466.484697" stroke="#1F00FF" stroke-width="1" /><line x1="731.439162" y1="486.428826" x2="670.754342" y2="512.603" stroke="#1F00FF" stroke-width="1" /><line x1="829.899282" y1="653.775513" x2="829.899282" y2="679.643749" stroke="#1F00FF" stroke-width="1" /><line x1="244.472321" y1="627.0" x2="308.911201" y2="566.050645" stroke="#1F00FF" stroke-width="1" /><line x1="1231.14609" y1="736.412619" x2="1281.32695" y2="796.653611" stroke="#1F00FF" stroke-width="1" /><line x1="731.439162" y1="486.428826" x2="670.754342" y2="512.603" stroke="#1F00FF" stroke-width="1" /><line x1="705.260474" y1="610.071785" x2="711.252354" y2="627.600524" stroke="#1F00FF" stroke-width="1" /><line x1="569.298302" y1="655.109707" x2="500.629255" y2="770.815244" stroke="#1F00FF" stroke-width="1" /><line x1="333.019199" y1="507.953362" x2="311.95493" y2="540.651119" stroke="#1F00FF" stroke-width="1" /><line x1="569.298302" y1="655.109707" x2="500.629255" y2="770.815244" stroke="#1F00FF" stroke-width="1" /><line x1="1040.11407" y1="643.764839" x2="1034.55798" y2="575.739448" stroke="#1F00FF" stroke-width="1" /><line x1="829.899282" y1="679.643749" x2="840.178236" y2="699.497312" stroke="#1F00FF" stroke-width="1" /><line x1="950.143573" y1="550.631403" x2="973.645379" y2="546.352797" stroke="#1F00FF" stroke-width="1" /><line x1="375.692543" y1="473.508468" x2="356.9437" y2="489.664786" stroke="#1F00FF" stroke-width="1" /><line x1="952.306359" y1="743.906051" x2="976.240253" y2="756.067907" stroke="#1F00FF" stroke-width="1" /><line x1="927.071506" y1="477.303325" x2="887.089316" y2="489.664786" stroke="#1F00FF" stroke-width="1" /><line x1="630.011302" y1="569.50001" x2="623.320989" y2="546.827154" stroke="#1F00FF" stroke-width="1" /><line x1="1075.40435" y1="583.406654" x2="1114.6844" y2="647.933297" stroke="#1F00FF" stroke-width="1" /><line x1="386.447766" y1="620.505129" x2="508.970423" y2="434.275387" stroke="#1F00FF" stroke-width="1" /><line x1="465.691217" y1="445.105756" x2="448.737486" y2="450.617221" stroke="#1F00FF" stroke-width="1" /><line x1="731.681271" y1="486.118738" x2="744.287174" y2="462.053563" stroke="#1F00FF" stroke-width="1" /><line x1="499.868405" y1="445.105756" x2="465.691217" y2="445.105756" stroke="#1F00FF" stroke-width="1" /><line x1="711.252354" y1="627.600524" x2="734.87238" y2="620.995924" stroke="#1F00FF" stroke-width="1" /><line x1="1288.40943" y1="643.764839" x2="1299.94194" y2="671.284812" stroke="#1F00FF" stroke-width="1" /><line x1="976.240253" y1="756.067907" x2="1016.206" y2="821.721735" stroke="#1F00FF" stroke-width="1" /><line x1="950.143573" y1="550.631403" x2="973.645379" y2="546.352797" stroke="#1F00FF" stroke-width="1" /><line x1="877.414311" y1="591.671503" x2="938.827105" y2="643.764839" stroke="#1F00FF" stroke-width="1" /><line x1="804.189558" y1="596.733268" x2="804.189558" y2="569.50001" stroke="#1F00FF" stroke-width="1" /><line x1="829.899282" y1="679.643749" x2="840.178236" y2="699.497312" stroke="#1F00FF" stroke-width="1" /><line x1="804.189558" y1="569.50001" x2="844.051985" y2="546.827154" stroke="#1F00FF" stroke-width="1" /><line x1="1013.55242" y1="518.877663" x2="994.967961" y2="512.603" stroke="#1F00FF" stroke-width="1" /><line x1="1034.55798" y1="575.739448" x2="1028.30211" y2="540.651119" stroke="#1F00FF" stroke-width="1" /><line x1="729.776564" y1="658.655643" x2="777.627914" y2="671.794393" stroke="#1F00FF" stroke-width="1" /><line x1="356.9437" y1="489.664786" x2="333.019199" y2="507.953362" stroke="#1F00FF" stroke-width="1" /><line x1="1040.11407" y1="643.764839" x2="1034.55798" y2="575.739448" stroke="#1F00FF" stroke-width="1" /><line x1="508.970423" y1="434.275387" x2="599.668892" y2="608.052084" stroke="#1F00FF" stroke-width="1" /><line x1="1075.40435" y1="583.406654" x2="1114.6844" y2="647.933297" stroke="#1F00FF" stroke-width="1" /><line x1="872.109497" y1="502.188281" x2="872.109497" y2="518.877663" stroke="#1F00FF" stroke-width="1" /><line x1="499.868405" y1="445.105756" x2="465.691217" y2="445.105756" stroke="#1F00FF" stroke-width="1" /><line x1="244.472321" y1="627.0" x2="308.911201" y2="566.050645" stroke="#1F00FF" stroke-width="1" /><line x1="1034.55798" y1="575.739448" x2="1028.30211" y2="540.651119" stroke="#1F00FF" stroke-width="1" /><line x1="184.186652" y1="643.764839" x2="244.472321" y2="627.0" stroke="#1F00FF" stroke-width="1" /><line x1="295.143436" y1="809.186499" x2="272.703062" y2="809.186499" stroke="#1F00FF" stroke-width="1" /><line x1="313.246496" y1="595.660094" x2="386.447766" y2="620.505129" stroke="#1F00FF" stroke-width="1" /><line x1="887.089316" y1="489.664786" x2="872.109497" y2="502.188281" stroke="#1F00FF" stroke-width="1" /><line x1="356.9437" y1="489.664786" x2="333.019199" y2="507.953362" stroke="#1F00FF" stroke-width="1" /><line x1="966.086195" y1="572.905047" x2="950.143573" y2="550.631403" stroke="#1F00FF" stroke-width="1" /><line x1="753.980513" y1="477.303325" x2="731.439162" y2="486.428826" stroke="#1F00FF" stroke-width="1" /><line x1="549.795654" y1="601.81969" x2="574.410555" y2="632.711603" stroke="#1F00FF" stroke-width="1" /><line x1="1028.30211" y1="540.651119" x2="1076.03604" y2="530.807037" stroke="#1F00FF" stroke-width="1" /><line x1="1028.30211" y1="540.651119" x2="1076.03604" y2="530.807037" stroke="#1F00FF" stroke-width="1" /><line x1="1033.24528" y1="569.50001" x2="1075.40435" y2="583.406654" stroke="#1F00FF" stroke-width="1" /><line x1="1028.30211" y1="540.651119" x2="1076.03604" y2="530.807037" stroke="#1F00FF" stroke-width="1" /><line x1="784.893561" y1="477.303325" x2="753.980513" y2="477.303325" stroke="#1F00FF" stroke-width="1" /><line x1="952.306359" y1="743.906051" x2="976.240253" y2="756.067907" stroke="#1F00FF" stroke-width="1" /><line x1="184.186652" y1="643.764839" x2="244.472321" y2="627.0" stroke="#1F00FF" stroke-width="1" /><line x1="729.776564" y1="658.655643" x2="777.627914" y2="671.794393" stroke="#1F00FF" stroke-width="1" /><line x1="163.420599" y1="627.0" x2="184.186652" y2="643.764839" stroke="#1F00FF" stroke-width="1" /><line x1="829.80014" y1="486.428826" x2="784.893561" y2="477.303325" stroke="#1F00FF" stroke-width="1" /><line x1="456.986062" y1="879.68957" x2="436.499475" y2="904.863367" stroke="#1F00FF" stroke-width="1" /><line x1="569.298302" y1="655.109707" x2="619.493257" y2="671.794393" stroke="#1F00FF" stroke-width="1" /><line x1="1013.55242" y1="518.877663" x2="994.967961" y2="512.603" stroke="#1F00FF" stroke-width="1" /><line x1="630.011302" y1="569.50001" x2="623.320989" y2="546.827154" stroke="#1F00FF" stroke-width="1" /><line x1="184.186652" y1="643.764839" x2="244.472321" y2="627.0" stroke="#1F00FF" stroke-width="1" /><line x1="313.246496" y1="595.660094" x2="386.447766" y2="620.505129" stroke="#1F00FF" stroke-width="1" /><line x1="352.972721" y1="748.419488" x2="329.433342" y2="782.563799" stroke="#1F00FF" stroke-width="1" /><line x1="425.530556" y1="450.617221" x2="375.692543" y2="473.508468" stroke="#1F00FF" stroke-width="1" /><line x1="1075.40435" y1="583.406654" x2="1114.6844" y2="647.933297" stroke="#1F00FF" stroke-width="1" /><line x1="666.465331" y1="639.479167" x2="683.47153" y2="685.447101" stroke="#1F00F7" stroke-width="1" /><line x1="753.980513" y1="477.303325" x2="731.439162" y2="486.428826" stroke="#1F00FF" stroke-width="1" /><line x1="966.086195" y1="572.905047" x2="950.143573" y2="550.631403" stroke="#1F00FF" stroke-width="1" /><line x1="877.414311" y1="636.515852" x2="952.306359" y2="743.906051" stroke="#1F00FF" stroke-width="1" /><line x1="425.530556" y1="450.617221" x2="375.692543" y2="473.508468" stroke="#1F00FF" stroke-width="1" /><line x1="295.143436" y1="809.186499" x2="272.703062" y2="809.186499" stroke="#1F00FF" stroke-width="1" /><line x1="1076.03604" y1="530.807037" x2="1147.20603" y2="566.050645" stroke="#1F00FF" stroke-width="1" /><line x1="877.414311" y1="591.671503" x2="938.827105" y2="643.764839" stroke="#1F00FF" stroke-width="1" /><line x1="829.899282" y1="679.643749" x2="840.178236" y2="699.497312" stroke="#1F00FF" stroke-width="1" /><line x1="553.505971" y1="466.484697" x2="522.959258" y2="450.617221" stroke="#1F00FF" stroke-width="1" /><line x1="492.184761" y1="620.505129" x2="549.795654" y2="601.81969" stroke="#1F00FF" stroke-width="1" /><line x1="618.462353" y1="531.513876" x2="602.721926" y2="535.956482" stroke="#1F00FF" stroke-width="1" /><line x1="1281.32695" y1="796.653611" x2="1281.32695" y2="829.494614" stroke="#1F00FF" stroke-width="1" /><line x1="972.126028" y1="665.334214" x2="1021.76209" y2="700.704339" stroke="#1F00FF" stroke-width="1" /><line x1="1040.11407" y1="643.764839" x2="1034.55798" y2="575.739448" stroke="#1F00FF" stroke-width="1" /><line x1="666.465331" y1="639.479167" x2="683.47153" y2="685.447101" stroke="#1F00F7" stroke-width="1" /><line x1="804.189558" y1="596.733268" x2="804.189558" y2="569.50001" stroke="#1F00FF" stroke-width="1" /><line x1="666.465331" y1="639.479167" x2="683.47153" y2="685.447101" stroke="#1F00F7" stroke-width="1" /><line x1="606.788943" y1="518.877663" x2="553.505971" y2="466.484697" stroke="#1F00FF" stroke-width="1" /><line x1="877.414311" y1="591.671503" x2="938.827105" y2="643.764839" stroke="#1F00FF" stroke-width="1" /><line x1="1288.40943" y1="643.764839" x2="1299.94194" y2="671.284812" stroke="#1F00FF" stroke-width="1" /><line x1="872.109497" y1="502.188281" x2="872.109497" y2="518.877663" stroke="#1F00FF" stroke-width="1" /><line x1="972.126028" y1="665.334214" x2="1021.76209" y2="700.704339" stroke="#1F00FF" stroke-width="1" /><line x1="980.321602" y1="579.186755" x2="966.086195" y2="572.905047" stroke="#1F00FF" stroke-width="1" /><line x1="829.80014" y1="486.428826" x2="784.893561" y2="477.303325" stroke="#1F00FF" stroke-width="1" /><line x1="549.795654" y1="601.81969" x2="574.410555" y2="632.711603" stroke="#1F00FF" stroke-width="1" /><line x1="753.980513" y1="477.303325" x2="731.439162" y2="486.428826" stroke="#1F00FF" stroke-width="1" /><line x1="829.899282" y1="679.643749" x2="840.178236" y2="699.497312" stroke="#1F00FF" stroke-width="1" /><line x1="877.414311" y1="636.515852" x2="781.502612" y2="630.217706" stroke="#1F00FF" stroke-width="1" /><line x1="1147.20603" y1="566.050645" x2="1288.40943" y2="643.764839" stroke="#1F00FF" stroke-width="1" /><line x1="863.723711" y1="551.634128" x2="877.414311" y2="591.671503" stroke="#1F00FF" stroke-width="1" /><line x1="872.109497" y1="518.877663" x2="829.80014" y2="486.428826" stroke="#1F00FF" stroke-width="1" /><line x1="683.47153" y1="685.447101" x2="701.07723" y2="699.497312" stroke="#1F00F7" stroke-width="1" /><line x1="630.011302" y1="569.50001" x2="623.320989" y2="546.827154" stroke="#1F00FF" stroke-width="1" /><line x1="1147.20603" y1="566.050645" x2="1288.40943" y2="643.764839" stroke="#1F00FF" stroke-width="1" /><line x1="777.627914" y1="671.794393" x2="877.414311" y2="636.515852" stroke="#1F00FF" stroke-width="1" /><line x1="784.893561" y1="477.303325" x2="753.980513" y2="477.303325" stroke="#1F00FF" stroke-width="1" /><line x1="711.252354" y1="627.600524" x2="734.87238" y2="620.995924" stroke="#1F00FF" stroke-width="1" /><line x1="356.9437" y1="489.664786" x2="333.019199" y2="507.953362" stroke="#1F00FF" stroke-width="1" /><line x1="829.899282" y1="679.643749" x2="840.178236" y2="699.497312" stroke="#1F00FF" stroke-width="1" /><line x1="657.033213" y1="643.764839" x2="693.673769" y2="627.0" stroke="#1F00FF" stroke-width="1" /><line x1="1040.11407" y1="643.764839" x2="1034.55798" y2="575.739448" stroke="#1F00FF" stroke-width="1" /><line x1="753.980513" y1="477.303325" x2="731.439162" y2="486.428826" stroke="#1F00FF" stroke-width="1" /><line x1="1016.206" y1="821.721735" x2="1070.73358" y2="848.250502" stroke="#1F00FF" stroke-width="1" /><line x1="425.530556" y1="450.617221" x2="375.692543" y2="473.508468" stroke="#1F00FF" stroke-width="1" /><line x1="657.033213" y1="643.764839" x2="693.673769" y2="627.0" stroke="#1F00FF" stroke-width="1" /><line x1="829.899282" y1="679.643749" x2="840.178236" y2="699.497312" stroke="#1F00FF" stroke-width="1" /><line x1="863.723711" y1="551.634128" x2="877.414311" y2="591.671503" stroke="#1F00FF" stroke-width="1" /><line x1="711.252354" y1="627.600524" x2="734.87238" y2="620.995924" stroke="#1F00FF" stroke-width="1" /><line x1="1034.55798" y1="575.739448" x2="1028.30211" y2="540.651119" stroke="#1F00FF" stroke-width="1" /><line x1="184.186652" y1="643.764839" x2="244.472321" y2="627.0" stroke="#1F00FF" stroke-width="1" /><line x1="1288.40943" y1="643.764839" x2="1299.94194" y2="671.284812" stroke="#1F00FF" stroke-width="1" /><line x1="887.089316" y1="489.664786" x2="872.109497" y2="502.188281" stroke="#1F00FF" stroke-width="1" /><line x1="308.911201" y1="569.50001" x2="313.246496" y2="595.660094" stroke="#1F00FF" stroke-width="1" /><line x1="1034.55798" y1="575.739448" x2="1028.30211" y2="540.651119" stroke="#1F00FF" stroke-width="1" /><line x1="456.986062" y1="879.68957" x2="436.499475" y2="904.863367" stroke="#1F00FF" stroke-width="1" /><line x1="1231.14609" y1="736.412619" x2="1281.32695" y2="796.653611" stroke="#1F00FF" stroke-width="1" /><line x1="522.959258" y1="450.617221" x2="499.868405" y2="445.105756" stroke="#1F00FF" stroke-width="1" /><line x1="938.827105" y1="643.764839" x2="972.126028" y2="665.334214" stroke="#1F00FF" stroke-width="1" /><line x1="683.47153" y1="685.447101" x2="701.07723" y2="699.497312" stroke="#1F00F7" stroke-width="1" /><line x1="812.5" y1="564.5" x2="823.5" y2="632.5" id="Path-8" stroke="#1F00FF" /><line x1="375.692543" y1="473.508468" x2="356.9437" y2="489.664786" stroke="#1F00FF" stroke-width="1" /><line x1="1013.55242" y1="518.877663" x2="994.967961" y2="512.603" stroke="#1F00FF" stroke-width="1" /><line x1="630.011302" y1="569.50001" x2="623.320989" y2="546.827154" stroke="#1F00FF" stroke-width="1" /><line x1="872.109497" y1="502.188281" x2="872.109497" y2="518.877663" stroke="#1F00FF" stroke-width="1" /><line x1="356.9437" y1="489.664786" x2="333.019199" y2="507.953362" stroke="#1F00FF" stroke-width="1" /><line x1="829.899282" y1="653.775513" x2="829.899282" y2="679.643749" stroke="#1F00FF" stroke-width="1" /><line x1="618.462353" y1="531.513876" x2="602.721926" y2="535.956482" stroke="#1F00FF" stroke-width="1" /><line x1="966.086195" y1="572.905047" x2="950.143573" y2="550.631403" stroke="#1F00FF" stroke-width="1" /><line x1="729.776564" y1="658.655643" x2="777.627914" y2="671.794393" stroke="#1F00FF" stroke-width="1" /><line x1="500.629255" y1="770.815244" x2="456.986062" y2="879.68957" stroke="#1F00FF" stroke-width="1" /><line x1="623.320989" y1="546.827154" x2="618.462353" y2="531.513876" stroke="#1F00FF" stroke-width="1" /><line x1="829.899282" y1="653.775513" x2="829.899282" y2="679.643749" stroke="#1F00FF" stroke-width="1" /><line x1="356.9437" y1="489.664786" x2="333.019199" y2="507.953362" stroke="#1F00FF" stroke-width="1" /><line x1="1028.30211" y1="540.651119" x2="1076.03604" y2="530.807037" stroke="#1F00FF" stroke-width="1" /><line x1="311.95493" y1="540.651119" x2="308.911201" y2="569.50001" stroke="#1F00FF" stroke-width="1" /><line x1="804.189558" y1="596.733268" x2="804.189558" y2="569.50001" stroke="#1F00FF" stroke-width="1" /><line x1="973.645379" y1="546.352797" x2="986.997824" y2="566.050645" stroke="#1F00FF" stroke-width="1" /><line x1="693.673769" y1="627.0" x2="705.260474" y2="610.071785" stroke="#1F00FF" stroke-width="1" /><line x1="1013.55242" y1="518.877663" x2="994.967961" y2="512.603" stroke="#1F00FF" stroke-width="1" /><line x1="386.447766" y1="620.505129" x2="492.184761" y2="620.505129" stroke="#1F00FF" stroke-width="1" /><line x1="705.260474" y1="610.071785" x2="711.252354" y2="627.600524" stroke="#1F00FF" stroke-width="1" /><line x1="356.9437" y1="489.664786" x2="333.019199" y2="507.953362" stroke="#1F00FF" stroke-width="1" /><line x1="829.899282" y1="679.643749" x2="840.178236" y2="699.497312" stroke="#1F00FF" stroke-width="1" /><line x1="465.691217" y1="445.105756" x2="448.737486" y2="450.617221" stroke="#1F00FF" stroke-width="1" /><line x1="1281.32695" y1="796.653611" x2="1281.32695" y2="829.494614" stroke="#1F00FF" stroke-width="1" /><line x1="375.692543" y1="473.508468" x2="356.9437" y2="489.664786" stroke="#1F00FF" stroke-width="1" /><line x1="840.178236" y1="699.497312" x2="856.281144" y2="695.654247" stroke="#1F00FF" stroke-width="1" /><line x1="950.143573" y1="550.631403" x2="973.645379" y2="546.352797" stroke="#1F00FF" stroke-width="1" /><line x1="966.086195" y1="572.905047" x2="950.143573" y2="550.631403" stroke="#1F00FF" stroke-width="1" /><line x1="588.563771" y1="637.473959" x2="569.298302" y2="655.109707" stroke="#1F00FF" stroke-width="1" /><line x1="657.033213" y1="643.764839" x2="693.673769" y2="627.0" stroke="#1F00FF" stroke-width="1" /><line x1="877.414311" y1="591.671503" x2="938.827105" y2="643.764839" stroke="#1F00FF" stroke-width="1" /><line x1="386.447766" y1="620.505129" x2="508.970423" y2="434.275387" stroke="#1F00FF" stroke-width="1" /><line x1="352.972721" y1="748.419488" x2="329.433342" y2="782.563799" stroke="#1F00FF" stroke-width="1" /><line x1="994.967961" y1="512.603" x2="964.207553" y2="489.664786" stroke="#1F00FF" stroke-width="1" /><line x1="812.5" y1="564.5" x2="823.5" y2="632.5" id="Path-8" stroke="#1F00FF" /><line x1="329.433342" y1="782.563799" x2="295.143436" y2="809.186499" stroke="#1F00FF" stroke-width="1" /><line x1="553.505971" y1="466.484697" x2="522.959258" y2="450.617221" stroke="#1F00FF" stroke-width="1" /><line x1="569.298302" y1="655.109707" x2="500.629255" y2="770.815244" stroke="#1F00FF" stroke-width="1" /><line x1="877.414311" y1="636.515852" x2="781.502612" y2="630.217706" stroke="#1F00FF" stroke-width="1" /><line x1="731.681271" y1="486.118738" x2="744.287174" y2="462.053563" stroke="#1F00FF" stroke-width="1" /><line x1="872.109497" y1="518.877663" x2="829.80014" y2="486.428826" stroke="#1F00FF" stroke-width="1" /><line x1="872.109497" y1="518.877663" x2="829.80014" y2="486.428826" stroke="#1F00FF" stroke-width="1" /><line x1="657.033213" y1="643.764839" x2="693.673769" y2="627.0" stroke="#1F00FF" stroke-width="1" /><line x1="683.47153" y1="685.447101" x2="701.07723" y2="699.497312" stroke="#1F00F7" stroke-width="1" /><line x1="976.240253" y1="756.067907" x2="1016.206" y2="821.721735" stroke="#1F00FF" stroke-width="1" /><line x1="356.9437" y1="489.664786" x2="333.019199" y2="507.953362" stroke="#1F00FF" stroke-width="1" /><line x1="569.298302" y1="655.109707" x2="500.629255" y2="770.815244" stroke="#1F00FF" stroke-width="1" /><line x1="425.530556" y1="450.617221" x2="375.692543" y2="473.508468" stroke="#1F00FF" stroke-width="1" /><line x1="877.414311" y1="591.671503" x2="938.827105" y2="643.764839" stroke="#1F00FF" stroke-width="1" /><line x1="244.472321" y1="627.0" x2="308.911201" y2="566.050645" stroke="#1F00FF" stroke-width="1" /><line x1="980.321602" y1="579.186755" x2="966.086195" y2="572.905047" stroke="#1F00FF" stroke-width="1" /><line x1="872.109497" y1="518.877663" x2="829.80014" y2="486.428826" stroke="#1F00FF" stroke-width="1" /><line x1="840.178236" y1="699.497312" x2="856.281144" y2="695.654247" stroke="#1F00FF" stroke-width="1" /><line x1="840.178236" y1="699.497312" x2="856.281144" y2="695.654247" stroke="#1F00FF" stroke-width="1" /><line x1="829.899282" y1="653.775513" x2="829.899282" y2="679.643749" stroke="#1F00FF" stroke-width="1" /><line x1="386.447766" y1="620.505129" x2="508.970423" y2="434.275387" stroke="#1F00FF" stroke-width="1" /><line x1="705.260474" y1="610.071785" x2="711.252354" y2="627.600524" stroke="#1F00FF" stroke-width="1" /><line x1="1076.03604" y1="530.807037" x2="1147.20603" y2="566.050645" stroke="#1F00FF" stroke-width="1" /><line x1="1040.11407" y1="643.764839" x2="1034.55798" y2="575.739448" stroke="#1F00FF" stroke-width="1" /><line x1="777.627914" y1="671.794393" x2="877.414311" y2="636.515852" stroke="#1F00FF" stroke-width="1" /><line x1="829.80014" y1="486.428826" x2="784.893561" y2="477.303325" stroke="#1F00FF" stroke-width="1" /><line x1="693.673769" y1="627.0" x2="705.260474" y2="610.071785" stroke="#1F00FF" stroke-width="1" /><line x1="877.414311" y1="636.515852" x2="952.306359" y2="743.906051" stroke="#1F00FF" stroke-width="1" /><line x1="1075.40435" y1="583.406654" x2="1114.6844" y2="647.933297" stroke="#1F00FF" stroke-width="1" /><line x1="731.681271" y1="486.118738" x2="744.287174" y2="462.053563" stroke="#1F00FF" stroke-width="1" /><line x1="777.627914" y1="671.794393" x2="877.414311" y2="636.515852" stroke="#1F00FF" stroke-width="1" /><line x1="295.143436" y1="809.186499" x2="272.703062" y2="809.186499" stroke="#1F00FF" stroke-width="1" /><line x1="352.972721" y1="748.419488" x2="329.433342" y2="782.563799" stroke="#1F00FF" stroke-width="1" /><line x1="623.320989" y1="546.827154" x2="618.462353" y2="531.513876" stroke="#1F00FF" stroke-width="1" /><line x1="777.627914" y1="671.794393" x2="877.414311" y2="636.515852" stroke="#1F00FF" stroke-width="1" /><line x1="829.899282" y1="679.643749" x2="840.178236" y2="699.497312" stroke="#1F00FF" stroke-width="1" /><line x1="329.433342" y1="782.563799" x2="295.143436" y2="809.186499" stroke="#1F00FF" stroke-width="1" /><line x1="549.795654" y1="601.81969" x2="574.410555" y2="632.711603" stroke="#1F00FF" stroke-width="1" /><line x1="670.754342" y1="512.603" x2="637.875765" y2="546.827154" stroke="#1F00FF" stroke-width="1" /><line x1="425.530556" y1="450.617221" x2="375.692543" y2="473.508468" stroke="#1F00FF" stroke-width="1" /><line x1="1016.206" y1="821.721735" x2="1070.73358" y2="848.250502" stroke="#1F00FF" stroke-width="1" /><line x1="972.126028" y1="665.334214" x2="1021.76209" y2="700.704339" stroke="#1F00FF" stroke-width="1" /><line x1="986.997824" y1="566.050645" x2="980.321602" y2="579.186755" stroke="#1F00FF" stroke-width="1" /><line x1="386.447766" y1="620.505129" x2="492.184761" y2="620.505129" stroke="#1F00FF" stroke-width="1" /><line x1="244.472321" y1="627.0" x2="308.911201" y2="566.050645" stroke="#1F00FF" stroke-width="1" /></svg>