<?xml version='1.0' encoding='UTF-8'?>
<svg xmlns="http://www.w3.org/2000/svg" xmlns:xlink="http://www.w3.org/1999/xlink" viewBox="0 0 1826 1230" preserveAspectRatio="xMidYMid meet" version="1.1">
        <line x1="533.1651536504947" y1="487.2053566929045" x2="543.7342472606183" y2="461.5103752939875" stroke="#979797" stroke-width="1"/><line x1="543.7342472606183" y1="461.5103752939875" x2="539.2992623335376" y2="447.00419323230807" stroke="#979797" stroke-width="1"/><line x1="539.2992623335376" y1="447.00419323230807" x2="517.3146871347055" y2="435.36081678554" stroke="#979797" stroke-width="1"/><line x1="517.3146871347055" y1="435.36081678554" x2="508.1298560578968" y2="442.4337322733496" stroke="#979797" stroke-width="1"/><line x1="508.1298560578968" y1="442.4337322733496" x2="496.1512277665796" y2="441.8311356401799" stroke="#979797" stroke-width="1"/><line x1="496.1512277665796" y1="441.8311356401799" x2="486.9984354832029" y2="466.2925527114636" stroke="#979797" stroke-width="1"/><line x1="486.9984354832029" y1="466.2925527114636" x2="490.51120169797116" y2="477.78229328316104" stroke="#979797" stroke-width="1"/><line x1="490.51120169797116" y1="477.78229328316104" x2="512.0016942823688" y2="493.6756755475444" stroke="#979797" stroke-width="1"/><line x1="512.0016777411649" y1="493.67558272149677" x2="501.90201678090494" y2="500.64994842498686" stroke="#979797" stroke-width="1"/><line x1="501.90201678090494" y1="500.64994842498686" x2="496.85218677892726" y2="504.137131130546" stroke="#979797" stroke-width="1"/><line x1="496.85218677892726" y1="504.137131130546" x2="496.85218677892726" y2="504.137131130546" stroke="#979797" stroke-width="1"/><line x1="496.85218677892726" y1="504.137131130546" x2="484.5243127958993" y2="500.0960987672976" stroke="#979797" stroke-width="1"/><line x1="484.5243127958993" y1="500.0960987672976" x2="478.3603756186046" y2="498.0755836881639" stroke="#979797" stroke-width="1"/><line x1="478.3603756186046" y1="498.0755836881639" x2="478.3603756186046" y2="498.0755836881639" stroke="#979797" stroke-width="1"/><line x1="478.3603756186046" y1="498.0755836881639" x2="489.1337479036953" y2="527.0701752203083" stroke="#979797" stroke-width="1"/><line x1="489.1337479036953" y1="527.0701752203083" x2="494.52043437820714" y2="541.5674703620424" stroke="#979797" stroke-width="1"/><line x1="494.52043437820714" y1="541.5674703620424" x2="494.52043437820714" y2="541.5674703620424" stroke="#979797" stroke-width="1"/><line x1="494.52043437820714" y1="541.5674703620424" x2="486.62268304605004" y2="579.5070851074713" stroke="#979797" stroke-width="1"/><line x1="533.1651838920681" y1="487.20535418504403" x2="547.8664148469948" y2="484.6612437007618" stroke="#979797" stroke-width="1"/><line x1="547.8664148469948" y1="484.6612437007618" x2="555.2170297001198" y2="483.38918812665406" stroke="#979797" stroke-width="1"/><line x1="555.2170297001198" y1="483.38918812665406" x2="555.2170297001198" y2="483.38918812665406" stroke="#979797" stroke-width="1"/><line x1="555.2170297001198" y1="483.38918812665406" x2="564.0905261841601" y2="474.422485576634" stroke="#979797" stroke-width="1"/><line x1="564.0905261841601" y1="474.422485576634" x2="568.5272738018421" y2="469.9391339696575" stroke="#979797" stroke-width="1"/><line x1="568.5272738018421" y1="469.9391339696575" x2="568.5272738018421" y2="469.9391339696575" stroke="#979797" stroke-width="1"/><line x1="568.5272738018421" y1="469.9391339696575" x2="575.8537007423183" y2="479.70677865367855" stroke="#979797" stroke-width="1"/><line x1="575.8537007423183" y1="479.70677865367855" x2="579.5169140663705" y2="484.59060051753664" stroke="#979797" stroke-width="1"/><line x1="579.5169140663705" y1="484.59060051753664" x2="579.5169140663705" y2="484.59060051753664" stroke="#979797" stroke-width="1"/><line x1="579.5169140663705" y1="484.59060051753664" x2="580.9096069731636" y2="500.0445339090975" stroke="#979797" stroke-width="1"/><line x1="580.9096069731636" y1="500.0445339090975" x2="581.605953718932" y2="507.7715015611827" stroke="#979797" stroke-width="1"/><line x1="581.605953718932" y1="507.7715015611827" x2="581.605953718932" y2="507.7715015611827" stroke="#979797" stroke-width="1"/><line x1="581.605953718932" y1="507.7715015611827" x2="615.0395416763834" y2="535.7890594859056" stroke="#979797" stroke-width="1"/><line x1="517.3147174913738" y1="435.3608001025817" x2="516.0542737390556" y2="432.1240150796833" stroke="#979797" stroke-width="1"/><line x1="516.0542737390556" y1="432.1240150796833" x2="515.4240520090824" y2="430.50562304638646" stroke="#979797" stroke-width="1"/><line x1="515.4240520090824" y1="430.50562304638646" x2="515.4240520090824" y2="430.50562304638646" stroke="#979797" stroke-width="1"/><line x1="515.4240520090824" y1="430.50562304638646" x2="519.602826844209" y2="427.83367928968596" stroke="#979797" stroke-width="1"/><line x1="519.602826844209" y1="427.83367928968596" x2="521.6922136374341" y2="426.4977070793693" stroke="#979797" stroke-width="1"/><line x1="521.6922136374341" y1="426.4977070793693" x2="521.6922136374341" y2="426.4977070793693" stroke="#979797" stroke-width="1"/><line x1="521.6922136374341" y1="426.4977070793693" x2="521.8754651122595" y2="421.07898933926003" stroke="#979797" stroke-width="1"/><line x1="521.8754651122595" y1="421.07898933926003" x2="521.9670911420441" y2="418.3696314255102" stroke="#979797" stroke-width="1"/><line x1="521.9670911420441" y1="418.3696314255102" x2="521.9670911420441" y2="418.3696314255102" stroke="#979797" stroke-width="1"/><line x1="521.9670911420441" y1="418.3696314255102" x2="515.158272960818" y2="404.9321846899588" stroke="#979797" stroke-width="1"/><line x1="515.158272960818" y1="404.9321846899588" x2="511.75386387020484" y2="398.21346132218315" stroke="#979797" stroke-width="1"/><line x1="511.75386387020484" y1="398.21346132218315" x2="511.75386387020484" y2="398.21346132218315" stroke="#979797" stroke-width="1"/><line x1="511.75386387020484" y1="398.21346132218315" x2="512.5486994903536" y2="393.46361414541883" stroke="#979797" stroke-width="1"/><line x1="512.5486994903536" y1="393.46361414541883" x2="512.9461173004279" y2="391.0886905570368" stroke="#979797" stroke-width="1"/><line x1="512.9461173004279" y1="391.0886905570368" x2="512.9461173004279" y2="391.0886905570368" stroke="#979797" stroke-width="1"/><line x1="512.9461173004279" y1="391.0886905570368" x2="510.1811493068431" y2="388.51382770201303" stroke="#979797" stroke-width="1"/><line x1="510.1811493068431" y1="388.51382770201303" x2="508.7986648318985" y2="387.2263964206869" stroke="#979797" stroke-width="1"/><line x1="508.7986648318985" y1="387.2263964206869" x2="508.7986648318985" y2="387.2263964206869" stroke="#979797" stroke-width="1"/><line x1="508.7986648318985" y1="387.2263964206869" x2="505.5631348664701" y2="380.8110434172942" stroke="#979797" stroke-width="1"/><line x1="505.5631348664701" y1="380.8110434172942" x2="503.9453694056035" y2="377.60336706178373" stroke="#979797" stroke-width="1"/><line x1="503.9453694056035" y1="377.60336706178373" x2="503.9453694056035" y2="377.60336706178373" stroke="#979797" stroke-width="1"/><line x1="503.9453694056035" y1="377.60336706178373" x2="506.36498977707663" y2="373.87454681849374" stroke="#979797" stroke-width="1"/><line x1="506.36498977707663" y1="373.87454681849374" x2="507.574799962813" y2="372.0101366968487" stroke="#979797" stroke-width="1"/><line x1="507.574799962813" y1="372.0101366968487" x2="507.574799962813" y2="372.0101366968487" stroke="#979797" stroke-width="1"/><line x1="507.574799962813" y1="372.0101366968487" x2="502.8949452275732" y2="370.2018210083404" stroke="#979797" stroke-width="1"/><line x1="502.8949452275732" y1="370.2018210083404" x2="500.55501804573385" y2="369.2976620615955" stroke="#979797" stroke-width="1"/><line x1="500.55501804573385" y1="369.2976620615955" x2="500.55501804573385" y2="369.2976620615955" stroke="#979797" stroke-width="1"/><line x1="500.55501804573385" y1="369.2976620615955" x2="499.93545303058926" y2="361.7667931880186" stroke="#979797" stroke-width="1"/><line x1="499.93545303058926" y1="361.7667931880186" x2="499.62567162550755" y2="358.0013589370108" stroke="#979797" stroke-width="1"/><line x1="499.62567162550755" y1="358.0013589370108" x2="499.62567162550755" y2="358.0013589370108" stroke="#979797" stroke-width="1"/><line x1="499.62567162550755" y1="358.0013589370108" x2="496.0811491018946" y2="349.83093851546363" stroke="#979797" stroke-width="1"/><line x1="496.0811491018946" y1="349.83093851546363" x2="494.30888688378326" y2="345.74572859706166" stroke="#979797" stroke-width="1"/><line x1="494.30888688378326" y1="345.74572859706166" x2="494.30888688378326" y2="345.74572859706166" stroke="#979797" stroke-width="1"/><line x1="494.30888688378326" y1="345.74572859706166" x2="493.08146020411357" y2="350.8682387594461" stroke="#979797" stroke-width="1"/><line x1="493.08146020411357" y1="350.8682387594461" x2="492.4677463861262" y2="353.4294939868242" stroke="#979797" stroke-width="1"/><line x1="492.4677463861262" y1="353.4294939868242" x2="492.4677463861262" y2="353.4294939868242" stroke="#979797" stroke-width="1"/><line x1="492.4677463861262" y1="353.4294939868242" x2="490.3771925614466" y2="351.29914568335676" stroke="#979797" stroke-width="1"/><line x1="490.3771925614466" y1="351.29914568335676" x2="489.33191598107317" y2="350.2339709072847" stroke="#979797" stroke-width="1"/><line x1="489.33191598107317" y1="350.2339709072847" x2="489.33191598107317" y2="350.2339709072847" stroke="#979797" stroke-width="1"/><line x1="489.33191598107317" y1="350.2339709072847" x2="490.60802368452124" y2="343.22620613054454" stroke="#979797" stroke-width="1"/><line x1="490.60802368452124" y1="343.22620613054454" x2="491.2460773900595" y2="339.722323264022" stroke="#979797" stroke-width="1"/><line x1="491.2460773900595" y1="339.722323264022" x2="491.2460773900595" y2="339.722323264022" stroke="#979797" stroke-width="1"/><line x1="491.2460773900595" y1="339.722323264022" x2="489.8973468104315" y2="329.79073473850224" stroke="#979797" stroke-width="1"/><line x1="489.8973468104315" y1="329.79073473850224" x2="489.22298152061757" y2="324.82494047574227" stroke="#979797" stroke-width="1"/><line x1="489.22298152061757" y1="324.82494047574227" x2="489.22298152061757" y2="324.82494047574227" stroke="#979797" stroke-width="1"/><line x1="489.22298152061757" y1="324.82494047574227" x2="484.5602942241973" y2="317.8410087061771" stroke="#979797" stroke-width="1"/><line x1="484.5602942241973" y1="317.8410087061771" x2="482.2289507221731" y2="314.34904329954685" stroke="#979797" stroke-width="1"/><line x1="482.2289507221731" y1="314.34904329954685" x2="482.2289507221731" y2="314.34904329954685" stroke="#979797" stroke-width="1"/><line x1="482.2289507221731" y1="314.34904329954685" x2="490.234651983423" y2="298.9739377868216" stroke="#979797" stroke-width="1"/><line x1="490.234651983423" y1="298.9739377868216" x2="494.2375023216763" y2="291.2863840741542" stroke="#979797" stroke-width="1"/><line x1="494.2375023216763" y1="291.2863840741542" x2="494.2375023216763" y2="291.2863840741542" stroke="#979797" stroke-width="1"/><line x1="494.2375023216763" y1="291.2863840741542" x2="495.05198846630947" y2="270.1715944878103" stroke="#979797" stroke-width="1"/><line x1="495.05198846630947" y1="270.1715944878103" x2="495.4592326411168" y2="259.61419988041905" stroke="#979797" stroke-width="1"/><line x1="495.4592326411168" y1="259.61419988041905" x2="495.4592326411168" y2="259.61419988041905" stroke="#979797" stroke-width="1"/><line x1="495.4592326411168" y1="259.61419988041905" x2="482.6883527208431" y2="241.76817332823077" stroke="#979797" stroke-width="1"/><line x1="482.6883527208431" y1="241.76817332823077" x2="476.30291276070636" y2="232.84516005213663" stroke="#979797" stroke-width="1"/><line x1="476.30291276070636" y1="232.84516005213663" x2="476.30291276070636" y2="232.84516005213663" stroke="#979797" stroke-width="1"/><line x1="476.30291276070636" y1="232.84516005213663" x2="454.61631047462856" y2="225.20642870166978" stroke="#979797" stroke-width="1"/><line x1="454.61631047462856" y1="225.20642870166978" x2="443.7730080829132" y2="221.38706236250323" stroke="#979797" stroke-width="1"/><line x1="443.7730080829132" y1="221.38706236250323" x2="443.7730080829132" y2="221.38706236250323" stroke="#979797" stroke-width="1"/><line x1="443.7730080829132" y1="221.38706236250323" x2="431.891456577144" y2="235.58633240045089" stroke="#979797" stroke-width="1"/><line x1="431.891456577144" y1="235.58633240045089" x2="425.95068034610705" y2="242.68596756561044" stroke="#979797" stroke-width="1"/><line x1="425.95068034610705" y1="242.68596756561044" x2="425.95068034610705" y2="242.68596756561044" stroke="#979797" stroke-width="1"/><line x1="425.95068034610705" y1="242.68596756561044" x2="421.8974291537474" y2="260.0693412831645" stroke="#979797" stroke-width="1"/><line x1="421.8974291537474" y1="260.0693412831645" x2="419.8708037037535" y2="268.7610286200938" stroke="#979797" stroke-width="1"/><line x1="419.8708037037535" y1="268.7610286200938" x2="419.8708037037535" y2="268.7610286200938" stroke="#979797" stroke-width="1"/><line x1="419.8708037037535" y1="268.7610286200938" x2="421.73158536510357" y2="282.0187730938066" stroke="#979797" stroke-width="1"/><line x1="421.73158536510357" y1="282.0187730938066" x2="422.6619763815593" y2="288.6476442281725" stroke="#979797" stroke-width="1"/><line x1="422.6619763815593" y1="288.6476442281725" x2="422.6619763815593" y2="288.6476442281725" stroke="#979797" stroke-width="1"/><line x1="422.6619763815593" y1="288.6476442281725" x2="432.6373442195695" y2="302.3510725738442" stroke="#979797" stroke-width="1"/><line x1="432.6373442195695" y1="302.3510725738442" x2="437.6250275142365" y2="309.20278641471356" stroke="#979797" stroke-width="1"/><line x1="437.6250275142365" y1="309.20278641471356" x2="437.6250275142365" y2="309.20278641471356" stroke="#979797" stroke-width="1"/><line x1="437.6250275142365" y1="309.20278641471356" x2="453.4481839758473" y2="317.5154573720162" stroke="#979797" stroke-width="1"/><line x1="453.4481839758473" y1="317.5154573720162" x2="461.3597622066528" y2="321.67179285066743" stroke="#979797" stroke-width="1"/><line x1="461.3597622066528" y1="321.67179285066743" x2="461.3597622066528" y2="321.67179285066743" stroke="#979797" stroke-width="1"/><line x1="461.3597622066528" y1="321.67179285066743" x2="462.37129161276465" y2="327.85835041640917" stroke="#979797" stroke-width="1"/><line x1="462.37129161276465" y1="327.85835041640917" x2="462.8770552133301" y2="330.9516290134993" stroke="#979797" stroke-width="1"/><line x1="462.8770552133301" y1="330.9516290134993" x2="462.8770552133301" y2="330.9516290134993" stroke="#979797" stroke-width="1"/><line x1="462.8770552133301" y1="330.9516290134993" x2="474.2304992665764" y2="347.1442716947376" stroke="#979797" stroke-width="1"/><line x1="474.2304992665764" y1="347.1442716947376" x2="479.90722019070904" y2="355.240592849576" stroke="#979797" stroke-width="1"/><line x1="479.90722019070904" y1="355.240592849576" x2="479.90722019070904" y2="355.240592849576" stroke="#979797" stroke-width="1"/><line x1="479.90722019070904" y1="355.240592849576" x2="473.90560583698993" y2="354.7915981356656" stroke="#979797" stroke-width="1"/><line x1="473.90560583698993" y1="354.7915981356656" x2="470.9047991382829" y2="354.5671006325246" stroke="#979797" stroke-width="1"/><line x1="470.9047991382829" y1="354.5671006325246" x2="470.9047991382829" y2="354.5671006325246" stroke="#979797" stroke-width="1"/><line x1="470.9047991382829" y1="354.5671006325246" x2="476.1452884448503" y2="367.1996323987103" stroke="#979797" stroke-width="1"/><line x1="476.1452884448503" y1="367.1996323987103" x2="478.76553295194816" y2="373.5158978036509" stroke="#979797" stroke-width="1"/><line x1="478.76553295194816" y1="373.5158978036509" x2="478.76553295194816" y2="373.5158978036509" stroke="#979797" stroke-width="1"/><line x1="478.76553295194816" y1="373.5158978036509" x2="477.96629988027854" y2="377.17145542148836" stroke="#979797" stroke-width="1"/><line x1="477.96629988027854" y1="377.17145542148836" x2="477.566682388139" y2="378.9992345227788" stroke="#979797" stroke-width="1"/><line x1="477.566682388139" y1="378.9992345227788" x2="477.566682388139" y2="378.9992345227788" stroke="#979797" stroke-width="1"/><line x1="477.566682388139" y1="378.9992345227788" x2="478.4866878625003" y2="382.2870205674486" stroke="#979797" stroke-width="1"/><line x1="478.4866878625003" y1="382.2870205674486" x2="479.1356403974855" y2="384.6061553696475" stroke="#979797" stroke-width="1"/><line x1="479.1356403974855" y1="384.6061553696475" x2="479.51353999309475" y2="385.95663892937546" stroke="#979797" stroke-width="1"/><line x1="479.51353999309475" y1="385.95663892937546" x2="481.4703229302636" y2="392.9495175020155" stroke="#979797" stroke-width="1"/><line x1="481.4703229302636" y1="392.9495175020155" x2="482.4487150231862" y2="396.44595712030196" stroke="#979797" stroke-width="1"/><line x1="482.4487150231862" y1="396.44595712030196" x2="482.4487150231862" y2="396.44595712030196" stroke="#979797" stroke-width="1"/><line x1="482.4487150231862" y1="396.44595712030196" x2="480.92031217415763" y2="401.5643220724289" stroke="#979797" stroke-width="1"/><line x1="480.92031217415763" y1="401.5643220724289" x2="480.1561099395244" y2="404.12350531901654" stroke="#979797" stroke-width="1"/><line x1="480.1561099395244" y1="404.12350531901654" x2="480.1561099395244" y2="404.12350531901654" stroke="#979797" stroke-width="1"/><line x1="480.1561099395244" y1="404.12350531901654" x2="484.22603980328915" y2="406.7257245928537" stroke="#979797" stroke-width="1"/><line x1="484.22603980328915" y1="406.7257245928537" x2="486.2610045889855" y2="408.02683375161996" stroke="#979797" stroke-width="1"/><line x1="486.2610045889855" y1="408.02683375161996" x2="486.2610045889855" y2="408.02683375161996" stroke="#979797" stroke-width="1"/><line x1="486.2610045889855" y1="408.02683375161996" x2="485.60441187991785" y2="419.1997763340279" stroke="#979797" stroke-width="1"/><line x1="485.60441187991785" y1="419.1997763340279" x2="485.27611519341735" y2="424.78624824957" stroke="#979797" stroke-width="1"/><line x1="485.27611519341735" y1="424.78624824957" x2="485.27611519341735" y2="424.78624824957" stroke="#979797" stroke-width="1"/><line x1="485.27611519341735" y1="424.78624824957" x2="488.7066778725027" y2="431.71895197191134" stroke="#979797" stroke-width="1"/><line x1="488.7066778725027" y1="431.71895197191134" x2="490.4219598363836" y2="435.1853041650486" stroke="#979797" stroke-width="1"/><line x1="490.4219598363836" y1="435.1853041650486" x2="490.4219598363836" y2="435.1853041650486" stroke="#979797" stroke-width="1"/><line x1="490.4219598363836" y1="435.1853041650486" x2="497.4632715618666" y2="434.28027435392727" stroke="#979797" stroke-width="1"/><line x1="497.4632715618666" y1="434.28027435392727" x2="496.151258123248" y2="441.8311189572215" stroke="#979797" stroke-width="1"/><line x1="604.2084107345815" y1="437.13992151744617" x2="583.1158761893703" y2="431.5176910678244" stroke="#979797" stroke-width="1"/><line x1="583.1158761893703" y1="431.5176910678244" x2="572.5696089167648" y2="428.7065758430135" stroke="#979797" stroke-width="1"/><line x1="572.5696089167648" y1="428.7065758430135" x2="572.5696089167648" y2="428.7065758430135" stroke="#979797" stroke-width="1"/><line x1="572.5696089167648" y1="428.7065758430135" x2="544.7650994765697" y2="413.07755791458186" stroke="#979797" stroke-width="1"/><line x1="544.7650994765697" y1="413.07755791458186" x2="512.9462470032071" y2="391.0885834491507" stroke="#979797" stroke-width="1"/><line x1="598.5051706896041" y1="328.6941096470928" x2="578.8911616727925" y2="341.2153756745045" stroke="#979797" stroke-width="1"/><line x1="578.8911616727925" y1="341.2153756745045" x2="571.7426692464553" y2="351.5571175253294" stroke="#979797" stroke-width="1"/><line x1="571.7426692464553" y1="351.5571175253294" x2="568.1684230332868" y2="356.7279884507418" stroke="#979797" stroke-width="1"/><line x1="568.1684230332868" y1="356.7279884507418" x2="568.1684230332868" y2="356.7279884507418" stroke="#979797" stroke-width="1"/><line x1="568.1684230332868" y1="356.7279884507418" x2="543.4277459635745" y2="372.19416995683713" stroke="#979797" stroke-width="1"/><line x1="543.4277459635745" y1="372.19416995683713" x2="507.5748153232811" y2="372.0102154713089" stroke="#979797" stroke-width="1"/><line x1="559.5163628803213" y1="230.47384073715938" x2="550.2309180024542" y2="244.3890652145805" stroke="#979797" stroke-width="1"/><line x1="550.2309180024542" y1="244.3890652145805" x2="545.5881960416731" y2="251.3466773071051" stroke="#979797" stroke-width="1"/><line x1="545.5881960416731" y1="251.3466773071051" x2="545.5881960416731" y2="251.3466773071051" stroke="#979797" stroke-width="1"/><line x1="545.5881960416731" y1="251.3466773071051" x2="542.9167895333791" y2="272.63651880155066" stroke="#979797" stroke-width="1"/><line x1="542.9167895333791" y1="272.63651880155066" x2="541.5810861330461" y2="283.28143907062093" stroke="#979797" stroke-width="1"/><line x1="541.5810861330461" y1="283.28143907062093" x2="541.5810861330461" y2="283.28143907062093" stroke="#979797" stroke-width="1"/><line x1="541.5810861330461" y1="283.28143907062093" x2="531.545786236814" y2="315.4797258051225" stroke="#979797" stroke-width="1"/><line x1="531.545786236814" y1="315.4797258051225" x2="497.56592048862984" y2="352.8758027900503" stroke="#979797" stroke-width="1"/><line x1="341.5380535296989" y1="301.0927664050514" x2="360.1983890555995" y2="312.6201459593787" stroke="#979797" stroke-width="1"/><line x1="360.1983890555995" y1="312.6201459593787" x2="375.6935329584929" y2="332.8659622030608" stroke="#979797" stroke-width="1"/><line x1="375.6935329584929" y1="332.8659622030608" x2="383.44110461756793" y2="342.9888693685971" stroke="#979797" stroke-width="1"/><line x1="383.44110461756793" y1="342.9888693685971" x2="383.44110461756793" y2="342.9888693685971" stroke="#979797" stroke-width="1"/><line x1="383.44110461756793" y1="342.9888693685971" x2="406.2393604455132" y2="352.25587240671763" stroke="#979797" stroke-width="1"/><line x1="406.2393604455132" y1="352.25587240671763" x2="417.6384885452665" y2="356.88937282328726" stroke="#979797" stroke-width="1"/><line x1="417.6384885452665" y1="356.88937282328726" x2="417.6384885452665" y2="356.88937282328726" stroke="#979797" stroke-width="1"/><line x1="417.6384885452665" y1="356.88937282328726" x2="464.1711593001611" y2="363.6577034059074" stroke="#979797" stroke-width="1"/><line x1="464.1711593001611" y1="363.6577034059074" x2="474.22470025091417" y2="363.0018602739343" stroke="#979797" stroke-width="1"/><line x1="379.7776226363817" y1="405.94418388882235" x2="391.80880860242445" y2="403.19064916643515" stroke="#979797" stroke-width="1"/><line x1="391.80880860242445" y1="403.19064916643515" x2="397.82440062914105" y2="401.81388209761326" stroke="#979797" stroke-width="1"/><line x1="397.82440062914105" y1="401.81388209761326" x2="397.82440062914105" y2="401.81388209761326" stroke="#979797" stroke-width="1"/><line x1="397.82440062914105" y1="401.81388209761326" x2="410.921014539828" y2="408.4951619145297" stroke="#979797" stroke-width="1"/><line x1="410.921014539828" y1="408.4951619145297" x2="417.46932087083314" y2="411.83580149102136" stroke="#979797" stroke-width="1"/><line x1="417.46932087083314" y1="411.83580149102136" x2="417.46932087083314" y2="411.83580149102136" stroke="#979797" stroke-width="1"/><line x1="417.46932087083314" y1="411.83580149102136" x2="445.13888789374766" y2="412.4132873992811" stroke="#979797" stroke-width="1"/><line x1="445.13888789374766" y1="412.4132873992811" x2="478.6492615139413" y2="384.58465965766555" stroke="#979797" stroke-width="1"/><line x1="438.228031537587" y1="498.98371174152646" x2="453.7388717884461" y2="471.9485760856445" stroke="#979797" stroke-width="1"/><line x1="453.7388717884461" y1="471.9485760856445" x2="469.360318224578" y2="441.39070973336595" stroke="#979797" stroke-width="1"/><line x1="469.360318224578" y1="441.39070973336595" x2="480.15620610547273" y2="404.1234882524448" stroke="#979797" stroke-width="1"/><rect id="Rectangle" stroke="#979797" fill-opacity="0" fill="#D8D8D8" x="0.5" y="0.5" width="1825" height="1229"/>
        <line x1="743.6322241750477" y1="695.5218150268248" x2="758.6181376675829" y2="718.9175455267364" stroke="#979797" stroke-width="1"/><line x1="758.6181376675829" y1="718.9175455267364" x2="773.0447092079814" y2="723.6050227693249" stroke="#979797" stroke-width="1"/><line x1="773.0447092079814" y1="723.6050227693249" x2="795.1922391240155" y2="712.2746794218075" stroke="#979797" stroke-width="1"/><line x1="795.1922391240155" y1="712.2746794218075" x2="794.6666486206152" y2="700.6940486086805" stroke="#979797" stroke-width="1"/><line x1="794.6666486206152" y1="700.6940486086805" x2="802.0309258122655" y2="691.2273659854808" stroke="#979797" stroke-width="1"/><line x1="802.0309258122655" y1="691.2273659854808" x2="787.2431319926784" y2="669.6993450437567" stroke="#979797" stroke-width="1"/><line x1="787.2431319926784" y1="669.6993450437567" x2="775.8164475878211" y2="665.9865902179812" stroke="#979797" stroke-width="1"/><line x1="775.8164475878211" y1="665.9865902179812" x2="750.4709108632977" y2="674.4745015904981" stroke="#979797" stroke-width="1"/><line x1="750.4709503850422" y1="674.4744947743479" x2="750.5508120033492" y2="662.2010050261085" stroke="#979797" stroke-width="1"/><line x1="750.5508120033492" y1="662.2010050261085" x2="750.5907426579943" y2="656.064260627517" stroke="#979797" stroke-width="1"/><line x1="750.5907426579943" y1="656.064260627517" x2="750.5907426579943" y2="656.064260627517" stroke="#979797" stroke-width="1"/><line x1="750.5907426579943" y1="656.064260627517" x2="760.9719396553006" y2="648.2836980856569" stroke="#979797" stroke-width="1"/><line x1="760.9719396553006" y1="648.2836980856569" x2="766.1625384749735" y2="644.3934174447635" stroke="#979797" stroke-width="1"/><line x1="766.1625384749735" y1="644.3934174447635" x2="766.1625384749735" y2="644.3934174447635" stroke="#979797" stroke-width="1"/><line x1="766.1625384749735" y1="644.3934174447635" x2="736.2322070653278" y2="636.5878328915202" stroke="#979797" stroke-width="1"/><line x1="736.2322070653278" y1="636.5878328915202" x2="721.267041039485" y2="632.6850399848618" stroke="#979797" stroke-width="1"/><line x1="721.267041039485" y1="632.6850399848618" x2="721.267041039485" y2="632.6850399848618" stroke="#979797" stroke-width="1"/><line x1="721.267041039485" y1="632.6850399848618" x2="694.7186930765719" y2="604.4543121226417" stroke="#979797" stroke-width="1"/><line x1="743.6322784077872" y1="695.521766985164" x2="737.2840123598005" y2="709.0235512496583" stroke="#979797" stroke-width="1"/><line x1="737.2840123598005" y1="709.0235512496583" x2="734.1098785512618" y2="715.7744441784535" stroke="#979797" stroke-width="1"/><line x1="734.1098785512618" y1="715.7744441784535" x2="734.1098785512618" y2="715.7744441784535" stroke="#979797" stroke-width="1"/><line x1="734.1098785512618" y1="715.7744441784535" x2="736.3653440444261" y2="728.186275615767" stroke="#979797" stroke-width="1"/><line x1="736.3653440444261" y1="728.186275615767" x2="737.4930755309349" y2="734.3921919764633" stroke="#979797" stroke-width="1"/><line x1="737.4930755309349" y1="734.3921919764633" x2="737.4930755309349" y2="734.3921919764633" stroke="#979797" stroke-width="1"/><line x1="737.4930755309349" y1="734.3921919764633" x2="725.2896245154824" y2="734.7911590617014" stroke="#979797" stroke-width="1"/><line x1="725.2896245154824" y1="734.7911590617014" x2="719.1878980566996" y2="734.9906422953034" stroke="#979797" stroke-width="1"/><line x1="719.1878980566996" y1="734.9906422953034" x2="719.1878980566996" y2="734.9906422953034" stroke="#979797" stroke-width="1"/><line x1="719.1878980566996" y1="734.9906422953034" x2="705.729961401304" y2="727.2674565435753" stroke="#979797" stroke-width="1"/><line x1="705.729961401304" y1="727.2674565435753" x2="699.0009929190975" y2="723.4058641432397" stroke="#979797" stroke-width="1"/><line x1="699.0009929190975" y1="723.4058641432397" x2="699.0009929190975" y2="723.4058641432397" stroke="#979797" stroke-width="1"/><line x1="699.0009929190975" y1="723.4058641432397" x2="656.8736348340112" y2="734.7228450367802" stroke="#979797" stroke-width="1"/><line x1="795.1923255779291" y1="712.2747030217279" x2="798.566705482036" y2="713.0987515639736" stroke="#979797" stroke-width="1"/><line x1="798.566705482036" y1="713.0987515639736" x2="800.2538949585611" y2="713.510775680588" stroke="#979797" stroke-width="1"/><line x1="800.2538949585611" y1="713.510775680588" x2="800.2538949585611" y2="713.510775680588" stroke="#979797" stroke-width="1"/><line x1="800.2538949585611" y1="713.510775680588" x2="800.0457763708422" y2="718.466391607504" stroke="#979797" stroke-width="1"/><line x1="800.0457763708422" y1="718.466391607504" x2="799.941716755963" y2="720.9441989409253" stroke="#979797" stroke-width="1"/><line x1="799.941716755963" y1="720.9441989409253" x2="799.941716755963" y2="720.9441989409253" stroke="#979797" stroke-width="1"/><line x1="799.941716755963" y1="720.9441989409253" x2="804.275361742312" y2="724.2023585721117" stroke="#979797" stroke-width="1"/><line x1="804.275361742312" y1="724.2023585721117" x2="806.4421842354864" y2="725.8314383877049" stroke="#979797" stroke-width="1"/><line x1="806.4421842354864" y1="725.8314383877049" x2="806.4421842354864" y2="725.8314383877049" stroke="#979797" stroke-width="1"/><line x1="806.4421842354864" y1="725.8314383877049" x2="821.3548741761047" y2="727.9613829165395" stroke="#979797" stroke-width="1"/><line x1="821.3548741761047" y1="727.9613829165395" x2="828.8112189919053" y2="729.0263556564851" stroke="#979797" stroke-width="1"/><line x1="828.8112189919053" y1="729.0263556564851" x2="828.8112189919053" y2="729.0263556564851" stroke="#979797" stroke-width="1"/><line x1="828.8112189919053" y1="729.0263556564851" x2="832.2461670343223" y2="732.401847296464" stroke="#979797" stroke-width="1"/><line x1="832.2461670343223" y1="732.401847296464" x2="833.963640104474" y2="734.0895928074365" stroke="#979797" stroke-width="1"/><line x1="833.963640104474" y1="734.0895928074365" x2="833.963640104474" y2="734.0895928074365" stroke="#979797" stroke-width="1"/><line x1="833.963640104474" y1="734.0895928074365" x2="837.6587654063553" y2="733.3015455436488" stroke="#979797" stroke-width="1"/><line x1="837.6587654063553" y1="733.3015455436488" x2="839.5063278907846" y2="732.9075208061898" stroke="#979797" stroke-width="1"/><line x1="839.5063278907846" y1="732.9075208061898" x2="839.5063278907846" y2="732.9075208061898" stroke="#979797" stroke-width="1"/><line x1="839.5063278907846" y1="732.9075208061898" x2="846.6173011656267" y2="733.936825134271" stroke="#979797" stroke-width="1"/><line x1="846.6173011656267" y1="733.936825134271" x2="850.1727879575562" y2="734.4514768227831" stroke="#979797" stroke-width="1"/><line x1="850.1727879575562" y1="734.4514768227831" x2="850.1727879575562" y2="734.4514768227831" stroke="#979797" stroke-width="1"/><line x1="850.1727879575562" y1="734.4514768227831" x2="851.8394214526415" y2="738.5722772234185" stroke="#979797" stroke-width="1"/><line x1="851.8394214526415" y1="738.5722772234185" x2="852.6727372491275" y2="740.6326771147191" stroke="#979797" stroke-width="1"/><line x1="852.6727372491275" y1="740.6326771147191" x2="852.6727372491275" y2="740.6326771147191" stroke="#979797" stroke-width="1"/><line x1="852.6727372491275" y1="740.6326771147191" x2="856.838278094825" y2="737.8363721188013" stroke="#979797" stroke-width="1"/><line x1="856.838278094825" y1="737.8363721188013" x2="858.9210478876371" y2="736.4382199418619" stroke="#979797" stroke-width="1"/><line x1="858.9210478876371" y1="736.4382199418619" x2="858.9210478876371" y2="736.4382199418619" stroke="#979797" stroke-width="1"/><line x1="858.9210478876371" y1="736.4382199418619" x2="865.4453433652309" y2="740.2502312332866" stroke="#979797" stroke-width="1"/><line x1="865.4453433652309" y1="740.2502312332866" x2="868.7074901529712" y2="742.1562365699818" stroke="#979797" stroke-width="1"/><line x1="868.7074901529712" y1="742.1562365699818" x2="868.7074901529712" y2="742.1562365699818" stroke="#979797" stroke-width="1"/><line x1="868.7074901529712" y1="742.1562365699818" x2="877.4333613416422" y2="743.9390943276169" stroke="#979797" stroke-width="1"/><line x1="877.4333613416422" y1="743.9390943276169" x2="881.7962969359776" y2="744.8305232064342" stroke="#979797" stroke-width="1"/><line x1="881.7962969359776" y1="744.8305232064342" x2="881.7962969359776" y2="744.8305232064342" stroke="#979797" stroke-width="1"/><line x1="881.7962969359776" y1="744.8305232064342" x2="878.3042055943935" y2="740.8869220573988" stroke="#979797" stroke-width="1"/><line x1="878.3042055943935" y1="740.8869220573988" x2="876.5581589725449" y2="738.9151211738642" stroke="#979797" stroke-width="1"/><line x1="876.5581589725449" y1="738.9151211738642" x2="876.5581589725449" y2="738.9151211738642" stroke="#979797" stroke-width="1"/><line x1="876.5581589725449" y1="738.9151211738642" x2="879.5023311951772" y2="738.4245585828445" stroke="#979797" stroke-width="1"/><line x1="879.5023311951772" y1="738.4245585828445" x2="880.9744173064935" y2="738.1792772873347" stroke="#979797" stroke-width="1"/><line x1="880.9744173064935" y1="738.1792772873347" x2="880.9744173064935" y2="738.1792772873347" stroke="#979797" stroke-width="1"/><line x1="880.9744173064935" y1="738.1792772873347" x2="885.9828968403128" y2="743.2440922687761" stroke="#979797" stroke-width="1"/><line x1="885.9828968403128" y1="743.2440922687761" x2="888.4871373917676" y2="745.776498962949" stroke="#979797" stroke-width="1"/><line x1="888.4871373917676" y1="745.776498962949" x2="888.4871373917676" y2="745.776498962949" stroke="#979797" stroke-width="1"/><line x1="888.4871373917676" y1="745.776498962949" x2="897.3962182059279" y2="750.3682096562807" stroke="#979797" stroke-width="1"/><line x1="897.3962182059279" y1="750.3682096562807" x2="901.8507587675165" y2="752.6640645274183" stroke="#979797" stroke-width="1"/><line x1="901.8507587675165" y1="752.6640645274183" x2="901.8507587675165" y2="752.6640645274183" stroke="#979797" stroke-width="1"/><line x1="901.8507587675165" y1="752.6640645274183" x2="910.2460673659743" y2="752.8504330837645" stroke="#979797" stroke-width="1"/><line x1="910.2460673659743" y1="752.8504330837645" x2="914.4437226162596" y2="752.9436176709545" stroke="#979797" stroke-width="1"/><line x1="914.4437226162596" y1="752.9436176709545" x2="914.4437226162596" y2="752.9436176709545" stroke="#979797" stroke-width="1"/><line x1="914.4437226162596" y1="752.9436176709545" x2="922.4463901282486" y2="768.3203024535846" stroke="#979797" stroke-width="1"/><line x1="922.4463901282486" y1="768.3203024535846" x2="926.447723884243" y2="776.0086448448997" stroke="#979797" stroke-width="1"/><line x1="926.447723884243" y1="776.0086448448997" x2="926.447723884243" y2="776.0086448448997" stroke="#979797" stroke-width="1"/><line x1="926.447723884243" y1="776.0086448448997" x2="943.2767768783326" y2="788.7867786005584" stroke="#979797" stroke-width="1"/><line x1="943.2767768783326" y1="788.7867786005584" x2="951.6913038509056" y2="795.1758456328962" stroke="#979797" stroke-width="1"/><line x1="951.6913038509056" y1="795.1758456328962" x2="951.6913038509056" y2="795.1758456328962" stroke="#979797" stroke-width="1"/><line x1="951.6913038509056" y1="795.1758456328962" x2="973.634988468287" y2="794.9506145027217" stroke="#979797" stroke-width="1"/><line x1="973.634988468287" y1="794.9506145027217" x2="984.6068299804297" y2="794.8379981530891" stroke="#979797" stroke-width="1"/><line x1="984.6068299804297" y1="794.8379981530891" x2="984.6068299804297" y2="794.8379981530891" stroke="#979797" stroke-width="1"/><line x1="984.6068299804297" y1="794.8379981530891" x2="1003.3030376978234" y2="781.4547692209705" stroke="#979797" stroke-width="1"/><line x1="1003.3030376978234" y1="781.4547692209705" x2="1012.6511418775401" y2="774.7631553849479" stroke="#979797" stroke-width="1"/><line x1="1012.6511418775401" y1="774.7631553849479" x2="1012.6511418775401" y2="774.7631553849479" stroke="#979797" stroke-width="1"/><line x1="1012.6511418775401" y1="774.7631553849479" x2="1007.8347587695444" y2="756.88599147252" stroke="#979797" stroke-width="1"/><line x1="1007.8347587695444" y1="756.88599147252" x2="1005.426567370055" y2="747.9474090407778" stroke="#979797" stroke-width="1"/><line x1="1005.426567370055" y1="747.9474090407778" x2="1005.426567370055" y2="747.9474090407778" stroke="#979797" stroke-width="1"/><line x1="1005.426567370055" y1="747.9474090407778" x2="993.5117896761737" y2="734.6564861828496" stroke="#979797" stroke-width="1"/><line x1="993.5117896761737" y1="734.6564861828496" x2="987.5544020893069" y2="728.0110241118459" stroke="#979797" stroke-width="1"/><line x1="987.5544020893069" y1="728.0110241118459" x2="987.5544020893069" y2="728.0110241118459" stroke="#979797" stroke-width="1"/><line x1="987.5544020893069" y1="728.0110241118459" x2="975.6269927778424" y2="721.9309583354878" stroke="#979797" stroke-width="1"/><line x1="975.6269927778424" y1="721.9309583354878" x2="969.6632884311271" y2="718.8909244962523" stroke="#979797" stroke-width="1"/><line x1="969.6632884311271" y1="718.8909244962523" x2="969.6632884311271" y2="718.8909244962523" stroke="#979797" stroke-width="1"/><line x1="969.6632884311271" y1="718.8909244962523" x2="952.7164617942251" y2="719.2023051170643" stroke="#979797" stroke-width="1"/><line x1="952.7164617942251" y1="719.2023051170643" x2="944.243048784791" y2="719.3579944764138" stroke="#979797" stroke-width="1"/><line x1="944.243048784791" y1="719.3579944764138" x2="944.243048784791" y2="719.3579944764138" stroke="#979797" stroke-width="1"/><line x1="944.243048784791" y1="719.3579944764138" x2="928.357917681539" y2="727.5516132547984" stroke="#979797" stroke-width="1"/><line x1="928.357917681539" y1="727.5516132547984" x2="920.4153521299131" y2="731.6484226439909" stroke="#979797" stroke-width="1"/><line x1="920.4153521299131" y1="731.6484226439909" x2="920.4153521299131" y2="731.6484226439909" stroke="#979797" stroke-width="1"/><line x1="920.4153521299131" y1="731.6484226439909" x2="914.7674314208023" y2="728.9285553830271" stroke="#979797" stroke-width="1"/><line x1="914.7674314208023" y1="728.9285553830271" x2="911.9434718507922" y2="727.5686209559971" stroke="#979797" stroke-width="1"/><line x1="911.9434718507922" y1="727.5686209559971" x2="911.9434718507922" y2="727.5686209559971" stroke="#979797" stroke-width="1"/><line x1="911.9434718507922" y1="727.5686209559971" x2="892.1671678246596" y2="727.5810986266677" stroke="#979797" stroke-width="1"/><line x1="892.1671678246596" y1="727.5810986266677" x2="882.2790161326132" y2="727.5873380920397" stroke="#979797" stroke-width="1"/><line x1="882.2790161326132" y1="727.5873380920397" x2="882.2790161326132" y2="727.5873380920397" stroke="#979797" stroke-width="1"/><line x1="882.2790161326132" y1="727.5873380920397" x2="886.0891956437473" y2="722.9286362131018" stroke="#979797" stroke-width="1"/><line x1="886.0891956437473" y1="722.9286362131018" x2="887.9942852448057" y2="720.599285749161" stroke="#979797" stroke-width="1"/><line x1="887.9942852448057" y1="720.599285749161" x2="887.9942852448057" y2="720.599285749161" stroke="#979797" stroke-width="1"/><line x1="887.9942852448057" y1="720.599285749161" x2="874.6404998427925" y2="717.6463207251701" stroke="#979797" stroke-width="1"/><line x1="874.6404998427925" y1="717.6463207251701" x2="867.9636076173139" y2="716.1698383676832" stroke="#979797" stroke-width="1"/><line x1="867.9636076173139" y1="716.1698383676832" x2="867.9636076173139" y2="716.1698383676832" stroke="#979797" stroke-width="1"/><line x1="867.9636076173139" y1="716.1698383676832" x2="865.4275716877253" y2="713.4184023007899" stroke="#979797" stroke-width="1"/><line x1="865.4275716877253" y1="713.4184023007899" x2="864.1595535684226" y2="712.0426847428715" stroke="#979797" stroke-width="1"/><line x1="864.1595535684226" y1="712.0426847428715" x2="864.1595535684226" y2="712.0426847428715" stroke="#979797" stroke-width="1"/><line x1="864.1595535684226" y1="712.0426847428715" x2="860.9386634473387" y2="710.9105125049653" stroke="#979797" stroke-width="1"/><line x1="860.9386634473387" y1="710.9105125049653" x2="858.6667145997014" y2="710.111901916365" stroke="#979797" stroke-width="1"/><line x1="858.6667145997014" y1="710.111901916365" x2="857.3437101876971" y2="709.6468529530654" stroke="#979797" stroke-width="1"/><line x1="857.3437101876971" y1="709.6468529530654" x2="850.493113565567" y2="707.2388059667861" stroke="#979797" stroke-width="1"/><line x1="850.493113565567" y1="707.2388059667861" x2="847.0678162055585" y2="706.0347827826636" stroke="#979797" stroke-width="1"/><line x1="847.0678162055585" y1="706.0347827826636" x2="847.0678162055585" y2="706.0347827826636" stroke="#979797" stroke-width="1"/><line x1="847.0678162055585" y1="706.0347827826636" x2="843.7517523090216" y2="701.847013675126" stroke="#979797" stroke-width="1"/><line x1="843.7517523090216" y1="701.847013675126" x2="842.0937211573012" y2="699.7531299059025" stroke="#979797" stroke-width="1"/><line x1="842.0937211573012" y1="699.7531299059025" x2="842.0937211573012" y2="699.7531299059025" stroke="#979797" stroke-width="1"/><line x1="842.0937211573012" y1="699.7531299059025" x2="837.6276920519924" y2="701.5944496162266" stroke="#979797" stroke-width="1"/><line x1="837.6276920519924" y1="701.5944496162266" x2="835.3946779748663" y2="702.5151096258973" stroke="#979797" stroke-width="1"/><line x1="835.3946779748663" y1="702.5151096258973" x2="835.3946779748663" y2="702.5151096258973" stroke="#979797" stroke-width="1"/><line x1="835.3946779748663" y1="702.5151096258973" x2="826.618944681925" y2="695.5687225159531" stroke="#979797" stroke-width="1"/><line x1="826.618944681925" y1="695.5687225159531" x2="822.2310786774938" y2="692.0955302210548" stroke="#979797" stroke-width="1"/><line x1="822.2310786774938" y1="692.0955302210548" x2="822.2310786774938" y2="692.0955302210548" stroke="#979797" stroke-width="1"/><line x1="822.2310786774938" y1="692.0955302210548" x2="814.5844503347394" y2="690.9292471573508" stroke="#979797" stroke-width="1"/><line x1="814.5844503347394" y1="690.9292471573508" x2="810.7611355333255" y2="690.3461059465186" stroke="#979797" stroke-width="1"/><line x1="810.7611355333255" y1="690.3461059465186" x2="810.7611355333255" y2="690.3461059465186" stroke="#979797" stroke-width="1"/><line x1="810.7611355333255" y1="690.3461059465186" x2="807.4637620665086" y2="696.6331146147784" stroke="#979797" stroke-width="1"/><line x1="807.4637620665086" y1="696.6331146147784" x2="802.0310122661791" y2="691.2273895854014" stroke="#979797" stroke-width="1"/><line x1="743.8947489449088" y1="782.4332393152732" x2="760.5983913092336" y2="768.3800254289658" stroke="#979797" stroke-width="1"/><line x1="760.5983913092336" y1="768.3800254289658" x2="768.9502124913961" y2="761.353418485812" stroke="#979797" stroke-width="1"/><line x1="768.9502124913961" y1="761.353418485812" x2="768.9502124913961" y2="761.353418485812" stroke="#979797" stroke-width="1"/><line x1="768.9502124913961" y1="761.353418485812" x2="797.7007659168963" y2="747.54173414448" stroke="#979797" stroke-width="1"/><line x1="797.7007659168963" y1="747.54173414448" x2="833.9636223614673" y2="734.0896133978745" stroke="#979797" stroke-width="1"/><line x1="835.9997052414797" y1="839.9635747623813" x2="836.9930170214025" y2="816.714815723934" stroke="#979797" stroke-width="1"/><line x1="836.9930170214025" y1="816.714815723934" x2="832.6217648539711" y2="804.9273341028571" stroke="#979797" stroke-width="1"/><line x1="832.6217648539711" y1="804.9273341028571" x2="830.4361387702556" y2="799.0335932923188" stroke="#979797" stroke-width="1"/><line x1="830.4361387702556" y1="799.0335932923188" x2="830.4361387702556" y2="799.0335932923188" stroke="#979797" stroke-width="1"/><line x1="830.4361387702556" y1="799.0335932923188" x2="831.9576536497336" y2="769.8961807724017" stroke="#979797" stroke-width="1"/><line x1="831.9576536497336" y1="769.8961807724017" x2="852.6727374830675" y2="740.6326916119313" stroke="#979797" stroke-width="1"/><line x1="938.8201031921005" y1="864.3624241907521" x2="932.747330688645" y2="848.7747891211872" stroke="#979797" stroke-width="1"/><line x1="932.747330688645" y1="848.7747891211872" x2="929.7109444369172" y2="840.9809715864046" stroke="#979797" stroke-width="1"/><line x1="929.7109444369172" y1="840.9809715864046" x2="929.7109444369172" y2="840.9809715864046" stroke="#979797" stroke-width="1"/><line x1="929.7109444369172" y1="840.9809715864046" x2="913.8035833882428" y2="826.5813311180896" stroke="#979797" stroke-width="1"/><line x1="913.8035833882428" y1="826.5813311180896" x2="905.8499031849254" y2="819.3815115139687" stroke="#979797" stroke-width="1"/><line x1="905.8499031849254" y1="819.3815115139687" x2="905.8499031849254" y2="819.3815115139687" stroke="#979797" stroke-width="1"/><line x1="905.8499031849254" y1="819.3815115139687" x2="885.2306223359503" y2="792.6928965271323" stroke="#979797" stroke-width="1"/><line x1="885.2306223359503" y1="792.6928965271323" x2="874.0875997288886" y2="743.4087114643175" stroke="#979797" stroke-width="1"/><line x1="1005.9995743738053" y1="645.2998017300616" x2="985.8537700455786" y2="653.9736207470017" stroke="#979797" stroke-width="1"/><line x1="985.8537700455786" y1="653.9736207470017" x2="960.3817188606988" y2="655.0539764195396" stroke="#979797" stroke-width="1"/><line x1="960.3817188606988" y1="655.0539764195396" x2="947.6456935772759" y2="655.5941533047521" stroke="#979797" stroke-width="1"/><line x1="947.6456935772759" y1="655.5941533047521" x2="947.6456935772759" y2="655.5941533047521" stroke="#979797" stroke-width="1"/><line x1="947.6456935772759" y1="655.5941533047521" x2="926.9780674033943" y2="668.9540578542509" stroke="#979797" stroke-width="1"/><line x1="926.9780674033943" y1="668.9540578542509" x2="916.6442538409253" y2="675.6340099744917" stroke="#979797" stroke-width="1"/><line x1="916.6442538409253" y1="675.6340099744917" x2="916.6442538409253" y2="675.6340099744917" stroke="#979797" stroke-width="1"/><line x1="916.6442538409253" y1="675.6340099744917" x2="884.409919802333" y2="709.8691867719257" stroke="#979797" stroke-width="1"/><line x1="884.409919802333" y1="709.8691867719257" x2="879.1806805443623" y2="718.4807425115771" stroke="#979797" stroke-width="1"/><line x1="898.1770661541897" y1="616.4835880697549" x2="893.5318252885913" y2="627.918320331439" stroke="#979797" stroke-width="1"/><line x1="893.5318252885913" y1="627.918320331439" x2="891.2092047012836" y2="633.6356869378095" stroke="#979797" stroke-width="1"/><line x1="891.2092047012836" y1="633.6356869378095" x2="891.2092047012836" y2="633.6356869378095" stroke="#979797" stroke-width="1"/><line x1="891.2092047012836" y1="633.6356869378095" x2="878.2243128057061" y2="640.5315796863215" stroke="#979797" stroke-width="1"/><line x1="878.2243128057061" y1="640.5315796863215" x2="871.7318659068607" y2="643.9795257515607" stroke="#979797" stroke-width="1"/><line x1="871.7318659068607" y1="643.9795257515607" x2="871.7318659068607" y2="643.9795257515607" stroke="#979797" stroke-width="1"/><line x1="871.7318659068607" y1="643.9795257515607" x2="855.3882054961819" y2="666.31387583367" stroke="#979797" stroke-width="1"/><line x1="855.3882054961819" y1="666.31387583367" x2="858.9633221186208" y2="709.7258120181152" stroke="#979797" stroke-width="1"/><line x1="788.4377864038952" y1="610.9979246386208" x2="801.687020259126" y2="639.2103788555764" stroke="#979797" stroke-width="1"/><line x1="801.687020259126" y1="639.2103788555764" x2="817.7584653732197" y2="669.5339907233163" stroke="#979797" stroke-width="1"/><line x1="817.7584653732197" y1="669.5339907233163" x2="842.0937200873743" y2="699.7530647496149" stroke="#979797" stroke-width="1"/><line x1="459.96893477779656" y1="786.5745747540121" x2="432.66296918981857" y2="791.7050768871767" stroke="#979797" stroke-width="1"/><line x1="432.66296918981857" y1="791.7050768871767" x2="422.9125271524216" y2="803.3252012146262" stroke="#979797" stroke-width="1"/><line x1="422.9125271524216" y1="803.3252012146262" x2="425.12122783651546" y2="828.104454694954" stroke="#979797" stroke-width="1"/><line x1="425.12122783651546" y1="828.104454694954" x2="436.05549077736816" y2="831.9553170906449" stroke="#979797" stroke-width="1"/><line x1="436.05549077736816" y1="831.9553170906449" x2="442.0741406790045" y2="842.3296376084671" stroke="#979797" stroke-width="1"/><line x1="442.0741406790045" y1="842.3296376084671" x2="467.57417841779466" y2="836.6831718794615" stroke="#979797" stroke-width="1"/><line x1="467.57417841779466" y1="836.6831718794615" x2="475.29709606716096" y2="827.4793570255201" stroke="#979797" stroke-width="1"/><line x1="475.29709606716096" y1="827.4793570255201" x2="476.9218476202856" y2="800.7997576675252" stroke="#979797" stroke-width="1"/><line x1="476.9218264473477" y1="800.7997374421539" x2="488.27169129232755" y2="805.4715140291607" stroke="#979797" stroke-width="1"/><line x1="488.27169129232755" y1="805.4715140291607" x2="493.9466233317953" y2="807.8074020012702" stroke="#979797" stroke-width="1"/><line x1="493.9466233317953" y1="807.8074020012702" x2="493.9466233317953" y2="807.8074020012702" stroke="#979797" stroke-width="1"/><line x1="493.9466233317953" y1="807.8074020012702" x2="497.27176981452703" y2="820.3473310429601" stroke="#979797" stroke-width="1"/><line x1="497.27176981452703" y1="820.3473310429601" x2="498.93434343891545" y2="826.6172958851989" stroke="#979797" stroke-width="1"/><line x1="498.93434343891545" y1="826.6172958851989" x2="498.93434343891545" y2="826.6172958851989" stroke="#979797" stroke-width="1"/><line x1="498.93434343891545" y1="826.6172958851989" x2="517.3836547780584" y2="801.7903978706204" stroke="#979797" stroke-width="1"/><line x1="517.3836547780584" y1="801.7903978706204" x2="526.6083105708867" y2="789.376950272163" stroke="#979797" stroke-width="1"/><line x1="526.6083105708867" y1="789.376950272163" x2="526.6083105708867" y2="789.376950272163" stroke="#979797" stroke-width="1"/><line x1="526.6083105708867" y1="789.376950272163" x2="562.7285724814008" y2="775.3371667036025" stroke="#979797" stroke-width="1"/><line x1="459.96891947034516" y1="786.5745375110614" x2="449.82838464475185" y2="775.6306696757274" stroke="#979797" stroke-width="1"/><line x1="449.82838464475185" y1="775.6306696757274" x2="444.7581165275391" y2="770.1587358196887" stroke="#979797" stroke-width="1"/><line x1="444.7581165275391" y1="770.1587358196887" x2="444.7581165275391" y2="770.1587358196887" stroke="#979797" stroke-width="1"/><line x1="444.7581165275391" y1="770.1587358196887" x2="432.4051552110837" y2="767.6004123506543" stroke="#979797" stroke-width="1"/><line x1="432.4051552110837" y1="767.6004123506543" x2="426.22867423146215" y2="766.3212509991592" stroke="#979797" stroke-width="1"/><line x1="426.22867423146215" y1="766.3212509991592" x2="426.22867423146215" y2="766.3212509991592" stroke="#979797" stroke-width="1"/><line x1="426.22867423146215" y1="766.3212509991592" x2="430.43025224713006" y2="754.8569517809045" stroke="#979797" stroke-width="1"/><line x1="430.43025224713006" y1="754.8569517809045" x2="432.53104093357024" y2="749.1248025547993" stroke="#979797" stroke-width="1"/><line x1="432.53104093357024" y1="749.1248025547993" x2="432.53104093357024" y2="749.1248025547993" stroke="#979797" stroke-width="1"/><line x1="432.53104093357024" y1="749.1248025547993" x2="444.7332857500208" y2="739.5399758680749" stroke="#979797" stroke-width="1"/><line x1="444.7332857500208" y1="739.5399758680749" x2="450.83440783685234" y2="734.747562907735" stroke="#979797" stroke-width="1"/><line x1="450.83440783685234" y1="734.747562907735" x2="450.83440783685234" y2="734.747562907735" stroke="#979797" stroke-width="1"/><line x1="450.83440783685234" y1="734.747562907735" x2="456.12267197178704" y2="691.4483409954071" stroke="#979797" stroke-width="1"/><line x1="425.1212061411085" y1="828.104409371146" x2="423.09309667659033" y2="830.9243859201885" stroke="#979797" stroke-width="1"/><line x1="423.09309667659033" y1="830.9243859201885" x2="422.0790422657251" y2="832.3343738116876" stroke="#979797" stroke-width="1"/><line x1="422.0790422657251" y1="832.3343738116876" x2="422.0790422657251" y2="832.3343738116876" stroke="#979797" stroke-width="1"/><line x1="422.0790422657251" y1="832.3343738116876" x2="417.5622377840265" y2="830.2850032166596" stroke="#979797" stroke-width="1"/><line x1="417.5622377840265" y1="830.2850032166596" x2="415.3038356048055" y2="829.2603186235617" stroke="#979797" stroke-width="1"/><line x1="415.3038356048055" y1="829.2603186235617" x2="415.3038356048055" y2="829.2603186235617" stroke="#979797" stroke-width="1"/><line x1="415.3038356048055" y1="829.2603186235617" x2="410.65951061375813" y2="832.0578762060848" stroke="#979797" stroke-width="1"/><line x1="410.65951061375813" y1="832.0578762060848" x2="408.33734811823433" y2="833.4566549973464" stroke="#979797" stroke-width="1"/><line x1="408.33734811823433" y1="833.4566549973464" x2="408.33734811823433" y2="833.4566549973464" stroke="#979797" stroke-width="1"/><line x1="408.33734811823433" y1="833.4566549973464" x2="400.77610596265345" y2="846.4855690743365" stroke="#979797" stroke-width="1"/><line x1="400.77610596265345" y1="846.4855690743365" x2="396.99548450184056" y2="853.0000257914378" stroke="#979797" stroke-width="1"/><line x1="396.99548450184056" y1="853.0000257914378" x2="396.99548450184056" y2="853.0000257914378" stroke="#979797" stroke-width="1"/><line x1="396.99548450184056" y1="853.0000257914378" x2="392.57902961008415" y2="854.9203719672417" stroke="#979797" stroke-width="1"/><line x1="392.57902961008415" y1="854.9203719672417" x2="390.37080184281194" y2="855.880545438166" stroke="#979797" stroke-width="1"/><line x1="390.37080184281194" y1="855.880545438166" x2="390.37080184281194" y2="855.880545438166" stroke="#979797" stroke-width="1"/><line x1="390.37080184281194" y1="855.880545438166" x2="389.71724888363656" y2="859.6018128935651" stroke="#979797" stroke-width="1"/><line x1="389.71724888363656" y1="859.6018128935651" x2="389.3904731700933" y2="861.4624472640523" stroke="#979797" stroke-width="1"/><line x1="389.3904731700933" y1="861.4624472640523" x2="389.3904731700933" y2="861.4624472640523" stroke="#979797" stroke-width="1"/><line x1="389.3904731700933" y1="861.4624472640523" x2="385.7723013413006" y2="867.670042686811" stroke="#979797" stroke-width="1"/><line x1="385.7723013413006" y1="867.670042686811" x2="383.9632158099265" y2="870.7738407195843" stroke="#979797" stroke-width="1"/><line x1="383.9632158099265" y1="870.7738407195843" x2="383.9632158099265" y2="870.7738407195843" stroke="#979797" stroke-width="1"/><line x1="383.9632158099265" y1="870.7738407195843" x2="379.5181443144984" y2="870.7754373874786" stroke="#979797" stroke-width="1"/><line x1="379.5181443144984" y1="870.7754373874786" x2="377.29560856678427" y2="870.7762357214259" stroke="#979797" stroke-width="1"/><line x1="377.29560856678427" y1="870.7762357214259" x2="377.29560856678427" y2="870.7762357214259" stroke="#979797" stroke-width="1"/><line x1="377.29560856678427" y1="870.7762357214259" x2="378.3278589882899" y2="875.6859714617234" stroke="#979797" stroke-width="1"/><line x1="378.3278589882899" y1="875.6859714617234" x2="378.8439831732329" y2="878.1408397765229" stroke="#979797" stroke-width="1"/><line x1="378.8439831732329" y1="878.1408397765229" x2="378.8439831732329" y2="878.1408397765229" stroke="#979797" stroke-width="1"/><line x1="378.8439831732329" y1="878.1408397765229" x2="372.86550438988513" y2="882.7620558757827" stroke="#979797" stroke-width="1"/><line x1="372.86550438988513" y1="882.7620558757827" x2="369.8762646768173" y2="885.072664308435" stroke="#979797" stroke-width="1"/><line x1="369.8762646768173" y1="885.072664308435" x2="369.8762646768173" y2="885.072664308435" stroke="#979797" stroke-width="1"/><line x1="369.8762646768173" y1="885.072664308435" x2="364.9544595111628" y2="892.4952801544231" stroke="#979797" stroke-width="1"/><line x1="364.9544595111628" y1="892.4952801544231" x2="362.4935566069415" y2="896.2065884604393" stroke="#979797" stroke-width="1"/><line x1="362.4935566069415" y1="896.2065884604393" x2="362.4935566069415" y2="896.2065884604393" stroke="#979797" stroke-width="1"/><line x1="362.4935566069415" y1="896.2065884604393" x2="367.4581603625462" y2="894.4460767420811" stroke="#979797" stroke-width="1"/><line x1="367.4581603625462" y1="894.4460767420811" x2="369.94046224034855" y2="893.565820882902" stroke="#979797" stroke-width="1"/><line x1="369.94046224034855" y1="893.565820882902" x2="369.94046224034855" y2="893.565820882902" stroke="#979797" stroke-width="1"/><line x1="369.94046224034855" y1="893.565820882902" x2="369.292398270434" y2="896.4793770478257" stroke="#979797" stroke-width="1"/><line x1="369.292398270434" y1="896.4793770478257" x2="368.968365964083" y2="897.9361555133096" stroke="#979797" stroke-width="1"/><line x1="368.968365964083" y1="897.9361555133096" x2="368.968365964083" y2="897.9361555133096" stroke="#979797" stroke-width="1"/><line x1="368.968365964083" y1="897.9361555133096" x2="362.39614183056494" y2="900.6826237865153" stroke="#979797" stroke-width="1"/><line x1="362.39614183056494" y1="900.6826237865153" x2="359.1100302084566" y2="902.055858948928" stroke="#979797" stroke-width="1"/><line x1="359.1100302084566" y1="902.055858948928" x2="359.1100302084566" y2="902.055858948928" stroke="#979797" stroke-width="1"/><line x1="359.1100302084566" y1="902.055858948928" x2="351.51526977449805" y2="908.5961297380678" stroke="#979797" stroke-width="1"/><line x1="351.51526977449805" y1="908.5961297380678" x2="347.71788929775346" y2="911.8662662200759" stroke="#979797" stroke-width="1"/><line x1="347.71788929775346" y1="911.8662662200759" x2="347.71788929775346" y2="911.8662662200759" stroke="#979797" stroke-width="1"/><line x1="347.71788929775346" y1="911.8662662200759" x2="344.4001534265668" y2="919.5804459166588" stroke="#979797" stroke-width="1"/><line x1="344.4001534265668" y1="919.5804459166588" x2="342.7412854909735" y2="923.4375357649503" stroke="#979797" stroke-width="1"/><line x1="342.7412854909735" y1="923.4375357649503" x2="342.7412854909735" y2="923.4375357649503" stroke="#979797" stroke-width="1"/><line x1="342.7412854909735" y1="923.4375357649503" x2="325.4864196088497" y2="925.0972723710813" stroke="#979797" stroke-width="1"/><line x1="325.4864196088497" y1="925.0972723710813" x2="316.85898602500015" y2="925.9271414401913" stroke="#979797" stroke-width="1"/><line x1="316.85898602500015" y1="925.9271414401913" x2="316.85898602500015" y2="925.9271414401913" stroke="#979797" stroke-width="1"/><line x1="316.85898602500015" y1="925.9271414401913" x2="298.70703250272686" y2="936.7439945075398" stroke="#979797" stroke-width="1"/><line x1="298.70703250272686" y1="936.7439945075398" x2="289.63105606298393" y2="942.1524206581919" stroke="#979797" stroke-width="1"/><line x1="289.63105606298393" y1="942.1524206581919" x2="289.63105606298393" y2="942.1524206581919" stroke="#979797" stroke-width="1"/><line x1="289.63105606298393" y1="942.1524206581919" x2="281.6196377889173" y2="962.5826238115393" stroke="#979797" stroke-width="1"/><line x1="281.6196377889173" y1="962.5826238115393" x2="277.6139303204815" y2="972.7977241775179" stroke="#979797" stroke-width="1"/><line x1="277.6139303204815" y1="972.7977241775179" x2="277.6139303204815" y2="972.7977241775179" stroke="#979797" stroke-width="1"/><line x1="277.6139303204815" y1="972.7977241775179" x2="283.0189182115656" y2="995.1459957441009" stroke="#979797" stroke-width="1"/><line x1="283.0189182115656" y1="995.1459957441009" x2="285.72141498802375" y2="1006.3201273757763" stroke="#979797" stroke-width="1"/><line x1="285.72141498802375" y1="1006.3201273757763" x2="285.72141498802375" y2="1006.3201273757763" stroke="#979797" stroke-width="1"/><line x1="285.72141498802375" y1="1006.3201273757763" x2="304.1010816017431" y2="1008.551358193807" stroke="#979797" stroke-width="1"/><line x1="304.1010816017431" y1="1008.551358193807" x2="313.2909152916251" y2="1009.6669739242161" stroke="#979797" stroke-width="1"/><line x1="313.2909152916251" y1="1009.6669739242161" x2="313.2909152916251" y2="1009.6669739242161" stroke="#979797" stroke-width="1"/><line x1="313.2909152916251" y1="1009.6669739242161" x2="330.07739994657663" y2="1003.5986502187704" stroke="#979797" stroke-width="1"/><line x1="330.07739994657663" y1="1003.5986502187704" x2="338.4706411117339" y2="1000.5644913069684" stroke="#979797" stroke-width="1"/><line x1="338.4706411117339" y1="1000.5644913069684" x2="338.4706411117339" y2="1000.5644913069684" stroke="#979797" stroke-width="1"/><line x1="338.4706411117339" y1="1000.5644913069684" x2="348.57606610472226" y2="991.7832226947951" stroke="#979797" stroke-width="1"/><line x1="348.57606610472226" y1="991.7832226947951" x2="353.62877872447325" y2="987.3925897975404" stroke="#979797" stroke-width="1"/><line x1="353.62877872447325" y1="987.3925897975404" x2="353.62877872447325" y2="987.3925897975404" stroke="#979797" stroke-width="1"/><line x1="353.62877872447325" y1="987.3925897975404" x2="359.68846604472344" y2="971.5631203967877" stroke="#979797" stroke-width="1"/><line x1="359.68846604472344" y1="971.5631203967877" x2="362.7183090004323" y2="963.6483857580397" stroke="#979797" stroke-width="1"/><line x1="362.7183090004323" y1="963.6483857580397" x2="362.7183090004323" y2="963.6483857580397" stroke="#979797" stroke-width="1"/><line x1="362.7183090004323" y1="963.6483857580397" x2="361.07199280719317" y2="945.8505650531085" stroke="#979797" stroke-width="1"/><line x1="361.07199280719317" y1="945.8505650531085" x2="360.24883471057365" y2="936.9516547006428" stroke="#979797" stroke-width="1"/><line x1="360.24883471057365" y1="936.9516547006428" x2="360.24883471057365" y2="936.9516547006428" stroke="#979797" stroke-width="1"/><line x1="360.24883471057365" y1="936.9516547006428" x2="364.8864008242716" y2="932.7338746592426" stroke="#979797" stroke-width="1"/><line x1="364.8864008242716" y1="932.7338746592426" x2="367.2051831767045" y2="930.624984700171" stroke="#979797" stroke-width="1"/><line x1="367.2051831767045" y1="930.624984700171" x2="367.2051831767045" y2="930.624984700171" stroke="#979797" stroke-width="1"/><line x1="367.2051831767045" y1="930.624984700171" x2="374.60194732071545" y2="912.2840414524776" stroke="#979797" stroke-width="1"/><line x1="374.60194732071545" y1="912.2840414524776" x2="378.3003296524863" y2="903.1135687411926" stroke="#979797" stroke-width="1"/><line x1="378.3003296524863" y1="903.1135687411926" x2="378.3003296524863" y2="903.1135687411926" stroke="#979797" stroke-width="1"/><line x1="378.3003296524863" y1="903.1135687411926" x2="381.19248445090864" y2="908.3914861075265" stroke="#979797" stroke-width="1"/><line x1="381.19248445090864" y1="908.3914861075265" x2="382.6385614670975" y2="911.0304444692997" stroke="#979797" stroke-width="1"/><line x1="382.6385614670975" y1="911.0304444692997" x2="382.6385614670975" y2="911.0304444692997" stroke="#979797" stroke-width="1"/><line x1="382.6385614670975" y1="911.0304444692997" x2="390.37891837631" y2="899.7552311813611" stroke="#979797" stroke-width="1"/><line x1="390.37891837631" y1="899.7552311813611" x2="394.24909747370384" y2="894.1176237713473" stroke="#979797" stroke-width="1"/><line x1="394.24909747370384" y1="894.1176237713473" x2="394.24909747370384" y2="894.1176237713473" stroke="#979797" stroke-width="1"/><line x1="394.24909747370384" y1="894.1176237713473" x2="397.7502003521636" y2="892.7969582948522" stroke="#979797" stroke-width="1"/><line x1="397.7502003521636" y1="892.7969582948522" x2="399.50075140837123" y2="892.1366252352108" stroke="#979797" stroke-width="1"/><line x1="399.50075140837123" y1="892.1366252352108" x2="399.50075140837123" y2="892.1366252352108" stroke="#979797" stroke-width="1"/><line x1="399.50075140837123" y1="892.1366252352108" x2="401.75704990397287" y2="889.5743871028103" stroke="#979797" stroke-width="1"/><line x1="401.75704990397287" y1="889.5743871028103" x2="403.3485951232501" y2="887.7670383709851" stroke="#979797" stroke-width="1"/><line x1="403.3485951232501" y1="887.7670383709851" x2="404.27538783224713" y2="886.714579682523" stroke="#979797" stroke-width="1"/><line x1="404.27538783224713" y1="886.714579682523" x2="409.07436813965876" y2="881.2648881446942" stroke="#979797" stroke-width="1"/><line x1="409.07436813965876" y1="881.2648881446942" x2="411.4738586147581" y2="878.5400419927577" stroke="#979797" stroke-width="1"/><line x1="411.4738586147581" y1="878.5400419927577" x2="411.4738586147581" y2="878.5400419927577" stroke="#979797" stroke-width="1"/><line x1="411.4738586147581" y1="878.5400419927577" x2="416.59890927496406" y2="877.0342077726084" stroke="#979797" stroke-width="1"/><line x1="416.59890927496406" y1="877.0342077726084" x2="419.16143454343865" y2="876.2812899581177" stroke="#979797" stroke-width="1"/><line x1="419.16143454343865" y1="876.2812899581177" x2="419.16143454343865" y2="876.2812899581177" stroke="#979797" stroke-width="1"/><line x1="419.16143454343865" y1="876.2812899581177" x2="419.1271965861665" y2="871.4506893735759" stroke="#979797" stroke-width="1"/><line x1="419.1271965861665" y1="871.4506893735759" x2="419.11007728613674" y2="869.0353894643272" stroke="#979797" stroke-width="1"/><line x1="419.11007728613674" y1="869.0353894643272" x2="419.11007728613674" y2="869.0353894643272" stroke="#979797" stroke-width="1"/><line x1="419.11007728613674" y1="869.0353894643272" x2="428.8381021728553" y2="863.5008344209764" stroke="#979797" stroke-width="1"/><line x1="428.8381021728553" y1="863.5008344209764" x2="433.7021141715642" y2="860.7335558734914" stroke="#979797" stroke-width="1"/><line x1="433.7021141715642" y1="860.7335558734914" x2="433.7021141715642" y2="860.7335558734914" stroke="#979797" stroke-width="1"/><line x1="433.7021141715642" y1="860.7335558734914" x2="437.64795039268176" y2="854.0806228576694" stroke="#979797" stroke-width="1"/><line x1="437.64795039268176" y1="854.0806228576694" x2="439.6208684416123" y2="850.7541556453425" stroke="#979797" stroke-width="1"/><line x1="439.6208684416123" y1="850.7541556453425" x2="439.6208684416123" y2="850.7541556453425" stroke="#979797" stroke-width="1"/><line x1="439.6208684416123" y1="850.7541556453425" x2="435.0268733525047" y2="845.3417293044398" stroke="#979797" stroke-width="1"/><line x1="435.0268733525047" y1="845.3417293044398" x2="442.07411821755306" y2="842.3295916418715" stroke="#979797" stroke-width="1"/><line x1="379.28780852994566" y1="754.2603369529857" x2="386.06042698636634" y2="775.0121110461403" stroke="#979797" stroke-width="1"/><line x1="386.06042698636634" y1="775.0121110461403" x2="389.44673621457656" y2="785.3879980927177" stroke="#979797" stroke-width="1"/><line x1="389.44673621457656" y1="785.3879980927177" x2="389.44673621457656" y2="785.3879980927177" stroke="#979797" stroke-width="1"/><line x1="389.44673621457656" y1="785.3879980927177" x2="391.4825600626838" y2="817.2189950591437" stroke="#979797" stroke-width="1"/><line x1="391.4825600626838" y1="817.2189950591437" x2="390.37084346560084" y2="855.8805839681729" stroke="#979797" stroke-width="1"/><line x1="291.4434343292975" y1="818.1073240848013" x2="312.627206563595" y2="827.7374459202814" stroke="#979797" stroke-width="1"/><line x1="312.627206563595" y1="827.7374459202814" x2="325.19386909206366" y2="828.1001598214233" stroke="#979797" stroke-width="1"/><line x1="325.19386909206366" y1="828.1001598214233" x2="331.4772003562979" y2="828.2815167719943" stroke="#979797" stroke-width="1"/><line x1="331.4772003562979" y1="828.2815167719943" x2="331.4772003562979" y2="828.2815167719943" stroke="#979797" stroke-width="1"/><line x1="331.4772003562979" y1="828.2815167719943" x2="357.92296930278417" y2="840.6073076477696" stroke="#979797" stroke-width="1"/><line x1="357.92296930278417" y1="840.6073076477696" x2="377.29559763632017" y2="870.7762941438571" stroke="#979797" stroke-width="1"/><line x1="230.30393938615225" y1="904.3007394449384" x2="247.03144433968578" y2="904.5093943428849" stroke="#979797" stroke-width="1"/><line x1="247.03144433968578" y1="904.5093943428849" x2="255.39519643343021" y2="904.6137214704645" stroke="#979797" stroke-width="1"/><line x1="255.39519643343021" y1="904.6137214704645" x2="255.39519643343021" y2="904.6137214704645" stroke="#979797" stroke-width="1"/><line x1="255.39519643343021" y1="904.6137214704645" x2="274.70531215385495" y2="895.2588727568308" stroke="#979797" stroke-width="1"/><line x1="274.70531215385495" y1="895.2588727568308" x2="284.3603703354611" y2="890.5814480169918" stroke="#979797" stroke-width="1"/><line x1="284.3603703354611" y1="890.5814480169918" x2="284.3603703354611" y2="890.5814480169918" stroke="#979797" stroke-width="1"/><line x1="284.3603703354611" y1="890.5814480169918" x2="316.82974180952544" y2="881.4613148642516" stroke="#979797" stroke-width="1"/><line x1="316.82974180952544" y1="881.4613148642516" x2="366.69949158164945" y2="889.5918656536161" stroke="#979797" stroke-width="1"/><line x1="408.2493882405913" y1="1048.6507784682447" x2="407.7539137788833" y2="1026.7226449300538" stroke="#979797" stroke-width="1"/><line x1="407.7539137788833" y1="1026.7226449300538" x2="416.29422569216285" y2="1002.7006596724339" stroke="#979797" stroke-width="1"/><line x1="416.29422569216285" y1="1002.7006596724339" x2="420.56438068462126" y2="990.6896681926908" stroke="#979797" stroke-width="1"/><line x1="420.56438068462126" y1="990.6896681926908" x2="420.56438068462126" y2="990.6896681926908" stroke="#979797" stroke-width="1"/><line x1="420.56438068462126" y1="990.6896681926908" x2="415.91952268880834" y2="966.522271203184" stroke="#979797" stroke-width="1"/><line x1="415.91952268880834" y1="966.522271203184" x2="413.59709362927333" y2="954.4385720040145" stroke="#979797" stroke-width="1"/><line x1="413.59709362927333" y1="954.4385720040145" x2="413.59709362927333" y2="954.4385720040145" stroke="#979797" stroke-width="1"/><line x1="413.59709362927333" y1="954.4385720040145" x2="393.9299837436364" y2="911.7266943228534" stroke="#979797" stroke-width="1"/><line x1="393.9299837436364" y1="911.7266943228534" x2="387.90439656975923" y2="903.6522831943417" stroke="#979797" stroke-width="1"/><line x1="475.35841654247565" y1="959.4742404854906" x2="466.4964544983619" y2="950.8837214123736" stroke="#979797" stroke-width="1"/><line x1="466.4964544983619" y1="950.8837214123736" x2="462.0654742423495" y2="946.5884625186028" stroke="#979797" stroke-width="1"/><line x1="462.0654742423495" y1="946.5884625186028" x2="462.0654742423495" y2="946.5884625186028" stroke="#979797" stroke-width="1"/><line x1="462.0654742423495" y1="946.5884625186028" x2="460.5359391759365" y2="931.9658328658588" stroke="#979797" stroke-width="1"/><line x1="460.5359391759365" y1="931.9658328658588" x2="459.77117266854" y2="924.6545175948363" stroke="#979797" stroke-width="1"/><line x1="459.77117266854" y1="924.6545175948363" x2="459.77117266854" y2="924.6545175948363" stroke="#979797" stroke-width="1"/><line x1="459.77117266854" y1="924.6545175948363" x2="445.18556617776903" y2="901.1343455031595" stroke="#979797" stroke-width="1"/><line x1="445.18556617776903" y1="901.1343455031595" x2="403.5954582358589" y2="888.1867376199899" stroke="#979797" stroke-width="1"/><line x1="521.5536369068814" y1="859.7806960010461" x2="490.4322552653812" y2="861.4966009936672" stroke="#979797" stroke-width="1"/><line x1="490.4322552653812" y1="861.4966009936672" x2="456.29622262400164" y2="865.0383604811707" stroke="#979797" stroke-width="1"/><line x1="456.29622262400164" y1="865.0383604811707" x2="419.1614388612686" y2="876.2813506056858" stroke="#979797" stroke-width="1"/>
</svg>