<svg xmlns="http://www.w3.org/2000/svg" viewBox="0 0 1826 1230" preserveAspectRatio="xMidYMid meet" version="1.1">
        <rect id="Rectangle" stroke="#979797" fill-opacity="0" fill="#D8D8D8" x="0.5" y="0.5" width="1825" height="1229" />
        <line x1="192.0" y1="1135.0" x2="262.666667" y2="1034.33333" stroke="#0E00D9" stroke-width="1" />
        <line x1="262.666667" y1="1034.33333" x2="298.0" y2="984.0" stroke="#0E00D9" stroke-width="1" />
        <line x1="298.0" y1="984.0" x2="298.0" y2="984.0" stroke="#0E00D9" stroke-width="1" /><line x1="298.0" y1="984.0" x2="308.0" y2="981.333333" stroke="#0E00D9" stroke-width="1" /><line x1="308.0" y1="981.333333" x2="313.0" y2="980.0" stroke="#0E00D9" stroke-width="1" /><line x1="313.0" y1="980.0" x2="313.0" y2="980.0" stroke="#0E00D9" stroke-width="1" /><line x1="313.0" y1="980.0" x2="321.666667" y2="960.0" stroke="#0E00D9" stroke-width="1" /><line x1="321.666667" y1="960.0" x2="326.0" y2="950.0" stroke="#0E00D9" stroke-width="1" /><line x1="326.0" y1="950.0" x2="326.0" y2="950.0" stroke="#0E00D9" stroke-width="1" /><line x1="326.0" y1="950.0" x2="346.666667" y2="958.0" stroke="#0E00D9" stroke-width="1" /><line x1="346.666667" y1="958.0" x2="357.0" y2="962.0" stroke="#0E00D9" stroke-width="1" /><line x1="357.0" y1="962.0" x2="357.0" y2="962.0" stroke="#0E00D9" stroke-width="1" /><line x1="357.0" y1="962.0" x2="373.666667" y2="902.666667" stroke="#0E00D9" stroke-width="1" /><line x1="373.666667" y1="902.666667" x2="382.0" y2="873.0" stroke="#0E00D9" stroke-width="1" /><line x1="382.0" y1="873.0" x2="382.0" y2="873.0" stroke="#0E00D9" stroke-width="1" /><line x1="382.0" y1="873.0" x2="304.666667" y2="816.333333" stroke="#0E00D9" stroke-width="1" /><line x1="304.666667" y1="816.333333" x2="266.0" y2="788.0" stroke="#0E00D9" stroke-width="1" /><line x1="266.0" y1="788.0" x2="266.0" y2="788.0" stroke="#0E00D9" stroke-width="1" /><line x1="266.0" y1="788.0" x2="240.0" y2="784.0" stroke="#0E00D9" stroke-width="1" /><line x1="240.0" y1="784.0" x2="227.0" y2="782.0" stroke="#0E00D9" stroke-width="1" /><line x1="227.0" y1="782.0" x2="227.0" y2="782.0" stroke="#0E00D9" stroke-width="1" /><line x1="227.0" y1="782.0" x2="205.666667" y2="746.0" stroke="#0E00D9" stroke-width="1" /><line x1="205.666667" y1="746.0" x2="195.0" y2="728.0" stroke="#0E00D9" stroke-width="1" /><line x1="195.0" y1="728.0" x2="195.0" y2="728.0" stroke="#0E00D9" stroke-width="1" /><line x1="195.0" y1="728.0" x2="202.333333" y2="711.333333" stroke="#0E00D9" stroke-width="1" /><line x1="202.333333" y1="711.333333" x2="206.0" y2="703.0" stroke="#0E00D9" stroke-width="1" /><line x1="206.0" y1="703.0" x2="206.0" y2="703.0" stroke="#0E00D9" stroke-width="1" /><line x1="206.0" y1="703.0" x2="180.666667" y2="684.333333" stroke="#0E00D9" stroke-width="1" /><line x1="180.666667" y1="684.333333" x2="168.0" y2="675.0" stroke="#0E00D9" stroke-width="1" /><line x1="168.0" y1="675.0" x2="168.0" y2="675.0" stroke="#0E00D9" stroke-width="1" /><line x1="168.0" y1="675.0" x2="173.333333" y2="629.666667" stroke="#0E00D9" stroke-width="1" /><line x1="173.333333" y1="629.666667" x2="176.0" y2="607.0" stroke="#0E00D9" stroke-width="1" /><line x1="176.0" y1="607.0" x2="176.0" y2="607.0" stroke="#0E00D9" stroke-width="1" /><line x1="176.0" y1="607.0" x2="158.666667" y2="607.666667" stroke="#0E00D9" stroke-width="1" /><line x1="158.666667" y1="607.666667" x2="150.0" y2="608.0" stroke="#0E00D9" stroke-width="1" /><line x1="150.0" y1="608.0" x2="150.0" y2="608.0" stroke="#0E00D9" stroke-width="1" /><line x1="150.0" y1="608.0" x2="170.666667" y2="579.333333" stroke="#0E00D9" stroke-width="1" /><line x1="170.666667" y1="579.333333" x2="181.0" y2="565.0" stroke="#0E00D9" stroke-width="1" /><line x1="181.0" y1="565.0" x2="181.0" y2="565.0" stroke="#0E00D9" stroke-width="1" /><line x1="181.0" y1="565.0" x2="163.0" y2="582.333333" stroke="#0E00D9" stroke-width="1" /><line x1="163.0" y1="582.333333" x2="154.0" y2="591.0" stroke="#0E00D9" stroke-width="1" /><line x1="154.0" y1="591.0" x2="154.0" y2="591.0" stroke="#0E00D9" stroke-width="1" /><line x1="154.0" y1="591.0" x2="154.666667" y2="565.666667" stroke="#0E00D9" stroke-width="1" /><line x1="154.666667" y1="565.666667" x2="155.0" y2="553.0" stroke="#0E00D9" stroke-width="1" /><line x1="155.0" y1="553.0" x2="155.0" y2="553.0" stroke="#0E00D9" stroke-width="1" /><line x1="155.0" y1="553.0" x2="182.333333" y2="511.666667" stroke="#0E00D9" stroke-width="1" /><line x1="182.333333" y1="511.666667" x2="196.0" y2="491.0" stroke="#0E00D9" stroke-width="1" /><line x1="196.0" y1="491.0" x2="196.0" y2="491.0" stroke="#0E00D9" stroke-width="1" /><line x1="196.0" y1="491.0" x2="170.0" y2="495.666667" stroke="#0E00D9" stroke-width="1" /><line x1="170.0" y1="495.666667" x2="157.0" y2="498.0" stroke="#0E00D9" stroke-width="1" /><line x1="157.0" y1="498.0" x2="157.0" y2="498.0" stroke="#0E00D9" stroke-width="1" /><line x1="157.0" y1="498.0" x2="169.666667" y2="476.666667" stroke="#0E00D9" stroke-width="1" /><line x1="169.666667" y1="476.666667" x2="176.0" y2="466.0" stroke="#0E00D9" stroke-width="1" /><line x1="176.0" y1="466.0" x2="176.0" y2="466.0" stroke="#0E00D9" stroke-width="1" /><line x1="176.0" y1="466.0" x2="208.666667" y2="450.0" stroke="#0E00D9" stroke-width="1" /><line x1="208.666667" y1="450.0" x2="225.0" y2="442.0" stroke="#0E00D9" stroke-width="1" /><line x1="225.0" y1="442.0" x2="225.0" y2="442.0" stroke="#0E00D9" stroke-width="1" /><line x1="225.0" y1="442.0" x2="211.0" y2="439.333333" stroke="#0E00D9" stroke-width="1" /><line x1="211.0" y1="439.333333" x2="204.0" y2="438.0" stroke="#0E00D9" stroke-width="1" /><line x1="204.0" y1="438.0" x2="204.0" y2="438.0" stroke="#0E00D9" stroke-width="1" /><line x1="204.0" y1="438.0" x2="186.0" y2="446.666667" stroke="#0E00D9" stroke-width="1" /><line x1="186.0" y1="446.666667" x2="177.0" y2="451.0" stroke="#0E00D9" stroke-width="1" /><line x1="177.0" y1="451.0" x2="177.0" y2="451.0" stroke="#0E00D9" stroke-width="1" /><line x1="177.0" y1="451.0" x2="191.666667" y2="433.0" stroke="#0E00D9" stroke-width="1" /><line x1="191.666667" y1="433.0" x2="199.0" y2="424.0" stroke="#0E00D9" stroke-width="1" /><line x1="199.0" y1="424.0" x2="199.0" y2="424.0" stroke="#0E00D9" stroke-width="1" /><line x1="199.0" y1="424.0" x2="228.333333" y2="424.666667" stroke="#0E00D9" stroke-width="1" /><line x1="228.333333" y1="424.666667" x2="243.0" y2="425.0" stroke="#0E00D9" stroke-width="1" /><line x1="243.0" y1="425.0" x2="243.0" y2="425.0" stroke="#0E00D9" stroke-width="1" /><line x1="243.0" y1="425.0" x2="234.333333" y2="405.666667" stroke="#0E00D9" stroke-width="1" /><line x1="234.333333" y1="405.666667" x2="230.0" y2="396.0" stroke="#0E00D9" stroke-width="1" /><line x1="230.0" y1="396.0" x2="230.0" y2="396.0" stroke="#0E00D9" stroke-width="1" /><line x1="230.0" y1="396.0" x2="232.0" y2="367.333333" stroke="#0E00D9" stroke-width="1" /><line x1="232.0" y1="367.333333" x2="233.0" y2="353.0" stroke="#0E00D9" stroke-width="1" /><line x1="233.0" y1="353.0" x2="233.0" y2="353.0" stroke="#0E00D9" stroke-width="1" /><line x1="233.0" y1="353.0" x2="245.666667" y2="383.666667" stroke="#0E00D9" stroke-width="1" /><line x1="245.666667" y1="383.666667" x2="252.0" y2="399.0" stroke="#0E00D9" stroke-width="1" /><line x1="252.0" y1="399.0" x2="252.0" y2="399.0" stroke="#0E00D9" stroke-width="1" /><line x1="252.0" y1="399.0" x2="256.666667" y2="373.0" stroke="#0E00D9" stroke-width="1" /><line x1="256.666667" y1="373.0" x2="259.0" y2="360.0" stroke="#0E00D9" stroke-width="1" /><line x1="259.0" y1="360.0" x2="259.0" y2="360.0" stroke="#0E00D9" stroke-width="1" /><line x1="259.0" y1="360.0" x2="282.333333" y2="327.333333" stroke="#0E00D9" stroke-width="1" /><line x1="282.333333" y1="327.333333" x2="294.0" y2="311.0" stroke="#0E00D9" stroke-width="1" /><line x1="294.0" y1="311.0" x2="294.0" y2="311.0" stroke="#0E00D9" stroke-width="1" /><line x1="294.0" y1="311.0" x2="286.0" y2="342.333333" stroke="#0E00D9" stroke-width="1" /><line x1="286.0" y1="342.333333" x2="282.0" y2="358.0" stroke="#0E00D9" stroke-width="1" /><line x1="282.0" y1="358.0" x2="282.0" y2="358.0" stroke="#0E00D9" stroke-width="1" /><line x1="282.0" y1="358.0" x2="298.0" y2="344.666667" stroke="#0E00D9" stroke-width="1" /><line x1="298.0" y1="344.666667" x2="306.0" y2="338.0" stroke="#0E00D9" stroke-width="1" /><line x1="306.0" y1="338.0" x2="306.0" y2="338.0" stroke="#0E00D9" stroke-width="1" /><line x1="306.0" y1="338.0" x2="325.333333" y2="330.0" stroke="#0E00D9" stroke-width="1" /><line x1="325.333333" y1="330.0" x2="335.0" y2="326.0" stroke="#0E00D9" stroke-width="1" /><line x1="335.0" y1="326.0" x2="335.0" y2="326.0" stroke="#0E00D9" stroke-width="1" /><line x1="335.0" y1="326.0" x2="354.333333" y2="304.666667" stroke="#0E00D9" stroke-width="1" /><line x1="354.333333" y1="304.666667" x2="364.0" y2="294.0" stroke="#0E00D9" stroke-width="1" /><line x1="364.0" y1="294.0" x2="364.0" y2="294.0" stroke="#0E00D9" stroke-width="1" /><line x1="364.0" y1="294.0" x2="359.333333" y2="319.333333" stroke="#0E00D9" stroke-width="1" /><line x1="359.333333" y1="319.333333" x2="357.0" y2="332.0" stroke="#0E00D9" stroke-width="1" /><line x1="357.0" y1="332.0" x2="357.0" y2="332.0" stroke="#0E00D9" stroke-width="1" /><line x1="357.0" y1="332.0" x2="393.666667" y2="316.666667" stroke="#0E00D9" stroke-width="1" /><line x1="393.666667" y1="316.666667" x2="412.0" y2="309.0" stroke="#0E00D9" stroke-width="1" /><line x1="412.0" y1="309.0" x2="412.0" y2="309.0" stroke="#0E00D9" stroke-width="1" /><line x1="412.0" y1="309.0" x2="447.333333" y2="291.0" stroke="#0E00D9" stroke-width="1" /><line x1="447.333333" y1="291.0" x2="465.0" y2="282.0" stroke="#0E00D9" stroke-width="1" /><line x1="465.0" y1="282.0" x2="465.0" y2="282.0" stroke="#0E00D9" stroke-width="1" /><line x1="465.0" y1="282.0" x2="444.333333" y2="310.0" stroke="#0E00D9" stroke-width="1" /><line x1="444.333333" y1="310.0" x2="434.0" y2="324.0" stroke="#0E00D9" stroke-width="1" /><line x1="434.0" y1="324.0" x2="434.0" y2="324.0" stroke="#0E00D9" stroke-width="1" /><line x1="434.0" y1="324.0" x2="468.0" y2="319.333333" stroke="#0E00D9" stroke-width="1" /><line x1="468.0" y1="319.333333" x2="485.0" y2="317.0" stroke="#0E00D9" stroke-width="1" /><line x1="485.0" y1="317.0" x2="485.0" y2="317.0" stroke="#0E00D9" stroke-width="1" /><line x1="485.0" y1="317.0" x2="505.666667" y2="306.333333" stroke="#0E00D9" stroke-width="1" /><line x1="505.666667" y1="306.333333" x2="516.0" y2="301.0" stroke="#0E00D9" stroke-width="1" /><line x1="516.0" y1="301.0" x2="516.0" y2="301.0" stroke="#0E00D9" stroke-width="1" /><line x1="516.0" y1="301.0" x2="537.333333" y2="278.333333" stroke="#0E00D9" stroke-width="1" /><line x1="537.333333" y1="278.333333" x2="548.0" y2="267.0" stroke="#0E00D9" stroke-width="1" /><line x1="548.0" y1="267.0" x2="548.0" y2="267.0" stroke="#0E00D9" stroke-width="1" /><line x1="548.0" y1="267.0" x2="543.333333" y2="288.333333" stroke="#0E00D9" stroke-width="1" /><line x1="543.333333" y1="288.333333" x2="541.0" y2="299.0" stroke="#0E00D9" stroke-width="1" /><line x1="541.0" y1="299.0" x2="541.0" y2="299.0" stroke="#0E00D9" stroke-width="1" /><line x1="541.0" y1="299.0" x2="531.666667" y2="313.0" stroke="#0E00D9" stroke-width="1" /><line x1="531.666667" y1="313.0" x2="527.0" y2="320.0" stroke="#0E00D9" stroke-width="1" /><line x1="527.0" y1="320.0" x2="527.0" y2="320.0" stroke="#0E00D9" stroke-width="1" /><line x1="527.0" y1="320.0" x2="559.666667" y2="314.666667" stroke="#0E00D9" stroke-width="1" /><line x1="559.666667" y1="314.666667" x2="576.0" y2="312.0" stroke="#0E00D9" stroke-width="1" /><line x1="576.0" y1="312.0" x2="576.0" y2="312.0" stroke="#0E00D9" stroke-width="1" /><line x1="576.0" y1="312.0" x2="602.0" y2="298.666667" stroke="#0E00D9" stroke-width="1" /><line x1="602.0" y1="298.666667" x2="615.0" y2="292.0" stroke="#0E00D9" stroke-width="1" /><line x1="615.0" y1="292.0" x2="615.0" y2="292.0" stroke="#0E00D9" stroke-width="1" /><line x1="615.0" y1="292.0" x2="595.0" y2="315.333333" stroke="#0E00D9" stroke-width="1" /><line x1="595.0" y1="315.333333" x2="585.0" y2="327.0" stroke="#0E00D9" stroke-width="1" /><line x1="585.0" y1="327.0" x2="585.0" y2="327.0" stroke="#0E00D9" stroke-width="1" /><line x1="585.0" y1="327.0" x2="632.333333" y2="334.333333" stroke="#0E00D9" stroke-width="1" /><line x1="632.333333" y1="334.333333" x2="656.0" y2="338.0" stroke="#0E00D9" stroke-width="1" /><line x1="656.0" y1="338.0" x2="656.0" y2="338.0" stroke="#0E00D9" stroke-width="1" /><line x1="656.0" y1="338.0" x2="681.333333" y2="337.333333" stroke="#0E00D9" stroke-width="1" /><line x1="681.333333" y1="337.333333" x2="694.0" y2="337.0" stroke="#0E00D9" stroke-width="1" /><line x1="694.0" y1="337.0" x2="694.0" y2="337.0" stroke="#0E00D9" stroke-width="1" /><line x1="694.0" y1="337.0" x2="664.0" y2="357.0" stroke="#0E00D9" stroke-width="1" /><line x1="664.0" y1="357.0" x2="649.0" y2="367.0" stroke="#0E00D9" stroke-width="1" /><line x1="649.0" y1="367.0" x2="649.0" y2="367.0" stroke="#0E00D9" stroke-width="1" /><line x1="649.0" y1="367.0" x2="675.666667" y2="381.0" stroke="#0E00D9" stroke-width="1" /><line x1="675.666667" y1="381.0" x2="689.0" y2="388.0" stroke="#0E00D9" stroke-width="1" /><line x1="689.0" y1="388.0" x2="689.0" y2="388.0" stroke="#0E00D9" stroke-width="1" /><line x1="689.0" y1="388.0" x2="711.0" y2="373.333333" stroke="#0E00D9" stroke-width="1" /><line x1="711.0" y1="373.333333" x2="722.0" y2="366.0" stroke="#0E00D9" stroke-width="1" /><line x1="722.0" y1="366.0" x2="722.0" y2="366.0" stroke="#0E00D9" stroke-width="1" /><line x1="722.0" y1="366.0" x2="760.0" y2="364.0" stroke="#0E00D9" stroke-width="1" /><line x1="760.0" y1="364.0" x2="779.0" y2="363.0" stroke="#0E00D9" stroke-width="1" /><line x1="779.0" y1="363.0" x2="779.0" y2="363.0" stroke="#0E00D9" stroke-width="1" /><line x1="779.0" y1="363.0" x2="850.333333" y2="421.0" stroke="#0E00D9" stroke-width="1" /><line x1="850.333333" y1="421.0" x2="886.0" y2="450.0" stroke="#0E00D9" stroke-width="1" /><line x1="886.0" y1="450.0" x2="886.0" y2="450.0" stroke="#0E00D9" stroke-width="1" /><line x1="886.0" y1="450.0" x2="913.333333" y2="544.666667" stroke="#0E00D9" stroke-width="1" /><line x1="913.333333" y1="544.666667" x2="927.0" y2="592.0" stroke="#0E00D9" stroke-width="1" /><line x1="927.0" y1="592.0" x2="927.0" y2="592.0" stroke="#0E00D9" stroke-width="1" /><line x1="927.0" y1="592.0" x2="922.333333" y2="609.333333" stroke="#0E00D9" stroke-width="1" /><line x1="922.333333" y1="609.333333" x2="920.0" y2="618.0" stroke="#0E00D9" stroke-width="1" /><line x1="920.0" y1="618.0" x2="920.0" y2="618.0" stroke="#0E00D9" stroke-width="1" /><line x1="920.0" y1="618.0" x2="826.666667" y2="658.0" stroke="#0E00D9" stroke-width="1" /><line x1="826.666667" y1="658.0" x2="780.0" y2="678.0" stroke="#0E00D9" stroke-width="1" /><line x1="780.0" y1="678.0" x2="780.0" y2="678.0" stroke="#0E00D9" stroke-width="1" /><line x1="780.0" y1="678.0" x2="768.0" y2="677.333333" stroke="#0E00D9" stroke-width="1" /><line x1="768.0" y1="677.333333" x2="762.0" y2="677.0" stroke="#0E00D9" stroke-width="1" /><line x1="762.0" y1="677.0" x2="762.0" y2="677.0" stroke="#0E00D9" stroke-width="1" /><line x1="762.0" y1="677.0" x2="768.666667" y2="691.0" stroke="#0E00D9" stroke-width="1" /><line x1="768.666667" y1="691.0" x2="772.0" y2="698.0" stroke="#0E00D9" stroke-width="1" /><line x1="772.0" y1="698.0" x2="772.0" y2="698.0" stroke="#0E00D9" stroke-width="1" /><line x1="772.0" y1="698.0" x2="767.333333" y2="712.0" stroke="#0E00D9" stroke-width="1" /><line x1="767.333333" y1="712.0" x2="765.0" y2="719.0" stroke="#0E00D9" stroke-width="1" /><line x1="765.0" y1="719.0" x2="765.0" y2="719.0" stroke="#0E00D9" stroke-width="1" /><line x1="765.0" y1="719.0" x2="768.333333" y2="732.333333" stroke="#0E00D9" stroke-width="1" /><line x1="768.333333" y1="732.333333" x2="770.0" y2="739.0" stroke="#0E00D9" stroke-width="1" /><line x1="770.0" y1="739.0" x2="770.0" y2="739.0" stroke="#0E00D9" stroke-width="1" /><line x1="770.0" y1="739.0" x2="763.333333" y2="750.333333" stroke="#0E00D9" stroke-width="1" /><line x1="763.333333" y1="750.333333" x2="760.0" y2="756.0" stroke="#0E00D9" stroke-width="1" /><line x1="760.0" y1="756.0" x2="760.0" y2="756.0" stroke="#0E00D9" stroke-width="1" /><line x1="760.0" y1="756.0" x2="766.666667" y2="776.666667" stroke="#0E00D9" stroke-width="1" /><line x1="766.666667" y1="776.666667" x2="770.0" y2="787.0" stroke="#0E00D9" stroke-width="1" /><line x1="770.0" y1="787.0" x2="770.0" y2="787.0" stroke="#0E00D9" stroke-width="1" /><line x1="770.0" y1="787.0" x2="766.666667" y2="804.333333" stroke="#0E00D9" stroke-width="1" /><line x1="766.666667" y1="804.333333" x2="765.0" y2="813.0" stroke="#0E00D9" stroke-width="1" /><line x1="765.0" y1="813.0" x2="765.0" y2="813.0" stroke="#0E00D9" stroke-width="1" /><line x1="765.0" y1="813.0" x2="756.333333" y2="825.0" stroke="#0E00D9" stroke-width="1" /><line x1="756.333333" y1="825.0" x2="752.0" y2="831.0" stroke="#0E00D9" stroke-width="1" /><line x1="752.0" y1="831.0" x2="752.0" y2="831.0" stroke="#0E00D9" stroke-width="1" /><line x1="752.0" y1="831.0" x2="722.666667" y2="839.666667" stroke="#0E00D9" stroke-width="1" /><line x1="722.666667" y1="839.666667" x2="708.0" y2="844.0" stroke="#0E00D9" stroke-width="1" /><line x1="708.0" y1="844.0" x2="708.0" y2="844.0" stroke="#0E00D9" stroke-width="1" /><line x1="708.0" y1="844.0" x2="668.666667" y2="856.0" stroke="#0E00D9" stroke-width="1" /><line x1="668.666667" y1="856.0" x2="649.0" y2="862.0" stroke="#0E00D9" stroke-width="1" /><line x1="649.0" y1="862.0" x2="649.0" y2="862.0" stroke="#0E00D9" stroke-width="1" /><line x1="649.0" y1="862.0" x2="636.333333" y2="899.333333" stroke="#0E00D9" stroke-width="1" /><line x1="636.333333" y1="899.333333" x2="630.0" y2="918.0" stroke="#0E00D9" stroke-width="1" /><line x1="630.0" y1="918.0" x2="630.0" y2="918.0" stroke="#0E00D9" stroke-width="1" /><line x1="630.0" y1="918.0" x2="621.333333" y2="941.333333" stroke="#0E00D9" stroke-width="1" /><line x1="621.333333" y1="941.333333" x2="617.0" y2="953.0" stroke="#0E00D9" stroke-width="1" /><line x1="617.0" y1="953.0" x2="617.0" y2="953.0" stroke="#0E00D9" stroke-width="1" /><line x1="617.0" y1="953.0" x2="607.666667" y2="997.0" stroke="#0E00D9" stroke-width="1" /><line x1="607.666667" y1="997.0" x2="603.0" y2="1019.0" stroke="#0E00D9" stroke-width="1" /><line x1="603.0" y1="1019.0" x2="603.0" y2="1019.0" stroke="#0E00D9" stroke-width="1" /><line x1="603.0" y1="1019.0" x2="626.333333" y2="1043.66667" stroke="#0E00D9" stroke-width="1" /><line x1="626.333333" y1="1043.66667" x2="638.0" y2="1056.0" stroke="#0E00D9" stroke-width="1" /><line x1="638.0" y1="1056.0" x2="638.0" y2="1056.0" stroke="#0E00D9" stroke-width="1" /><line x1="638.0" y1="1056.0" x2="704.0" y2="1185.0" stroke="#0E00D9" stroke-width="1" /><line x1="206.0" y1="703.0" x2="246.0" y2="661.0" stroke="#0E00D9" stroke-width="1" /><line x1="246.0" y1="661.0" x2="257.0" y2="620.0" stroke="#0E00D9" stroke-width="1" /><line x1="257.0" y1="620.0" x2="292.0" y2="593.0" stroke="#0E00D9" stroke-width="1" /><line x1="292.0" y1="593.0" x2="309.333333" y2="597.666667" stroke="#0E00D9" stroke-width="1" /><line x1="309.333333" y1="597.666667" x2="318.0" y2="600.0" stroke="#0E00D9" stroke-width="1" /><line x1="318.0" y1="600.0" x2="318.0" y2="600.0" stroke="#0E00D9" stroke-width="1" /><line x1="318.0" y1="600.0" x2="369.333333" y2="570.666667" stroke="#0E00D9" stroke-width="1" /><line x1="369.333333" y1="570.666667" x2="395.0" y2="556.0" stroke="#0E00D9" stroke-width="1" /><line x1="395.0" y1="556.0" x2="395.0" y2="556.0" stroke="#0E00D9" stroke-width="1" /><line x1="395.0" y1="556.0" x2="407.666667" y2="547.333333" stroke="#0E00D9" stroke-width="1" /><line x1="407.666667" y1="547.333333" x2="414.0" y2="543.0" stroke="#0E00D9" stroke-width="1" /><line x1="414.0" y1="543.0" x2="414.0" y2="543.0" stroke="#0E00D9" stroke-width="1" /><line x1="414.0" y1="543.0" x2="420.0" y2="544.333333" stroke="#0E00D9" stroke-width="1" /><line x1="420.0" y1="544.333333" x2="423.0" y2="545.0" stroke="#0E00D9" stroke-width="1" /><line x1="423.0" y1="545.0" x2="423.0" y2="545.0" stroke="#0E00D9" stroke-width="1" /><line x1="423.0" y1="545.0" x2="549.0" y2="494.333333" stroke="#0E00D9" stroke-width="1" /><line x1="549.0" y1="494.333333" x2="612.0" y2="469.0" stroke="#0E00D9" stroke-width="1" /><line x1="612.0" y1="469.0" x2="612.0" y2="469.0" stroke="#0E00D9" stroke-width="1" /><line x1="612.0" y1="469.0" x2="622.666667" y2="507.666667" stroke="#0E00D9" stroke-width="1" /><line x1="622.666667" y1="507.666667" x2="628.0" y2="527.0" stroke="#0E00D9" stroke-width="1" /><line x1="628.0" y1="527.0" x2="628.0" y2="527.0" stroke="#0E00D9" stroke-width="1" /><line x1="628.0" y1="527.0" x2="505.333333" y2="577.666667" stroke="#0E00D9" stroke-width="1" /><line x1="505.333333" y1="577.666667" x2="444.0" y2="603.0" stroke="#0E00D9" stroke-width="1" /><line x1="444.0" y1="603.0" x2="444.0" y2="603.0" stroke="#0E00D9" stroke-width="1" /><line x1="444.0" y1="603.0" x2="437.333333" y2="609.666667" stroke="#0E00D9" stroke-width="1" /><line x1="437.333333" y1="609.666667" x2="434.0" y2="613.0" stroke="#0E00D9" stroke-width="1" /><line x1="434.0" y1="613.0" x2="434.0" y2="613.0" stroke="#0E00D9" stroke-width="1" /><line x1="434.0" y1="613.0" x2="423.333333" y2="613.0" stroke="#0E00D9" stroke-width="1" /><line x1="423.333333" y1="613.0" x2="418.0" y2="613.0" stroke="#0E00D9" stroke-width="1" /><line x1="418.0" y1="613.0" x2="418.0" y2="613.0" stroke="#0E00D9" stroke-width="1" /><line x1="418.0" y1="613.0" x2="372.0" y2="637.0" stroke="#0E00D9" stroke-width="1" /><line x1="372.0" y1="637.0" x2="349.0" y2="649.0" stroke="#0E00D9" stroke-width="1" /><line x1="349.0" y1="649.0" x2="349.0" y2="649.0" stroke="#0E00D9" stroke-width="1" /><line x1="349.0" y1="649.0" x2="342.333333" y2="674.333333" stroke="#0E00D9" stroke-width="1" /><line x1="342.333333" y1="674.333333" x2="339.0" y2="687.0" stroke="#0E00D9" stroke-width="1" /><line x1="339.0" y1="687.0" x2="339.0" y2="687.0" stroke="#0E00D9" stroke-width="1" /><line x1="339.0" y1="687.0" x2="326.333333" y2="697.666667" stroke="#0E00D9" stroke-width="1" /><line x1="326.333333" y1="697.666667" x2="320.0" y2="703.0" stroke="#0E00D9" stroke-width="1" /><line x1="320.0" y1="703.0" x2="320.0" y2="703.0" stroke="#0E00D9" stroke-width="1" /><line x1="320.0" y1="703.0" x2="304.666667" y2="712.333333" stroke="#0E00D9" stroke-width="1" /><line x1="304.666667" y1="712.333333" x2="297.0" y2="717.0" stroke="#0E00D9" stroke-width="1" /><line x1="297.0" y1="717.0" x2="297.0" y2="717.0" stroke="#0E00D9" stroke-width="1" /><line x1="297.0" y1="717.0" x2="256.0" y2="761.0" stroke="#0E00D9" stroke-width="1" /><line x1="510.0" y1="502.0" x2="520.0" y2="474.0" stroke="#0E00D9" stroke-width="1" /><line x1="520.0" y1="474.0" x2="525.0" y2="460.0" stroke="#0E00D9" stroke-width="1" /><line x1="525.0" y1="460.0" x2="525.0" y2="460.0" stroke="#0E00D9" stroke-width="1" /><line x1="525.0" y1="460.0" x2="559.666667" y2="442.666667" stroke="#0E00D9" stroke-width="1" /><line x1="559.666667" y1="442.666667" x2="577.0" y2="434.0" stroke="#0E00D9" stroke-width="1" /><line x1="577.0" y1="434.0" x2="577.0" y2="434.0" stroke="#0E00D9" stroke-width="1" /><line x1="577.0" y1="434.0" x2="617.0" y2="423.333333" stroke="#0E00D9" stroke-width="1" /><line x1="617.0" y1="423.333333" x2="637.0" y2="418.0" stroke="#0E00D9" stroke-width="1" /><line x1="637.0" y1="418.0" x2="637.0" y2="418.0" stroke="#0E00D9" stroke-width="1" /><line x1="637.0" y1="418.0" x2="696.458327" y2="380.321526" stroke="#0E00D9" stroke-width="1" /><line x1="696.458327" y1="380.321526" x2="708.79166" y2="372.988193" stroke="#0E00D9" stroke-width="1" /><line x1="708.79166" y1="372.988193" x2="674.0" y2="396.0" stroke="#0E00D9" stroke-width="1" /><line x1="510.0" y1="590.0" x2="524.0" y2="609.333333" stroke="#0E00D9" stroke-width="1" /><line x1="524.0" y1="609.333333" x2="531.0" y2="619.0" stroke="#0E00D9" stroke-width="1" /><line x1="531.0" y1="619.0" x2="531.0" y2="619.0" stroke="#0E00D9" stroke-width="1" /><line x1="531.0" y1="619.0" x2="566.333333" y2="640.333333" stroke="#0E00D9" stroke-width="1" /><line x1="566.333333" y1="640.333333" x2="584.0" y2="651.0" stroke="#0E00D9" stroke-width="1" /><line x1="584.0" y1="651.0" x2="584.0" y2="651.0" stroke="#0E00D9" stroke-width="1" /><line x1="584.0" y1="651.0" x2="616.0" y2="655.666667" stroke="#0E00D9" stroke-width="1" /><line x1="616.0" y1="655.666667" x2="632.0" y2="658.0" stroke="#0E00D9" stroke-width="1" /><line x1="632.0" y1="658.0" x2="632.0" y2="658.0" stroke="#0E00D9" stroke-width="1" /><line x1="632.0" y1="658.0" x2="667.333333" y2="657.333333" stroke="#0E00D9" stroke-width="1" /><line x1="667.333333" y1="657.333333" x2="685.0" y2="657.0" stroke="#0E00D9" stroke-width="1" /><line x1="685.0" y1="657.0" x2="685.0" y2="657.0" stroke="#0E00D9" stroke-width="1" /><line x1="685.0" y1="657.0" x2="707.666667" y2="653.0" stroke="#0E00D9" stroke-width="1" /><line x1="707.666667" y1="653.0" x2="719.0" y2="651.0" stroke="#0E00D9" stroke-width="1" /><line x1="719.0" y1="651.0" x2="719.0" y2="651.0" stroke="#0E00D9" stroke-width="1" /><line x1="719.0" y1="651.0" x2="739.0" y2="635.666667" stroke="#0E00D9" stroke-width="1" /><line x1="739.0" y1="635.666667" x2="749.0" y2="628.0" stroke="#0E00D9" stroke-width="1" /><line x1="749.0" y1="628.0" x2="749.0" y2="628.0" stroke="#0E00D9" stroke-width="1" /><line x1="749.0" y1="628.0" x2="781.0" y2="618.666667" stroke="#0E00D9" stroke-width="1" /><line x1="781.0" y1="618.666667" x2="797.0" y2="614.0" stroke="#0E00D9" stroke-width="1" /><line x1="797.0" y1="614.0" x2="797.0" y2="614.0" stroke="#0E00D9" stroke-width="1" /><line x1="797.0" y1="614.0" x2="776.0" y2="662.0" stroke="#0E00D9" stroke-width="1" />
<line x1="157.0" y1="498.0" x2="169.666667" y2="476.666667" stroke="#0E00D9" stroke-width="1" /><line x1="607.666667" y1="997.0" x2="603.0" y2="1019.0" stroke="#0E00D9" stroke-width="1" /><line x1="752.0" y1="831.0" x2="752.0" y2="831.0" stroke="#0E00D9" stroke-width="1" /><line x1="297.0" y1="717.0" x2="256.0" y2="761.0" stroke="#0E00D9" stroke-width="1" /><line x1="468.0" y1="319.333333" x2="485.0" y2="317.0" stroke="#0E00D9" stroke-width="1" /><line x1="298.0" y1="344.666667" x2="306.0" y2="338.0" stroke="#0E00D9" stroke-width="1" /><line x1="262.666667" y1="1034.33333" x2="298.0" y2="984.0" stroke="#0E00D9" stroke-width="1" /><line x1="656.0" y1="338.0" x2="656.0" y2="338.0" stroke="#0E00D9" stroke-width="1" /><line x1="173.333333" y1="629.666667" x2="176.0" y2="607.0" stroke="#0E00D9" stroke-width="1" /><line x1="780.0" y1="678.0" x2="768.0" y2="677.333333" stroke="#0E00D9" stroke-width="1" /><line x1="181.0" y1="565.0" x2="181.0" y2="565.0" stroke="#0E00D9" stroke-width="1" /><line x1="685.0" y1="657.0" x2="685.0" y2="657.0" stroke="#0E00D9" stroke-width="1" /><line x1="286.0" y1="342.333333" x2="282.0" y2="358.0" stroke="#0E00D9" stroke-width="1" /><line x1="468.0" y1="319.333333" x2="485.0" y2="317.0" stroke="#0E00D9" stroke-width="1" /><line x1="760.0" y1="756.0" x2="760.0" y2="756.0" stroke="#0E00D9" stroke-width="1" /><line x1="339.0" y1="687.0" x2="339.0" y2="687.0" stroke="#0E00D9" stroke-width="1" /><line x1="612.0" y1="469.0" x2="622.666667" y2="507.666667" stroke="#0E00D9" stroke-width="1" /><line x1="412.0" y1="309.0" x2="447.333333" y2="291.0" stroke="#0E00D9" stroke-width="1" /><line x1="772.0" y1="698.0" x2="767.333333" y2="712.0" stroke="#0E00D9" stroke-width="1" /><line x1="230.0" y1="396.0" x2="230.0" y2="396.0" stroke="#0E00D9" stroke-width="1" /><line x1="297.0" y1="717.0" x2="297.0" y2="717.0" stroke="#0E00D9" stroke-width="1" /><line x1="760.0" y1="364.0" x2="779.0" y2="363.0" stroke="#0E00D9" stroke-width="1" /><line x1="266.0" y1="788.0" x2="240.0" y2="784.0" stroke="#0E00D9" stroke-width="1" /><line x1="282.0" y1="358.0" x2="282.0" y2="358.0" stroke="#0E00D9" stroke-width="1" /><line x1="524.0" y1="609.333333" x2="531.0" y2="619.0" stroke="#0E00D9" stroke-width="1" /><line x1="760.0" y1="756.0" x2="760.0" y2="756.0" stroke="#0E00D9" stroke-width="1" /><line x1="195.0" y1="728.0" x2="202.333333" y2="711.333333" stroke="#0E00D9" stroke-width="1" /><line x1="444.0" y1="603.0" x2="437.333333" y2="609.666667" stroke="#0E00D9" stroke-width="1" /><line x1="246.0" y1="661.0" x2="257.0" y2="620.0" stroke="#0E00D9" stroke-width="1" /><line x1="150.0" y1="608.0" x2="170.666667" y2="579.333333" stroke="#0E00D9" stroke-width="1" /><line x1="259.0" y1="360.0" x2="282.333333" y2="327.333333" stroke="#0E00D9" stroke-width="1" /><line x1="537.333333" y1="278.333333" x2="548.0" y2="267.0" stroke="#0E00D9" stroke-width="1" /><line x1="414.0" y1="543.0" x2="420.0" y2="544.333333" stroke="#0E00D9" stroke-width="1" /><line x1="525.0" y1="460.0" x2="559.666667" y2="442.666667" stroke="#0E00D9" stroke-width="1" /><line x1="636.333333" y1="899.333333" x2="630.0" y2="918.0" stroke="#0E00D9" stroke-width="1" /><line x1="628.0" y1="527.0" x2="628.0" y2="527.0" stroke="#0E00D9" stroke-width="1" /><line x1="548.0" y1="267.0" x2="548.0" y2="267.0" stroke="#0E00D9" stroke-width="1" /><line x1="177.0" y1="451.0" x2="191.666667" y2="433.0" stroke="#0E00D9" stroke-width="1" /><line x1="649.0" y1="367.0" x2="649.0" y2="367.0" stroke="#0E00D9" stroke-width="1" /><line x1="354.333333" y1="304.666667" x2="364.0" y2="294.0" stroke="#0E00D9" stroke-width="1" /><line x1="516.0" y1="301.0" x2="516.0" y2="301.0" stroke="#0E00D9" stroke-width="1" /><line x1="423.333333" y1="613.0" x2="418.0" y2="613.0" stroke="#0E00D9" stroke-width="1" /><line x1="465.0" y1="282.0" x2="444.333333" y2="310.0" stroke="#0E00D9" stroke-width="1" /><line x1="739.0" y1="635.666667" x2="749.0" y2="628.0" stroke="#0E00D9" stroke-width="1" /><line x1="243.0" y1="425.0" x2="243.0" y2="425.0" stroke="#0E00D9" stroke-width="1" /><line x1="208.666667" y1="450.0" x2="225.0" y2="442.0" stroke="#0E00D9" stroke-width="1" /><line x1="177.0" y1="451.0" x2="177.0" y2="451.0" stroke="#0E00D9" stroke-width="1" /><line x1="667.333333" y1="657.333333" x2="685.0" y2="657.0" stroke="#0E00D9" stroke-width="1" /><line x1="694.0" y1="337.0" x2="694.0" y2="337.0" stroke="#0E00D9" stroke-width="1" /><line x1="612.0" y1="469.0" x2="612.0" y2="469.0" stroke="#0E00D9" stroke-width="1" /><line x1="708.79166" y1="372.988193" x2="674.0" y2="396.0" stroke="#0E00D9" stroke-width="1" /><line x1="617.0" y1="423.333333" x2="637.0" y2="418.0" stroke="#0E00D9" stroke-width="1" /><line x1="154.0" y1="591.0" x2="154.0" y2="591.0" stroke="#0E00D9" stroke-width="1" /><line x1="770.0" y1="787.0" x2="766.666667" y2="804.333333" stroke="#0E00D9" stroke-width="1" /><line x1="576.0" y1="312.0" x2="576.0" y2="312.0" stroke="#0E00D9" stroke-width="1" /><line x1="765.0" y1="719.0" x2="768.333333" y2="732.333333" stroke="#0E00D9" stroke-width="1" /><line x1="767.333333" y1="712.0" x2="765.0" y2="719.0" stroke="#0E00D9" stroke-width="1" /><line x1="346.666667" y1="958.0" x2="357.0" y2="962.0" stroke="#0E00D9" stroke-width="1" /><line x1="196.0" y1="491.0" x2="196.0" y2="491.0" stroke="#0E00D9" stroke-width="1" /><line x1="548.0" y1="267.0" x2="543.333333" y2="288.333333" stroke="#0E00D9" stroke-width="1" /><line x1="418.0" y1="613.0" x2="372.0" y2="637.0" stroke="#0E00D9" stroke-width="1" /><line x1="177.0" y1="451.0" x2="191.666667" y2="433.0" stroke="#0E00D9" stroke-width="1" /><line x1="762.0" y1="677.0" x2="768.666667" y2="691.0" stroke="#0E00D9" stroke-width="1" /><line x1="516.0" y1="301.0" x2="537.333333" y2="278.333333" stroke="#0E00D9" stroke-width="1" /><line x1="176.0" y1="466.0" x2="208.666667" y2="450.0" stroke="#0E00D9" stroke-width="1" /><line x1="685.0" y1="657.0" x2="685.0" y2="657.0" stroke="#0E00D9" stroke-width="1" /><line x1="182.333333" y1="511.666667" x2="196.0" y2="491.0" stroke="#0E00D9" stroke-width="1" /><line x1="335.0" y1="326.0" x2="335.0" y2="326.0" stroke="#0E00D9" stroke-width="1" /><line x1="765.0" y1="813.0" x2="765.0" y2="813.0" stroke="#0E00D9" stroke-width="1" /><line x1="628.0" y1="527.0" x2="505.333333" y2="577.666667" stroke="#0E00D9" stroke-width="1" /><line x1="752.0" y1="831.0" x2="722.666667" y2="839.666667" stroke="#0E00D9" stroke-width="1" /><line x1="298.0" y1="344.666667" x2="306.0" y2="338.0" stroke="#0E00D9" stroke-width="1" /><line x1="170.666667" y1="579.333333" x2="181.0" y2="565.0" stroke="#0E00D9" stroke-width="1" /><line x1="176.0" y1="466.0" x2="176.0" y2="466.0" stroke="#0E00D9" stroke-width="1" /><line x1="195.0" y1="728.0" x2="202.333333" y2="711.333333" stroke="#0E00D9" stroke-width="1" /><line x1="170.666667" y1="579.333333" x2="181.0" y2="565.0" stroke="#0E00D9" stroke-width="1" /><line x1="357.0" y1="962.0" x2="373.666667" y2="902.666667" stroke="#0E00D9" stroke-width="1" /><line x1="349.0" y1="649.0" x2="349.0" y2="649.0" stroke="#0E00D9" stroke-width="1" /><line x1="638.0" y1="1056.0" x2="704.0" y2="1185.0" stroke="#0E00D9" stroke-width="1" /><line x1="414.0" y1="543.0" x2="414.0" y2="543.0" stroke="#0E00D9" stroke-width="1" /><line x1="927.0" y1="592.0" x2="922.333333" y2="609.333333" stroke="#0E00D9" stroke-width="1" /><line x1="520.0" y1="474.0" x2="525.0" y2="460.0" stroke="#0E00D9" stroke-width="1" /><line x1="649.0" y1="862.0" x2="636.333333" y2="899.333333" stroke="#0E00D9" stroke-width="1" /><line x1="266.0" y1="788.0" x2="266.0" y2="788.0" stroke="#0E00D9" stroke-width="1" /><line x1="780.0" y1="678.0" x2="768.0" y2="677.333333" stroke="#0E00D9" stroke-width="1" /><line x1="306.0" y1="338.0" x2="306.0" y2="338.0" stroke="#0E00D9" stroke-width="1" /><line x1="689.0" y1="388.0" x2="689.0" y2="388.0" stroke="#0E00D9" stroke-width="1" /><line x1="199.0" y1="424.0" x2="228.333333" y2="424.666667" stroke="#0E00D9" stroke-width="1" /><line x1="541.0" y1="299.0" x2="541.0" y2="299.0" stroke="#0E00D9" stroke-width="1" /><line x1="537.333333" y1="278.333333" x2="548.0" y2="267.0" stroke="#0E00D9" stroke-width="1" /><line x1="548.0" y1="267.0" x2="543.333333" y2="288.333333" stroke="#0E00D9" stroke-width="1" /><line x1="205.666667" y1="746.0" x2="195.0" y2="728.0" stroke="#0E00D9" stroke-width="1" /><line x1="711.0" y1="373.333333" x2="722.0" y2="366.0" stroke="#0E00D9" stroke-width="1" /><line x1="797.0" y1="614.0" x2="776.0" y2="662.0" stroke="#0E00D9" stroke-width="1" /><line x1="420.0" y1="544.333333" x2="423.0" y2="545.0" stroke="#0E00D9" stroke-width="1" /><line x1="505.666667" y1="306.333333" x2="516.0" y2="301.0" stroke="#0E00D9" stroke-width="1" /><line x1="603.0" y1="1019.0" x2="626.333333" y2="1043.66667" stroke="#0E00D9" stroke-width="1" /><line x1="181.0" y1="565.0" x2="181.0" y2="565.0" stroke="#0E00D9" stroke-width="1" /><line x1="414.0" y1="543.0" x2="414.0" y2="543.0" stroke="#0E00D9" stroke-width="1" /><line x1="320.0" y1="703.0" x2="304.666667" y2="712.333333" stroke="#0E00D9" stroke-width="1" /><line x1="170.0" y1="495.666667" x2="157.0" y2="498.0" stroke="#0E00D9" stroke-width="1" /><line x1="163.0" y1="582.333333" x2="154.0" y2="591.0" stroke="#0E00D9" stroke-width="1" /><line x1="584.0" y1="651.0" x2="584.0" y2="651.0" stroke="#0E00D9" stroke-width="1" /><line x1="485.0" y1="317.0" x2="505.666667" y2="306.333333" stroke="#0E00D9" stroke-width="1" /><line x1="760.0" y1="756.0" x2="766.666667" y2="776.666667" stroke="#0E00D9" stroke-width="1" /><line x1="208.666667" y1="450.0" x2="225.0" y2="442.0" stroke="#0E00D9" stroke-width="1" /><line x1="444.333333" y1="310.0" x2="434.0" y2="324.0" stroke="#0E00D9" stroke-width="1" /><line x1="158.666667" y1="607.666667" x2="150.0" y2="608.0" stroke="#0E00D9" stroke-width="1" /><line x1="395.0" y1="556.0" x2="395.0" y2="556.0" stroke="#0E00D9" stroke-width="1" /><line x1="245.666667" y1="383.666667" x2="252.0" y2="399.0" stroke="#0E00D9" stroke-width="1" /><line x1="760.0" y1="756.0" x2="760.0" y2="756.0" stroke="#0E00D9" stroke-width="1" /><line x1="157.0" y1="498.0" x2="157.0" y2="498.0" stroke="#0E00D9" stroke-width="1" /><line x1="297.0" y1="717.0" x2="256.0" y2="761.0" stroke="#0E00D9" stroke-width="1" /><line x1="306.0" y1="338.0" x2="306.0" y2="338.0" stroke="#0E00D9" stroke-width="1" /><line x1="617.0" y1="953.0" x2="617.0" y2="953.0" stroke="#0E00D9" stroke-width="1" /><line x1="694.0" y1="337.0" x2="694.0" y2="337.0" stroke="#0E00D9" stroke-width="1" /><line x1="527.0" y1="320.0" x2="527.0" y2="320.0" stroke="#0E00D9" stroke-width="1" /><line x1="354.333333" y1="304.666667" x2="364.0" y2="294.0" stroke="#0E00D9" stroke-width="1" /><line x1="752.0" y1="831.0" x2="722.666667" y2="839.666667" stroke="#0E00D9" stroke-width="1" /><line x1="850.333333" y1="421.0" x2="886.0" y2="450.0" stroke="#0E00D9" stroke-width="1" /><line x1="685.0" y1="657.0" x2="685.0" y2="657.0" stroke="#0E00D9" stroke-width="1" /><line x1="176.0" y1="466.0" x2="208.666667" y2="450.0" stroke="#0E00D9" stroke-width="1" /><line x1="707.666667" y1="653.0" x2="719.0" y2="651.0" stroke="#0E00D9" stroke-width="1" /><line x1="177.0" y1="451.0" x2="177.0" y2="451.0" stroke="#0E00D9" stroke-width="1" /><line x1="423.0" y1="545.0" x2="423.0" y2="545.0" stroke="#0E00D9" stroke-width="1" /><line x1="685.0" y1="657.0" x2="685.0" y2="657.0" stroke="#0E00D9" stroke-width="1" /><line x1="395.0" y1="556.0" x2="407.666667" y2="547.333333" stroke="#0E00D9" stroke-width="1" /><line x1="708.79166" y1="372.988193" x2="674.0" y2="396.0" stroke="#0E00D9" stroke-width="1" /><line x1="326.333333" y1="697.666667" x2="320.0" y2="703.0" stroke="#0E00D9" stroke-width="1" /><line x1="437.333333" y1="609.666667" x2="434.0" y2="613.0" stroke="#0E00D9" stroke-width="1" /><line x1="304.666667" y1="712.333333" x2="297.0" y2="717.0" stroke="#0E00D9" stroke-width="1" /><line x1="282.333333" y1="327.333333" x2="294.0" y2="311.0" stroke="#0E00D9" stroke-width="1" /><line x1="656.0" y1="338.0" x2="681.333333" y2="337.333333" stroke="#0E00D9" stroke-width="1" /><line x1="195.0" y1="728.0" x2="195.0" y2="728.0" stroke="#0E00D9" stroke-width="1" /><line x1="685.0" y1="657.0" x2="707.666667" y2="653.0" stroke="#0E00D9" stroke-width="1" /><line x1="308.0" y1="981.333333" x2="313.0" y2="980.0" stroke="#0E00D9" stroke-width="1" /><line x1="195.0" y1="728.0" x2="195.0" y2="728.0" stroke="#0E00D9" stroke-width="1" /><line x1="649.0" y1="367.0" x2="675.666667" y2="381.0" stroke="#0E00D9" stroke-width="1" /><line x1="412.0" y1="309.0" x2="447.333333" y2="291.0" stroke="#0E00D9" stroke-width="1" /><line x1="632.0" y1="658.0" x2="632.0" y2="658.0" stroke="#0E00D9" stroke-width="1" /><line x1="603.0" y1="1019.0" x2="626.333333" y2="1043.66667" stroke="#0E00D9" stroke-width="1" /><line x1="797.0" y1="614.0" x2="797.0" y2="614.0" stroke="#0E00D9" stroke-width="1" /><line x1="313.0" y1="980.0" x2="321.666667" y2="960.0" stroke="#0E00D9" stroke-width="1" /><line x1="243.0" y1="425.0" x2="243.0" y2="425.0" stroke="#0E00D9" stroke-width="1" /><line x1="259.0" y1="360.0" x2="282.333333" y2="327.333333" stroke="#0E00D9" stroke-width="1" /><line x1="780.0" y1="678.0" x2="768.0" y2="677.333333" stroke="#0E00D9" stroke-width="1" /><line x1="176.0" y1="607.0" x2="176.0" y2="607.0" stroke="#0E00D9" stroke-width="1" /><line x1="797.0" y1="614.0" x2="776.0" y2="662.0" stroke="#0E00D9" stroke-width="1" /><line x1="286.0" y1="342.333333" x2="282.0" y2="358.0" stroke="#0E00D9" stroke-width="1" /><line x1="468.0" y1="319.333333" x2="485.0" y2="317.0" stroke="#0E00D9" stroke-width="1" /><line x1="234.333333" y1="405.666667" x2="230.0" y2="396.0" stroke="#0E00D9" stroke-width="1" /><line x1="531.0" y1="619.0" x2="566.333333" y2="640.333333" stroke="#0E00D9" stroke-width="1" /><line x1="527.0" y1="320.0" x2="559.666667" y2="314.666667" stroke="#0E00D9" stroke-width="1" /><line x1="233.0" y1="353.0" x2="245.666667" y2="383.666667" stroke="#0E00D9" stroke-width="1" /><line x1="154.666667" y1="565.666667" x2="155.0" y2="553.0" stroke="#0E00D9" stroke-width="1" /><line x1="423.333333" y1="613.0" x2="418.0" y2="613.0" stroke="#0E00D9" stroke-width="1" /><line x1="359.333333" y1="319.333333" x2="357.0" y2="332.0" stroke="#0E00D9" stroke-width="1" /><line x1="395.0" y1="556.0" x2="395.0" y2="556.0" stroke="#0E00D9" stroke-width="1" /><line x1="781.0" y1="618.666667" x2="797.0" y2="614.0" stroke="#0E00D9" stroke-width="1" /><line x1="243.0" y1="425.0" x2="243.0" y2="425.0" stroke="#0E00D9" stroke-width="1" /><line x1="760.0" y1="364.0" x2="779.0" y2="363.0" stroke="#0E00D9" stroke-width="1" /><line x1="685.0" y1="657.0" x2="707.666667" y2="653.0" stroke="#0E00D9" stroke-width="1" /><line x1="168.0" y1="675.0" x2="168.0" y2="675.0" stroke="#0E00D9" stroke-width="1" /><line x1="230.0" y1="396.0" x2="230.0" y2="396.0" stroke="#0E00D9" stroke-width="1" /><line x1="326.0" y1="950.0" x2="346.666667" y2="958.0" stroke="#0E00D9" stroke-width="1" /><line x1="756.333333" y1="825.0" x2="752.0" y2="831.0" stroke="#0E00D9" stroke-width="1" /><line x1="886.0" y1="450.0" x2="886.0" y2="450.0" stroke="#0E00D9" stroke-width="1" /><line x1="309.333333" y1="597.666667" x2="318.0" y2="600.0" stroke="#0E00D9" stroke-width="1" /><line x1="191.666667" y1="433.0" x2="199.0" y2="424.0" stroke="#0E00D9" stroke-width="1" /><line x1="584.0" y1="651.0" x2="616.0" y2="655.666667" stroke="#0E00D9" stroke-width="1" /><line x1="157.0" y1="498.0" x2="157.0" y2="498.0" stroke="#0E00D9" stroke-width="1" /><line x1="765.0" y1="719.0" x2="768.333333" y2="732.333333" stroke="#0E00D9" stroke-width="1" /><line x1="262.666667" y1="1034.33333" x2="298.0" y2="984.0" stroke="#0E00D9" stroke-width="1" /><line x1="313.0" y1="980.0" x2="313.0" y2="980.0" stroke="#0E00D9" stroke-width="1" /><line x1="412.0" y1="309.0" x2="447.333333" y2="291.0" stroke="#0E00D9" stroke-width="1" /><line x1="649.0" y1="367.0" x2="675.666667" y2="381.0" stroke="#0E00D9" stroke-width="1" /><line x1="259.0" y1="360.0" x2="259.0" y2="360.0" stroke="#0E00D9" stroke-width="1" /><line x1="294.0" y1="311.0" x2="286.0" y2="342.333333" stroke="#0E00D9" stroke-width="1" /><line x1="632.333333" y1="334.333333" x2="656.0" y2="338.0" stroke="#0E00D9" stroke-width="1" /><line x1="444.0" y1="603.0" x2="444.0" y2="603.0" stroke="#0E00D9" stroke-width="1" /><line x1="656.0" y1="338.0" x2="681.333333" y2="337.333333" stroke="#0E00D9" stroke-width="1" /><line x1="407.666667" y1="547.333333" x2="414.0" y2="543.0" stroke="#0E00D9" stroke-width="1" /><line x1="541.0" y1="299.0" x2="541.0" y2="299.0" stroke="#0E00D9" stroke-width="1" /><line x1="168.0" y1="675.0" x2="168.0" y2="675.0" stroke="#0E00D9" stroke-width="1" /><line x1="617.0" y1="953.0" x2="617.0" y2="953.0" stroke="#0E00D9" stroke-width="1" /><line x1="154.0" y1="591.0" x2="154.0" y2="591.0" stroke="#0E00D9" stroke-width="1" /><line x1="630.0" y1="918.0" x2="630.0" y2="918.0" stroke="#0E00D9" stroke-width="1" /><line x1="168.0" y1="675.0" x2="173.333333" y2="629.666667" stroke="#0E00D9" stroke-width="1" /><line x1="294.0" y1="311.0" x2="294.0" y2="311.0" stroke="#0E00D9" stroke-width="1" /><line x1="913.333333" y1="544.666667" x2="927.0" y2="592.0" stroke="#0E00D9" stroke-width="1" /><line x1="510.0" y1="502.0" x2="520.0" y2="474.0" stroke="#0E00D9" stroke-width="1" /><line x1="342.333333" y1="674.333333" x2="339.0" y2="687.0" stroke="#0E00D9" stroke-width="1" /><line x1="309.333333" y1="597.666667" x2="318.0" y2="600.0" stroke="#0E00D9" stroke-width="1" /><line x1="154.0" y1="591.0" x2="154.666667" y2="565.666667" stroke="#0E00D9" stroke-width="1" /><line x1="246.0" y1="661.0" x2="257.0" y2="620.0" stroke="#0E00D9" stroke-width="1" /><line x1="318.0" y1="600.0" x2="318.0" y2="600.0" stroke="#0E00D9" stroke-width="1" /><line x1="708.79166" y1="372.988193" x2="674.0" y2="396.0" stroke="#0E00D9" stroke-width="1" /><line x1="423.333333" y1="613.0" x2="418.0" y2="613.0" stroke="#0E00D9" stroke-width="1" /><line x1="321.666667" y1="960.0" x2="326.0" y2="950.0" stroke="#0E00D9" stroke-width="1" /><line x1="739.0" y1="635.666667" x2="749.0" y2="628.0" stroke="#0E00D9" stroke-width="1" /><line x1="780.0" y1="678.0" x2="780.0" y2="678.0" stroke="#0E00D9" stroke-width="1" /><line x1="719.0" y1="651.0" x2="739.0" y2="635.666667" stroke="#0E00D9" stroke-width="1" /><line x1="412.0" y1="309.0" x2="447.333333" y2="291.0" stroke="#0E00D9" stroke-width="1" /><line x1="781.0" y1="618.666667" x2="797.0" y2="614.0" stroke="#0E00D9" stroke-width="1" /><line x1="364.0" y1="294.0" x2="364.0" y2="294.0" stroke="#0E00D9" stroke-width="1" /><line x1="243.0" y1="425.0" x2="234.333333" y2="405.666667" stroke="#0E00D9" stroke-width="1" /><line x1="206.0" y1="703.0" x2="246.0" y2="661.0" stroke="#0E00D9" stroke-width="1" /><line x1="211.0" y1="439.333333" x2="204.0" y2="438.0" stroke="#0E00D9" stroke-width="1" /><line x1="850.333333" y1="421.0" x2="886.0" y2="450.0" stroke="#0E00D9" stroke-width="1" /><line x1="349.0" y1="649.0" x2="349.0" y2="649.0" stroke="#0E00D9" stroke-width="1" /><line x1="195.0" y1="728.0" x2="195.0" y2="728.0" stroke="#0E00D9" stroke-width="1" /><line x1="437.333333" y1="609.666667" x2="434.0" y2="613.0" stroke="#0E00D9" stroke-width="1" /><line x1="186.0" y1="446.666667" x2="177.0" y2="451.0" stroke="#0E00D9" stroke-width="1" /><line x1="531.0" y1="619.0" x2="531.0" y2="619.0" stroke="#0E00D9" stroke-width="1" /><line x1="689.0" y1="388.0" x2="711.0" y2="373.333333" stroke="#0E00D9" stroke-width="1" /><line x1="418.0" y1="613.0" x2="372.0" y2="637.0" stroke="#0E00D9" stroke-width="1" /><line x1="382.0" y1="873.0" x2="382.0" y2="873.0" stroke="#0E00D9" stroke-width="1" /><line x1="760.0" y1="756.0" x2="766.666667" y2="776.666667" stroke="#0E00D9" stroke-width="1" /><line x1="318.0" y1="600.0" x2="318.0" y2="600.0" stroke="#0E00D9" stroke-width="1" /><line x1="169.666667" y1="476.666667" x2="176.0" y2="466.0" stroke="#0E00D9" stroke-width="1" /><line x1="204.0" y1="438.0" x2="204.0" y2="438.0" stroke="#0E00D9" stroke-width="1" /><line x1="543.333333" y1="288.333333" x2="541.0" y2="299.0" stroke="#0E00D9" stroke-width="1" /><line x1="176.0" y1="607.0" x2="176.0" y2="607.0" stroke="#0E00D9" stroke-width="1" /><line x1="257.0" y1="620.0" x2="292.0" y2="593.0" stroke="#0E00D9" stroke-width="1" /><line x1="465.0" y1="282.0" x2="444.333333" y2="310.0" stroke="#0E00D9" stroke-width="1" /><line x1="176.0" y1="607.0" x2="158.666667" y2="607.666667" stroke="#0E00D9" stroke-width="1" /><line x1="206.0" y1="703.0" x2="206.0" y2="703.0" stroke="#0E00D9" stroke-width="1" /><line x1="765.0" y1="719.0" x2="768.333333" y2="732.333333" stroke="#0E00D9" stroke-width="1" /><line x1="765.0" y1="813.0" x2="765.0" y2="813.0" stroke="#0E00D9" stroke-width="1" /><line x1="719.0" y1="651.0" x2="719.0" y2="651.0" stroke="#0E00D9" stroke-width="1" /><line x1="668.666667" y1="856.0" x2="649.0" y2="862.0" stroke="#0E00D9" stroke-width="1" /><line x1="232.0" y1="367.333333" x2="233.0" y2="353.0" stroke="#0E00D9" stroke-width="1" /><line x1="559.666667" y1="442.666667" x2="577.0" y2="434.0" stroke="#0E00D9" stroke-width="1" /><line x1="603.0" y1="1019.0" x2="626.333333" y2="1043.66667" stroke="#0E00D9" stroke-width="1" /><line x1="335.0" y1="326.0" x2="354.333333" y2="304.666667" stroke="#0E00D9" stroke-width="1" /><line x1="176.0" y1="466.0" x2="176.0" y2="466.0" stroke="#0E00D9" stroke-width="1" /><line x1="649.0" y1="862.0" x2="649.0" y2="862.0" stroke="#0E00D9" stroke-width="1" /><line x1="765.0" y1="719.0" x2="765.0" y2="719.0" stroke="#0E00D9" stroke-width="1" /><line x1="649.0" y1="862.0" x2="636.333333" y2="899.333333" stroke="#0E00D9" stroke-width="1" /><line x1="157.0" y1="498.0" x2="157.0" y2="498.0" stroke="#0E00D9" stroke-width="1" /><line x1="434.0" y1="324.0" x2="468.0" y2="319.333333" stroke="#0E00D9" stroke-width="1" /><line x1="294.0" y1="311.0" x2="286.0" y2="342.333333" stroke="#0E00D9" stroke-width="1" /><line x1="437.333333" y1="609.666667" x2="434.0" y2="613.0" stroke="#0E00D9" stroke-width="1" /><line x1="468.0" y1="319.333333" x2="485.0" y2="317.0" stroke="#0E00D9" stroke-width="1" /><line x1="243.0" y1="425.0" x2="243.0" y2="425.0" stroke="#0E00D9" stroke-width="1" /><line x1="577.0" y1="434.0" x2="577.0" y2="434.0" stroke="#0E00D9" stroke-width="1" /><line x1="768.0" y1="677.333333" x2="762.0" y2="677.0" stroke="#0E00D9" stroke-width="1" /><line x1="622.666667" y1="507.666667" x2="628.0" y2="527.0" stroke="#0E00D9" stroke-width="1" /><line x1="294.0" y1="311.0" x2="286.0" y2="342.333333" stroke="#0E00D9" stroke-width="1" /><line x1="191.666667" y1="433.0" x2="199.0" y2="424.0" stroke="#0E00D9" stroke-width="1" /><line x1="256.666667" y1="373.0" x2="259.0" y2="360.0" stroke="#0E00D9" stroke-width="1" /><line x1="927.0" y1="592.0" x2="922.333333" y2="609.333333" stroke="#0E00D9" stroke-width="1" /><line x1="326.0" y1="950.0" x2="326.0" y2="950.0" stroke="#0E00D9" stroke-width="1" /><line x1="437.333333" y1="609.666667" x2="434.0" y2="613.0" stroke="#0E00D9" stroke-width="1" /><line x1="585.0" y1="327.0" x2="632.333333" y2="334.333333" stroke="#0E00D9" stroke-width="1" /><line x1="233.0" y1="353.0" x2="233.0" y2="353.0" stroke="#0E00D9" stroke-width="1" /><line x1="211.0" y1="439.333333" x2="204.0" y2="438.0" stroke="#0E00D9" stroke-width="1" /><line x1="286.0" y1="342.333333" x2="282.0" y2="358.0" stroke="#0E00D9" stroke-width="1" /></svg>