<?xml version='1.0' encoding='UTF-8'?>
<svg xmlns="http://www.w3.org/2000/svg" xmlns:xlink="http://www.w3.org/1999/xlink" width="4387.69568px" height="1253px" viewBox="0 0 4387.69568 1253" version="1.1">
    <g id="dissolve" stroke="none" stroke-width="1" fill="none" fill-rule="evenodd">
        <rect id="Rectangle" stroke="#979797" fill-opacity="0" fill="#D8D8D8" fill-rule="nonzero" x="1811.19568" y="0.5" width="2576" height="1252"/>
        <line x1="838.020536" y1="143.5" x2="803.195685" y2="149.84002"/><line x1="803.195685" y1="149.84002" x2="803.195685" y2="154.316844"/><line x1="803.195685" y1="154.316844" x2="838.020536" y2="159.5"/><line x1="838.020536" y1="159.5" x2="859.467991" y2="158.296319"/><line x1="859.467991" y1="158.296319" x2="881.760622" y2="159.5"/><line x1="881.760622" y1="159.5" x2="913.195685" y2="153.385925"/><line x1="913.195685" y1="153.385925" x2="913.195685" y2="149.84002"/><line x1="913.195685" y1="149.84002" x2="881.760622" y2="143.5"/><line x1="882.195685" y1="143.887767" x2="905.417741" y2="142.823044"/><line x1="905.417741" y1="142.823044" x2="917.02877" y2="142.290682"/><line x1="917.02877" y1="142.290682" x2="917.02877" y2="142.290682"/><line x1="917.02877" y1="142.290682" x2="938.087451" y2="144.430227"/><line x1="938.087451" y1="144.430227" x2="948.616791" y2="145.5"/><line x1="948.616791" y1="145.5" x2="948.616791" y2="145.5"/><line x1="948.616791" y1="145.5" x2="944.992909" y2="136.654674"/><line x1="944.992909" y1="136.654674" x2="943.180968" y2="132.23201"/><line x1="943.180968" y1="132.23201" x2="943.180968" y2="132.23201"/><line x1="943.180968" y1="132.23201" x2="980.195685" y2="122.5"/><line x1="837.195685" y1="143.807062" x2="807.86393" y2="143.295502"/><line x1="807.86393" y1="143.295502" x2="793.198052" y2="143.039723"/><line x1="793.198052" y1="143.039723" x2="793.198052" y2="143.039723"/><line x1="793.198052" y1="143.039723" x2="771.188606" y2="144.679908"/><line x1="771.188606" y1="144.679908" x2="760.183883" y2="145.5"/><line x1="760.183883" y1="145.5" x2="760.183883" y2="145.5"/><line x1="760.183883" y1="145.5" x2="751.959573" y2="142.350778"/><line x1="751.959573" y1="142.350778" x2="747.847417" y2="140.776166"/><line x1="747.847417" y1="140.776166" x2="747.847417" y2="140.776166"/><line x1="747.847417" y1="140.776166" x2="754.161428" y2="136.611391"/><line x1="754.161428" y1="136.611391" x2="757.318434" y2="134.529004"/><line x1="757.318434" y1="134.529004" x2="757.318434" y2="134.529004"/><line x1="757.318434" y1="134.529004" x2="710.195685" y2="124.5"/><line x1="838.689165" y1="159.5" x2="839.203201" y2="160.480374"/><line x1="839.203201" y1="160.480374" x2="839.460218" y2="160.970561"/><line x1="839.460218" y1="160.970561" x2="839.460218" y2="160.970561"/><line x1="839.460218" y1="160.970561" x2="829.979454" y2="161.347962"/><line x1="829.979454" y1="161.347962" x2="825.239072" y2="161.536662"/><line x1="825.239072" y1="161.536662" x2="825.239072" y2="161.536662"/><line x1="825.239072" y1="161.536662" x2="821.74728" y2="162.988137"/><line x1="821.74728" y1="162.988137" x2="820.001383" y2="163.713874"/><line x1="820.001383" y1="163.713874" x2="820.001383" y2="163.713874"/><line x1="820.001383" y1="163.713874" x2="825.126532" y2="167.9143"/><line x1="825.126532" y1="167.9143" x2="827.689106" y2="170.014513"/><line x1="827.689106" y1="170.014513" x2="827.689106" y2="170.014513"/><line x1="827.689106" y1="170.014513" x2="823.424739" y2="171.234342"/><line x1="823.424739" y1="171.234342" x2="821.292556" y2="171.844256"/><line x1="821.292556" y1="171.844256" x2="821.292556" y2="171.844256"/><line x1="821.292556" y1="171.844256" x2="825.045929" y2="172.769972"/><line x1="825.045929" y1="172.769972" x2="826.922615" y2="173.23283"/><line x1="826.922615" y1="173.23283" x2="826.922615" y2="173.23283"/><line x1="826.922615" y1="173.23283" x2="829.340712" y2="175.236958"/><line x1="829.340712" y1="175.236958" x2="830.54976" y2="176.239022"/><line x1="830.54976" y1="176.239022" x2="830.54976" y2="176.239022"/><line x1="830.54976" y1="176.239022" x2="823.794297" y2="177.048048"/><line x1="823.794297" y1="177.048048" x2="820.416566" y2="177.452561"/><line x1="820.416566" y1="177.452561" x2="820.416566" y2="177.452561"/><line x1="820.416566" y1="177.452561" x2="828.248766" y2="178.329258"/><line x1="828.248766" y1="178.329258" x2="832.164866" y2="178.767607"/><line x1="832.164866" y1="178.767607" x2="832.164866" y2="178.767607"/><line x1="832.164866" y1="178.767607" x2="828.971154" y2="180.857192"/><line x1="828.971154" y1="180.857192" x2="827.374297" y2="181.901985"/><line x1="827.374297" y1="181.901985" x2="827.374297" y2="181.901985"/><line x1="827.374297" y1="181.901985" x2="829.360482" y2="184.406711"/><line x1="829.360482" y1="184.406711" x2="830.353575" y2="185.659074"/><line x1="830.353575" y1="185.659074" x2="830.353575" y2="185.659074"/><line x1="830.353575" y1="185.659074" x2="835.655138" y2="184.374176"/><line x1="835.655138" y1="184.374176" x2="838.305919" y2="183.731727"/><line x1="838.305919" y1="183.731727" x2="838.305919" y2="183.731727"/><line x1="838.305919" y1="183.731727" x2="841.037304" y2="184.481323"/><line x1="841.037304" y1="184.481323" x2="842.402996" y2="184.856121"/><line x1="842.402996" y1="184.856121" x2="842.402996" y2="184.856121"/><line x1="842.402996" y1="184.856121" x2="835.915197" y2="186.647256"/><line x1="835.915197" y1="186.647256" x2="832.671298" y2="187.542824"/><line x1="832.671298" y1="187.542824" x2="832.671298" y2="187.542824"/><line x1="832.671298" y1="187.542824" x2="829.46846" y2="190.342529"/><line x1="829.46846" y1="190.342529" x2="827.867041" y2="191.742382"/><line x1="827.867041" y1="191.742382" x2="827.867041" y2="191.742382"/><line x1="827.867041" y1="191.742382" x2="832.663694" y2="194.018499"/><line x1="832.663694" y1="194.018499" x2="835.06202" y2="195.156557"/><line x1="835.06202" y1="195.156557" x2="835.06202" y2="195.156557"/><line x1="835.06202" y1="195.156557" x2="810.947968" y2="198.655539"/><line x1="810.947968" y1="198.655539" x2="798.890943" y2="200.40503"/><line x1="798.890943" y1="200.40503" x2="798.890943" y2="200.40503"/><line x1="798.890943" y1="200.40503" x2="785.094104" y2="206.052592"/><line x1="785.094104" y1="206.052592" x2="778.195685" y2="208.876374"/><line x1="778.195685" y1="208.876374" x2="778.195685" y2="208.876374"/><line x1="778.195685" y1="208.876374" x2="792.077689" y2="214.763391"/><line x1="792.077689" y1="214.763391" x2="799.018691" y2="217.706899"/><line x1="799.018691" y1="217.706899" x2="799.018691" y2="217.706899"/><line x1="799.018691" y1="217.706899" x2="835.743345" y2="221.568966"/><line x1="835.743345" y1="221.568966" x2="854.105672" y2="223.5"/><line x1="854.105672" y1="223.5" x2="854.105672" y2="223.5"/><line x1="854.105672" y1="223.5" x2="884.893062" y2="220.639997"/><line x1="884.893062" y1="220.639997" x2="900.286757" y2="219.209995"/><line x1="900.286757" y1="219.209995" x2="900.286757" y2="219.209995"/><line x1="900.286757" y1="219.209995" x2="918.065091" y2="214.840389"/><line x1="918.065091" y1="214.840389" x2="926.954258" y2="212.655586"/><line x1="926.954258" y1="212.655586" x2="926.954258" y2="212.655586"/><line x1="926.954258" y1="212.655586" x2="931.115209" y2="208.913246"/><line x1="931.115209" y1="208.913246" x2="933.195685" y2="207.042076"/><line x1="933.195685" y1="207.042076" x2="933.195685" y2="207.042076"/><line x1="933.195685" y1="207.042076" x2="922.215397" y2="202.507629"/><line x1="922.215397" y1="202.507629" x2="916.725252" y2="200.240405"/><line x1="916.725252" y1="200.240405" x2="916.725252" y2="200.240405"/><line x1="916.725252" y1="200.240405" x2="891.519255" y2="196.681126"/><line x1="891.519255" y1="196.681126" x2="878.916257" y2="194.901486"/><line x1="878.916257" y1="194.901486" x2="878.916257" y2="194.901486"/><line x1="878.916257" y1="194.901486" x2="880.586112" y2="193.14332"/><line x1="880.586112" y1="193.14332" x2="881.42104" y2="192.264236"/><line x1="881.42104" y1="192.264236" x2="881.42104" y2="192.264236"/><line x1="881.42104" y1="192.264236" x2="869.269724" y2="186.942019"/><line x1="869.269724" y1="186.942019" x2="863.194066" y2="184.28091"/><line x1="863.194066" y1="184.28091" x2="863.194066" y2="184.28091"/><line x1="863.194066" y1="184.28091" x2="874.323394" y2="184.899067"/><line x1="874.323394" y1="184.899067" x2="879.888058" y2="185.208145"/><line x1="879.888058" y1="185.208145" x2="879.888058" y2="185.208145"/><line x1="879.888058" y1="185.208145" x2="877.272255" y2="181.355357"/><line x1="877.272255" y1="181.355357" x2="875.964354" y2="179.428963"/><line x1="875.964354" y1="179.428963" x2="875.964354" y2="179.428963"/><line x1="875.964354" y1="179.428963" x2="879.602145" y2="178.50568"/><line x1="879.602145" y1="178.50568" x2="881.42104" y2="178.044039"/><line x1="881.42104" y1="178.044039" x2="881.42104" y2="178.044039"/><line x1="881.42104" y1="178.044039" x2="881.582679" y2="177.078031"/><line x1="881.582679" y1="177.078031" x2="881.696695" y2="176.39663"/><line x1="881.696695" y1="176.39663" x2="881.76309" y2="175.999835"/><line x1="881.76309" y1="175.999835" x2="882.106883" y2="173.945209"/><line x1="882.106883" y1="173.945209" x2="882.27878" y2="172.917896"/><line x1="882.27878" y1="172.917896" x2="882.27878" y2="172.917896"/><line x1="882.27878" y1="172.917896" x2="888.149128" y2="171.659026"/><line x1="888.149128" y1="171.659026" x2="891.084302" y2="171.029591"/><line x1="891.084302" y1="171.029591" x2="891.084302" y2="171.029591"/><line x1="891.084302" y1="171.029591" x2="884.87025" y2="169.988486"/><line x1="884.87025" y1="169.988486" x2="881.763224" y2="169.467933"/><line x1="881.763224" y1="169.467933" x2="881.763224" y2="169.467933"/><line x1="881.763224" y1="169.467933" x2="889.492008" y2="166.49818"/><line x1="889.492008" y1="166.49818" x2="893.356401" y2="165.013304"/><line x1="893.356401" y1="165.013304" x2="893.356401" y2="165.013304"/><line x1="893.356401" y1="165.013304" x2="890.868346" y2="162.85301"/><line x1="890.868346" y1="162.85301" x2="889.624319" y2="161.772863"/><line x1="889.624319" y1="161.772863" x2="889.624319" y2="161.772863"/><line x1="889.624319" y1="161.772863" x2="875.736232" y2="161.435155"/><line x1="875.736232" y1="161.435155" x2="882.607276" y2="159.5"/><line x1="674.195685" y1="152.5" x2="711.094112" y2="155.927694"/><line x1="711.094112" y1="155.927694" x2="729.543325" y2="157.641541"/><line x1="729.543325" y1="157.641541" x2="729.543325" y2="157.641541"/><line x1="729.543325" y1="157.641541" x2="773.398364" y2="164.493515"/><line x1="773.398364" y1="164.493515" x2="821.195685" y2="173.5"/><line x1="622.195685" y1="182.5" x2="666.751625" y2="180.786925"/><line x1="666.751625" y1="180.786925" x2="686.348136" y2="178.645476"/><line x1="686.348136" y1="178.645476" x2="696.146391" y2="177.574752"/><line x1="696.146391" y1="177.574752" x2="696.146391" y2="177.574752"/><line x1="696.146391" y1="177.574752" x2="752.157745" y2="175.5"/><line x1="752.157745" y1="175.5" x2="820.195685" y2="178.42624"/><line x1="639.195685" y1="212.5" x2="664.947421" y2="209.502386"/><line x1="664.947421" y1="209.502386" x2="677.823289" y2="208.003578"/><line x1="677.823289" y1="208.003578" x2="677.823289" y2="208.003578"/><line x1="677.823289" y1="208.003578" x2="695.283746" y2="202.462915"/><line x1="695.283746" y1="202.462915" x2="704.013974" y2="199.692583"/><line x1="704.013974" y1="199.692583" x2="704.013974" y2="199.692583"/><line x1="704.013974" y1="199.692583" x2="741.823119" y2="191.809044"/><line x1="741.823119" y1="191.809044" x2="828.195685" y2="184.5"/><line x1="1094.19568" y1="209.5" x2="1065.45611" y2="204.791482"/><line x1="1065.45611" y1="204.791482" x2="1047.78754" y2="197.965181"/><line x1="1047.78754" y1="197.965181" x2="1038.95325" y2="194.55203"/><line x1="1038.95325" y1="194.55203" x2="1038.95325" y2="194.55203"/><line x1="1038.95325" y1="194.55203" x2="1001.04464" y2="190.115461"/><line x1="1001.04464" y1="190.115461" x2="982.09034" y2="187.897176"/><line x1="982.09034" y1="187.897176" x2="982.09034" y2="187.897176"/><line x1="982.09034" y1="187.897176" x2="897.665553" y2="182.160639"/><line x1="897.665553" y1="182.160639" x2="878.195685" y2="181.5"/><line x1="1082.19568" y1="179.5" x2="1057.76913" y2="179.255279"/><line x1="1057.76913" y1="179.255279" x2="1045.55586" y2="179.132918"/><line x1="1045.55586" y1="179.132918" x2="1045.55586" y2="179.132918"/><line x1="1045.55586" y1="179.132918" x2="1024.58101" y2="176.305265"/><line x1="1024.58101" y1="176.305265" x2="1014.09359" y2="174.891439"/><line x1="1014.09359" y1="174.891439" x2="1014.09359" y2="174.891439"/><line x1="1014.09359" y1="174.891439" x2="961.92563" y2="172.5"/><line x1="961.92563" y1="172.5" x2="882.195685" y2="177.153112"/><line x1="1024.19568" y1="147.5" x2="979.277708" y2="153.749751"/><line x1="979.277708" y1="153.749751" x2="932.116102" y2="160.977605"/><line x1="932.116102" y1="160.977605" x2="890.195685" y2="170.5"/><line x1="177.37053548359108" y1="651.7778681340083" x2="152.64061197825208" y2="626.4520518290469"/><line x1="152.64061197825208" y1="626.4520518290469" x2="148.92915584749824" y2="628.9554605991274"/><line x1="148.92915584749824" y1="628.9554605991274" x2="164.10593432271037" y2="660.7249545895402"/><line x1="164.10593432271037" y1="660.7249545895402" x2="177.09709573058922" y2="677.8326107469811"/><line x1="177.09709573058922" y1="677.8326107469811" x2="188.56508001111047" y2="696.987129310329"/><line x1="188.56508001111047" y1="696.987129310329" x2="211.21214205728586" y2="719.6290302816758"/><line x1="211.21214205728586" y1="719.6290302816758" x2="214.1518313600343" y2="717.6461848101014"/><line x1="214.1518313600343" y1="717.6461848101014" x2="201.82968117199118" y2="688.040042854797"/><line x1="201.7514186916851" y1="688.6175657954357" x2="215.61972354144166" y2="707.2741380146883"/><line x1="215.61972354144166" y1="707.2741380146883" x2="222.5538761012424" y2="716.6024234301995"/><line x1="222.5538761012424" y1="716.6024234301995" x2="222.5538761012424" y2="716.6024234301995"/><line x1="222.5538761012424" y1="716.6024234301995" x2="232.5559778797243" y2="735.2572795883068"/><line x1="232.5559778797243" y1="735.2572795883068" x2="237.55702863404304" y2="744.5847083614756"/><line x1="237.55702863404304" y1="744.5847083614756" x2="237.55702863404304" y2="744.5847083614756"/><line x1="237.55702863404304" y1="744.5847083614756" x2="242.8636874019703" y2="736.634129108654"/><line x1="242.8636874019703" y1="736.634129108654" x2="245.51701665101166" y2="732.6588401763584"/><line x1="245.51701665101166" y1="732.6588401763584" x2="245.51701665101166" y2="732.6588401763584"/><line x1="245.51701665101166" y1="732.6588401763584" x2="274.28358566787097" y2="757.9033603783438"/><line x1="176.65467492407345" y1="651.2657395805584" x2="160.67666814234713" y2="626.6625518948797"/><line x1="160.67666814234713" y1="626.6625518948797" x2="152.68766503108037" y2="614.3609584665592"/><line x1="152.68766503108037" y1="614.3609584665592" x2="152.68766503108037" y2="614.3609584665592"/><line x1="152.68766503108037" y1="614.3609584665592" x2="139.02036402761655" y2="597.0314805938169"/><line x1="139.02036402761655" y1="597.0314805938169" x2="132.18671311136592" y2="588.3667419370424"/><line x1="132.18671311136592" y1="588.3667419370424" x2="132.18671311136592" y2="588.3667419370424"/><line x1="132.18671311136592" y1="588.3667419370424" x2="130.19856095558396" y2="579.7874559566178"/><line x1="130.19856095558396" y1="579.7874559566178" x2="129.20448474277072" y2="575.4978136605207"/><line x1="129.20448474277072" y1="575.4978136605207" x2="129.20448474277072" y2="575.4978136605207"/><line x1="129.20448474277072" y1="575.4978136605207" x2="136.1879898426448" y2="578.4034533884942"/><line x1="136.1879898426448" y1="578.4034533884942" x2="139.67974169846667" y2="579.8562731175587"/><line x1="139.67974169846667" y1="579.8562731175587" x2="139.67974169846667" y2="579.8562731175587"/><line x1="139.67974169846667" y1="579.8562731175587" x2="121.64345610877689" y2="535.1815959746059"/><line x1="164.47980222451054" y1="661.2792756830054" x2="163.95448006749007" y2="662.2536481951608"/><line x1="163.95448006749007" y1="662.2536481951608" x2="163.69181926857618" y2="662.7408348657575"/><line x1="163.69181926857618" y1="662.7408348657575" x2="163.69181926857618" y2="662.7408348657575"/><line x1="163.69181926857618" y1="662.7408348657575" x2="158.07736371137548" y2="655.0919652541929"/><line x1="158.07736371137548" y1="655.0919652541929" x2="155.27013634729394" y2="651.2675301688143"/><line x1="155.27013634729394" y1="651.2675301688143" x2="155.27013634729394" y2="651.2675301688143"/><line x1="155.27013634729394" y1="651.2675301688143" x2="152.1142231706807" y2="649.1843570957949"/><line x1="152.1142231706807" y1="649.1843570957949" x2="150.5362672764894" y2="648.1427706942075"/><line x1="150.5362672764894" y1="648.1427706942075" x2="150.5362672764894" y2="648.1427706942075"/><line x1="150.5362672764894" y1="648.1427706942075" x2="149.91990269258952" y2="654.7405593618669"/><line x1="149.91990269258952" y1="654.7405593618669" x2="149.6117209598326" y2="658.0394545247341"/><line x1="149.6117209598326" y1="658.0394545247341" x2="149.6117209598326" y2="658.0394545247341"/><line x1="149.6117209598326" y1="658.0394545247341" x2="146.21583312254552" y2="655.186253778818"/><line x1="146.21583312254552" y1="655.186253778818" x2="144.51788933882438" y2="653.7596527117448"/><line x1="144.51788933882438" y1="653.7596527117448" x2="144.51788933882438" y2="653.7596527117448"/><line x1="144.51788933882438" y1="653.7596527117448" x2="145.84929553898758" y2="657.3889937703877"/><line x1="145.84929553898758" y1="657.3889937703877" x2="146.5149989186658" y2="659.2036647142279"/><line x1="146.5149989186658" y1="659.2036647142279" x2="146.5149989186658" y2="659.2036647142279"/><line x1="146.5149989186658" y1="659.2036647142279" x2="146.20568362956726" y2="662.3290513075201"/><line x1="146.20568362956726" y1="662.3290513075201" x2="146.0510265442108" y2="663.8917454332037"/><line x1="146.0510265442108" y1="663.8917454332037" x2="146.0510265442108" y2="663.8917454332037"/><line x1="146.0510265442108" y1="663.8917454332037" x2="141.60270662377764" y2="658.7436143841217"/><line x1="141.60270662377764" y1="658.7436143841217" x2="139.37854777219513" y2="656.1695487149065"/><line x1="139.37854777219513" y1="656.1695487149065" x2="139.37854777219513" y2="656.1695487149065"/><line x1="139.37854777219513" y1="656.1695487149065" x2="143.03144284897485" y2="663.152980090759"/><line x1="143.03144284897485" y1="663.152980090759" x2="144.8578903873647" y2="666.6446957786853"/><line x1="144.8578903873647" y1="666.6446957786853" x2="144.8578903873647" y2="666.6446957786853"/><line x1="144.8578903873647" y1="666.6446957786853" x2="141.33964426599505" y2="665.1654688089268"/><line x1="141.33964426599505" y1="665.1654688089268" x2="139.58052189942555" y2="664.4258554589699"/><line x1="139.58052189942555" y1="664.4258554589699" x2="139.58052189942555" y2="664.4258554589699"/><line x1="139.58052189942555" y1="664.4258554589699" x2="138.61467049344992" y2="667.4731024543537"/><line x1="138.61467049344992" y1="667.4731024543537" x2="138.13174507005874" y2="668.9967263665645"/><line x1="138.13174507005874" y1="668.9967263665645" x2="138.13174507005874" y2="668.9967263665645"/><line x1="138.13174507005874" y1="668.9967263665645" x2="142.161569366825" y2="672.6734160027413"/><line x1="142.161569366825" y1="672.6734160027413" x2="144.17648165013054" y2="674.5117601267143"/><line x1="144.17648165013054" y1="674.5117601267143" x2="144.17648165013054" y2="674.5117601267143"/><line x1="144.17648165013054" y1="674.5117601267143" x2="145.08240951054006" y2="677.1953496804977"/><line x1="145.08240951054006" y1="677.1953496804977" x2="145.5353731611483" y2="678.5371440428706"/><line x1="145.5353731611483" y1="678.5371440428706" x2="145.5353731611483" y2="678.5371440428706"/><line x1="145.5353731611483" y1="678.5371440428706" x2="140.42252378868534" y2="674.1601048898436"/><line x1="140.42252378868534" y1="674.1601048898436" x2="137.86609923737615" y2="671.9715846192148"/><line x1="137.86609923737615" y1="671.9715846192148" x2="137.86609923737615" y2="671.9715846192148"/><line x1="137.86609923737615" y1="671.9715846192148" x2="133.7540340498948" y2="670.8818881344499"/><line x1="133.7540340498948" y1="670.8818881344499" x2="131.69800117655768" y2="670.3370394775486"/><line x1="131.69800117655768" y1="670.3370394775486" x2="131.69800117655768" y2="670.3370394775486"/><line x1="131.69800117655768" y1="670.3370394775486" x2="132.49326842284518" y2="675.586432681889"/><line x1="132.49326842284518" y1="675.586432681889" x2="132.89090246050773" y2="678.2111290044628"/><line x1="132.89090246050773" y1="678.2111290044628" x2="132.89090246050773" y2="678.2111290044628"/><line x1="132.89090246050773" y1="678.2111290044628" x2="116.50570872368235" y2="660.1762806027261"/><line x1="116.50570872368235" y1="660.1762806027261" x2="108.3131126283879" y2="651.1588557597613"/><line x1="108.3131126283879" y1="651.1588557597613" x2="108.3131126283879" y2="651.1588557597613"/><line x1="108.3131126283879" y1="651.1588557597613" x2="95.91597647256492" y2="642.8788353293875"/><line x1="95.91597647256492" y1="642.8788353293875" x2="89.71740792421531" y2="638.7388253108934"/><line x1="89.71740792421531" y1="638.7388253108934" x2="89.71740792421531" y2="638.7388253108934"/><line x1="89.71740792421531" y1="638.7388253108934" x2="92.59956798737471" y2="653.5395066698794"/><line x1="92.59956798737471" y1="653.5395066698794" x2="94.04064843347328" y2="660.939847069776"/><line x1="94.04064843347328" y1="660.939847069776" x2="94.04064843347328" y2="660.939847069776"/><line x1="94.04064843347328" y1="660.939847069776" x2="111.37501568196694" y2="693.5456055339884"/><line x1="111.37501568196694" y1="693.5456055339884" x2="120.04219889169497" y2="709.848485045691"/><line x1="120.04219889169497" y1="709.848485045691" x2="120.04219889169497" y2="709.848485045691"/><line x1="120.04219889169497" y1="709.848485045691" x2="139.6293388407014" y2="733.7730947350913"/><line x1="139.6293388407014" y1="733.7730947350913" x2="149.42290922972325" y2="745.735399300195"/><line x1="149.42290922972325" y1="745.735399300195" x2="149.42290922972325" y2="745.735399300195"/><line x1="149.42290922972325" y1="745.735399300195" x2="162.98699498931796" y2="758.0308534974645"/><line x1="162.98699498931796" y1="758.0308534974645" x2="169.7690373099224" y2="764.1785797670617"/><line x1="169.7690373099224" y1="764.1785797670617" x2="169.7690373099224" y2="764.1785797670617"/><line x1="169.7690373099224" y1="764.1785797670617" x2="175.1983526092805" y2="765.535475342285"/><line x1="175.1983526092805" y1="765.535475342285" x2="177.91300969976658" y2="766.2139223008592"/><line x1="177.91300969976658" y1="766.2139223008592" x2="177.91300969976658" y2="766.2139223008592"/><line x1="177.91300969976658" y1="766.2139223008592" x2="175.5321383348985" y2="754.5752198486268"/><line x1="175.5321383348985" y1="754.5752198486268" x2="174.341701823427" y2="748.7558691817035"/><line x1="174.341701823427" y1="748.7558691817035" x2="174.341701823427" y2="748.7558691817035"/><line x1="174.341701823427" y1="748.7558691817035" x2="163.19746319832825" y2="725.8688270567214"/><line x1="163.19746319832825" y1="725.8688270567214" x2="157.6253445798941" y2="714.4253061291527"/><line x1="157.6253445798941" y1="714.4253061291527" x2="157.6253445798941" y2="714.4253061291527"/><line x1="157.6253445798941" y1="714.4253061291527" x2="160.016701318508" y2="714.826524714548"/><line x1="160.016701318508" y1="714.826524714548" x2="161.2123807964491" y2="715.0271338625716"/><line x1="161.2123807964491" y1="715.0271338625716" x2="161.2123807964491" y2="715.0271338625716"/><line x1="161.2123807964491" y1="715.0271338625716" x2="158.82976898370976" y2="701.977090365451"/><line x1="158.82976898370976" y1="701.977090365451" x2="157.63846349185883" y2="695.4520683372943"/><line x1="157.63846349185883" y1="695.4520683372943" x2="157.63846349185883" y2="695.4520683372943"/><line x1="157.63846349185883" y1="695.4520683372943" x2="163.34943018015667" y2="705.024367855021"/><line x1="163.34943018015667" y1="705.024367855021" x2="166.20491269526815" y2="709.8105181730773"/><line x1="166.20491269526815" y1="709.8105181730773" x2="166.20491269526815" y2="709.8105181730773"/><line x1="166.20491269526815" y1="709.8105181730773" x2="167.9362810609174" y2="705.4874669363048"/><line x1="167.9362810609174" y1="705.4874669363048" x2="168.80196510881967" y2="703.3259420120339"/><line x1="168.80196510881967" y1="703.3259420120339" x2="168.80196510881967" y2="703.3259420120339"/><line x1="168.80196510881967" y1="703.3259420120339" x2="171.6016269292004" y2="705.8255138607966"/><line x1="171.6016269292004" y1="705.8255138607966" x2="173.00145922762113" y2="707.0753000550227"/><line x1="173.00145922762113" y1="707.0753000550227" x2="173.00145922762113" y2="707.0753000550227"/><line x1="173.00145922762113" y1="707.0753000550227" x2="173.89270270769646" y2="706.6691206001099"/><line x1="173.89270270769646" y1="706.6691206001099" x2="174.52136667675506" y2="706.3826095443644"/><line x1="174.52136667675506" y1="706.3826095443644" x2="174.8874516939901" y2="706.2157677168238"/><line x1="174.8874516939901" y1="706.2157677168238" x2="176.78306101059445" y2="705.3518535815564"/><line x1="176.78306101059445" y1="705.3518535815564" x2="177.7308656688965" y2="704.9198965139227"/><line x1="177.7308656688965" y1="704.9198965139227" x2="177.7308656688965" y2="704.9198965139227"/><line x1="177.7308656688965" y1="704.9198965139227" x2="182.05717314036258" y2="709.0826843995038"/><line x1="182.05717314036258" y1="709.0826843995038" x2="184.22032687609567" y2="711.1640783422944"/><line x1="184.22032687609567" y1="711.1640783422944" x2="184.22032687609567" y2="711.1640783422944"/><line x1="184.22032687609567" y1="711.1640783422944" x2="181.60858825787238" y2="705.4302172287157"/><line x1="181.60858825787238" y1="705.4302172287157" x2="180.30271880408657" y2="702.5632855632923"/><line x1="180.30271880408657" y1="702.5632855632923" x2="180.30271880408657" y2="702.5632855632923"/><line x1="180.30271880408657" y1="702.5632855632923" x2="187.08663734674576" y2="707.3100739158311"/><line x1="187.08663734674576" y1="707.3100739158311" x2="190.47859675299765" y2="709.6834673979854"/><line x1="190.47859675299765" y1="709.6834673979854" x2="190.47859675299765" y2="709.6834673979854"/><line x1="190.47859675299765" y1="709.6834673979854" x2="190.87825867747335" y2="706.412756634422"/><line x1="190.87825867747335" y1="706.412756634422" x2="191.07809005422996" y2="704.7774009730438"/><line x1="191.07809005422996" y1="704.7774009730438" x2="191.07809005422996" y2="704.7774009730438"/><line x1="191.07809005422996" y1="704.7774009730438" x2="183.59194325144279" y2="693.0748097338549"/><line x1="183.59194325144279" y1="693.0748097338549" x2="189.038498229551" y2="697.6890398176482"/><line x1="78.29942535093693" y1="520.9936606134062" x2="96.09107676534882" y2="553.5005851246549"/><line x1="96.09107676534882" y1="553.5005851246549" x2="104.98690247255479" y2="569.7540473802792"/><line x1="104.98690247255479" y1="569.7540473802792" x2="104.98690247255479" y2="569.7540473802792"/><line x1="104.98690247255479" y1="569.7540473802792" x2="123.82978449958597" y2="609.9430966978668"/><line x1="123.82978449958597" y1="609.9430966978668" x2="143.09099330523867" y2="654.6052350005943"/><line x1="24.350280432573413" y1="494.6594872687149" x2="50.68584953948516" y2="530.6400963919173"/><line x1="50.68584953948516" y1="530.6400963919173" x2="63.41942088050479" y2="545.688856886346"/><line x1="63.41942088050479" y1="545.688856886346" x2="69.7862061924152" y2="553.2132374960604"/><line x1="69.7862061924152" y1="553.2132374960604" x2="69.7862061924152" y2="553.2132374960604"/><line x1="69.7862061924152" y1="553.2132374960604" x2="102.82740533657523" y2="598.4885680226873"/><line x1="102.82740533657523" y1="598.4885680226873" x2="138.44777564503033" y2="656.5309092837851"/><line x1="8.985416319470914" y1="525.5288814252314" x2="25.87073888167737" y2="545.2017935106686"/><line x1="25.87073888167737" y1="545.2017935106686" x2="34.31340013761684" y2="555.0382495160807"/><line x1="34.31340013761684" y1="555.0382495160807" x2="34.31340013761684" y2="555.0382495160807"/><line x1="34.31340013761684" y1="555.0382495160807" x2="48.67058258403398" y2="566.4153246624578"/><line x1="48.67058258403398" y1="566.4153246624578" x2="55.84917377928292" y2="572.1038621941944"/><line x1="55.84917377928292" y1="572.1038621941944" x2="55.84917377928292" y2="572.1038621941944"/><line x1="55.84917377928292" y1="572.1038621941944" x2="83.52752927344375" y2="599.0406447565337"/><line x1="83.52752927344375" y1="599.0406447565337" x2="137.88592699514464" y2="666.5595811751458"/><line x1="265.9052834421715" y1="901.063412144345" x2="253.7378556563027" y2="874.6042534103867"/><line x1="253.7378556563027" y1="874.6042534103867" x2="249.51697670839656" y2="856.1391259509126"/><line x1="249.51697670839656" y1="856.1391259509126" x2="247.40653626073185" y2="846.9065616717344"/><line x1="247.40653626073185" y1="846.9065616717344" x2="247.40653626073185" y2="846.9065616717344"/><line x1="247.40653626073185" y1="846.9065616717344" x2="229.88639490994797" y2="812.9980028567225"/><line x1="229.88639490994797" y1="812.9980028567225" x2="221.12632423455602" y2="796.0437234492166"/><line x1="221.12632423455602" y1="796.0437234492166" x2="221.12632423455602" y2="796.0437234492166"/><line x1="221.12632423455602" y1="796.0437234492166" x2="178.67238634744126" y2="722.8445727495557"/><line x1="178.67238634744126" y1="722.8445727495557" x2="168.33266832403137" y2="706.3338951752751"/><line x1="284.066122866161" y1="874.3391470346817" x2="270.6098512352951" y2="853.9517714121819"/><line x1="270.6098512352951" y1="853.9517714121819" x2="263.8817158343809" y2="843.7580833213356"/><line x1="263.8817158343809" y1="843.7580833213356" x2="263.8817158343809" y2="843.7580833213356"/><line x1="263.8817158343809" y1="843.7580833213356" x2="254.49696361570875" y2="824.7879477338522"/><line x1="254.49696361570875" y1="824.7879477338522" x2="249.80458792089132" y2="815.302879660514"/><line x1="249.80458792089132" y1="815.302879660514" x2="249.80458792089132" y2="815.302879660514"/><line x1="249.80458792089132" y1="815.302879660514" x2="222.6152251772029" y2="770.7164030911626"/><line x1="222.6152251772029" y1="770.7164030911626" x2="174.17320050259025" y2="707.2192694088326"/><line x1="278.16214533875234" y1="808.3608162282401" x2="247.86305296397654" y2="774.6169420197359"/><line x1="247.86305296397654" y1="774.6169420197359" x2="215.49845559674395" y2="739.5599641568589"/><line x1="215.49845559674395" y1="739.5599641568589" x2="184.1624321049062" y2="710.1312182856916"/><line x1="234.92809826764164" y1="234.42293383212703" x2="256.5657053285162" y2="206.4090078528618"/><line x1="256.5657053285162" y1="206.4090078528618" x2="253.57012470170372" y2="203.08207851954396"/><line x1="253.57012470170372" y1="203.08207851954396" x2="224.22200856589993" y2="222.53261662448872"/><line x1="224.22200856589993" y1="222.53261662448872" x2="209.08886241723852" y2="237.77827516929912"/><line x1="209.08886241723852" y1="237.77827516929912" x2="191.7167899890637" y2="251.80044689185732"/><line x1="191.7167899890637" y1="251.80044689185732" x2="172.44710029413136" y2="277.37825285680697"/><line x1="172.44710029413136" y1="277.37825285680697" x2="174.81977452600287" y2="280.0133745523362"/><line x1="174.81977452600287" y1="280.0133745523362" x2="202.42287969080542" y2="263.6907640994956"/><line x1="201.84009583649862" y1="263.6937740550855" x2="185.29518375573235" y2="280.02360726755705"/><line x1="185.29518375573235" y1="280.02360726755705" x2="177.02272741779097" y2="288.1885227960827"/><line x1="177.02272741779097" y1="288.1885227960827" x2="177.02272741779097" y2="288.1885227960827"/><line x1="177.02272741779097" y1="288.1885227960827" x2="159.94144255807984" y2="300.68953898710447"/><line x1="159.94144255807984" y1="300.68953898710447" x2="151.40080009121712" y2="306.94004778875296"/><line x1="151.40080009121712" y1="306.94004778875296" x2="151.40080009121712" y2="306.94004778875296"/><line x1="151.40080009121712" y1="306.94004778875296" x2="160.0125483406244" y2="311.08855500615016"/><line x1="160.0125483406244" y1="311.08855500615016" x2="164.3184220937556" y2="313.162808949414"/><line x1="164.3184220937556" y1="313.162808949414" x2="164.3184220937556" y2="313.162808949414"/><line x1="164.3184220937556" y1="313.162808949414" x2="143.3231131102166" y2="345.1627825959646"/><line x1="235.33566133122304" y1="233.64288610677963" x2="257.47570373463265" y2="214.39627426498146"/><line x1="257.47570373463265" y1="214.39627426498146" x2="268.5457246387793" y2="204.77296726637215"/><line x1="268.5457246387793" y1="204.77296726637215" x2="268.5457246387793" y2="204.77296726637215"/><line x1="268.5457246387793" y1="204.77296726637215" x2="283.8044325617127" y2="188.82687832319402"/><line x1="283.8044325617127" y1="188.82687832319402" x2="291.43378685774474" y2="180.85383422317724"/><line x1="291.43378685774474" y1="180.85383422317724" x2="291.43378685774474" y2="180.85383422317724"/><line x1="291.43378685774474" y1="180.85383422317724" x2="299.6528818469302" y2="177.69102405044305"/><line x1="299.6528818469302" y1="177.69102405044305" x2="303.7624289699505" y2="176.10961929864123"/><line x1="303.7624289699505" y1="176.10961929864123" x2="303.7624289699505" y2="176.10961929864123"/><line x1="303.7624289699505" y1="176.10961929864123" x2="301.856983457522" y2="183.42954904130008"/><line x1="301.856983457522" y1="183.42954904130008" x2="300.90425966060474" y2="187.08951350405007"/><line x1="300.90425966060474" y1="187.08951350405007" x2="300.90425966060474" y2="187.08951350405007"/><line x1="300.90425966060474" y1="187.08951350405007" x2="342.6340002699202" y2="163.01124231967586"/><line x1="223.7250677181553" y1="222.98007657754033" x2="222.68706701871264" y2="222.59547326364742"/><line x1="222.68706701871264" y1="222.59547326364742" x2="222.16806562828822" y2="222.40317119812144"/><line x1="222.16806562828822" y1="222.40317119812144" x2="222.16806562828822" y2="222.40317119812144"/><line x1="222.16806562828822" y1="222.40317119812144" x2="228.96111644562077" y2="215.77883897692104"/><line x1="228.96111644562077" y1="215.77883897692104" x2="232.3576411851564" y2="212.466672123176"/><line x1="232.3576411851564" y1="212.466672123176" x2="232.3576411851564" y2="212.466672123176"/><line x1="232.3576411851564" y1="212.466672123176" x2="233.98132266386568" y2="209.05155183252205"/><line x1="233.98132266386568" y1="209.05155183252205" x2="234.7931641463651" y2="207.34399101806446"/><line x1="234.7931641463651" y1="207.34399101806446" x2="234.7931641463651" y2="207.34399101806446"/><line x1="234.7931641463651" y1="207.34399101806446" x2="228.17380259086895" y2="207.65186022941322"/><line x1="228.17380259086895" y1="207.65186022941322" x2="224.8641215155627" y2="207.80579375737747"/><line x1="224.8641215155627" y1="207.80579375737747" x2="224.8641215155627" y2="207.80579375737747"/><line x1="224.8641215155627" y1="207.80579375737747" x2="227.21693953625575" y2="204.04586641475834"/><line x1="227.21693953625575" y1="204.04586641475834" x2="228.39334817502987" y2="202.16590307801405"/><line x1="228.39334817502987" y1="202.16590307801405" x2="228.39334817502987" y2="202.16590307801405"/><line x1="228.39334817502987" y1="202.16590307801405" x2="224.9846236176114" y2="203.98945736185797"/><line x1="224.9846236176114" y1="203.98945736185797" x2="223.28026093032267" y2="204.90123554448297"/><line x1="223.28026093032267" y1="204.90123554448297" x2="223.28026093032267" y2="204.90123554448297"/><line x1="223.28026093032267" y1="204.90123554448297" x2="220.14224194254004" y2="205.02990164667793"/><line x1="220.14224194254004" y1="205.02990164667793" x2="218.57323248565592" y2="205.09423399163774"/><line x1="218.57323248565592" y1="205.09423399163774" x2="218.57323248565592" y2="205.09423399163774"/><line x1="218.57323248565592" y1="205.09423399163774" x2="223.05217579986984" y2="199.97272345263622"/><line x1="223.05217579986984" y1="199.97272345263622" x2="225.29164708540432" y2="197.41196851770079"/><line x1="225.29164708540432" y1="197.41196851770079" x2="225.29164708540432" y2="197.41196851770079"/><line x1="225.29164708540432" y1="197.41196851770079" x2="218.88456338809732" y2="202.00122041376306"/><line x1="218.88456338809732" y1="202.00122041376306" x2="215.6810212048785" y2="204.2958459902218"/><line x1="215.6810212048785" y1="204.2958459902218" x2="215.6810212048785" y2="204.2958459902218"/><line x1="215.6810212048785" y1="204.2958459902218" x2="216.6562072168" y2="200.60597059385046"/><line x1="216.6562072168" y1="200.60597059385046" x2="217.1437995166231" y2="198.76103285865767"/><line x1="217.1437995166231" y1="198.76103285865767" x2="217.1437995166231" y2="198.76103285865767"/><line x1="217.1437995166231" y1="198.76103285865767" x2="213.99178758428943" y2="198.22867586590985"/><line x1="213.99178758428943" y1="198.22867586590985" x2="212.41578124655018" y2="197.96249770410128"/><line x1="212.41578124655018" y1="197.96249770410128" x2="212.41578124655018" y2="197.96249770410128"/><line x1="212.41578124655018" y1="197.96249770410128" x2="209.33571671400708" y2="202.46480106890718"/><line x1="209.33571671400708" y1="202.46480106890718" x2="207.79568481930798" y2="204.7159524167448"/><line x1="207.79568481930798" y1="204.7159524167448" x2="207.79568481930798" y2="204.7159524167448"/><line x1="207.79568481930798" y1="204.7159524167448" x2="205.26429256416722" y2="205.98654732939582"/><line x1="205.26429256416722" y1="205.98654732939582" x2="203.9985968081692" y2="206.62184445115597"/><line x1="203.9985968081692" y1="206.62184445115597" x2="203.9985968081692" y2="206.62184445115597"/><line x1="203.9985968081692" y1="206.62184445115597" x2="207.62146781513607" y2="200.94958686537015"/><line x1="207.62146781513607" y1="200.94958686537015" x2="209.4329026124818" y2="198.11345803547007"/><line x1="209.4329026124818" y1="198.11345803547007" x2="209.4329026124818" y2="198.11345803547007"/><line x1="209.4329026124818" y1="198.11345803547007" x2="209.9397061256176" y2="193.88975407570285"/><line x1="209.9397061256176" y1="193.88975407570285" x2="210.1931078821855" y2="191.77790209581926"/><line x1="210.1931078821855" y1="191.77790209581926" x2="210.1931078821855" y2="191.77790209581926"/><line x1="210.1931078821855" y1="191.77790209581926" x2="205.10548114640181" y2="193.296005598616"/><line x1="205.10548114640181" y1="193.296005598616" x2="202.56166815008234" y2="194.0550570154491"/><line x1="202.56166815008234" y1="194.0550570154491" x2="202.56166815008234" y2="194.0550570154491"/><line x1="202.56166815008234" y1="194.0550570154491" x2="218.1406251678764" y2="175.31935641118145"/><line x1="218.1406251678764" y1="175.31935641118145" x2="225.93010293362863" y2="165.9515067781783"/><line x1="225.93010293362863" y1="165.9515067781783" x2="225.93010293362863" y2="165.9515067781783"/><line x1="225.93010293362863" y1="165.9515067781783" x2="232.4041951897835" y2="152.52266231226514"/><line x1="232.4041951897835" y1="152.52266231226514" x2="235.6412412808538" y2="145.80824078544634"/><line x1="235.6412412808538" y1="145.80824078544634" x2="235.6412412808538" y2="145.80824078544634"/><line x1="235.6412412808538" y1="145.80824078544634" x2="221.38571858614236" y2="150.72220831839496"/><line x1="221.38571858614236" y1="150.72220831839496" x2="214.25795690422143" y2="153.17919171329686"/><line x1="214.25795690422143" y1="153.17919171329686" x2="214.25795690422143" y2="153.17919171329686"/><line x1="214.25795690422143" y1="153.17919171329686" x2="184.38199308316518" y2="174.88270660593915"/><line x1="184.38199308316518" y1="174.88270660593915" x2="169.4440115072024" y2="185.73446442383272"/><line x1="169.4440115072024" y1="185.73446442383272" x2="169.4440115072024" y2="185.73446442383272"/><line x1="169.4440115072024" y1="185.73446442383272" x2="148.4782374803261" y2="208.46064579303916"/><line x1="148.4782374803261" y1="208.46064579303916" x2="137.99535080145324" y2="219.82373684921478"/><line x1="137.99535080145324" y1="219.82373684921478" x2="137.99535080145324" y2="219.82373684921478"/><line x1="137.99535080145324" y1="219.82373684921478" x2="127.70731099607366" y2="234.96701434696004"/><line x1="127.70731099607366" y1="234.96701434696004" x2="122.56329109338398" y2="242.5386530958327"/><line x1="122.56329109338398" y1="242.5386530958327" x2="122.56329109338398" y2="242.5386530958327"/><line x1="122.56329109338398" y1="242.5386530958327" x2="121.97521545293932" y2="248.10397262452446"/><line x1="121.97521545293932" y1="248.10397262452446" x2="121.68117759571001" y2="250.88663309500808"/><line x1="121.68117759571001" y1="250.88663309500808" x2="121.68117759571001" y2="250.88663309500808"/><line x1="121.68117759571001" y1="250.88663309500808" x2="132.875260488049" y2="246.90913722603887"/><line x1="132.875260488049" y1="246.90913722603887" x2="138.47230156264612" y2="244.92038962611954"/><line x1="138.47230156264612" y1="244.92038962611954" x2="138.47230156264612" y2="244.92038962611954"/><line x1="138.47230156264612" y1="244.92038962611954" x2="159.58563031966523" y2="230.69934534091033"/><line x1="159.58563031966523" y1="230.69934534091033" x2="170.14229399203705" y2="223.58882316129868"/><line x1="170.14229399203705" y1="223.58882316129868" x2="170.14229399203705" y2="223.58882316129868"/><line x1="170.14229399203705" y1="223.58882316129868" x2="170.0777932402796" y2="226.01274695835517"/><line x1="170.0777932402796" y1="226.01274695835517" x2="170.04554215826315" y2="227.22470881987633"/><line x1="170.04554215826315" y1="227.22470881987633" x2="170.04554215826315" y2="227.22470881987633"/><line x1="170.04554215826315" y1="227.22470881987633" x2="182.63698872391788" y2="223.0490701435008"/><line x1="182.63698872391788" y1="223.0490701435008" x2="188.93271133761462" y2="220.9612500621683"/><line x1="188.93271133761462" y1="220.9612500621683" x2="188.93271133761462" y2="220.9612500621683"/><line x1="188.93271133761462" y1="220.9612500621683" x2="180.2483817242696" y2="227.94884462243704"/><line x1="180.2483817242696" y1="227.94884462243704" x2="175.90621691759702" y2="231.44264190257152"/><line x1="175.90621691759702" y1="231.44264190257152" x2="175.90621691759702" y2="231.44264190257152"/><line x1="175.90621691759702" y1="231.44264190257152" x2="180.42815575212745" y2="232.5555075209276"/><line x1="180.42815575212745" y1="232.5555075209276" x2="182.68912479782026" y2="233.1119406646709"/><line x1="182.68912479782026" y1="233.1119406646709" x2="182.68912479782026" y2="233.1119406646709"/><line x1="182.68912479782026" y1="233.1119406646709" x2="180.60351615363282" y2="236.23223094620892"/><line x1="180.60351615363282" y1="236.23223094620892" x2="179.56071186854618" y2="237.79237538084033"/><line x1="179.56071186854618" y1="237.79237538084033" x2="179.56071186854618" y2="237.79237538084033"/><line x1="179.56071186854618" y1="237.79237538084033" x2="180.0869762008884" y2="238.61841682949125"/><line x1="180.0869762008884" y1="238.61841682949125" x2="180.45819206477023" y2="239.201088051931"/><line x1="180.45819206477023" y1="239.201088051931" x2="180.6743579739022" y2="239.54039038642068"/><line x1="180.6743579739022" y1="239.54039038642068" x2="181.7936837952682" y2="241.2973182283087"/><line x1="181.7936837952682" y1="241.2973182283087" x2="182.35334599981346" y2="242.17578211224566"/><line x1="182.35334599981346" y1="242.17578211224566" x2="182.35334599981346" y2="242.17578211224566"/><line x1="182.35334599981346" y1="242.17578211224566" x2="178.8331757062888" y2="247.03933435547194"/><line x1="178.8331757062888" y1="247.03933435547194" x2="177.07309055952658" y2="249.471110477085"/><line x1="177.07309055952658" y1="249.471110477085" x2="177.07309055952658" y2="249.471110477085"/><line x1="177.07309055952658" y1="249.471110477085" x2="182.38766636850727" y2="246.0867898879082"/><line x1="182.38766636850727" y1="246.0867898879082" x2="185.0449546075629" y2="244.3946299648922"/><line x1="185.0449546075629" y1="244.3946299648922" x2="185.0449546075629" y2="244.3946299648922"/><line x1="185.0449546075629" y1="244.3946299648922" x2="181.28850139635642" y2="251.77315246412482"/><line x1="181.28850139635642" y1="251.77315246412482" x2="179.4102737130431" y2="255.46241401129933"/><line x1="179.4102737130431" y1="255.46241401129933" x2="179.4102737130431" y2="255.46241401129933"/><line x1="179.4102737130431" y1="255.46241401129933" x2="182.70477774592968" y2="255.402991568105"/><line x1="182.70477774592968" y1="255.402991568105" x2="184.35202939080057" y2="255.37328068107314"/><line x1="184.35202939080057" y1="255.37328068107314" x2="184.35202939080057" y2="255.37328068107314"/><line x1="184.35202939080057" y1="255.37328068107314" x2="194.89886013944263" y2="246.33130255832089"/><line x1="194.89886013944263" y1="246.33130255832089" x2="191.0875507837635" y2="252.36702882110592"/><line x1="350.65150979213576" y1="118.1144051950357" x2="320.93705973419776" y2="140.25699896781384"/><line x1="320.93705973419776" y1="140.25699896781384" x2="306.0798343336563" y2="151.3282961887682"/><line x1="306.0798343336563" y1="151.3282961887682" x2="306.0798343336563" y2="151.3282961887682"/><line x1="306.0798343336563" y1="151.3282961887682" x2="268.9043242554667" y2="175.58103533519335"/><line x1="268.9043242554667" y1="175.58103533519335" x2="227.35747771342278" y2="200.87056299476262"/><line x1="369.22102396096034" y1="61.025262945284254" x2="337.25577861916724" y2="92.11206891627785"/><line x1="337.25577861916724" y1="92.11206891627785" x2="324.125641939963" y2="106.81610094759964"/><line x1="324.125641939963" y1="106.81610094759964" x2="317.56057363736795" y2="114.16811625712282"/><line x1="317.56057363736795" y1="114.16811625712282" x2="317.56057363736795" y2="114.16811625712282"/><line x1="317.56057363736795" y1="114.16811625712282" x2="277.3243050649449" y2="153.18886940420293"/><line x1="277.3243050649449" y1="153.18886940420293" x2="224.80422601539675" y2="196.54051666857498"/><line x1="336.51373788575415" y1="50.1060859207833" x2="319.3822638037441" y2="69.56502197813515"/><line x1="319.3822638037441" y1="69.56502197813515" x2="310.816526762739" y2="79.29449000681106"/><line x1="310.816526762739" y1="79.29449000681106" x2="310.816526762739" y2="79.29449000681106"/><line x1="310.816526762739" y1="79.29449000681106" x2="301.54830635466914" y2="95.09533196783269"/><line x1="301.54830635466914" y1="95.09533196783269" x2="296.9141957790618" y2="102.99575328290885"/><line x1="296.9141957790618" y1="102.99575328290885" x2="296.9141957790618" y2="102.99575328290885"/><line x1="296.9141957790618" y1="102.99575328290885" x2="274.0916432910559" y2="134.15361994783746"/><line x1="274.0916432910559" y1="134.15361994783746" x2="214.79502284857472" y2="197.37982563597458"/><line x1="0.3902518486137012" y1="356.79011375205584" x2="24.898532543819556" y2="341.05869462404655"/><line x1="24.898532543819556" y1="341.05869462404655" x2="42.59652584022277" y2="334.30904393175376"/><line x1="42.59652584022277" y1="334.30904393175376" x2="51.445522153859116" y2="330.93421821403496"/><line x1="51.445522153859116" y1="330.93421821403496" x2="51.445522153859116" y2="330.93421821403496"/><line x1="51.445522153859116" y1="330.93421821403496" x2="82.58575354750838" y2="308.8654217260123"/><line x1="82.58575354750838" y1="308.8654217260123" x2="98.15586879844614" y2="297.8310238834794"/><line x1="98.15586879844614" y1="297.8310238834794" x2="98.15586879844614" y2="297.8310238834794"/><line x1="98.15586879844614" y1="297.8310238834794" x2="164.73420494018893" y2="245.60289270063112"/><line x1="164.73420494018893" y1="245.60289270063112" x2="179.6451907582064" y2="233.0659582264748"/><line x1="29.381860416029383" y1="371.0549061489343" x2="47.69807719334739" y2="354.8922150736232"/><line x1="47.69807719334739" y1="354.8922150736232" x2="56.85618554499936" y2="346.8108702421054"/><line x1="56.85618554499936" y1="346.8108702421054" x2="56.85618554499936" y2="346.8108702421054"/><line x1="56.85618554499936" y1="346.8108702421054" x2="74.33560000896765" y2="334.87731719155977"/><line x1="74.33560000896765" y1="334.87731719155977" x2="83.07530757551714" y2="328.9105410378594"/><line x1="83.07530757551714" y1="328.9105410378594" x2="83.07530757551714" y2="328.9105410378594"/><line x1="83.07530757551714" y1="328.9105410378594" x2="123.44384361935846" y2="295.78054516522593"/><line x1="123.44384361935846" y1="295.78054516522593" x2="179.5812003843995" y2="238.97286229606803"/><line x1="93.89654460510278" y1="356.02593127198173" x2="123.0952078504883" y2="321.3254673002557"/><line x1="123.0952078504883" y1="321.3254673002557" x2="153.30673223775378" y2="284.3968516503427"/><line x1="153.30673223775378" y1="284.3968516503427" x2="178.08794757007774" y2="249.27009876626238"/></g>
</svg>