
<svg width="2577px" height="1253px" viewBox="0 0 2577 1253" version="1.1" xmlns="http://www.w3.org/2000/svg" xmlns:xlink="http://www.w3.org/1999/xlink">
    <g id="vr_goggles_2" stroke="none" stroke-width="1" fill="none" fill-rule="evenodd">
        <line x1="496" y1="1158" x2="566.666667" y2="1057.33333"></line>
        <line x1="566.666667" y1="1057.33333" x2="602" y2="1007"></line>
        <line x1="602" y1="1007" x2="602" y2="1007"></line>
        <line x1="602" y1="1007" x2="612" y2="1004.33333"></line>
        <line x1="612" y1="1004.33333" x2="617" y2="1003"></line>
        <line x1="617" y1="1003" x2="617" y2="1003"></line>
        <line x1="617" y1="1003" x2="625.666667" y2="983"></line>
        <line x1="625.666667" y1="983" x2="630" y2="973"></line>
        <line x1="630" y1="973" x2="630" y2="973"></line>
        <line x1="630" y1="973" x2="650.666667" y2="981"></line>
        <line x1="650.666667" y1="981" x2="661" y2="985"></line>
        <line x1="661" y1="985" x2="661" y2="985"></line>
        <line x1="661" y1="985" x2="677.666667" y2="925.666667"></line>
        <line x1="677.666667" y1="925.666667" x2="686" y2="896"></line>
        <line x1="686" y1="896" x2="686" y2="896"></line>
        <line x1="686" y1="896" x2="608.666667" y2="839.333333"></line>
        <line x1="608.666667" y1="839.333333" x2="570" y2="811"></line>
        <line x1="570" y1="811" x2="570" y2="811"></line>
        <line x1="570" y1="811" x2="544" y2="807"></line>
        <line x1="544" y1="807" x2="531" y2="805"></line>
        <line x1="531" y1="805" x2="531" y2="805"></line>
        <line x1="531" y1="805" x2="509.666667" y2="769"></line>
        <line x1="509.666667" y1="769" x2="499" y2="751"></line>
        <line x1="499" y1="751" x2="499" y2="751"></line>
        <line x1="499" y1="751" x2="506.333333" y2="734.333333"></line>
        <line x1="506.333333" y1="734.333333" x2="510" y2="726"></line>
        <line x1="510" y1="726" x2="510" y2="726"></line>
        <line x1="510" y1="726" x2="484.666667" y2="707.333333"></line>
        <line x1="484.666667" y1="707.333333" x2="472" y2="698"></line>
        <line x1="472" y1="698" x2="472" y2="698"></line>
        <line x1="472" y1="698" x2="477.333333" y2="652.666667"></line>
        <line x1="477.333333" y1="652.666667" x2="480" y2="630"></line>
        <line x1="480" y1="630" x2="480" y2="630"></line>
        <line x1="480" y1="630" x2="462.666667" y2="630.666667"></line>
        <line x1="462.666667" y1="630.666667" x2="454" y2="631"></line>
        <line x1="454" y1="631" x2="454" y2="631"></line>
        <line x1="454" y1="631" x2="474.666667" y2="602.333333"></line>
        <line x1="474.666667" y1="602.333333" x2="485" y2="588"></line>
        <line x1="485" y1="588" x2="485" y2="588"></line>
        <line x1="485" y1="588" x2="467" y2="605.333333"></line>
        <line x1="467" y1="605.333333" x2="458" y2="614"></line>
        <line x1="458" y1="614" x2="458" y2="614"></line>
        <line x1="458" y1="614" x2="458.666667" y2="588.666667"></line>
        <line x1="458.666667" y1="588.666667" x2="459" y2="576"></line>
        <line x1="459" y1="576" x2="459" y2="576"></line>
        <line x1="459" y1="576" x2="486.333333" y2="534.666667"></line>
        <line x1="486.333333" y1="534.666667" x2="500" y2="514"></line>
        <line x1="500" y1="514" x2="500" y2="514"></line>
        <line x1="500" y1="514" x2="474" y2="518.666667"></line>
        <line x1="474" y1="518.666667" x2="461" y2="521"></line>
        <line x1="461" y1="521" x2="461" y2="521"></line>
        <line x1="461" y1="521" x2="473.666667" y2="499.666667"></line>
        <line x1="473.666667" y1="499.666667" x2="480" y2="489"></line>
        <line x1="480" y1="489" x2="480" y2="489"></line>
        <line x1="480" y1="489" x2="512.666667" y2="473"></line>
        <line x1="512.666667" y1="473" x2="529" y2="465"></line>
        <line x1="529" y1="465" x2="529" y2="465"></line>
        <line x1="529" y1="465" x2="515" y2="462.333333"></line>
        <line x1="515" y1="462.333333" x2="508" y2="461"></line>
        <line x1="508" y1="461" x2="508" y2="461"></line>
        <line x1="508" y1="461" x2="490" y2="469.666667"></line>
        <line x1="490" y1="469.666667" x2="481" y2="474"></line>
        <line x1="481" y1="474" x2="481" y2="474"></line>
        <line x1="481" y1="474" x2="495.666667" y2="456"></line>
        <line x1="495.666667" y1="456" x2="503" y2="447"></line>
        <line x1="503" y1="447" x2="503" y2="447"></line>
        <line x1="503" y1="447" x2="532.333333" y2="447.666667"></line>
        <line x1="532.333333" y1="447.666667" x2="547" y2="448"></line>
        <line x1="547" y1="448" x2="547" y2="448"></line>
        <line x1="547" y1="448" x2="538.333333" y2="428.666667"></line>
        <line x1="538.333333" y1="428.666667" x2="534" y2="419"></line>
        <line x1="534" y1="419" x2="534" y2="419"></line>
        <line x1="534" y1="419" x2="536" y2="390.333333"></line>
        <line x1="536" y1="390.333333" x2="537" y2="376"></line>
        <line x1="537" y1="376" x2="537" y2="376"></line>
        <line x1="537" y1="376" x2="549.666667" y2="406.666667"></line>
        <line x1="549.666667" y1="406.666667" x2="556" y2="422"></line>
        <line x1="556" y1="422" x2="556" y2="422"></line>
        <line x1="556" y1="422" x2="560.666667" y2="396"></line>
        <line x1="560.666667" y1="396" x2="563" y2="383"></line>
        <line x1="563" y1="383" x2="563" y2="383"></line>
        <line x1="563" y1="383" x2="586.333333" y2="350.333333"></line>
        <line x1="586.333333" y1="350.333333" x2="598" y2="334"></line>
        <line x1="598" y1="334" x2="598" y2="334"></line>
        <line x1="598" y1="334" x2="590" y2="365.333333"></line>
        <line x1="590" y1="365.333333" x2="586" y2="381"></line>
        <line x1="586" y1="381" x2="586" y2="381"></line>
        <line x1="586" y1="381" x2="602" y2="367.666667"></line>
        <line x1="602" y1="367.666667" x2="610" y2="361"></line>
        <line x1="610" y1="361" x2="610" y2="361"></line>
        <line x1="610" y1="361" x2="629.333333" y2="353"></line>
        <line x1="629.333333" y1="353" x2="639" y2="349"></line>
        <line x1="639" y1="349" x2="639" y2="349"></line>
        <line x1="639" y1="349" x2="658.333333" y2="327.666667"></line>
        <line x1="658.333333" y1="327.666667" x2="668" y2="317"></line>
        <line x1="668" y1="317" x2="668" y2="317"></line>
        <line x1="668" y1="317" x2="663.333333" y2="342.333333"></line>
        <line x1="663.333333" y1="342.333333" x2="661" y2="355"></line>
        <line x1="661" y1="355" x2="661" y2="355"></line>
        <line x1="661" y1="355" x2="697.666667" y2="339.666667"></line>
        <line x1="697.666667" y1="339.666667" x2="716" y2="332"></line>
        <line x1="716" y1="332" x2="716" y2="332"></line>
        <line x1="716" y1="332" x2="751.333333" y2="314"></line>
        <line x1="751.333333" y1="314" x2="769" y2="305"></line>
        <line x1="769" y1="305" x2="769" y2="305"></line>
        <line x1="769" y1="305" x2="748.333333" y2="333"></line>
        <line x1="748.333333" y1="333" x2="738" y2="347"></line>
        <line x1="738" y1="347" x2="738" y2="347"></line>
        <line x1="738" y1="347" x2="772" y2="342.333333"></line>
        <line x1="772" y1="342.333333" x2="789" y2="340"></line>
        <line x1="789" y1="340" x2="789" y2="340"></line>
        <line x1="789" y1="340" x2="809.666667" y2="329.333333"></line>
        <line x1="809.666667" y1="329.333333" x2="820" y2="324"></line>
        <line x1="820" y1="324" x2="820" y2="324"></line>
        <line x1="820" y1="324" x2="841.333333" y2="301.333333"></line>
        <line x1="841.333333" y1="301.333333" x2="852" y2="290"></line>
        <line x1="852" y1="290" x2="852" y2="290"></line>
        <line x1="852" y1="290" x2="847.333333" y2="311.333333"></line>
        <line x1="847.333333" y1="311.333333" x2="845" y2="322"></line>
        <line x1="845" y1="322" x2="845" y2="322"></line>
        <line x1="845" y1="322" x2="835.666667" y2="336"></line>
        <line x1="835.666667" y1="336" x2="831" y2="343"></line>
        <line x1="831" y1="343" x2="831" y2="343"></line>
        <line x1="831" y1="343" x2="863.666667" y2="337.666667"></line>
        <line x1="863.666667" y1="337.666667" x2="880" y2="335"></line>
        <line x1="880" y1="335" x2="880" y2="335"></line>
        <line x1="880" y1="335" x2="906" y2="321.666667"></line>
        <line x1="906" y1="321.666667" x2="919" y2="315"></line>
        <line x1="919" y1="315" x2="919" y2="315"></line>
        <line x1="919" y1="315" x2="899" y2="338.333333"></line>
        <line x1="899" y1="338.333333" x2="889" y2="350"></line>
        <line x1="889" y1="350" x2="889" y2="350"></line>
        <line x1="889" y1="350" x2="936.333333" y2="357.333333"></line>
        <line x1="936.333333" y1="357.333333" x2="960" y2="361"></line>
        <line x1="960" y1="361" x2="960" y2="361"></line>
        <line x1="960" y1="361" x2="985.333333" y2="360.333333"></line>
        <line x1="985.333333" y1="360.333333" x2="998" y2="360"></line>
        <line x1="998" y1="360" x2="998" y2="360"></line>
        <line x1="998" y1="360" x2="968" y2="380"></line>
        <line x1="968" y1="380" x2="953" y2="390"></line>
        <line x1="953" y1="390" x2="953" y2="390"></line>
        <line x1="953" y1="390" x2="979.666667" y2="404"></line>
        <line x1="979.666667" y1="404" x2="993" y2="411"></line>
        <line x1="993" y1="411" x2="993" y2="411"></line>
        <line x1="993" y1="411" x2="1015" y2="396.333333"></line>
        <line x1="1015" y1="396.333333" x2="1026" y2="389"></line>
        <line x1="1026" y1="389" x2="1026" y2="389"></line>
        <line x1="1026" y1="389" x2="1064" y2="387"></line>
        <line x1="1064" y1="387" x2="1083" y2="386"></line>
        <line x1="1083" y1="386" x2="1083" y2="386"></line>
        <line x1="1083" y1="386" x2="1154.33333" y2="444"></line>
        <line x1="1154.33333" y1="444" x2="1190" y2="473"></line>
        <line x1="1190" y1="473" x2="1190" y2="473"></line>
        <line x1="1190" y1="473" x2="1217.33333" y2="567.666667"></line>
        <line x1="1217.33333" y1="567.666667" x2="1231" y2="615"></line>
        <line x1="1231" y1="615" x2="1231" y2="615"></line>
        <line x1="1231" y1="615" x2="1226.33333" y2="632.333333"></line>
        <line x1="1226.33333" y1="632.333333" x2="1224" y2="641"></line>
        <line x1="1224" y1="641" x2="1224" y2="641"></line>
        <line x1="1224" y1="641" x2="1130.66667" y2="681"></line>
        <line x1="1130.66667" y1="681" x2="1084" y2="701"></line>
        <line x1="1084" y1="701" x2="1084" y2="701"></line>
        <line x1="1084" y1="701" x2="1072" y2="700.333333"></line>
        <line x1="1072" y1="700.333333" x2="1066" y2="700"></line>
        <line x1="1066" y1="700" x2="1066" y2="700"></line>
        <line x1="1066" y1="700" x2="1072.66667" y2="714"></line>
        <line x1="1072.66667" y1="714" x2="1076" y2="721"></line>
        <line x1="1076" y1="721" x2="1076" y2="721"></line>
        <line x1="1076" y1="721" x2="1071.33333" y2="735"></line>
        <line x1="1071.33333" y1="735" x2="1069" y2="742"></line>
        <line x1="1069" y1="742" x2="1069" y2="742"></line>
        <line x1="1069" y1="742" x2="1072.33333" y2="755.333333"></line>
        <line x1="1072.33333" y1="755.333333" x2="1074" y2="762"></line>
        <line x1="1074" y1="762" x2="1074" y2="762"></line>
        <line x1="1074" y1="762" x2="1067.33333" y2="773.333333"></line>
        <line x1="1067.33333" y1="773.333333" x2="1064" y2="779"></line>
        <line x1="1064" y1="779" x2="1064" y2="779"></line>
        <line x1="1064" y1="779" x2="1070.66667" y2="799.666667"></line>
        <line x1="1070.66667" y1="799.666667" x2="1074" y2="810"></line>
        <line x1="1074" y1="810" x2="1074" y2="810"></line>
        <line x1="1074" y1="810" x2="1070.66667" y2="827.333333"></line>
        <line x1="1070.66667" y1="827.333333" x2="1069" y2="836"></line>
        <line x1="1069" y1="836" x2="1069" y2="836"></line>
        <line x1="1069" y1="836" x2="1060.33333" y2="848"></line>
        <line x1="1060.33333" y1="848" x2="1056" y2="854"></line>
        <line x1="1056" y1="854" x2="1056" y2="854"></line>
        <line x1="1056" y1="854" x2="1026.66667" y2="862.666667"></line>
        <line x1="1026.66667" y1="862.666667" x2="1012" y2="867"></line>
        <line x1="1012" y1="867" x2="1012" y2="867"></line>
        <line x1="1012" y1="867" x2="972.666667" y2="879"></line>
        <line x1="972.666667" y1="879" x2="953" y2="885"></line>
        <line x1="953" y1="885" x2="953" y2="885"></line>
        <line x1="953" y1="885" x2="940.333333" y2="922.333333"></line>
        <line x1="940.333333" y1="922.333333" x2="934" y2="941"></line>
        <line x1="934" y1="941" x2="934" y2="941"></line>
        <line x1="934" y1="941" x2="925.333333" y2="964.333333"></line>
        <line x1="925.333333" y1="964.333333" x2="921" y2="976"></line>
        <line x1="921" y1="976" x2="921" y2="976"></line>
        <line x1="921" y1="976" x2="911.666667" y2="1020"></line>
        <line x1="911.666667" y1="1020" x2="907" y2="1042"></line>
        <line x1="907" y1="1042" x2="907" y2="1042"></line>
        <line x1="907" y1="1042" x2="930.333333" y2="1066.66667"></line>
        <line x1="930.333333" y1="1066.66667" x2="942" y2="1079"></line>
        <line x1="942" y1="1079" x2="942" y2="1079"></line>
        <line x1="942" y1="1079" x2="1008" y2="1208"></line>
        <line x1="510" y1="726" x2="550" y2="684"></line>
        <line x1="550" y1="684" x2="561" y2="643"></line>
        <line x1="561" y1="643" x2="596" y2="616"></line>
        <line x1="596" y1="616" x2="613.333333" y2="620.666667"></line>
        <line x1="613.333333" y1="620.666667" x2="622" y2="623"></line>
        <line x1="622" y1="623" x2="622" y2="623"></line>
        <line x1="622" y1="623" x2="673.333333" y2="593.666667"></line>
        <line x1="673.333333" y1="593.666667" x2="699" y2="579"></line>
        <line x1="699" y1="579" x2="699" y2="579"></line>
        <line x1="699" y1="579" x2="711.666667" y2="570.333333"></line>
        <line x1="711.666667" y1="570.333333" x2="718" y2="566"></line>
        <line x1="718" y1="566" x2="718" y2="566"></line>
        <line x1="718" y1="566" x2="724" y2="567.333333"></line>
        <line x1="724" y1="567.333333" x2="727" y2="568"></line>
        <line x1="727" y1="568" x2="727" y2="568"></line>
        <line x1="727" y1="568" x2="853" y2="517.333333"></line>
        <line x1="853" y1="517.333333" x2="916" y2="492"></line>
        <line x1="916" y1="492" x2="916" y2="492"></line>
        <line x1="916" y1="492" x2="926.666667" y2="530.666667"></line>
        <line x1="926.666667" y1="530.666667" x2="932" y2="550"></line>
        <line x1="932" y1="550" x2="932" y2="550"></line>
        <line x1="932" y1="550" x2="809.333333" y2="600.666667"></line>
        <line x1="809.333333" y1="600.666667" x2="748" y2="626"></line>
        <line x1="748" y1="626" x2="748" y2="626"></line>
        <line x1="748" y1="626" x2="741.333333" y2="632.666667"></line>
        <line x1="741.333333" y1="632.666667" x2="738" y2="636"></line>
        <line x1="738" y1="636" x2="738" y2="636"></line>
        <line x1="738" y1="636" x2="727.333333" y2="636"></line>
        <line x1="727.333333" y1="636" x2="722" y2="636"></line>
        <line x1="722" y1="636" x2="722" y2="636"></line>
        <line x1="722" y1="636" x2="676" y2="660"></line>
        <line x1="676" y1="660" x2="653" y2="672"></line>
        <line x1="653" y1="672" x2="653" y2="672"></line>
        <line x1="653" y1="672" x2="646.333333" y2="697.333333"></line>
        <line x1="646.333333" y1="697.333333" x2="643" y2="710"></line>
        <line x1="643" y1="710" x2="643" y2="710"></line>
        <line x1="643" y1="710" x2="630.333333" y2="720.666667"></line>
        <line x1="630.333333" y1="720.666667" x2="624" y2="726"></line>
        <line x1="624" y1="726" x2="624" y2="726"></line>
        <line x1="624" y1="726" x2="608.666667" y2="735.333333"></line>
        <line x1="608.666667" y1="735.333333" x2="601" y2="740"></line>
        <line x1="601" y1="740" x2="601" y2="740"></line>
        <line x1="601" y1="740" x2="560" y2="784"></line>
        <line x1="814" y1="525" x2="824" y2="497"></line>
        <line x1="824" y1="497" x2="829" y2="483"></line>
        <line x1="829" y1="483" x2="829" y2="483"></line>
        <line x1="829" y1="483" x2="863.666667" y2="465.666667"></line>
        <line x1="863.666667" y1="465.666667" x2="881" y2="457"></line>
        <line x1="881" y1="457" x2="881" y2="457"></line>
        <line x1="881" y1="457" x2="921" y2="446.333333"></line>
        <line x1="921" y1="446.333333" x2="941" y2="441"></line>
        <line x1="941" y1="441" x2="941" y2="441"></line>
        <line x1="941" y1="441" x2="1000.45833" y2="403.321526"></line>
        <line x1="1000.45833" y1="403.321526" x2="1012.79166" y2="395.988193"></line>
        <line x1="1012.79166" y1="395.988193" x2="978" y2="419"></line>
        <line x1="814" y1="613" x2="828" y2="632.333333"></line>
        <line x1="828" y1="632.333333" x2="835" y2="642"></line>
        <line x1="835" y1="642" x2="835" y2="642"></line>
        <line x1="835" y1="642" x2="870.333333" y2="663.333333"></line>
        <line x1="870.333333" y1="663.333333" x2="888" y2="674"></line>
        <line x1="888" y1="674" x2="888" y2="674"></line>
        <line x1="888" y1="674" x2="920" y2="678.666667"></line>
        <line x1="920" y1="678.666667" x2="936" y2="681"></line>
        <line x1="936" y1="681" x2="936" y2="681"></line>
        <line x1="936" y1="681" x2="971.333333" y2="680.333333"></line>
        <line x1="971.333333" y1="680.333333" x2="989" y2="680"></line>
        <line x1="989" y1="680" x2="989" y2="680"></line>
        <line x1="989" y1="680" x2="1011.66667" y2="676"></line>
        <line x1="1011.66667" y1="676" x2="1023" y2="674"></line>
        <line x1="1023" y1="674" x2="1023" y2="674"></line>
        <line x1="1023" y1="674" x2="1043" y2="658.666667"></line>
        <line x1="1043" y1="658.666667" x2="1053" y2="651"></line>
        <line x1="1053" y1="651" x2="1053" y2="651"></line>
        <line x1="1053" y1="651" x2="1085" y2="641.666667"></line>
        <line x1="1085" y1="641.666667" x2="1101" y2="637"></line>
        <line x1="1101" y1="637" x2="1101" y2="637"></line>
        <line x1="1101" y1="637" x2="1080" y2="685"></line>
        <line x1="461" y1="521" x2="473.666667" y2="499.666667"></line>
        <line x1="911.666667" y1="1020" x2="907" y2="1042"></line>
        <line x1="1056" y1="854" x2="1056" y2="854"></line>
        <line x1="601" y1="740" x2="560" y2="784"></line>
        <line x1="772" y1="342.333333" x2="789" y2="340"></line>
        <line x1="602" y1="367.666667" x2="610" y2="361"></line>
        <line x1="566.666667" y1="1057.33333" x2="602" y2="1007"></line>
        <line x1="960" y1="361" x2="960" y2="361"></line>
        <line x1="477.333333" y1="652.666667" x2="480" y2="630"></line>
        <line x1="1084" y1="701" x2="1072" y2="700.333333"></line>
        <line x1="485" y1="588" x2="485" y2="588"></line>
        <line x1="989" y1="680" x2="989" y2="680"></line>
        <line x1="590" y1="365.333333" x2="586" y2="381"></line>
        <line x1="772" y1="342.333333" x2="789" y2="340"></line>
        <line x1="1064" y1="779" x2="1064" y2="779"></line>
        <line x1="643" y1="710" x2="643" y2="710"></line>
        <line x1="916" y1="492" x2="926.666667" y2="530.666667"></line>
        <line x1="716" y1="332" x2="751.333333" y2="314"></line>
        <line x1="1076" y1="721" x2="1071.33333" y2="735"></line>
        <line x1="534" y1="419" x2="534" y2="419"></line>
        <line x1="601" y1="740" x2="601" y2="740"></line>
        <line x1="1064" y1="387" x2="1083" y2="386"></line>
        <line x1="570" y1="811" x2="544" y2="807"></line>
        <line x1="586" y1="381" x2="586" y2="381"></line>
        <line x1="828" y1="632.333333" x2="835" y2="642"></line>
        <line x1="1064" y1="779" x2="1064" y2="779"></line>
        <line x1="499" y1="751" x2="506.333333" y2="734.333333"></line>
        <line x1="748" y1="626" x2="741.333333" y2="632.666667"></line>
        <line x1="550" y1="684" x2="561" y2="643"></line>
        <line x1="454" y1="631" x2="474.666667" y2="602.333333"></line>
        <line x1="563" y1="383" x2="586.333333" y2="350.333333"></line>
        <line x1="841.333333" y1="301.333333" x2="852" y2="290"></line>
        <line x1="718" y1="566" x2="724" y2="567.333333"></line>
        <line x1="829" y1="483" x2="863.666667" y2="465.666667"></line>
        <line x1="940.333333" y1="922.333333" x2="934" y2="941"></line>
        <line x1="932" y1="550" x2="932" y2="550"></line>
        <line x1="852" y1="290" x2="852" y2="290"></line>
        <line x1="481" y1="474" x2="495.666667" y2="456"></line>
        <line x1="953" y1="390" x2="953" y2="390"></line>
        <line x1="658.333333" y1="327.666667" x2="668" y2="317"></line>
        <line x1="820" y1="324" x2="820" y2="324"></line>
        <line x1="727.333333" y1="636" x2="722" y2="636"></line>
        <line x1="769" y1="305" x2="748.333333" y2="333"></line>
        <line x1="1043" y1="658.666667" x2="1053" y2="651"></line>
        <line x1="547" y1="448" x2="547" y2="448"></line>
        <line x1="512.666667" y1="473" x2="529" y2="465"></line>
        <line x1="481" y1="474" x2="481" y2="474"></line>
        <line x1="971.333333" y1="680.333333" x2="989" y2="680"></line>
        <line x1="998" y1="360" x2="998" y2="360"></line>
        <line x1="916" y1="492" x2="916" y2="492"></line>
        <line x1="1012.79166" y1="395.988193" x2="978" y2="419"></line>
        <line x1="921" y1="446.333333" x2="941" y2="441"></line>
        <line x1="458" y1="614" x2="458" y2="614"></line>
        <line x1="1074" y1="810" x2="1070.66667" y2="827.333333"></line>
        <line x1="880" y1="335" x2="880" y2="335"></line>
        <line x1="1069" y1="742" x2="1072.33333" y2="755.333333"></line>
        <line x1="1071.33333" y1="735" x2="1069" y2="742"></line>
        <line x1="650.666667" y1="981" x2="661" y2="985"></line>
        <line x1="500" y1="514" x2="500" y2="514"></line>
        <line x1="852" y1="290" x2="847.333333" y2="311.333333"></line>
        <line x1="722" y1="636" x2="676" y2="660"></line>
        <line x1="481" y1="474" x2="495.666667" y2="456"></line>
        <line x1="1066" y1="700" x2="1072.66667" y2="714"></line>
        <line x1="820" y1="324" x2="841.333333" y2="301.333333"></line>
        <line x1="480" y1="489" x2="512.666667" y2="473"></line>
        <line x1="989" y1="680" x2="989" y2="680"></line>
        <line x1="486.333333" y1="534.666667" x2="500" y2="514"></line>
        <line x1="639" y1="349" x2="639" y2="349"></line>
        <line x1="1069" y1="836" x2="1069" y2="836"></line>
        <line x1="932" y1="550" x2="809.333333" y2="600.666667"></line>
        <line x1="1056" y1="854" x2="1026.66667" y2="862.666667"></line>
        <line x1="602" y1="367.666667" x2="610" y2="361"></line>
        <line x1="474.666667" y1="602.333333" x2="485" y2="588"></line>
        <line x1="480" y1="489" x2="480" y2="489"></line>
        <line x1="499" y1="751" x2="506.333333" y2="734.333333"></line>
        <line x1="474.666667" y1="602.333333" x2="485" y2="588"></line>
        <line x1="661" y1="985" x2="677.666667" y2="925.666667"></line>
        <line x1="653" y1="672" x2="653" y2="672"></line>
        <line x1="942" y1="1079" x2="1008" y2="1208"></line>
        <line x1="718" y1="566" x2="718" y2="566"></line>
        <line x1="1231" y1="615" x2="1226.33333" y2="632.333333"></line>
        <line x1="824" y1="497" x2="829" y2="483"></line>
        <line x1="953" y1="885" x2="940.333333" y2="922.333333"></line>
        <line x1="570" y1="811" x2="570" y2="811"></line>
        <line x1="1084" y1="701" x2="1072" y2="700.333333"></line>
        <line x1="610" y1="361" x2="610" y2="361"></line>
        <line x1="993" y1="411" x2="993" y2="411"></line>
        <line x1="503" y1="447" x2="532.333333" y2="447.666667"></line>
        <line x1="845" y1="322" x2="845" y2="322"></line>
        <line x1="841.333333" y1="301.333333" x2="852" y2="290"></line>
        <line x1="852" y1="290" x2="847.333333" y2="311.333333"></line>
        <line x1="509.666667" y1="769" x2="499" y2="751"></line>
        <line x1="1015" y1="396.333333" x2="1026" y2="389"></line>
        <line x1="1101" y1="637" x2="1080" y2="685"></line>
        <line x1="724" y1="567.333333" x2="727" y2="568"></line>
        <line x1="809.666667" y1="329.333333" x2="820" y2="324"></line>
        <line x1="907" y1="1042" x2="930.333333" y2="1066.66667"></line>
        <line x1="485" y1="588" x2="485" y2="588"></line>
        <line x1="718" y1="566" x2="718" y2="566"></line>
        <line x1="624" y1="726" x2="608.666667" y2="735.333333"></line>
        <line x1="474" y1="518.666667" x2="461" y2="521"></line>
        <line x1="467" y1="605.333333" x2="458" y2="614"></line>
        <line x1="888" y1="674" x2="888" y2="674"></line>
        <line x1="789" y1="340" x2="809.666667" y2="329.333333"></line>
        <line x1="1064" y1="779" x2="1070.66667" y2="799.666667"></line>
        <line x1="512.666667" y1="473" x2="529" y2="465"></line>
        <line x1="748.333333" y1="333" x2="738" y2="347"></line>
        <line x1="462.666667" y1="630.666667" x2="454" y2="631"></line>
        <line x1="699" y1="579" x2="699" y2="579"></line>
        <line x1="549.666667" y1="406.666667" x2="556" y2="422"></line>
        <line x1="1064" y1="779" x2="1064" y2="779"></line>
        <line x1="461" y1="521" x2="461" y2="521"></line>
        <line x1="601" y1="740" x2="560" y2="784"></line>
        <line x1="610" y1="361" x2="610" y2="361"></line>
        <line x1="921" y1="976" x2="921" y2="976"></line>
        <line x1="998" y1="360" x2="998" y2="360"></line>
        <line x1="831" y1="343" x2="831" y2="343"></line>
        <line x1="658.333333" y1="327.666667" x2="668" y2="317"></line>
        <line x1="1056" y1="854" x2="1026.66667" y2="862.666667"></line>
        <line x1="1154.33333" y1="444" x2="1190" y2="473"></line>
        <line x1="989" y1="680" x2="989" y2="680"></line>
        <line x1="480" y1="489" x2="512.666667" y2="473"></line>
        <line x1="1011.66667" y1="676" x2="1023" y2="674"></line>
        <line x1="481" y1="474" x2="481" y2="474"></line>
        <line x1="727" y1="568" x2="727" y2="568"></line>
        <line x1="989" y1="680" x2="989" y2="680"></line>
        <line x1="699" y1="579" x2="711.666667" y2="570.333333"></line>
        <line x1="1012.79166" y1="395.988193" x2="978" y2="419"></line>
        <line x1="630.333333" y1="720.666667" x2="624" y2="726"></line>
        <line x1="741.333333" y1="632.666667" x2="738" y2="636"></line>
        <line x1="608.666667" y1="735.333333" x2="601" y2="740"></line>
        <line x1="586.333333" y1="350.333333" x2="598" y2="334"></line>
        <line x1="960" y1="361" x2="985.333333" y2="360.333333"></line>
        <line x1="499" y1="751" x2="499" y2="751"></line>
        <line x1="989" y1="680" x2="1011.66667" y2="676"></line>
        <line x1="612" y1="1004.33333" x2="617" y2="1003"></line>
        <line x1="499" y1="751" x2="499" y2="751"></line>
        <line x1="953" y1="390" x2="979.666667" y2="404"></line>
        <line x1="716" y1="332" x2="751.333333" y2="314"></line>
        <line x1="936" y1="681" x2="936" y2="681"></line>
        <line x1="907" y1="1042" x2="930.333333" y2="1066.66667"></line>
        <line x1="1101" y1="637" x2="1101" y2="637"></line>
        <line x1="617" y1="1003" x2="625.666667" y2="983"></line>
        <line x1="547" y1="448" x2="547" y2="448"></line>
        <line x1="563" y1="383" x2="586.333333" y2="350.333333"></line>
        <line x1="1084" y1="701" x2="1072" y2="700.333333"></line>
        <line x1="480" y1="630" x2="480" y2="630"></line>
        <line x1="1101" y1="637" x2="1080" y2="685"></line>
        <line x1="590" y1="365.333333" x2="586" y2="381"></line>
        <line x1="772" y1="342.333333" x2="789" y2="340"></line>
        <line x1="538.333333" y1="428.666667" x2="534" y2="419"></line>
        <line x1="835" y1="642" x2="870.333333" y2="663.333333"></line>
        <line x1="831" y1="343" x2="863.666667" y2="337.666667"></line>
        <line x1="537" y1="376" x2="549.666667" y2="406.666667"></line>
        <line x1="458.666667" y1="588.666667" x2="459" y2="576"></line>
        <line x1="727.333333" y1="636" x2="722" y2="636"></line>
        <line x1="663.333333" y1="342.333333" x2="661" y2="355"></line>
        <line x1="699" y1="579" x2="699" y2="579"></line>
        <line x1="1085" y1="641.666667" x2="1101" y2="637"></line>
        <line x1="547" y1="448" x2="547" y2="448"></line>
        <line x1="1064" y1="387" x2="1083" y2="386"></line>
        <line x1="989" y1="680" x2="1011.66667" y2="676"></line>
        <line x1="472" y1="698" x2="472" y2="698"></line>
        <line x1="534" y1="419" x2="534" y2="419"></line>
        <line x1="630" y1="973" x2="650.666667" y2="981"></line>
        <line x1="1060.33333" y1="848" x2="1056" y2="854"></line>
        <line x1="1190" y1="473" x2="1190" y2="473"></line>
        <line x1="613.333333" y1="620.666667" x2="622" y2="623"></line>
        <line x1="495.666667" y1="456" x2="503" y2="447"></line>
        <line x1="888" y1="674" x2="920" y2="678.666667"></line>
        <line x1="461" y1="521" x2="461" y2="521"></line>
        <line x1="1069" y1="742" x2="1072.33333" y2="755.333333"></line>
        <line x1="566.666667" y1="1057.33333" x2="602" y2="1007"></line>
        <line x1="617" y1="1003" x2="617" y2="1003"></line>
        <line x1="716" y1="332" x2="751.333333" y2="314"></line>
        <line x1="953" y1="390" x2="979.666667" y2="404"></line>
        <line x1="563" y1="383" x2="563" y2="383"></line>
        <line x1="598" y1="334" x2="590" y2="365.333333"></line>
        <line x1="936.333333" y1="357.333333" x2="960" y2="361"></line>
        <line x1="748" y1="626" x2="748" y2="626"></line>
        <line x1="960" y1="361" x2="985.333333" y2="360.333333"></line>
        <line x1="711.666667" y1="570.333333" x2="718" y2="566"></line>
        <line x1="845" y1="322" x2="845" y2="322"></line>
        <line x1="472" y1="698" x2="472" y2="698"></line>
        <line x1="921" y1="976" x2="921" y2="976"></line>
        <line x1="458" y1="614" x2="458" y2="614"></line>
        <line x1="934" y1="941" x2="934" y2="941"></line>
        <line x1="472" y1="698" x2="477.333333" y2="652.666667"></line>
        <line x1="598" y1="334" x2="598" y2="334"></line>
        <line x1="1217.33333" y1="567.666667" x2="1231" y2="615"></line>
        <line x1="814" y1="525" x2="824" y2="497"></line>
        <line x1="646.333333" y1="697.333333" x2="643" y2="710"></line>
        <line x1="613.333333" y1="620.666667" x2="622" y2="623"></line>
        <line x1="458" y1="614" x2="458.666667" y2="588.666667"></line>
        <line x1="550" y1="684" x2="561" y2="643"></line>
        <line x1="622" y1="623" x2="622" y2="623"></line>
        <line x1="1012.79166" y1="395.988193" x2="978" y2="419"></line>
        <line x1="727.333333" y1="636" x2="722" y2="636"></line>
        <line x1="625.666667" y1="983" x2="630" y2="973"></line>
        <line x1="1043" y1="658.666667" x2="1053" y2="651"></line>
        <line x1="1084" y1="701" x2="1084" y2="701"></line>
        <line x1="1023" y1="674" x2="1043" y2="658.666667"></line>
        <line x1="716" y1="332" x2="751.333333" y2="314"></line>
        <line x1="1085" y1="641.666667" x2="1101" y2="637"></line>
        <line x1="668" y1="317" x2="668" y2="317"></line>
        <line x1="547" y1="448" x2="538.333333" y2="428.666667"></line>
        <line x1="510" y1="726" x2="550" y2="684"></line>
        <line x1="515" y1="462.333333" x2="508" y2="461"></line>
        <line x1="1154.33333" y1="444" x2="1190" y2="473"></line>
        <line x1="653" y1="672" x2="653" y2="672"></line>
        <line x1="499" y1="751" x2="499" y2="751"></line>
        <line x1="741.333333" y1="632.666667" x2="738" y2="636"></line>
        <line x1="490" y1="469.666667" x2="481" y2="474"></line>
        <line x1="835" y1="642" x2="835" y2="642"></line>
        <line x1="993" y1="411" x2="1015" y2="396.333333"></line>
        <line x1="722" y1="636" x2="676" y2="660"></line>
        <line x1="686" y1="896" x2="686" y2="896"></line>
        <line x1="1064" y1="779" x2="1070.66667" y2="799.666667"></line>
        <line x1="622" y1="623" x2="622" y2="623"></line>
        <line x1="473.666667" y1="499.666667" x2="480" y2="489"></line>
        <line x1="508" y1="461" x2="508" y2="461"></line>
        <line x1="847.333333" y1="311.333333" x2="845" y2="322"></line>
        <line x1="480" y1="630" x2="480" y2="630"></line>
        <line x1="561" y1="643" x2="596" y2="616"></line>
        <line x1="769" y1="305" x2="748.333333" y2="333"></line>
        <line x1="480" y1="630" x2="462.666667" y2="630.666667"></line>
        <line x1="510" y1="726" x2="510" y2="726"></line>
        <line x1="1069" y1="742" x2="1072.33333" y2="755.333333"></line>
        <line x1="1069" y1="836" x2="1069" y2="836"></line>
        <line x1="1023" y1="674" x2="1023" y2="674"></line>
        <line x1="972.666667" y1="879" x2="953" y2="885"></line>
        <line x1="536" y1="390.333333" x2="537" y2="376"></line>
        <line x1="863.666667" y1="465.666667" x2="881" y2="457"></line>
        <line x1="907" y1="1042" x2="930.333333" y2="1066.66667"></line>
        <line x1="639" y1="349" x2="658.333333" y2="327.666667"></line>
        <line x1="480" y1="489" x2="480" y2="489"></line>
        <line x1="953" y1="885" x2="953" y2="885"></line>
        <line x1="1069" y1="742" x2="1069" y2="742"></line>
        <line x1="953" y1="885" x2="940.333333" y2="922.333333"></line>
        <line x1="461" y1="521" x2="461" y2="521"></line>
        <line x1="738" y1="347" x2="772" y2="342.333333"></line>
        <line x1="598" y1="334" x2="590" y2="365.333333"></line>
        <line x1="741.333333" y1="632.666667" x2="738" y2="636"></line>
        <line x1="772" y1="342.333333" x2="789" y2="340"></line>
        <line x1="547" y1="448" x2="547" y2="448"></line>
        <line x1="881" y1="457" x2="881" y2="457"></line>
        <line x1="1072" y1="700.333333" x2="1066" y2="700"></line>
        <line x1="926.666667" y1="530.666667" x2="932" y2="550"></line>
        <line x1="598" y1="334" x2="590" y2="365.333333"></line>
        <line x1="495.666667" y1="456" x2="503" y2="447"></line>
        <line x1="560.666667" y1="396" x2="563" y2="383"></line>
        <line x1="1231" y1="615" x2="1226.33333" y2="632.333333"></line>
        <line x1="630" y1="973" x2="630" y2="973"></line>
        <line x1="741.333333" y1="632.666667" x2="738" y2="636"></line>
        <line x1="889" y1="350" x2="936.333333" y2="357.333333"></line>
        <line x1="537" y1="376" x2="537" y2="376"></line>
        <line x1="515" y1="462.333333" x2="508" y2="461"></line>
        <line x1="590" y1="365.333333" x2="586" y2="381"></line>
        <rect id="Rectangle" stroke="#979797" fill-opacity="0" fill="#D8D8D8" fill-rule="nonzero" x="0.5" y="0.5" width="2576" height="1252"></rect>
    </g>
</svg>