
<svg width="2577px" height="1253px" viewBox="0 0 2577 1253" version="1.1" xmlns="http://www.w3.org/2000/svg" xmlns:xlink="http://www.w3.org/1999/xlink">
    <g id="sphere" stroke="none" stroke-width="1" fill="none" fill-rule="evenodd">
        <rect id="Rectangle" stroke="#979797" fill-opacity="0" fill="#D8D8D8" fill-rule="nonzero" x="0.5" y="0.5" width="2576" height="1252"></rect>
        <line x1="768.5" y1="204.5" x2="659.5" y2="156.5"></line>
        <line x1="659.5" y1="156" x2="877.5" y2="156"></line>
        <line x1="878.5" y1="156.5" x2="769.5" y2="204.5"></line>
        <line x1="659.5" y1="155.5" x2="768.5" y2="139.5"></line>
        <line x1="769.5" y1="139.5" x2="878.5" y2="155.5"></line>
        <line x1="877.5" y1="156" x2="659.5" y2="156"></line>
        <line x1="768.5" y1="205.5" x2="557.5" y2="274.5"></line>
        <line x1="556.5" y1="273.5" x2="659.5" y2="156.5"></line>
        <line x1="659.5" y1="156.5" x2="768.5" y2="204.5"></line>
        <line x1="386.5" y1="391.5" x2="483.5" y2="233.5"></line>
        <line x1="483.5" y1="233.5" x2="556.5" y2="274.5"></line>
        <line x1="557.5" y1="274.5" x2="386.5" y2="391.5"></line>
        <line x1="594.5" y1="173.5" x2="659.5" y2="157.5"></line>
        <line x1="659.5" y1="155.5" x2="483.5" y2="233.5"></line>
        <line x1="483.5" y1="233.5" x2="594.5" y2="173.5"></line>
        <line x1="556.5" y1="274.5" x2="483.5" y2="233.5"></line>
        <line x1="483.5" y1="233.5" x2="659.5" y2="155.5"></line>
        <line x1="659.5" y1="156.5" x2="556.5" y2="273.5"></line>
        <line x1="386.5" y1="391.5" x2="295.5" y2="519.5"></line>
        <line x1="295.5" y1="519.5" x2="350.5" y2="369.5"></line>
        <line x1="350.5" y1="369.5" x2="386.5" y2="391.5"></line>
        <line x1="386.5" y1="391.5" x2="350.5" y2="369.5"></line>
        <line x1="350.5" y1="369.5" x2="483.5" y2="233.5"></line>
        <line x1="483.5" y1="233.5" x2="386.5" y2="391.5"></line>
        <line x1="279.5" y1="627.5" x2="295.5" y2="519.5"></line>
        <line x1="296" y1="519.5" x2="296" y2="735.5"></line>
        <line x1="295.5" y1="736.5" x2="279.5" y2="628.5"></line>
        <line x1="386.5" y1="391.5" x2="345.5" y2="628.5"></line>
        <line x1="345.5" y1="627.5" x2="295.5" y2="519.5"></line>
        <line x1="295.5" y1="519.5" x2="386.5" y2="391.5"></line>
        <line x1="386.5" y1="863.5" x2="295.5" y2="735.5"></line>
        <line x1="295.5" y1="736.5" x2="345.5" y2="628.5"></line>
        <line x1="345.5" y1="625.5" x2="386.5" y2="862.5"></line>
        <line x1="295.5" y1="519.5" x2="345.5" y2="627.5"></line>
        <line x1="345.5" y1="628.5" x2="295.5" y2="736.5"></line>
        <line x1="296" y1="735.5" x2="296" y2="519.5"></line>
        <line x1="768" y1="205.5" x2="768" y2="373.5"></line>
        <line x1="768.5" y1="374.5" x2="557.5" y2="274.5"></line>
        <line x1="557.5" y1="274.5" x2="768.5" y2="205.5"></line>
        <line x1="768.5" y1="626.5" x2="528.5" y2="478.5"></line>
        <line x1="528.5" y1="478.5" x2="768.5" y2="373.5"></line>
        <line x1="768" y1="373.5" x2="768" y2="627.5"></line>
        <line x1="386.5" y1="391.5" x2="557.5" y2="274.5"></line>
        <line x1="556.5" y1="274.5" x2="527.5" y2="478.5"></line>
        <line x1="527.5" y1="477.5" x2="386.5" y2="391.5"></line>
        <line x1="768.5" y1="373.5" x2="528.5" y2="478.5"></line>
        <line x1="527.5" y1="478.5" x2="556.5" y2="274.5"></line>
        <line x1="557.5" y1="274.5" x2="768.5" y2="374.5"></line>
        <line x1="768.5" y1="1048.5" x2="557.5" y2="979.5"></line>
        <line x1="557.5" y1="979.5" x2="768.5" y2="879.5"></line>
        <line x1="768" y1="880.5" x2="768" y2="1048.5"></line>
        <line x1="386.5" y1="862.5" x2="527.5" y2="776.5"></line>
        <line x1="527.5" y1="775.5" x2="556.5" y2="979.5"></line>
        <line x1="557.5" y1="979.5" x2="386.5" y2="862.5"></line>
        <line x1="768" y1="626.5" x2="768" y2="880.5"></line>
        <line x1="768.5" y1="880.5" x2="528.5" y2="775.5"></line>
        <line x1="528.5" y1="775.5" x2="768.5" y2="627.5"></line>
        <line x1="556.5" y1="979.5" x2="527.5" y2="775.5"></line>
        <line x1="528.5" y1="775.5" x2="768.5" y2="880.5"></line>
        <line x1="768.5" y1="879.5" x2="557.5" y2="979.5"></line>
        <line x1="386.5" y1="391.5" x2="527.5" y2="477.5"></line>
        <line x1="526.5" y1="478.5" x2="345.5" y2="626.5"></line>
        <line x1="345.5" y1="628.5" x2="386.5" y2="391.5"></line>
        <line x1="768.5" y1="627.5" x2="528.5" y2="775.5"></line>
        <line x1="527" y1="775.5" x2="527" y2="478.5"></line>
        <line x1="528.5" y1="478.5" x2="768.5" y2="626.5"></line>
        <line x1="386.5" y1="862.5" x2="345.5" y2="625.5"></line>
        <line x1="345.5" y1="627.5" x2="526.5" y2="775.5"></line>
        <line x1="527.5" y1="776.5" x2="386.5" y2="862.5"></line>
        <line x1="527" y1="478.5" x2="527" y2="775.5"></line>
        <line x1="526.5" y1="775.5" x2="345.5" y2="627.5"></line>
        <line x1="345.5" y1="626.5" x2="526.5" y2="478.5"></line>
        <line x1="769.5" y1="204.5" x2="878.5" y2="156.5"></line>
        <line x1="877.5" y1="156.5" x2="980.5" y2="273.5"></line>
        <line x1="979.5" y1="274.5" x2="768.5" y2="205.5"></line>
        <line x1="940.5" y1="173.5" x2="1051.5" y2="233.5"></line>
        <line x1="1052.5" y1="233.5" x2="876.5" y2="155.5"></line>
        <line x1="877.5" y1="157.5" x2="942.5" y2="173.5"></line>
        <line x1="1149.5" y1="391.5" x2="978.5" y2="274.5"></line>
        <line x1="979.5" y1="274.5" x2="1052.5" y2="233.5"></line>
        <line x1="1052.5" y1="233.5" x2="1149.5" y2="391.5"></line>
        <line x1="876.5" y1="155.5" x2="1052.5" y2="233.5"></line>
        <line x1="1052.5" y1="233.5" x2="979.5" y2="274.5"></line>
        <line x1="980.5" y1="273.5" x2="877.5" y2="156.5"></line>
        <line x1="1149.5" y1="391.5" x2="1185.5" y2="369.5"></line>
        <line x1="1185.5" y1="369.5" x2="1240.5" y2="519.5"></line>
        <line x1="1240.5" y1="519.5" x2="1149.5" y2="391.5"></line>
        <line x1="1149.5" y1="391.5" x2="1052.5" y2="233.5"></line>
        <line x1="1052.5" y1="233.5" x2="1185.5" y2="369.5"></line>
        <line x1="1185.5" y1="369.5" x2="1149.5" y2="391.5"></line>
        <line x1="769.5" y1="1049.5" x2="878.5" y2="1097.5"></line>
        <line x1="877.5" y1="1098" x2="659.5" y2="1098"></line>
        <line x1="659.5" y1="1097.5" x2="768.5" y2="1049.5"></line>
        <line x1="878.5" y1="1098.5" x2="769.5" y2="1114.5"></line>
        <line x1="768.5" y1="1114.5" x2="659.5" y2="1098.5"></line>
        <line x1="659.5" y1="1098" x2="877.5" y2="1098"></line>
        <line x1="768.5" y1="1048.5" x2="979.5" y2="979.5"></line>
        <line x1="980.5" y1="980.5" x2="877.5" y2="1097.5"></line>
        <line x1="878.5" y1="1097.5" x2="769.5" y2="1049.5"></line>
        <line x1="1149.5" y1="862.5" x2="1052.5" y2="1020.5"></line>
        <line x1="1052.5" y1="1020.5" x2="979.5" y2="979.5"></line>
        <line x1="978.5" y1="979.5" x2="1149.5" y2="862.5"></line>
        <line x1="942.5" y1="1080.5" x2="877.5" y2="1096.5"></line>
        <line x1="876.5" y1="1098.5" x2="1052.5" y2="1020.5"></line>
        <line x1="1051.5" y1="1020.5" x2="940.5" y2="1080.5"></line>
        <line x1="979.5" y1="979.5" x2="1052.5" y2="1020.5"></line>
        <line x1="1052.5" y1="1020.5" x2="876.5" y2="1098.5"></line>
        <line x1="877.5" y1="1097.5" x2="980.5" y2="980.5"></line>
        <line x1="1149.5" y1="863.5" x2="1240.5" y2="735.5"></line>
        <line x1="1240.5" y1="734.5" x2="1185.5" y2="884.5"></line>
        <line x1="1185.5" y1="884.5" x2="1149.5" y2="862.5"></line>
        <line x1="1149.5" y1="862.5" x2="1185.5" y2="884.5"></line>
        <line x1="1185.5" y1="884.5" x2="1052.5" y2="1020.5"></line>
        <line x1="1052.5" y1="1020.5" x2="1149.5" y2="862.5"></line>
        <line x1="768.5" y1="1049.5" x2="659.5" y2="1097.5"></line>
        <line x1="659.5" y1="1097.5" x2="556.5" y2="980.5"></line>
        <line x1="557.5" y1="979.5" x2="768.5" y2="1048.5"></line>
        <line x1="594.5" y1="1080.5" x2="483.5" y2="1020.5"></line>
        <line x1="483.5" y1="1020.5" x2="659.5" y2="1098.5"></line>
        <line x1="659.5" y1="1096.5" x2="594.5" y2="1080.5"></line>
        <line x1="386.5" y1="862.5" x2="557.5" y2="979.5"></line>
        <line x1="556.5" y1="979.5" x2="483.5" y2="1020.5"></line>
        <line x1="483.5" y1="1020.5" x2="386.5" y2="862.5"></line>
        <line x1="659.5" y1="1098.5" x2="483.5" y2="1020.5"></line>
        <line x1="483.5" y1="1020.5" x2="556.5" y2="979.5"></line>
        <line x1="556.5" y1="980.5" x2="659.5" y2="1097.5"></line>
        <line x1="386.5" y1="862.5" x2="350.5" y2="884.5"></line>
        <line x1="350.5" y1="884.5" x2="295.5" y2="734.5"></line>
        <line x1="295.5" y1="735.5" x2="386.5" y2="863.5"></line>
        <line x1="386.5" y1="862.5" x2="483.5" y2="1020.5"></line>
        <line x1="483.5" y1="1020.5" x2="350.5" y2="884.5"></line>
        <line x1="350.5" y1="884.5" x2="386.5" y2="862.5"></line>
        <line x1="1256.5" y1="628.5" x2="1240.5" y2="736.5"></line>
        <line x1="1240" y1="735.5" x2="1240" y2="519.5"></line>
        <line x1="1240.5" y1="519.5" x2="1256.5" y2="627.5"></line>
        <line x1="1148.5" y1="862.5" x2="1189.5" y2="625.5"></line>
        <line x1="1190.5" y1="628.5" x2="1240.5" y2="736.5"></line>
        <line x1="1240.5" y1="735.5" x2="1149.5" y2="863.5"></line>
        <line x1="1149.5" y1="391.5" x2="1240.5" y2="519.5"></line>
        <line x1="1240.5" y1="519.5" x2="1190.5" y2="627.5"></line>
        <line x1="1189.5" y1="628.5" x2="1148.5" y2="391.5"></line>
        <line x1="1240.5" y1="736.5" x2="1190.5" y2="628.5"></line>
        <line x1="1190.5" y1="627.5" x2="1240.5" y2="519.5"></line>
        <line x1="1240" y1="519.5" x2="1240" y2="735.5"></line>
        <line x1="768" y1="1048.5" x2="768" y2="880.5"></line>
        <line x1="768.5" y1="879.5" x2="979.5" y2="979.5"></line>
        <line x1="979.5" y1="979.5" x2="768.5" y2="1048.5"></line>
        <line x1="769.5" y1="627.5" x2="1009.5" y2="775.5"></line>
        <line x1="1009.5" y1="775.5" x2="769.5" y2="880.5"></line>
        <line x1="768" y1="880.5" x2="768" y2="626.5"></line>
        <line x1="1149.5" y1="862.5" x2="978.5" y2="979.5"></line>
        <line x1="979.5" y1="979.5" x2="1008.5" y2="775.5"></line>
        <line x1="1008.5" y1="776.5" x2="1149.5" y2="862.5"></line>
        <line x1="769.5" y1="880.5" x2="1009.5" y2="775.5"></line>
        <line x1="1008.5" y1="775.5" x2="979.5" y2="979.5"></line>
        <line x1="979.5" y1="979.5" x2="768.5" y2="879.5"></line>
        <line x1="768.5" y1="205.5" x2="979.5" y2="274.5"></line>
        <line x1="979.5" y1="274.5" x2="768.5" y2="374.5"></line>
        <line x1="768" y1="373.5" x2="768" y2="205.5"></line>
        <line x1="1149.5" y1="391.5" x2="1008.5" y2="477.5"></line>
        <line x1="1008.5" y1="478.5" x2="979.5" y2="274.5"></line>
        <line x1="978.5" y1="274.5" x2="1149.5" y2="391.5"></line>
        <line x1="768" y1="627.5" x2="768" y2="373.5"></line>
        <line x1="769.5" y1="373.5" x2="1009.5" y2="478.5"></line>
        <line x1="1009.5" y1="478.5" x2="769.5" y2="626.5"></line>
        <line x1="979.5" y1="274.5" x2="1008.5" y2="478.5"></line>
        <line x1="1009.5" y1="478.5" x2="769.5" y2="373.5"></line>
        <line x1="768.5" y1="374.5" x2="979.5" y2="274.5"></line>
        <line x1="1149.5" y1="862.5" x2="1008.5" y2="776.5"></line>
        <line x1="1009.5" y1="775.5" x2="1190.5" y2="627.5"></line>
        <line x1="1189.5" y1="625.5" x2="1148.5" y2="862.5"></line>
        <line x1="769.5" y1="626.5" x2="1009.5" y2="478.5"></line>
        <line x1="1009" y1="478.5" x2="1009" y2="775.5"></line>
        <line x1="1009.5" y1="775.5" x2="769.5" y2="627.5"></line>
        <line x1="1148.5" y1="391.5" x2="1189.5" y2="628.5"></line>
        <line x1="1190.5" y1="626.5" x2="1009.5" y2="478.5"></line>
        <line x1="1008.5" y1="477.5" x2="1149.5" y2="391.5"></line>
        <line x1="1009" y1="775.5" x2="1009" y2="478.5"></line>
        <line x1="1009.5" y1="478.5" x2="1190.5" y2="626.5"></line>
        <line x1="1190.5" y1="627.5" x2="1009.5" y2="775.5"></line>
        <line x1="768.5" y1="1048.5" x2="557.5" y2="979.5"></line>
        <line x1="528.5" y1="775.5" x2="768.5" y2="627.5"></line>
        <line x1="1185.5" y1="884.5" x2="1149.5" y2="862.5"></line>
        <line x1="659.5" y1="1098" x2="877.5" y2="1098"></line>
        <line x1="557.5" y1="274.5" x2="768.5" y2="374.5"></line>
        <line x1="980.5" y1="273.5" x2="877.5" y2="156.5"></line>
        <line x1="1009.5" y1="775.5" x2="769.5" y2="627.5"></line>
        <line x1="295.5" y1="519.5" x2="345.5" y2="627.5"></line>
        <line x1="659.5" y1="1098.5" x2="483.5" y2="1020.5"></line>
        <line x1="350.5" y1="369.5" x2="386.5" y2="391.5"></line>
        <line x1="768.5" y1="1048.5" x2="557.5" y2="979.5"></line>
        <line x1="979.5" y1="979.5" x2="1052.5" y2="1020.5"></line>
        <line x1="350.5" y1="369.5" x2="483.5" y2="233.5"></line>
        <line x1="769.5" y1="626.5" x2="1009.5" y2="478.5"></line>
        <line x1="1190.5" y1="628.5" x2="1240.5" y2="736.5"></line>
        <line x1="1009.5" y1="775.5" x2="769.5" y2="627.5"></line>
        <line x1="1052.5" y1="1020.5" x2="979.5" y2="979.5"></line>
        <line x1="345.5" y1="628.5" x2="386.5" y2="391.5"></line>
        <line x1="1190.5" y1="628.5" x2="1240.5" y2="736.5"></line>
        <line x1="345.5" y1="628.5" x2="295.5" y2="736.5"></line>
        <line x1="1189.5" y1="625.5" x2="1148.5" y2="862.5"></line>
        <line x1="878.5" y1="1097.5" x2="769.5" y2="1049.5"></line>
        <line x1="386.5" y1="862.5" x2="350.5" y2="884.5"></line>
        <line x1="1256.5" y1="628.5" x2="1240.5" y2="736.5"></line>
        <line x1="1185.5" y1="884.5" x2="1149.5" y2="862.5"></line>
        <line x1="1185.5" y1="884.5" x2="1052.5" y2="1020.5"></line>
        <line x1="1009.5" y1="775.5" x2="769.5" y2="880.5"></line>
        <line x1="483.5" y1="233.5" x2="556.5" y2="274.5"></line>
        <line x1="528.5" y1="478.5" x2="768.5" y2="626.5"></line>
        <line x1="1009.5" y1="775.5" x2="769.5" y2="627.5"></line>
        <line x1="386.5" y1="862.5" x2="350.5" y2="884.5"></line>
        <line x1="1009.5" y1="478.5" x2="769.5" y2="373.5"></line>
        <line x1="386.5" y1="863.5" x2="295.5" y2="735.5"></line>
        <line x1="295.5" y1="736.5" x2="345.5" y2="628.5"></line>
        <line x1="350.5" y1="369.5" x2="386.5" y2="391.5"></line>
        <line x1="345.5" y1="627.5" x2="295.5" y2="519.5"></line>
        <line x1="296" y1="519.5" x2="296" y2="735.5"></line>
        <line x1="1008.5" y1="776.5" x2="1149.5" y2="862.5"></line>
        <line x1="386.5" y1="862.5" x2="527.5" y2="776.5"></line>
        <line x1="1149.5" y1="391.5" x2="978.5" y2="274.5"></line>
        <line x1="556.5" y1="274.5" x2="527.5" y2="478.5"></line>
        <line x1="483.5" y1="233.5" x2="659.5" y2="155.5"></line>
        <line x1="768" y1="373.5" x2="768" y2="205.5"></line>
        <line x1="526.5" y1="775.5" x2="345.5" y2="627.5"></line>
        <line x1="1051.5" y1="1020.5" x2="940.5" y2="1080.5"></line>
        <line x1="942.5" y1="1080.5" x2="877.5" y2="1096.5"></line>
        <line x1="768.5" y1="627.5" x2="528.5" y2="775.5"></line>
        <line x1="1256.5" y1="628.5" x2="1240.5" y2="736.5"></line>
        <line x1="556.5" y1="273.5" x2="659.5" y2="156.5"></line>
        <line x1="768" y1="880.5" x2="768" y2="626.5"></line>
        <line x1="556.5" y1="274.5" x2="483.5" y2="233.5"></line>
        <line x1="386.5" y1="863.5" x2="295.5" y2="735.5"></line>
        <line x1="386.5" y1="391.5" x2="345.5" y2="628.5"></line>
        <line x1="1009.5" y1="775.5" x2="1190.5" y2="627.5"></line>
        <line x1="978.5" y1="979.5" x2="1149.5" y2="862.5"></line>
        <line x1="295.5" y1="736.5" x2="279.5" y2="628.5"></line>
        <line x1="878.5" y1="156.5" x2="769.5" y2="204.5"></line>
        <line x1="1052.5" y1="1020.5" x2="1149.5" y2="862.5"></line>
        <line x1="350.5" y1="884.5" x2="295.5" y2="734.5"></line>
        <line x1="877.5" y1="157.5" x2="942.5" y2="173.5"></line>
        <line x1="350.5" y1="369.5" x2="386.5" y2="391.5"></line>
        <line x1="528.5" y1="775.5" x2="768.5" y2="880.5"></line>
        <line x1="386.5" y1="391.5" x2="527.5" y2="477.5"></line>
        <line x1="527" y1="478.5" x2="527" y2="775.5"></line>
        <line x1="1149.5" y1="862.5" x2="978.5" y2="979.5"></line>
        <line x1="386.5" y1="862.5" x2="527.5" y2="776.5"></line>
        <line x1="483.5" y1="1020.5" x2="350.5" y2="884.5"></line>
        <line x1="1149.5" y1="391.5" x2="1185.5" y2="369.5"></line>
        <line x1="979.5" y1="979.5" x2="1008.5" y2="775.5"></line>
        <line x1="557.5" y1="979.5" x2="386.5" y2="862.5"></line>
        <line x1="768.5" y1="880.5" x2="528.5" y2="775.5"></line>
        <line x1="1149.5" y1="391.5" x2="1008.5" y2="477.5"></line>
        <line x1="1009" y1="775.5" x2="1009" y2="478.5"></line>
        <line x1="1009.5" y1="775.5" x2="769.5" y2="880.5"></line>
        <line x1="1009.5" y1="478.5" x2="769.5" y2="626.5"></line>
        <line x1="1256.5" y1="628.5" x2="1240.5" y2="736.5"></line>
        <line x1="1189.5" y1="628.5" x2="1148.5" y2="391.5"></line>
        <line x1="386.5" y1="862.5" x2="345.5" y2="625.5"></line>
        <line x1="769.5" y1="139.5" x2="878.5" y2="155.5"></line>
        <line x1="1009.5" y1="775.5" x2="1190.5" y2="627.5"></line>
        <line x1="1052.5" y1="1020.5" x2="1149.5" y2="862.5"></line>
        <line x1="768.5" y1="373.5" x2="528.5" y2="478.5"></line>
        <line x1="979.5" y1="979.5" x2="768.5" y2="879.5"></line>
        <line x1="1008.5" y1="775.5" x2="979.5" y2="979.5"></line>
        <line x1="345.5" y1="625.5" x2="386.5" y2="862.5"></line>
        <line x1="979.5" y1="274.5" x2="1052.5" y2="233.5"></line>
        <line x1="295.5" y1="519.5" x2="386.5" y2="391.5"></line>
        <line x1="1148.5" y1="862.5" x2="1189.5" y2="625.5"></line>
        <line x1="978.5" y1="274.5" x2="1149.5" y2="391.5"></line>
        <line x1="1240.5" y1="735.5" x2="1149.5" y2="863.5"></line>
        <line x1="769.5" y1="139.5" x2="878.5" y2="155.5"></line>
        <line x1="386.5" y1="391.5" x2="350.5" y2="369.5"></line>
        <line x1="1052.5" y1="233.5" x2="979.5" y2="274.5"></line>
        <line x1="979.5" y1="979.5" x2="1008.5" y2="775.5"></line>
        <line x1="878.5" y1="1097.5" x2="769.5" y2="1049.5"></line>
        <line x1="1149.5" y1="391.5" x2="978.5" y2="274.5"></line>
        <line x1="556.5" y1="979.5" x2="527.5" y2="775.5"></line>
        <line x1="877.5" y1="156.5" x2="980.5" y2="273.5"></line>
        <line x1="350.5" y1="369.5" x2="483.5" y2="233.5"></line>
        <line x1="1240.5" y1="734.5" x2="1185.5" y2="884.5"></line>
        <line x1="659.5" y1="1097.5" x2="556.5" y2="980.5"></line>
        <line x1="483.5" y1="1020.5" x2="386.5" y2="862.5"></line>
        <line x1="768" y1="627.5" x2="768" y2="373.5"></line>
        <line x1="769.5" y1="627.5" x2="1009.5" y2="775.5"></line>
        <line x1="1189.5" y1="625.5" x2="1148.5" y2="862.5"></line>
        <line x1="527" y1="775.5" x2="527" y2="478.5"></line>
        <line x1="345.5" y1="627.5" x2="295.5" y2="519.5"></line>
        <line x1="483.5" y1="1020.5" x2="659.5" y2="1098.5"></line>
        <line x1="1052.5" y1="1020.5" x2="876.5" y2="1098.5"></line>
        <line x1="1185.5" y1="884.5" x2="1149.5" y2="862.5"></line>
        <line x1="878.5" y1="156.5" x2="769.5" y2="204.5"></line>
        <line x1="768.5" y1="373.5" x2="528.5" y2="478.5"></line>
        <line x1="1008.5" y1="775.5" x2="979.5" y2="979.5"></line>
        <line x1="295.5" y1="736.5" x2="345.5" y2="628.5"></line>
        <line x1="877.5" y1="157.5" x2="942.5" y2="173.5"></line>
        <line x1="1256.5" y1="628.5" x2="1240.5" y2="736.5"></line>
        <line x1="979.5" y1="979.5" x2="1008.5" y2="775.5"></line>
        <line x1="528.5" y1="775.5" x2="768.5" y2="880.5"></line>
        <line x1="556.5" y1="979.5" x2="527.5" y2="775.5"></line>
        <line x1="659.5" y1="155.5" x2="483.5" y2="233.5"></line>
        <line x1="295.5" y1="519.5" x2="350.5" y2="369.5"></line>
        <line x1="1240" y1="519.5" x2="1240" y2="735.5"></line>
        <line x1="1185.5" y1="369.5" x2="1149.5" y2="391.5"></line>
        <line x1="386.5" y1="862.5" x2="557.5" y2="979.5"></line>
        <line x1="1052.5" y1="1020.5" x2="876.5" y2="1098.5"></line>
        <line x1="659.5" y1="156.5" x2="556.5" y2="273.5"></line>
        <line x1="878.5" y1="1098.5" x2="769.5" y2="1114.5"></line>
        <line x1="768.5" y1="880.5" x2="528.5" y2="775.5"></line>
        <line x1="769.5" y1="627.5" x2="1009.5" y2="775.5"></line>
        <line x1="295.5" y1="519.5" x2="345.5" y2="627.5"></line>
        <line x1="768.5" y1="880.5" x2="528.5" y2="775.5"></line>
        <line x1="769.5" y1="204.5" x2="878.5" y2="156.5"></line>
        <line x1="527.5" y1="477.5" x2="386.5" y2="391.5"></line>
        <line x1="386.5" y1="862.5" x2="483.5" y2="1020.5"></line>
        <line x1="1149.5" y1="863.5" x2="1240.5" y2="735.5"></line>
        <line x1="1149.5" y1="862.5" x2="978.5" y2="979.5"></line>
        <line x1="1149.5" y1="862.5" x2="1185.5" y2="884.5"></line>
        <line x1="768" y1="373.5" x2="768" y2="205.5"></line>
        <line x1="483.5" y1="1020.5" x2="350.5" y2="884.5"></line>
        <line x1="768.5" y1="879.5" x2="557.5" y2="979.5"></line>
        <line x1="1240" y1="519.5" x2="1240" y2="735.5"></line>
        <line x1="557.5" y1="274.5" x2="768.5" y2="205.5"></line>
        <line x1="659.5" y1="1097.5" x2="768.5" y2="1049.5"></line>
        <line x1="769.5" y1="1049.5" x2="878.5" y2="1097.5"></line>
        <line x1="1190.5" y1="626.5" x2="1009.5" y2="478.5"></line>
        <line x1="386.5" y1="391.5" x2="557.5" y2="274.5"></line>
        <line x1="1240.5" y1="519.5" x2="1190.5" y2="627.5"></line>
        <line x1="768.5" y1="205.5" x2="557.5" y2="274.5"></line>
        <line x1="659.5" y1="1097.5" x2="768.5" y2="1049.5"></line>
        <line x1="386.5" y1="862.5" x2="527.5" y2="776.5"></line>
        <line x1="768" y1="373.5" x2="768" y2="205.5"></line>
        <line x1="1052.5" y1="233.5" x2="1149.5" y2="391.5"></line>
        <line x1="1190.5" y1="627.5" x2="1009.5" y2="775.5"></line>
        <line x1="386.5" y1="391.5" x2="527.5" y2="477.5"></line>
        <line x1="279.5" y1="627.5" x2="295.5" y2="519.5"></line>
        <line x1="1009" y1="775.5" x2="1009" y2="478.5"></line>
        <line x1="768.5" y1="373.5" x2="528.5" y2="478.5"></line>
        <line x1="979.5" y1="979.5" x2="1008.5" y2="775.5"></line>
        <line x1="1149.5" y1="862.5" x2="1008.5" y2="776.5"></line>
        <line x1="1052.5" y1="233.5" x2="876.5" y2="155.5"></line>
        <line x1="1185.5" y1="369.5" x2="1240.5" y2="519.5"></line>
        <line x1="980.5" y1="273.5" x2="877.5" y2="156.5"></line>
        <line x1="556.5" y1="979.5" x2="483.5" y2="1020.5"></line>
        <line x1="483.5" y1="1020.5" x2="659.5" y2="1098.5"></line>
        <line x1="295.5" y1="736.5" x2="345.5" y2="628.5"></line>
        <line x1="1240.5" y1="734.5" x2="1185.5" y2="884.5"></line>
        <line x1="768" y1="880.5" x2="768" y2="1048.5"></line>
        <line x1="345.5" y1="628.5" x2="295.5" y2="736.5"></line>
        <line x1="528.5" y1="478.5" x2="768.5" y2="626.5"></line>
        <line x1="345.5" y1="627.5" x2="526.5" y2="775.5"></line>
        <line x1="1051.5" y1="1020.5" x2="940.5" y2="1080.5"></line>
        <line x1="878.5" y1="1097.5" x2="769.5" y2="1049.5"></line>
        <line x1="386.5" y1="862.5" x2="527.5" y2="776.5"></line>
        <line x1="979.5" y1="274.5" x2="768.5" y2="374.5"></line>
        <line x1="1240.5" y1="519.5" x2="1256.5" y2="627.5"></line>
        <line x1="768.5" y1="374.5" x2="557.5" y2="274.5"></line>
        <line x1="980.5" y1="980.5" x2="877.5" y2="1097.5"></line>
        <line x1="386.5" y1="391.5" x2="295.5" y2="519.5"></line>
        <line x1="659.5" y1="156" x2="877.5" y2="156"></line>
        <line x1="527.5" y1="775.5" x2="556.5" y2="979.5"></line>
        <line x1="386.5" y1="391.5" x2="527.5" y2="477.5"></line>
        <line x1="979.5" y1="274.5" x2="1052.5" y2="233.5"></line>
        <line x1="527.5" y1="477.5" x2="386.5" y2="391.5"></line>
        <line x1="527.5" y1="478.5" x2="556.5" y2="274.5"></line>
        <line x1="386.5" y1="391.5" x2="483.5" y2="233.5"></line>
        <line x1="386.5" y1="862.5" x2="345.5" y2="625.5"></line>
        <line x1="1149.5" y1="863.5" x2="1240.5" y2="735.5"></line>
        <line x1="528.5" y1="775.5" x2="768.5" y2="880.5"></line>
        <line x1="528.5" y1="478.5" x2="768.5" y2="626.5"></line>
        <line x1="557.5" y1="274.5" x2="768.5" y2="374.5"></line>
        <line x1="769.5" y1="373.5" x2="1009.5" y2="478.5"></line>
        <line x1="1052.5" y1="233.5" x2="876.5" y2="155.5"></line>
        <line x1="768" y1="626.5" x2="768" y2="880.5"></line>
        <line x1="659.5" y1="156" x2="877.5" y2="156"></line>
        <line x1="1008.5" y1="775.5" x2="979.5" y2="979.5"></line>
        <line x1="1185.5" y1="369.5" x2="1149.5" y2="391.5"></line>
        <line x1="876.5" y1="1098.5" x2="1052.5" y2="1020.5"></line>
        <line x1="527.5" y1="776.5" x2="386.5" y2="862.5"></line>
        <line x1="1240.5" y1="519.5" x2="1256.5" y2="627.5"></line>
        <line x1="594.5" y1="1080.5" x2="483.5" y2="1020.5"></line>
        <line x1="386.5" y1="862.5" x2="350.5" y2="884.5"></line>
        <line x1="659.5" y1="1097.5" x2="556.5" y2="980.5"></line>
        <line x1="1051.5" y1="1020.5" x2="940.5" y2="1080.5"></line>
        <line x1="979.5" y1="274.5" x2="768.5" y2="374.5"></line>
        <line x1="769.5" y1="627.5" x2="1009.5" y2="775.5"></line>
        <line x1="483.5" y1="1020.5" x2="556.5" y2="979.5"></line>
        <line x1="978.5" y1="274.5" x2="1149.5" y2="391.5"></line>
        <line x1="556.5" y1="274.5" x2="527.5" y2="478.5"></line>
        <line x1="769.5" y1="627.5" x2="1009.5" y2="775.5"></line>
        <line x1="295.5" y1="519.5" x2="350.5" y2="369.5"></line>
        <line x1="483.5" y1="233.5" x2="659.5" y2="155.5"></line>
        <line x1="1009.5" y1="775.5" x2="769.5" y2="627.5"></line>
        <line x1="942.5" y1="1080.5" x2="877.5" y2="1096.5"></line>
        <line x1="878.5" y1="1097.5" x2="769.5" y2="1049.5"></line>
        <line x1="980.5" y1="980.5" x2="877.5" y2="1097.5"></line>
        <line x1="345.5" y1="628.5" x2="386.5" y2="391.5"></line>
        <line x1="350.5" y1="369.5" x2="483.5" y2="233.5"></line>
        <line x1="1051.5" y1="1020.5" x2="940.5" y2="1080.5"></line>
        <line x1="1240.5" y1="519.5" x2="1256.5" y2="627.5"></line>
        <line x1="345.5" y1="628.5" x2="386.5" y2="391.5"></line>
        <line x1="979.5" y1="979.5" x2="768.5" y2="879.5"></line>
        <line x1="386.5" y1="862.5" x2="350.5" y2="884.5"></line>
        <line x1="659.5" y1="156" x2="877.5" y2="156"></line>
        <line x1="659.5" y1="1098" x2="877.5" y2="1098"></line>
        <line x1="350.5" y1="884.5" x2="386.5" y2="862.5"></line>
        <line x1="1185.5" y1="369.5" x2="1240.5" y2="519.5"></line>
        <line x1="876.5" y1="1098.5" x2="1052.5" y2="1020.5"></line>
        <line x1="769.5" y1="373.5" x2="1009.5" y2="478.5"></line>
        <line x1="557.5" y1="979.5" x2="386.5" y2="862.5"></line>
        <line x1="526.5" y1="775.5" x2="345.5" y2="627.5"></line>
        <line x1="659.5" y1="156.5" x2="556.5" y2="273.5"></line>
        <line x1="659.5" y1="156.5" x2="768.5" y2="204.5"></line>
        <line x1="557.5" y1="979.5" x2="386.5" y2="862.5"></line>
        <line x1="350.5" y1="884.5" x2="386.5" y2="862.5"></line>
        <line x1="768.5" y1="374.5" x2="979.5" y2="274.5"></line>
        <line x1="350.5" y1="884.5" x2="386.5" y2="862.5"></line>
        <line x1="1052.5" y1="233.5" x2="979.5" y2="274.5"></line>
        <line x1="1009.5" y1="775.5" x2="769.5" y2="627.5"></line>
        <line x1="659.5" y1="156.5" x2="768.5" y2="204.5"></line>
        <line x1="659.5" y1="1097.5" x2="768.5" y2="1049.5"></line>
        <line x1="659.5" y1="1097.5" x2="556.5" y2="980.5"></line>
        <line x1="1185.5" y1="369.5" x2="1240.5" y2="519.5"></line>
        <line x1="877.5" y1="1097.5" x2="980.5" y2="980.5"></line>
        <line x1="386.5" y1="391.5" x2="350.5" y2="369.5"></line>
        <line x1="1149.5" y1="862.5" x2="978.5" y2="979.5"></line>
        <line x1="345.5" y1="628.5" x2="295.5" y2="736.5"></line>
        <line x1="345.5" y1="628.5" x2="295.5" y2="736.5"></line>
        <line x1="483.5" y1="233.5" x2="556.5" y2="274.5"></line>
        <line x1="296" y1="519.5" x2="296" y2="735.5"></line>
        <line x1="1240" y1="735.5" x2="1240" y2="519.5"></line>
        <line x1="659.5" y1="1098.5" x2="483.5" y2="1020.5"></line>
        <line x1="528.5" y1="478.5" x2="768.5" y2="373.5"></line>
        <line x1="527.5" y1="776.5" x2="386.5" y2="862.5"></line>
        <line x1="528.5" y1="478.5" x2="768.5" y2="626.5"></line>
        <line x1="1185.5" y1="369.5" x2="1149.5" y2="391.5"></line>
        <line x1="483.5" y1="1020.5" x2="386.5" y2="862.5"></line>
        <line x1="1149.5" y1="391.5" x2="1185.5" y2="369.5"></line>
        <line x1="1189.5" y1="628.5" x2="1148.5" y2="391.5"></line>
        <line x1="279.5" y1="627.5" x2="295.5" y2="519.5"></line>
        <line x1="528.5" y1="478.5" x2="768.5" y2="626.5"></line>
        <line x1="768" y1="880.5" x2="768" y2="626.5"></line>
        <line x1="978.5" y1="274.5" x2="1149.5" y2="391.5"></line>
        <line x1="768.5" y1="1048.5" x2="557.5" y2="979.5"></line>
        <line x1="279.5" y1="627.5" x2="295.5" y2="519.5"></line>
        <line x1="768" y1="880.5" x2="768" y2="626.5"></line>
        <line x1="526.5" y1="478.5" x2="345.5" y2="626.5"></line>
        <line x1="769.5" y1="373.5" x2="1009.5" y2="478.5"></line>
        <line x1="295.5" y1="736.5" x2="345.5" y2="628.5"></line>
        <line x1="528.5" y1="775.5" x2="768.5" y2="880.5"></line>
        <line x1="1185.5" y1="884.5" x2="1149.5" y2="862.5"></line>
        <line x1="878.5" y1="156.5" x2="769.5" y2="204.5"></line>
        <line x1="1240" y1="519.5" x2="1240" y2="735.5"></line>
        <line x1="659.5" y1="155.5" x2="768.5" y2="139.5"></line>
        <line x1="345.5" y1="627.5" x2="526.5" y2="775.5"></line>
        <line x1="345.5" y1="627.5" x2="526.5" y2="775.5"></line>
        <line x1="768" y1="627.5" x2="768" y2="373.5"></line>
        <line x1="350.5" y1="884.5" x2="295.5" y2="734.5"></line>
        <line x1="979.5" y1="979.5" x2="1052.5" y2="1020.5"></line>
        <line x1="659.5" y1="156.5" x2="768.5" y2="204.5"></line>
        <line x1="296" y1="519.5" x2="296" y2="735.5"></line>
        <line x1="527.5" y1="775.5" x2="556.5" y2="979.5"></line>
        <line x1="594.5" y1="173.5" x2="659.5" y2="157.5"></line>
        <line x1="528.5" y1="478.5" x2="768.5" y2="373.5"></line>
        <line x1="1190.5" y1="627.5" x2="1240.5" y2="519.5"></line>
        <line x1="769.5" y1="1049.5" x2="878.5" y2="1097.5"></line>
        <line x1="527.5" y1="477.5" x2="386.5" y2="391.5"></line>
        <line x1="527.5" y1="775.5" x2="556.5" y2="979.5"></line>
        <line x1="659.5" y1="155.5" x2="483.5" y2="233.5"></line>
        <line x1="1008.5" y1="775.5" x2="979.5" y2="979.5"></line>
        <line x1="483.5" y1="233.5" x2="556.5" y2="274.5"></line>
        <line x1="1240.5" y1="519.5" x2="1190.5" y2="627.5"></line>
        <line x1="979.5" y1="979.5" x2="1052.5" y2="1020.5"></line>
        <line x1="768" y1="1048.5" x2="768" y2="880.5"></line>
        <line x1="1052.5" y1="1020.5" x2="1149.5" y2="862.5"></line>
        <line x1="1185.5" y1="884.5" x2="1052.5" y2="1020.5"></line>
        <line x1="1052.5" y1="233.5" x2="979.5" y2="274.5"></line>
        <line x1="979.5" y1="274.5" x2="1008.5" y2="478.5"></line>
        <line x1="1149.5" y1="391.5" x2="978.5" y2="274.5"></line>
        <line x1="295.5" y1="519.5" x2="350.5" y2="369.5"></line>
        <line x1="942.5" y1="1080.5" x2="877.5" y2="1096.5"></line>
        <line x1="557.5" y1="979.5" x2="768.5" y2="1048.5"></line>
        <line x1="350.5" y1="884.5" x2="295.5" y2="734.5"></line>
        <line x1="659.5" y1="156.5" x2="768.5" y2="204.5"></line>
        <line x1="1009.5" y1="478.5" x2="769.5" y2="373.5"></line>
        <line x1="768.5" y1="373.5" x2="528.5" y2="478.5"></line>
        <line x1="386.5" y1="391.5" x2="295.5" y2="519.5"></line>
        <line x1="1052.5" y1="233.5" x2="979.5" y2="274.5"></line>
        <line x1="877.5" y1="1097.5" x2="980.5" y2="980.5"></line>
        <line x1="659.5" y1="156" x2="877.5" y2="156"></line>
        <line x1="769.5" y1="627.5" x2="1009.5" y2="775.5"></line>
        <line x1="1052.5" y1="233.5" x2="1149.5" y2="391.5"></line>
        <line x1="659.5" y1="156" x2="877.5" y2="156"></line>
        <line x1="659.5" y1="1098.5" x2="483.5" y2="1020.5"></line>
        <line x1="483.5" y1="1020.5" x2="350.5" y2="884.5"></line>
        <line x1="769.5" y1="139.5" x2="878.5" y2="155.5"></line>
        <line x1="980.5" y1="980.5" x2="877.5" y2="1097.5"></line>
        <line x1="769.5" y1="204.5" x2="878.5" y2="156.5"></line>
        <line x1="769.5" y1="880.5" x2="1009.5" y2="775.5"></line>
        <line x1="557.5" y1="274.5" x2="768.5" y2="374.5"></line>
        <line x1="768" y1="373.5" x2="768" y2="205.5"></line>
        <line x1="1009.5" y1="775.5" x2="769.5" y2="627.5"></line>
        <line x1="769.5" y1="627.5" x2="1009.5" y2="775.5"></line>
        <line x1="1149.5" y1="391.5" x2="1240.5" y2="519.5"></line>
        <line x1="527" y1="775.5" x2="527" y2="478.5"></line>
        <line x1="769.5" y1="880.5" x2="1009.5" y2="775.5"></line>
        <line x1="594.5" y1="1080.5" x2="483.5" y2="1020.5"></line>
        <line x1="1240.5" y1="519.5" x2="1149.5" y2="391.5"></line>
        <line x1="1185.5" y1="369.5" x2="1240.5" y2="519.5"></line>
        <line x1="768.5" y1="880.5" x2="528.5" y2="775.5"></line>
        <line x1="1052.5" y1="233.5" x2="1149.5" y2="391.5"></line>
        <line x1="1149.5" y1="391.5" x2="1240.5" y2="519.5"></line>
        <line x1="386.5" y1="391.5" x2="345.5" y2="628.5"></line>
        <line x1="768" y1="880.5" x2="768" y2="1048.5"></line>
        <line x1="386.5" y1="862.5" x2="345.5" y2="625.5"></line>
        <line x1="768.5" y1="205.5" x2="557.5" y2="274.5"></line>
        <line x1="594.5" y1="1080.5" x2="483.5" y2="1020.5"></line>
        <line x1="940.5" y1="173.5" x2="1051.5" y2="233.5"></line>
        <line x1="1009.5" y1="775.5" x2="769.5" y2="880.5"></line>
        <line x1="386.5" y1="391.5" x2="557.5" y2="274.5"></line>
        <line x1="979.5" y1="274.5" x2="768.5" y2="205.5"></line>
        <line x1="1149.5" y1="391.5" x2="1008.5" y2="477.5"></line>
        <line x1="386.5" y1="391.5" x2="345.5" y2="628.5"></line>
        <line x1="659.5" y1="1098.5" x2="483.5" y2="1020.5"></line>
        <line x1="345.5" y1="625.5" x2="386.5" y2="862.5"></line>
        <line x1="1240.5" y1="734.5" x2="1185.5" y2="884.5"></line>
        <line x1="386.5" y1="862.5" x2="345.5" y2="625.5"></line>
        <line x1="386.5" y1="391.5" x2="483.5" y2="233.5"></line>
        <line x1="556.5" y1="274.5" x2="483.5" y2="233.5"></line>
        <line x1="769.5" y1="373.5" x2="1009.5" y2="478.5"></line>
        <line x1="769.5" y1="204.5" x2="878.5" y2="156.5"></line>
        <line x1="483.5" y1="233.5" x2="594.5" y2="173.5"></line>
        <line x1="659.5" y1="1096.5" x2="594.5" y2="1080.5"></line>
        <line x1="527" y1="775.5" x2="527" y2="478.5"></line>
        <line x1="594.5" y1="1080.5" x2="483.5" y2="1020.5"></line>
        <line x1="769.5" y1="626.5" x2="1009.5" y2="478.5"></line>
        <line x1="386.5" y1="391.5" x2="527.5" y2="477.5"></line>
        <line x1="1240" y1="735.5" x2="1240" y2="519.5"></line>
        <line x1="1052.5" y1="1020.5" x2="876.5" y2="1098.5"></line>
        <line x1="345.5" y1="627.5" x2="526.5" y2="775.5"></line>
        <line x1="557.5" y1="979.5" x2="768.5" y2="1048.5"></line>
    </g>
</svg>