<?xml version='1.0' encoding='UTF-8'?>
<svg xmlns="http://www.w3.org/2000/svg" xmlns:xlink="http://www.w3.org/1999/xlink" viewBox="0 0 2577 1253" version="1.1">
    <g id="dissolve" stroke="none" stroke-width="1" fill="none" fill-rule="evenodd">
        <rect id="Rectangle" stroke="#979797" fill-opacity="0" fill="#D8D8D8" fill-rule="nonzero" x="2399.01921" y="0.5" width="2576" height="1252"/>
        <line x1="215.844061" y1="871.5" x2="181.01921" y2="877.84002"/><line x1="181.01921" y1="877.84002" x2="181.01921" y2="882.316844"/><line x1="181.01921" y1="882.316844" x2="215.844061" y2="887.5"/><line x1="215.844061" y1="887.5" x2="237.291516" y2="886.296319"/><line x1="237.291516" y1="886.296319" x2="259.584147" y2="887.5"/><line x1="259.584147" y1="887.5" x2="291.01921" y2="881.385925"/><line x1="291.01921" y1="881.385925" x2="291.01921" y2="877.84002"/><line x1="291.01921" y1="877.84002" x2="259.584147" y2="871.5"/><line x1="260.01921" y1="871.887767" x2="283.241266" y2="870.823044"/><line x1="283.241266" y1="870.823044" x2="294.852295" y2="870.290682"/><line x1="294.852295" y1="870.290682" x2="294.852295" y2="870.290682"/><line x1="294.852295" y1="870.290682" x2="315.910976" y2="872.430227"/><line x1="315.910976" y1="872.430227" x2="326.440316" y2="873.5"/><line x1="326.440316" y1="873.5" x2="326.440316" y2="873.5"/><line x1="326.440316" y1="873.5" x2="322.816434" y2="864.654674"/><line x1="322.816434" y1="864.654674" x2="321.004493" y2="860.23201"/><line x1="321.004493" y1="860.23201" x2="321.004493" y2="860.23201"/><line x1="321.004493" y1="860.23201" x2="358.01921" y2="850.5"/><line x1="215.01921" y1="871.807062" x2="185.687455" y2="871.295502"/><line x1="185.687455" y1="871.295502" x2="171.021577" y2="871.039723"/><line x1="171.021577" y1="871.039723" x2="171.021577" y2="871.039723"/><line x1="171.021577" y1="871.039723" x2="149.012131" y2="872.679908"/><line x1="149.012131" y1="872.679908" x2="138.007408" y2="873.5"/><line x1="138.007408" y1="873.5" x2="138.007408" y2="873.5"/><line x1="138.007408" y1="873.5" x2="129.783098" y2="870.350778"/><line x1="129.783098" y1="870.350778" x2="125.670942" y2="868.776166"/><line x1="125.670942" y1="868.776166" x2="125.670942" y2="868.776166"/><line x1="125.670942" y1="868.776166" x2="131.984953" y2="864.611391"/><line x1="131.984953" y1="864.611391" x2="135.141959" y2="862.529004"/><line x1="135.141959" y1="862.529004" x2="135.141959" y2="862.529004"/><line x1="135.141959" y1="862.529004" x2="88.0192097" y2="852.5"/><line x1="216.51269" y1="887.5" x2="217.026725" y2="888.480374"/><line x1="217.026725" y1="888.480374" x2="217.283743" y2="888.970561"/><line x1="217.283743" y1="888.970561" x2="217.283743" y2="888.970561"/><line x1="217.283743" y1="888.970561" x2="207.802979" y2="889.347962"/><line x1="207.802979" y1="889.347962" x2="203.062597" y2="889.536662"/><line x1="203.062597" y1="889.536662" x2="203.062597" y2="889.536662"/><line x1="203.062597" y1="889.536662" x2="199.570805" y2="890.988137"/><line x1="199.570805" y1="890.988137" x2="197.824908" y2="891.713874"/><line x1="197.824908" y1="891.713874" x2="197.824908" y2="891.713874"/><line x1="197.824908" y1="891.713874" x2="202.950057" y2="895.9143"/><line x1="202.950057" y1="895.9143" x2="205.512631" y2="898.014513"/><line x1="205.512631" y1="898.014513" x2="205.512631" y2="898.014513"/><line x1="205.512631" y1="898.014513" x2="201.248264" y2="899.234342"/><line x1="201.248264" y1="899.234342" x2="199.116081" y2="899.844256"/><line x1="199.116081" y1="899.844256" x2="199.116081" y2="899.844256"/><line x1="199.116081" y1="899.844256" x2="202.869453" y2="900.769972"/><line x1="202.869453" y1="900.769972" x2="204.74614" y2="901.23283"/><line x1="204.74614" y1="901.23283" x2="204.74614" y2="901.23283"/><line x1="204.74614" y1="901.23283" x2="207.164237" y2="903.236958"/><line x1="207.164237" y1="903.236958" x2="208.373285" y2="904.239022"/><line x1="208.373285" y1="904.239022" x2="208.373285" y2="904.239022"/><line x1="208.373285" y1="904.239022" x2="201.617822" y2="905.048048"/><line x1="201.617822" y1="905.048048" x2="198.240091" y2="905.452561"/><line x1="198.240091" y1="905.452561" x2="198.240091" y2="905.452561"/><line x1="198.240091" y1="905.452561" x2="206.072291" y2="906.329258"/><line x1="206.072291" y1="906.329258" x2="209.988391" y2="906.767607"/><line x1="209.988391" y1="906.767607" x2="209.988391" y2="906.767607"/><line x1="209.988391" y1="906.767607" x2="206.794678" y2="908.857192"/><line x1="206.794678" y1="908.857192" x2="205.197822" y2="909.901985"/><line x1="205.197822" y1="909.901985" x2="205.197822" y2="909.901985"/><line x1="205.197822" y1="909.901985" x2="207.184007" y2="912.406711"/><line x1="207.184007" y1="912.406711" x2="208.1771" y2="913.659074"/><line x1="208.1771" y1="913.659074" x2="208.1771" y2="913.659074"/><line x1="208.1771" y1="913.659074" x2="213.478663" y2="912.374176"/><line x1="213.478663" y1="912.374176" x2="216.129444" y2="911.731727"/><line x1="216.129444" y1="911.731727" x2="216.129444" y2="911.731727"/><line x1="216.129444" y1="911.731727" x2="218.860829" y2="912.481323"/><line x1="218.860829" y1="912.481323" x2="220.226521" y2="912.856121"/><line x1="220.226521" y1="912.856121" x2="220.226521" y2="912.856121"/><line x1="220.226521" y1="912.856121" x2="213.738722" y2="914.647256"/><line x1="213.738722" y1="914.647256" x2="210.494823" y2="915.542824"/><line x1="210.494823" y1="915.542824" x2="210.494823" y2="915.542824"/><line x1="210.494823" y1="915.542824" x2="207.291985" y2="918.342529"/><line x1="207.291985" y1="918.342529" x2="205.690566" y2="919.742382"/><line x1="205.690566" y1="919.742382" x2="205.690566" y2="919.742382"/><line x1="205.690566" y1="919.742382" x2="210.487219" y2="922.018499"/><line x1="210.487219" y1="922.018499" x2="212.885545" y2="923.156557"/><line x1="212.885545" y1="923.156557" x2="212.885545" y2="923.156557"/><line x1="212.885545" y1="923.156557" x2="188.771493" y2="926.655539"/><line x1="188.771493" y1="926.655539" x2="176.714468" y2="928.40503"/><line x1="176.714468" y1="928.40503" x2="176.714468" y2="928.40503"/><line x1="176.714468" y1="928.40503" x2="162.917629" y2="934.052592"/><line x1="162.917629" y1="934.052592" x2="156.01921" y2="936.876374"/><line x1="156.01921" y1="936.876374" x2="156.01921" y2="936.876374"/><line x1="156.01921" y1="936.876374" x2="169.901214" y2="942.763391"/><line x1="169.901214" y1="942.763391" x2="176.842216" y2="945.706899"/><line x1="176.842216" y1="945.706899" x2="176.842216" y2="945.706899"/><line x1="176.842216" y1="945.706899" x2="213.56687" y2="949.568966"/><line x1="213.56687" y1="949.568966" x2="231.929197" y2="951.5"/><line x1="231.929197" y1="951.5" x2="231.929197" y2="951.5"/><line x1="231.929197" y1="951.5" x2="262.716587" y2="948.639997"/><line x1="262.716587" y1="948.639997" x2="278.110282" y2="947.209995"/><line x1="278.110282" y1="947.209995" x2="278.110282" y2="947.209995"/><line x1="278.110282" y1="947.209995" x2="295.888616" y2="942.840389"/><line x1="295.888616" y1="942.840389" x2="304.777783" y2="940.655586"/><line x1="304.777783" y1="940.655586" x2="304.777783" y2="940.655586"/><line x1="304.777783" y1="940.655586" x2="308.938734" y2="936.913246"/><line x1="308.938734" y1="936.913246" x2="311.01921" y2="935.042076"/><line x1="311.01921" y1="935.042076" x2="311.01921" y2="935.042076"/><line x1="311.01921" y1="935.042076" x2="300.038921" y2="930.507629"/><line x1="300.038921" y1="930.507629" x2="294.548777" y2="928.240405"/><line x1="294.548777" y1="928.240405" x2="294.548777" y2="928.240405"/><line x1="294.548777" y1="928.240405" x2="269.34278" y2="924.681126"/><line x1="269.34278" y1="924.681126" x2="256.739782" y2="922.901486"/><line x1="256.739782" y1="922.901486" x2="256.739782" y2="922.901486"/><line x1="256.739782" y1="922.901486" x2="258.409637" y2="921.14332"/><line x1="258.409637" y1="921.14332" x2="259.244565" y2="920.264236"/><line x1="259.244565" y1="920.264236" x2="259.244565" y2="920.264236"/><line x1="259.244565" y1="920.264236" x2="247.093249" y2="914.942019"/><line x1="247.093249" y1="914.942019" x2="241.017591" y2="912.28091"/><line x1="241.017591" y1="912.28091" x2="241.017591" y2="912.28091"/><line x1="241.017591" y1="912.28091" x2="252.146919" y2="912.899067"/><line x1="252.146919" y1="912.899067" x2="257.711583" y2="913.208145"/><line x1="257.711583" y1="913.208145" x2="257.711583" y2="913.208145"/><line x1="257.711583" y1="913.208145" x2="255.09578" y2="909.355357"/><line x1="255.09578" y1="909.355357" x2="253.787879" y2="907.428963"/><line x1="253.787879" y1="907.428963" x2="253.787879" y2="907.428963"/><line x1="253.787879" y1="907.428963" x2="257.42567" y2="906.50568"/><line x1="257.42567" y1="906.50568" x2="259.244565" y2="906.044039"/><line x1="259.244565" y1="906.044039" x2="259.244565" y2="906.044039"/><line x1="259.244565" y1="906.044039" x2="259.406204" y2="905.078031"/><line x1="259.406204" y1="905.078031" x2="259.52022" y2="904.39663"/><line x1="259.52022" y1="904.39663" x2="259.586615" y2="903.999835"/><line x1="259.586615" y1="903.999835" x2="259.930408" y2="901.945209"/><line x1="259.930408" y1="901.945209" x2="260.102305" y2="900.917896"/><line x1="260.102305" y1="900.917896" x2="260.102305" y2="900.917896"/><line x1="260.102305" y1="900.917896" x2="265.972653" y2="899.659026"/><line x1="265.972653" y1="899.659026" x2="268.907827" y2="899.029591"/><line x1="268.907827" y1="899.029591" x2="268.907827" y2="899.029591"/><line x1="268.907827" y1="899.029591" x2="262.693775" y2="897.988486"/><line x1="262.693775" y1="897.988486" x2="259.586749" y2="897.467933"/><line x1="259.586749" y1="897.467933" x2="259.586749" y2="897.467933"/><line x1="259.586749" y1="897.467933" x2="267.315533" y2="894.49818"/><line x1="267.315533" y1="894.49818" x2="271.179926" y2="893.013304"/><line x1="271.179926" y1="893.013304" x2="271.179926" y2="893.013304"/><line x1="271.179926" y1="893.013304" x2="268.691871" y2="890.85301"/><line x1="268.691871" y1="890.85301" x2="267.447844" y2="889.772863"/><line x1="267.447844" y1="889.772863" x2="267.447844" y2="889.772863"/><line x1="267.447844" y1="889.772863" x2="253.559757" y2="889.435155"/><line x1="253.559757" y1="889.435155" x2="260.430801" y2="887.5"/><line x1="52.0192097" y1="880.5" x2="88.9176367" y2="883.927694"/><line x1="88.9176367" y1="883.927694" x2="107.36685" y2="885.641541"/><line x1="107.36685" y1="885.641541" x2="107.36685" y2="885.641541"/><line x1="107.36685" y1="885.641541" x2="151.221888" y2="892.493515"/><line x1="151.221888" y1="892.493515" x2="199.01921" y2="901.5"/><line x1="0.019209673" y1="910.5" x2="44.5751499" y2="908.786925"/><line x1="44.5751499" y1="908.786925" x2="64.1716605" y2="906.645476"/><line x1="64.1716605" y1="906.645476" x2="73.9699158" y2="905.574752"/><line x1="73.9699158" y1="905.574752" x2="73.9699158" y2="905.574752"/><line x1="73.9699158" y1="905.574752" x2="129.98127" y2="903.5"/><line x1="129.98127" y1="903.5" x2="198.01921" y2="906.42624"/><line x1="17.0192097" y1="940.5" x2="42.7709455" y2="937.502386"/><line x1="42.7709455" y1="937.502386" x2="55.6468134" y2="936.003578"/><line x1="55.6468134" y1="936.003578" x2="55.6468134" y2="936.003578"/><line x1="55.6468134" y1="936.003578" x2="73.1072706" y2="930.462915"/><line x1="73.1072706" y1="930.462915" x2="81.8374993" y2="927.692583"/><line x1="81.8374993" y1="927.692583" x2="81.8374993" y2="927.692583"/><line x1="81.8374993" y1="927.692583" x2="119.646644" y2="919.809044"/><line x1="119.646644" y1="919.809044" x2="206.01921" y2="912.5"/><line x1="472.01921" y1="937.5" x2="443.279634" y2="932.791482"/><line x1="443.279634" y1="932.791482" x2="425.611063" y2="925.965181"/><line x1="425.611063" y1="925.965181" x2="416.776778" y2="922.55203"/><line x1="416.776778" y1="922.55203" x2="416.776778" y2="922.55203"/><line x1="416.776778" y1="922.55203" x2="378.86817" y2="918.115461"/><line x1="378.86817" y1="918.115461" x2="359.913865" y2="915.897176"/><line x1="359.913865" y1="915.897176" x2="359.913865" y2="915.897176"/><line x1="359.913865" y1="915.897176" x2="275.489078" y2="910.160639"/><line x1="275.489078" y1="910.160639" x2="256.01921" y2="909.5"/><line x1="460.01921" y1="907.5" x2="435.592657" y2="907.255279"/><line x1="435.592657" y1="907.255279" x2="423.379381" y2="907.132918"/><line x1="423.379381" y1="907.132918" x2="423.379381" y2="907.132918"/><line x1="423.379381" y1="907.132918" x2="402.404539" y2="904.305265"/><line x1="402.404539" y1="904.305265" x2="391.917118" y2="902.891439"/><line x1="391.917118" y1="902.891439" x2="391.917118" y2="902.891439"/><line x1="391.917118" y1="902.891439" x2="339.749155" y2="900.5"/><line x1="339.749155" y1="900.5" x2="260.01921" y2="905.153112"/><line x1="402.01921" y1="875.5" x2="357.101232" y2="881.749751"/><line x1="357.101232" y1="881.749751" x2="309.939627" y2="888.977605"/><line x1="309.939627" y1="888.977605" x2="268.01921" y2="898.5"/><line x1="765.1940494634136" y1="651.7778888599477" x2="740.4641253988818" y2="626.4520717259488"/><line x1="740.4641253988818" y1="626.4520717259488" x2="736.752669268128" y2="628.9554804960292"/><line x1="736.752669268128" y1="628.9554804960292" x2="751.9294483025329" y2="660.7249753154797"/><line x1="751.9294483025329" y1="660.7249753154797" x2="764.9206097104119" y2="677.8326314729206"/><line x1="764.9206097104119" y1="677.8326314729206" x2="776.3885939909331" y2="696.9871500362683"/><line x1="776.3885939909331" y1="696.9871500362683" x2="799.0356554779154" y2="719.6290501785777"/><line x1="799.0356554779154" y1="719.6290501785777" x2="801.9753447806638" y2="717.6462047070033"/><line x1="801.9753447806638" y1="717.6462047070033" x2="789.6531951518139" y2="688.0400635807364"/><line x1="789.5749767522175" y1="688.6175036176176" x2="803.443281601974" y2="707.2740758368702"/><line x1="803.443281601974" y1="707.2740758368702" x2="810.3774341617745" y2="716.6023612523813"/><line x1="810.3774341617745" y1="716.6023612523813" x2="810.3774341617745" y2="716.6023612523813"/><line x1="810.3774341617745" y1="716.6023612523813" x2="820.3795359402566" y2="735.2572174104887"/><line x1="820.3795359402566" y1="735.2572174104887" x2="825.3805866945752" y2="744.5846461836577"/><line x1="825.3805866945752" y1="744.5846461836577" x2="825.3805866945752" y2="744.5846461836577"/><line x1="825.3805866945752" y1="744.5846461836577" x2="830.6872454625025" y2="736.6340669308358"/><line x1="830.6872454625025" y1="736.6340669308358" x2="833.340574711544" y2="732.6587779985402"/><line x1="833.340574711544" y1="732.6587779985402" x2="833.340574711544" y2="732.6587779985402"/><line x1="833.340574711544" y1="732.6587779985402" x2="862.1071437284033" y2="757.9032982005258"/><line x1="764.478188903896" y1="651.2657603064977" x2="748.5001821221696" y2="626.6625726208189"/><line x1="748.5001821221696" y1="626.6625726208189" x2="740.5111790109027" y2="614.3609791924983"/><line x1="740.5111790109027" y1="614.3609791924983" x2="740.5111790109027" y2="614.3609791924983"/><line x1="740.5111790109027" y1="614.3609791924983" x2="726.8438780074391" y2="597.0315013197562"/><line x1="726.8438780074391" y1="597.0315013197562" x2="720.0102270911884" y2="588.3667626629816"/><line x1="720.0102270911884" y1="588.3667626629816" x2="720.0102270911884" y2="588.3667626629816"/><line x1="720.0102270911884" y1="588.3667626629816" x2="718.0220749354064" y2="579.7874766825571"/><line x1="718.0220749354064" y1="579.7874766825571" x2="717.0279987225931" y2="575.4978343864599"/><line x1="717.0279987225931" y1="575.4978343864599" x2="717.0279987225931" y2="575.4978343864599"/><line x1="717.0279987225931" y1="575.4978343864599" x2="724.0115038224673" y2="578.4034741144335"/><line x1="724.0115038224673" y1="578.4034741144335" x2="727.5032556782892" y2="579.856293843498"/><line x1="727.5032556782892" y1="579.856293843498" x2="727.5032556782892" y2="579.856293843498"/><line x1="727.5032556782892" y1="579.856293843498" x2="709.4669699767608" y2="535.1816165347377"/><line x1="752.3033156451402" y1="661.2792955799071" x2="751.7779940473126" y2="662.2536689211003"/><line x1="751.7779940473126" y1="662.2536689211003" x2="751.5153332483987" y2="662.7408555916968"/><line x1="751.5153332483987" y1="662.7408555916968" x2="751.5153332483987" y2="662.7408555916968"/><line x1="751.5153332483987" y1="662.7408555916968" x2="745.9008776911979" y2="655.0919859801324"/><line x1="745.9008776911979" y1="655.0919859801324" x2="743.0936503271166" y2="651.2675508947536"/><line x1="743.0936503271166" y1="651.2675508947536" x2="743.0936503271166" y2="651.2675508947536"/><line x1="743.0936503271166" y1="651.2675508947536" x2="739.9377371505032" y2="649.1843778217342"/><line x1="739.9377371505032" y1="649.1843778217342" x2="738.359781256312" y2="648.1427914201468"/><line x1="738.359781256312" y1="648.1427914201468" x2="738.359781256312" y2="648.1427914201468"/><line x1="738.359781256312" y1="648.1427914201468" x2="737.7434166724121" y2="654.7405800878062"/><line x1="737.7434166724121" y1="654.7405800878062" x2="737.4352349396552" y2="658.0394752506734"/><line x1="737.4352349396552" y1="658.0394752506734" x2="737.4352349396552" y2="658.0394752506734"/><line x1="737.4352349396552" y1="658.0394752506734" x2="734.039347102368" y2="655.1862745047574"/><line x1="734.039347102368" y1="655.1862745047574" x2="732.3414033186469" y2="653.7596734376841"/><line x1="732.3414033186469" y1="653.7596734376841" x2="732.3414033186469" y2="653.7596734376841"/><line x1="732.3414033186469" y1="653.7596734376841" x2="733.67280951881" y2="657.389014496327"/><line x1="733.67280951881" y1="657.389014496327" x2="734.3385128984883" y2="659.2036854401672"/><line x1="734.3385128984883" y1="659.2036854401672" x2="734.3385128984883" y2="659.2036854401672"/><line x1="734.3385128984883" y1="659.2036854401672" x2="734.0291976093898" y2="662.3290720334594"/><line x1="734.0291976093898" y1="662.3290720334594" x2="733.8745405240334" y2="663.891766159143"/><line x1="733.8745405240334" y1="663.891766159143" x2="733.8745405240334" y2="663.891766159143"/><line x1="733.8745405240334" y1="663.891766159143" x2="729.4262206036003" y2="658.743635110061"/><line x1="729.4262206036003" y1="658.743635110061" x2="727.2020617520178" y2="656.1695694408457"/><line x1="727.2020617520178" y1="656.1695694408457" x2="727.2020617520178" y2="656.1695694408457"/><line x1="727.2020617520178" y1="656.1695694408457" x2="730.8549568287974" y2="663.1530008166984"/><line x1="730.8549568287974" y1="663.1530008166984" x2="732.6814043671873" y2="666.6447165046246"/><line x1="732.6814043671873" y1="666.6447165046246" x2="732.6814043671873" y2="666.6447165046246"/><line x1="732.6814043671873" y1="666.6447165046246" x2="729.1631582458176" y2="665.1654895348661"/><line x1="729.1631582458176" y1="665.1654895348661" x2="727.4040358792481" y2="664.4258761849092"/><line x1="727.4040358792481" y1="664.4258761849092" x2="727.4040358792481" y2="664.4258761849092"/><line x1="727.4040358792481" y1="664.4258761849092" x2="726.4381844732726" y2="667.4731231802931"/><line x1="726.4381844732726" y1="667.4731231802931" x2="725.9552584906884" y2="668.9967462634662"/><line x1="725.9552584906884" y1="668.9967462634662" x2="725.9552584906884" y2="668.9967462634662"/><line x1="725.9552584906884" y1="668.9967462634662" x2="729.9850827874548" y2="672.673435899643"/><line x1="729.9850827874548" y1="672.673435899643" x2="731.9999956299532" y2="674.5117808526538"/><line x1="731.9999956299532" y1="674.5117808526538" x2="731.9999956299532" y2="674.5117808526538"/><line x1="731.9999956299532" y1="674.5117808526538" x2="732.9059234903626" y2="677.195370406437"/><line x1="732.9059234903626" y1="677.195370406437" x2="733.358887140971" y2="678.53716476881"/><line x1="733.358887140971" y1="678.53716476881" x2="733.358887140971" y2="678.53716476881"/><line x1="733.358887140971" y1="678.53716476881" x2="728.246037768508" y2="674.1601256157829"/><line x1="728.246037768508" y1="674.1601256157829" x2="725.6896132171986" y2="671.9716053451541"/><line x1="725.6896132171986" y1="671.9716053451541" x2="725.6896132171986" y2="671.9716053451541"/><line x1="725.6896132171986" y1="671.9716053451541" x2="721.5775480297175" y2="670.8819088603893"/><line x1="721.5775480297175" y1="670.8819088603893" x2="719.5215151563801" y2="670.3370602034879"/><line x1="719.5215151563801" y1="670.3370602034879" x2="719.5215151563801" y2="670.3370602034879"/><line x1="719.5215151563801" y1="670.3370602034879" x2="720.3167824026677" y2="675.5864534078283"/><line x1="720.3167824026677" y1="675.5864534078283" x2="720.7144164403302" y2="678.2111497304022"/><line x1="720.7144164403302" y1="678.2111497304022" x2="720.7144164403302" y2="678.2111497304022"/><line x1="720.7144164403302" y1="678.2111497304022" x2="704.329222703505" y2="660.1763013286655"/><line x1="704.329222703505" y1="660.1763013286655" x2="696.1366263845332" y2="651.1588761540854"/><line x1="696.1366263845332" y1="651.1588761540854" x2="696.1366263845332" y2="651.1588761540854"/><line x1="696.1366263845332" y1="651.1588761540854" x2="683.739490564226" y2="642.8788562211344"/><line x1="683.739490564226" y1="642.8788562211344" x2="677.5409216803607" y2="638.7388457052176"/><line x1="677.5409216803607" y1="638.7388457052176" x2="677.5409216803607" y2="638.7388457052176"/><line x1="677.5409216803607" y1="638.7388457052176" x2="680.4230820790359" y2="653.5395275616263"/><line x1="680.4230820790359" y1="653.5395275616263" x2="681.864162413296" y2="660.9398677957154"/><line x1="681.864162413296" y1="660.9398677957154" x2="681.864162413296" y2="660.9398677957154"/><line x1="681.864162413296" y1="660.9398677957154" x2="699.1985296617895" y2="693.5456262599278"/><line x1="699.1985296617895" y1="693.5456262599278" x2="707.8657128715176" y2="709.8485057716302"/><line x1="707.8657128715176" y1="709.8485057716302" x2="707.8657128715176" y2="709.8485057716302"/><line x1="707.8657128715176" y1="709.8485057716302" x2="727.452852820524" y2="733.7731154610306"/><line x1="727.452852820524" y1="733.7731154610306" x2="737.2464232095459" y2="745.7354200261343"/><line x1="737.2464232095459" y1="745.7354200261343" x2="737.2464232095459" y2="745.7354200261343"/><line x1="737.2464232095459" y1="745.7354200261343" x2="750.8105084099477" y2="758.0308733943664"/><line x1="750.8105084099477" y1="758.0308733943664" x2="757.592551289745" y2="764.178600493001"/><line x1="757.592551289745" y1="764.178600493001" x2="757.592551289745" y2="764.178600493001"/><line x1="757.592551289745" y1="764.178600493001" x2="763.0218665891032" y2="765.5354960682243"/><line x1="763.0218665891032" y1="765.5354960682243" x2="765.7365236795893" y2="766.2139430267986"/><line x1="765.7365236795893" y1="766.2139430267986" x2="765.7365236795893" y2="766.2139430267986"/><line x1="765.7365236795893" y1="766.2139430267986" x2="763.3556523147212" y2="754.5752405745662"/><line x1="763.3556523147212" y1="754.5752405745662" x2="762.1652158032497" y2="748.7558899076428"/><line x1="762.1652158032497" y1="748.7558899076428" x2="762.1652158032497" y2="748.7558899076428"/><line x1="762.1652158032497" y1="748.7558899076428" x2="751.0209771781507" y2="725.8688477826609"/><line x1="751.0209771781507" y1="725.8688477826609" x2="745.4488585597167" y2="714.425326855092"/><line x1="745.4488585597167" y1="714.425326855092" x2="745.4488585597167" y2="714.425326855092"/><line x1="745.4488585597167" y1="714.425326855092" x2="747.8402152983306" y2="714.8265454404873"/><line x1="747.8402152983306" y1="714.8265454404873" x2="749.0358947762716" y2="715.0271545885107"/><line x1="749.0358947762716" y1="715.0271545885107" x2="749.0358947762716" y2="715.0271545885107"/><line x1="749.0358947762716" y1="715.0271545885107" x2="746.6532829635322" y2="701.9771110913903"/><line x1="746.6532829635322" y1="701.9771110913903" x2="745.4619769124884" y2="695.452088234196"/><line x1="745.4619769124884" y1="695.452088234196" x2="745.4619769124884" y2="695.452088234196"/><line x1="745.4619769124884" y1="695.452088234196" x2="751.1729441599792" y2="705.0243885809602"/><line x1="751.1729441599792" y1="705.0243885809602" x2="754.0284266750908" y2="709.8105388990166"/><line x1="754.0284266750908" y1="709.8105388990166" x2="754.0284266750908" y2="709.8105388990166"/><line x1="754.0284266750908" y1="709.8105388990166" x2="755.75979504074" y2="705.4874876622441"/><line x1="755.75979504074" y1="705.4874876622441" x2="756.6254790886424" y2="703.3259627379732"/><line x1="756.6254790886424" y1="703.3259627379732" x2="756.6254790886424" y2="703.3259627379732"/><line x1="756.6254790886424" y1="703.3259627379732" x2="759.4251409090228" y2="705.8255345867359"/><line x1="759.4251409090228" y1="705.8255345867359" x2="760.8249732074436" y2="707.0753207809619"/><line x1="760.8249732074436" y1="707.0753207809619" x2="760.8249732074436" y2="707.0753207809619"/><line x1="760.8249732074436" y1="707.0753207809619" x2="761.7162161283262" y2="706.6691404970115"/><line x1="761.7162161283262" y1="706.6691404970115" x2="762.3448806565777" y2="706.3826302703037"/><line x1="762.3448806565777" y1="706.3826302703037" x2="762.7109656738127" y2="706.2157884427633"/><line x1="762.7109656738127" y1="706.2157884427633" x2="764.6065749904169" y2="705.3518743074958"/><line x1="764.6065749904169" y1="705.3518743074958" x2="765.5543796487191" y2="704.919917239862"/><line x1="765.5543796487191" y1="704.919917239862" x2="765.5543796487191" y2="704.919917239862"/><line x1="765.5543796487191" y1="704.919917239862" x2="769.8806871201851" y2="709.0827051254432"/><line x1="769.8806871201851" y1="709.0827051254432" x2="772.0438408559183" y2="711.1640990682338"/><line x1="772.0438408559183" y1="711.1640990682338" x2="772.0438408559183" y2="711.1640990682338"/><line x1="772.0438408559183" y1="711.1640990682338" x2="769.432101678502" y2="705.4302371256174"/><line x1="769.432101678502" y1="705.4302371256174" x2="768.126232783909" y2="702.5633062892316"/><line x1="768.126232783909" y1="702.5633062892316" x2="768.126232783909" y2="702.5633062892316"/><line x1="768.126232783909" y1="702.5633062892316" x2="774.9101513265683" y2="707.3100946417705"/><line x1="774.9101513265683" y1="707.3100946417705" x2="778.3021107328202" y2="709.6834881239247"/><line x1="778.3021107328202" y1="709.6834881239247" x2="778.3021107328202" y2="709.6834881239247"/><line x1="778.3021107328202" y1="709.6834881239247" x2="778.7017726572959" y2="706.4127773603612"/><line x1="778.7017726572959" y1="706.4127773603612" x2="778.9016040340526" y2="704.7774216989832"/><line x1="778.9016040340526" y1="704.7774216989832" x2="778.9016040340526" y2="704.7774216989832"/><line x1="778.9016040340526" y1="704.7774216989832" x2="771.4154572312653" y2="693.0748304597942"/><line x1="771.4154572312653" y1="693.0748304597942" x2="776.8620122093737" y2="697.6890605435875"/><line x1="666.1229835792271" y1="520.9935986842996" x2="683.9146349936389" y2="553.5005231955483"/><line x1="683.9146349936389" y1="553.5005231955483" x2="692.8104604212484" y2="569.7539850366538"/><line x1="692.8104604212484" y1="569.7539850366538" x2="692.8104604212484" y2="569.7539850366538"/><line x1="692.8104604212484" y1="569.7539850366538" x2="711.6533425601181" y2="609.943034520049"/><line x1="711.6533425601181" y1="609.943034520049" x2="730.9145513657711" y2="654.6051728227765"/><line x1="612.1738381575899" y1="494.65942459347445" x2="638.5094077118558" y2="530.6400343799069"/><line x1="638.5094077118558" y1="530.6400343799069" x2="651.2429787173598" y2="545.6887943769129"/><line x1="651.2429787173598" y1="545.6887943769129" x2="657.6097643647859" y2="553.21317548405"/><line x1="657.6097643647859" y1="553.21317548405" x2="657.6097643647859" y2="553.21317548405"/><line x1="657.6097643647859" y1="553.21317548405" x2="690.6509633971074" y2="598.4885058448695"/><line x1="690.6509633971074" y1="598.4885058448695" x2="726.2713331463697" y2="656.5308462769297"/><line x1="596.8089301874548" y1="525.5289019853633" x2="613.6942528447241" y2="545.201814211737"/><line x1="613.6942528447241" y1="545.201814211737" x2="622.1369141733587" y2="555.0382703249238"/><line x1="622.1369141733587" y1="555.0382703249238" x2="622.1369141733587" y2="555.0382703249238"/><line x1="622.1369141733587" y1="555.0382703249238" x2="636.4940964520181" y2="566.4153452225896"/><line x1="636.4940964520181" y1="566.4153452225896" x2="643.6726878709442" y2="572.1038830859413"/><line x1="643.6726878709442" y1="572.1038830859413" x2="643.6726878709442" y2="572.1038830859413"/><line x1="643.6726878709442" y1="572.1038830859413" x2="671.3510429177506" y2="599.0406649850504"/><line x1="671.3510429177506" y1="599.0406649850504" x2="725.7094409749675" y2="666.5596019010852"/><line x1="853.7288415027036" y1="901.0633499665269" x2="841.5614137168349" y2="874.6041912325687"/><line x1="841.5614137168349" y1="874.6041912325687" x2="837.3405347689287" y2="856.1390637730946"/><line x1="837.3405347689287" y1="856.1390637730946" x2="835.2300943212639" y2="846.9064994939165"/><line x1="835.2300943212639" y1="846.9064994939165" x2="835.2300943212639" y2="846.9064994939165"/><line x1="835.2300943212639" y1="846.9064994939165" x2="817.7099529704802" y2="812.9979406789046"/><line x1="817.7099529704802" y1="812.9979406789046" x2="808.9498822950882" y2="796.0436612713986"/><line x1="808.9498822950882" y1="796.0436612713986" x2="808.9498822950882" y2="796.0436612713986"/><line x1="808.9498822950882" y1="796.0436612713986" x2="766.4959438487805" y2="722.8445097427002"/><line x1="766.4959438487805" y1="722.8445097427002" x2="756.1562263845635" y2="706.3338329974571"/><line x1="871.8896368459835" y1="874.339167760621" x2="858.4333652151176" y2="853.9517921381212"/><line x1="858.4333652151176" y1="853.9517921381212" x2="851.7052298142034" y2="843.7581040472749"/><line x1="851.7052298142034" y1="843.7581040472749" x2="851.7052298142034" y2="843.7581040472749"/><line x1="851.7052298142034" y1="843.7581040472749" x2="842.3204770363385" y2="824.7879676307539"/><line x1="842.3204770363385" y1="824.7879676307539" x2="837.6281013415211" y2="815.3028995574158"/><line x1="837.6281013415211" y1="815.3028995574158" x2="837.6281013415211" y2="815.3028995574158"/><line x1="837.6281013415211" y1="815.3028995574158" x2="810.4387385978326" y2="770.7164229880643"/><line x1="810.4387385978326" y1="770.7164229880643" x2="761.9967144824129" y2="707.2192901347719"/><line x1="865.9856593185749" y1="808.3608369541794" x2="835.6865669437991" y2="774.6169627456753"/><line x1="835.6865669437991" y1="774.6169627456753" x2="803.3219695765666" y2="739.5599848827982"/><line x1="803.3219695765666" y1="739.5599848827982" x2="771.9859460847288" y2="710.1312390116309"/><line x1="822.751579689021" y1="234.4229505603922" x2="844.3891867498955" y2="206.40902458112703"/><line x1="844.3891867498955" y1="206.40902458112703" x2="841.393606123083" y2="203.08209524780918"/><line x1="841.393606123083" y1="203.08209524780918" x2="812.0454899872793" y2="222.5326333527539"/><line x1="812.0454899872793" y1="222.5326333527539" x2="796.9123445817626" y2="237.77829122843374"/><line x1="796.9123445817626" y1="237.77829122843374" x2="779.5402714104431" y2="251.8004636201226"/><line x1="779.5402714104431" y1="251.8004636201226" x2="760.2705817155106" y2="277.3782695850722"/><line x1="760.2705817155106" y1="277.3782695850722" x2="762.6432559473822" y2="280.01339128060147"/><line x1="762.6432559473822" y1="280.01339128060147" x2="790.2463611121848" y2="263.69078082776093"/><line x1="789.6635772578777" y1="263.6937907833506" x2="773.1186651771113" y2="280.02362399582216"/><line x1="773.1186651771113" y1="280.02362399582216" x2="764.8462088391701" y2="288.1885395243478"/><line x1="764.8462088391701" y1="288.1885395243478" x2="764.8462088391701" y2="288.1885395243478"/><line x1="764.8462088391701" y1="288.1885395243478" x2="747.764923979459" y2="300.6895557153696"/><line x1="747.764923979459" y1="300.6895557153696" x2="739.2242815125962" y2="306.9400645170182"/><line x1="739.2242815125962" y1="306.9400645170182" x2="739.2242815125962" y2="306.9400645170182"/><line x1="739.2242815125962" y1="306.9400645170182" x2="747.8360297620035" y2="311.08857173441527"/><line x1="747.8360297620035" y1="311.08857173441527" x2="752.1419035151348" y2="313.1628256776791"/><line x1="752.1419035151348" y1="313.1628256776791" x2="752.1419035151348" y2="313.1628256776791"/><line x1="752.1419035151348" y1="313.1628256776791" x2="731.1465945315956" y2="345.1627993242297"/><line x1="823.1591434957472" y1="233.64290216591425" x2="845.2991858991568" y2="214.39629032411597"/><line x1="845.2991858991568" y1="214.39629032411597" x2="856.3692060601586" y2="204.77298399463737"/><line x1="856.3692060601586" y1="204.77298399463737" x2="856.3692060601586" y2="204.77298399463737"/><line x1="856.3692060601586" y1="204.77298399463737" x2="871.6279139830922" y2="188.82689505145913"/><line x1="871.6279139830922" y1="188.82689505145913" x2="879.2572682791241" y2="180.85385095144247"/><line x1="879.2572682791241" y1="180.85385095144247" x2="879.2572682791241" y2="180.85385095144247"/><line x1="879.2572682791241" y1="180.85385095144247" x2="887.4763632683095" y2="177.69104077870827"/><line x1="887.4763632683095" y1="177.69104077870827" x2="891.5859103913299" y2="176.10963602690634"/><line x1="891.5859103913299" y1="176.10963602690634" x2="891.5859103913299" y2="176.10963602690634"/><line x1="891.5859103913299" y1="176.10963602690634" x2="889.6804648789014" y2="183.4295657695653"/><line x1="889.6804648789014" y1="183.4295657695653" x2="888.727741081984" y2="187.0895302323153"/><line x1="888.727741081984" y1="187.0895302323153" x2="888.727741081984" y2="187.0895302323153"/><line x1="888.727741081984" y1="187.0895302323153" x2="930.4574824344443" y2="163.01125837881048"/><line x1="811.5487234540171" y1="222.98002639274483" x2="810.5107227545743" y2="222.59542307885198"/><line x1="810.5107227545743" y1="222.59542307885198" x2="809.99172136415" y2="222.403121013326"/><line x1="809.99172136415" y1="222.403121013326" x2="809.99172136415" y2="222.403121013326"/><line x1="809.99172136415" y1="222.403121013326" x2="816.7847721814825" y2="215.7787887921256"/><line x1="816.7847721814825" y1="215.7787887921256" x2="820.1812969210182" y2="212.46662193838057"/><line x1="820.1812969210182" y1="212.46662193838057" x2="820.1812969210182" y2="212.46662193838057"/><line x1="820.1812969210182" y1="212.46662193838057" x2="821.8049791428722" y2="209.051500978596"/><line x1="821.8049791428722" y1="209.051500978596" x2="822.6168198822269" y2="207.34394083326896"/><line x1="822.6168198822269" y1="207.34394083326896" x2="822.6168198822269" y2="207.34394083326896"/><line x1="822.6168198822269" y1="207.34394083326896" x2="815.9974583267308" y2="207.65181004461778"/><line x1="815.9974583267308" y1="207.65181004461778" x2="812.6877772514244" y2="207.80574357258203"/><line x1="812.6877772514244" y1="207.80574357258203" x2="812.6877772514244" y2="207.80574357258203"/><line x1="812.6877772514244" y1="207.80574357258203" x2="815.0405952721175" y2="204.0458162299629"/><line x1="815.0405952721175" y1="204.0458162299629" x2="816.2170039108915" y2="202.16585289321856"/><line x1="816.2170039108915" y1="202.16585289321856" x2="816.2170039108915" y2="202.16585289321856"/><line x1="816.2170039108915" y1="202.16585289321856" x2="812.8082793534733" y2="203.98940717706253"/><line x1="812.8082793534733" y1="203.98940717706253" x2="811.1039166661843" y2="204.90118535968753"/><line x1="811.1039166661843" y1="204.90118535968753" x2="811.1039166661843" y2="204.90118535968753"/><line x1="811.1039166661843" y1="204.90118535968753" x2="807.9658984215466" y2="205.0298507927519"/><line x1="807.9658984215466" y1="205.0298507927519" x2="806.3968882215177" y2="205.09418380684224"/><line x1="806.3968882215177" y1="205.09418380684224" x2="806.3968882215177" y2="205.09418380684224"/><line x1="806.3968882215177" y1="205.09418380684224" x2="810.8758315357317" y2="199.97267326784078"/><line x1="810.8758315357317" y1="199.97267326784078" x2="813.1153028212661" y2="197.4119183329053"/><line x1="813.1153028212661" y1="197.4119183329053" x2="813.1153028212661" y2="197.4119183329053"/><line x1="813.1153028212661" y1="197.4119183329053" x2="806.7082191239591" y2="202.00117022896762"/><line x1="806.7082191239591" y1="202.00117022896762" x2="803.5046769407402" y2="204.29579580542637"/><line x1="803.5046769407402" y1="204.29579580542637" x2="803.5046769407402" y2="204.29579580542637"/><line x1="803.5046769407402" y1="204.29579580542637" x2="804.4798629526617" y2="200.60592040905502"/><line x1="804.4798629526617" y1="200.60592040905502" x2="804.9674552524848" y2="198.76098267386223"/><line x1="804.9674552524848" y1="198.76098267386223" x2="804.9674552524848" y2="198.76098267386223"/><line x1="804.9674552524848" y1="198.76098267386223" x2="801.8154433201512" y2="198.2286256811144"/><line x1="801.8154433201512" y1="198.2286256811144" x2="800.239436982412" y2="197.96244751930578"/><line x1="800.239436982412" y1="197.96244751930578" x2="800.239436982412" y2="197.96244751930578"/><line x1="800.239436982412" y1="197.96244751930578" x2="797.1593724498688" y2="202.4647508841118"/><line x1="797.1593724498688" y1="202.4647508841118" x2="795.6193405551697" y2="204.71590223194937"/><line x1="795.6193405551697" y1="204.71590223194937" x2="795.6193405551697" y2="204.71590223194937"/><line x1="795.6193405551697" y1="204.71590223194937" x2="793.087948300029" y2="205.98649714460038"/><line x1="793.087948300029" y1="205.98649714460038" x2="791.822252544031" y2="206.62179426636052"/><line x1="791.822252544031" y1="206.62179426636052" x2="791.822252544031" y2="206.62179426636052"/><line x1="791.822252544031" y1="206.62179426636052" x2="795.4451235509978" y2="200.94953668057465"/><line x1="795.4451235509978" y1="200.94953668057465" x2="797.2565583483436" y2="198.11340785067458"/><line x1="797.2565583483436" y1="198.11340785067458" x2="797.2565583483436" y2="198.11340785067458"/><line x1="797.2565583483436" y1="198.11340785067458" x2="797.7633618614793" y2="193.8897038909074"/><line x1="797.7633618614793" y1="193.8897038909074" x2="798.0167636180472" y2="191.77785191102387"/><line x1="798.0167636180472" y1="191.77785191102387" x2="798.0167636180472" y2="191.77785191102387"/><line x1="798.0167636180472" y1="191.77785191102387" x2="792.9291376254084" y2="193.29595474468996"/><line x1="792.9291376254084" y1="193.29595474468996" x2="790.3853238859441" y2="194.05500683065367"/><line x1="790.3853238859441" y1="194.05500683065367" x2="790.3853238859441" y2="194.05500683065367"/><line x1="790.3853238859441" y1="194.05500683065367" x2="805.9642809037382" y2="175.31930622638606"/><line x1="805.9642809037382" y1="175.31930622638606" x2="813.7537586694904" y2="165.9514565933828"/><line x1="813.7537586694904" y1="165.9514565933828" x2="813.7537586694904" y2="165.9514565933828"/><line x1="813.7537586694904" y1="165.9514565933828" x2="820.2278509256453" y2="152.5226121274697"/><line x1="820.2278509256453" y1="152.5226121274697" x2="823.4648970167156" y2="145.80819060065085"/><line x1="823.4648970167156" y1="145.80819060065085" x2="823.4648970167156" y2="145.80819060065085"/><line x1="823.4648970167156" y1="145.80819060065085" x2="809.2093743220041" y2="150.72215813359952"/><line x1="809.2093743220041" y1="150.72215813359952" x2="802.0816126400832" y2="153.17914152850136"/><line x1="802.0816126400832" y1="153.17914152850136" x2="802.0816126400832" y2="153.17914152850136"/><line x1="802.0816126400832" y1="153.17914152850136" x2="772.205648819027" y2="174.88265642114365"/><line x1="772.205648819027" y1="174.88265642114365" x2="757.2676672430641" y2="185.73441423903722"/><line x1="757.2676672430641" y1="185.73441423903722" x2="757.2676672430641" y2="185.73441423903722"/><line x1="757.2676672430641" y1="185.73441423903722" x2="736.3018932161879" y2="208.46059560824366"/><line x1="736.3018932161879" y1="208.46059560824366" x2="725.819006537315" y2="219.8236866644194"/><line x1="725.819006537315" y1="219.8236866644194" x2="725.819006537315" y2="219.8236866644194"/><line x1="725.819006537315" y1="219.8236866644194" x2="715.5309667319355" y2="234.96696416216466"/><line x1="715.5309667319355" y1="234.96696416216466" x2="710.3869468292457" y2="242.53860291103726"/><line x1="710.3869468292457" y1="242.53860291103726" x2="710.3869468292457" y2="242.53860291103726"/><line x1="710.3869468292457" y1="242.53860291103726" x2="709.7988711888011" y2="248.10392243972902"/><line x1="709.7988711888011" y1="248.10392243972902" x2="709.5048333315717" y2="250.88658291021258"/><line x1="709.5048333315717" y1="250.88658291021258" x2="709.5048333315717" y2="250.88658291021258"/><line x1="709.5048333315717" y1="250.88658291021258" x2="720.6989162239108" y2="246.90908704124342"/><line x1="720.6989162239108" y1="246.90908704124342" x2="726.2959572985078" y2="244.92033944132416"/><line x1="726.2959572985078" y1="244.92033944132416" x2="726.2959572985078" y2="244.92033944132416"/><line x1="726.2959572985078" y1="244.92033944132416" x2="747.409286055527" y2="230.69929515611494"/><line x1="747.409286055527" y1="230.69929515611494" x2="757.9659497278988" y2="223.5887729765033"/><line x1="757.9659497278988" y1="223.5887729765033" x2="757.9659497278988" y2="223.5887729765033"/><line x1="757.9659497278988" y1="223.5887729765033" x2="757.9014489761413" y2="226.01269677355967"/><line x1="757.9014489761413" y1="226.01269677355967" x2="757.8691978941249" y2="227.22465863508083"/><line x1="757.8691978941249" y1="227.22465863508083" x2="757.8691978941249" y2="227.22465863508083"/><line x1="757.8691978941249" y1="227.22465863508083" x2="770.4606444597797" y2="223.04901995870537"/><line x1="770.4606444597797" y1="223.04901995870537" x2="776.7563670734763" y2="220.96119987737285"/><line x1="776.7563670734763" y1="220.96119987737285" x2="776.7563670734763" y2="220.96119987737285"/><line x1="776.7563670734763" y1="220.96119987737285" x2="768.0720374601314" y2="227.94879443764165"/><line x1="768.0720374601314" y1="227.94879443764165" x2="763.7298726534589" y2="231.44259171777608"/><line x1="763.7298726534589" y1="231.44259171777608" x2="763.7298726534589" y2="231.44259171777608"/><line x1="763.7298726534589" y1="231.44259171777608" x2="768.2518114879892" y2="232.5554573361322"/><line x1="768.2518114879892" y1="232.5554573361322" x2="770.512780533682" y2="233.11189047987546"/><line x1="770.512780533682" y1="233.11189047987546" x2="770.512780533682" y2="233.11189047987546"/><line x1="770.512780533682" y1="233.11189047987546" x2="768.4271718894945" y2="236.23218076141353"/><line x1="768.4271718894945" y1="236.23218076141353" x2="767.3843676044079" y2="237.79232519604483"/><line x1="767.3843676044079" y1="237.79232519604483" x2="767.3843676044079" y2="237.79232519604483"/><line x1="767.3843676044079" y1="237.79232519604483" x2="767.9106319367502" y2="238.61836664469575"/><line x1="767.9106319367502" y1="238.61836664469575" x2="768.281847800632" y2="239.20103786713557"/><line x1="768.281847800632" y1="239.20103786713557" x2="768.4980137097641" y2="239.54034020162518"/><line x1="768.4980137097641" y1="239.54034020162518" x2="769.61733953113" y2="241.29726804351333"/><line x1="769.61733953113" y1="241.29726804351333" x2="770.1770017356752" y2="242.17573192745016"/><line x1="770.1770017356752" y1="242.17573192745016" x2="770.1770017356752" y2="242.17573192745016"/><line x1="770.1770017356752" y1="242.17573192745016" x2="766.6568314421506" y2="247.03928417067644"/><line x1="766.6568314421506" y1="247.03928417067644" x2="764.8967462953883" y2="249.47106029228956"/><line x1="764.8967462953883" y1="249.47106029228956" x2="764.8967462953883" y2="249.47106029228956"/><line x1="764.8967462953883" y1="249.47106029228956" x2="770.211322104369" y2="246.08673970311276"/><line x1="770.211322104369" y1="246.08673970311276" x2="772.8686110865694" y2="244.39457911096616"/><line x1="772.8686110865694" y1="244.39457911096616" x2="772.8686110865694" y2="244.39457911096616"/><line x1="772.8686110865694" y1="244.39457911096616" x2="769.1121571322182" y2="251.77310227932932"/><line x1="769.1121571322182" y1="251.77310227932932" x2="767.2339301920497" y2="255.46236315737323"/><line x1="767.2339301920497" y1="255.46236315737323" x2="767.2339301920497" y2="255.46236315737323"/><line x1="767.2339301920497" y1="255.46236315737323" x2="770.5284334817914" y2="255.4029413833096"/><line x1="770.5284334817914" y1="255.4029413833096" x2="772.1756851266623" y2="255.37323049627764"/><line x1="772.1756851266623" y1="255.37323049627764" x2="772.1756851266623" y2="255.37323049627764"/><line x1="772.1756851266623" y1="255.37323049627764" x2="782.7225166184493" y2="246.3312517043948"/><line x1="782.7225166184493" y1="246.3312517043948" x2="778.9112065196252" y2="252.36697863631053"/><line x1="938.474991213515" y1="118.11442192330092" x2="908.7605411555769" y2="140.25701569607907"/><line x1="908.7605411555769" y1="140.25701569607907" x2="893.9033157550356" y2="151.32831291703337"/><line x1="893.9033157550356" y1="151.32831291703337" x2="893.9033157550356" y2="151.32831291703337"/><line x1="893.9033157550356" y1="151.32831291703337" x2="856.727805676846" y2="175.58105206345857"/><line x1="856.727805676846" y1="175.58105206345857" x2="815.1809591348019" y2="200.8705797230278"/><line x1="957.0446796968223" y1="61.0252127604887" x2="925.0794343550292" y2="92.11201873148235"/><line x1="925.0794343550292" y1="92.11201873148235" x2="911.9492976758249" y2="106.81605076280414"/><line x1="911.9492976758249" y1="106.81605076280414" x2="905.3842293732299" y2="114.16806607232738"/><line x1="905.3842293732299" y1="114.16806607232738" x2="905.3842293732299" y2="114.16806607232738"/><line x1="905.3842293732299" y1="114.16806607232738" x2="865.1479615439516" y2="153.1888185502769"/><line x1="865.1479615439516" y1="153.1888185502769" x2="812.6278817512588" y2="196.54046648377948"/><line x1="924.3372193071335" y1="50.10610264904835" x2="907.2057452251235" y2="69.56503870640029"/><line x1="907.2057452251235" y1="69.56503870640029" x2="898.6400081841184" y2="79.2945067350762"/><line x1="898.6400081841184" y1="79.2945067350762" x2="898.6400081841184" y2="79.2945067350762"/><line x1="898.6400081841184" y1="79.2945067350762" x2="889.3717877760484" y2="95.09534869609777"/><line x1="889.3717877760484" y1="95.09534869609777" x2="884.7376772004412" y2="102.99577001117399"/><line x1="884.7376772004412" y1="102.99577001117399" x2="884.7376772004412" y2="102.99577001117399"/><line x1="884.7376772004412" y1="102.99577001117399" x2="861.9151247124352" y2="134.1536366761025"/><line x1="861.9151247124352" y1="134.1536366761025" x2="802.6185042699541" y2="197.37984236423964"/><line x1="588.2137332699929" y1="356.7901304803212" x2="612.7220139651987" y2="341.0587113523118"/><line x1="612.7220139651987" y1="341.0587113523118" x2="630.4200072616019" y2="334.3090606600189"/><line x1="630.4200072616019" y1="334.3090606600189" x2="639.2690035752383" y2="330.9342349423002"/><line x1="639.2690035752383" y1="330.9342349423002" x2="639.2690035752383" y2="330.9342349423002"/><line x1="639.2690035752383" y1="330.9342349423002" x2="670.4092349688875" y2="308.86543845427764"/><line x1="670.4092349688875" y1="308.86543845427764" x2="685.9793502941397" y2="297.8310405448316"/><line x1="685.9793502941397" y1="297.8310405448316" x2="685.9793502941397" y2="297.8310405448316"/><line x1="685.9793502941397" y1="297.8310405448316" x2="752.5576863764309" y2="245.6029094155137"/><line x1="752.5576863764309" y1="245.6029094155137" x2="767.4686725511581" y2="233.06597462017473"/><line x1="617.205516895036" y1="371.0548552950083" x2="635.5217329292093" y2="354.8921648888278"/><line x1="635.5217329292093" y1="354.8921648888278" x2="644.6798412808612" y2="346.81082005730985"/><line x1="644.6798412808612" y1="346.81082005730985" x2="644.6798412808612" y2="346.81082005730985"/><line x1="644.6798412808612" y1="346.81082005730985" x2="662.1592557448295" y2="334.8772670067643"/><line x1="662.1592557448295" y1="334.8772670067643" x2="670.8989633113789" y2="328.91049085306383"/><line x1="670.8989633113789" y1="328.91049085306383" x2="670.8989633113789" y2="328.91049085306383"/><line x1="670.8989633113789" y1="328.91049085306383" x2="711.2674994295348" y2="295.7804949135174"/><line x1="711.2674994295348" y1="295.7804949135174" x2="767.4048565810111" y2="238.97281169641164"/><line x1="681.720026769627" y1="356.02594733111624" x2="710.9186892718676" y2="321.3254840285209"/><line x1="710.9186892718676" y1="321.3254840285209" x2="741.1302136591331" y2="284.39686837860785"/><line x1="741.1302136591331" y1="284.39686837860785" x2="765.9114294373439" y2="249.27011509304918"/></g>
</svg>